# Blender 3.4.1
# www.blender.org
o Cube_Cube.001
v -0.5 -0 0.5
v -0.5 1 0.5
v -0.5 0 -0.5
v -0.5 1 -0.5
v 0.5 -0 0.5
v 0.5 1 0.5
v 0.5 0 -0.5
v 0.5 1 -0.5
v 0.5 0.125 0.375
v 0.5 0.875 0.375
v 0.5 0.125 -0.375
v 0.5 0.875 -0.375
v -0.375 -0 0.375
v -0.375 0 -0.375
v 0.375 -0 0.375
v 0.375 0 -0.375
v -0.5 0.125 0.375
v -0.5 0.875 0.375
v -0.5 0.125 -0.375
v -0.5 0.875 -0.375
v -0.375 0.125 0.5
v -0.375 0.875 0.5
v 0.375 0.125 0.5
v 0.375 0.875 0.5
v -0.375 0.125 -0.5
v -0.375 0.875 -0.5
v 0.375 0.125 -0.5
v 0.375 0.875 -0.5
v -0.375 1 0.375
v -0.375 1 -0.375
v 0.375 1 0.375
v 0.375 1 -0.375
v -0.375 0.125 0.375
v -0.375 0.875 0.375
v -0.375 0.125 -0.375
v -0.375 0.875 -0.375
v 0.375 0.125 0.375
v 0.375 0.875 0.375
v 0.375 0.125 -0.375
v 0.375 0.875 -0.375
v -0.3125 0.1875 -0.4375
v -0.3125 0.8125 -0.4375
v 0.3125 0.1875 -0.4375
v 0.3125 0.8125 -0.4375
v -0.375 0.125 -0.375
v -0.375 0.875 -0.375
v 0.375 0.125 -0.375
v 0.375 0.875 -0.375
v -0.1875 0.3125 -0.4375
v -0.1875 0.6875 -0.4375
v 0.1875 0.3125 -0.4375
v 0.1875 0.6875 -0.4375
v -0.1875 0.6875 -0.5
v -0.1875 0.3125 -0.5
v 0.1875 0.3125 -0.5
v 0.1875 0.6875 -0.5
v -0.4375 0.1875 0.3125
v -0.4375 0.8125 0.3125
v -0.4375 0.1875 -0.3125
v -0.4375 0.8125 -0.3125
v -0.375 0.125 0.375
v -0.375 0.875 0.375
v -0.375 0.125 -0.375
v -0.375 0.875 -0.375
v -0.4375 0.3125 0.1875
v -0.4375 0.6875 0.1875
v -0.4375 0.3125 -0.1875
v -0.4375 0.6875 -0.1875
v -0.5 0.6875 0.1875
v -0.5 0.3125 0.1875
v -0.5 0.3125 -0.1875
v -0.5 0.6875 -0.1875
v 0.3125 0.1875 0.4375
v 0.3125 0.8125 0.4375
v -0.3125 0.1875 0.4375
v -0.3125 0.8125 0.4375
v 0.375 0.125 0.375
v 0.375 0.875 0.375
v -0.375 0.125 0.375
v -0.375 0.875 0.375
v 0.1875 0.3125 0.4375
v 0.1875 0.6875 0.4375
v -0.1875 0.3125 0.4375
v -0.1875 0.6875 0.4375
v 0.1875 0.6875 0.5
v 0.1875 0.3125 0.5
v -0.1875 0.3125 0.5
v -0.1875 0.6875 0.5
v 0.4375 0.1875 -0.3125
v 0.4375 0.8125 -0.3125
v 0.4375 0.1875 0.3125
v 0.4375 0.8125 0.3125
v 0.375 0.125 -0.375
v 0.375 0.875 -0.375
v 0.375 0.125 0.375
v 0.375 0.875 0.375
v 0.4375 0.3125 -0.1875
v 0.4375 0.6875 -0.1875
v 0.4375 0.3125 0.1875
v 0.4375 0.6875 0.1875
v 0.5 0.6875 -0.1875
v 0.5 0.3125 -0.1875
v 0.5 0.3125 0.1875
v 0.5 0.6875 0.1875
v 0.375 0.9375 0.375
v 0.375 0.9375 -0.375
v -0.375 0.9375 -0.375
v -0.375 0.9375 0.375
v 0.375 0.0625 0.375
v 0.375 0.0625 -0.375
v -0.375 0.0625 0.375
v -0.375 0.0625 -0.375
v 0 3.6875 -0.375
v -0.14351 3.6875 -0.34645
v -0.26516 3.6875 -0.26516
v -0.34646 3.6875 -0.1435
v -0.375 3.6875 0
v -0.34646 3.6875 0.14351
v -0.26516 3.6875 0.26517
v -0.14351 3.6875 0.34646
v 0 3.6875 0.375
v 0.14351 3.6875 0.34646
v 0.26516 3.6875 0.26517
v 0.34646 3.6875 0.14351
v 0.375 3.6875 0
v 0.34646 3.6875 -0.1435
v 0.26516 3.6875 -0.26516
v 0.14351 3.6875 -0.34645
v 0 3.6875 -0.3125
v -0.11959 3.6875 -0.28871
v -0.22097 3.6875 -0.22097
v -0.28871 3.6875 -0.11959
v -0.3125 3.6875 0
v -0.28871 3.6875 0.11959
v -0.22097 3.6875 0.22097
v -0.11959 3.6875 0.28871
v 0 3.6875 0.3125
v 0.11959 3.6875 0.28871
v 0.22097 3.6875 0.22097
v 0.28871 3.6875 0.11959
v 0.3125 3.6875 0
v 0.28871 3.6875 -0.11959
v 0.22097 3.6875 -0.22097
v 0.11959 3.6875 -0.28871
v 0 3.9375 -0.3125
v -0.11959 3.9375 -0.28871
v -0.22097 3.9375 -0.22097
v -0.28871 3.9375 -0.11959
v -0.3125 3.9375 0
v -0.28871 3.9375 0.11959
v -0.22097 3.9375 0.22097
v -0.11959 3.9375 0.28871
v 0 3.9375 0.3125
v 0.11959 3.9375 0.28871
v 0.22097 3.9375 0.22097
v 0.28871 3.9375 0.11959
v 0.3125 3.9375 0
v 0.28871 3.9375 -0.11959
v 0.22097 3.9375 -0.22097
v 0.11959 3.9375 -0.28871
v -0.125 3.9375 0.125
v 0.125 3.9375 0.125
v -0.125 3.9375 -0.125
v 0.125 3.9375 -0.125
v -0.125 4 -0.125
v -0.125 4 0.125
v 0.125 4 0.125
v 0.125 4 -0.125
v 0.03125 4 -0.125
v -0.03125 4 -0.125
v 0.03125 4 -0.375
v -0.03125 4 -0.375
v -0.0625 4 -0.125
v -0.125 4 -0.125
v -0.0625 4 -0.375
v -0.125 4 -0.375
v 0.125 4 -0.125
v 0.0625 4 -0.125
v 0.125 4 -0.375
v 0.0625 4 -0.375
v 0.03125 3.9375 -0.4375
v -0.03125 3.9375 -0.4375
v -0.0625 3.9375 -0.4375
v -0.125 3.9375 -0.4375
v 0.125 3.9375 -0.4375
v 0.0625 3.9375 -0.4375
v 0.03125 1 -0.4375
v -0.03125 1 -0.4375
v -0.0625 1 -0.4375
v -0.125 1 -0.4375
v 0.125 1 -0.4375
v 0.0625 1 -0.4375
v 0 0.9375 -0.375
v -0.14351 0.9375 -0.34646
v -0.26516 0.9375 -0.26516
v -0.34646 0.9375 -0.14351
v -0.375 0.9375 0
v -0.34646 0.9375 0.14351
v -0.26516 0.9375 0.26516
v -0.14351 0.9375 0.34646
v 0 0.9375 0.375
v 0.14351 0.9375 0.34646
v 0.26516 0.9375 0.26516
v 0.34646 0.9375 0.14351
v 0.375 0.9375 0
v 0.34646 0.9375 -0.14351
v 0.26516 0.9375 -0.26516
v 0.14351 0.9375 -0.34646
v 0 3.6875 -0.375
v -0.14351 3.6875 -0.34645
v -0.26516 3.6875 -0.26516
v -0.34646 3.6875 -0.1435
v -0.375 3.6875 0
v -0.34646 3.6875 0.14351
v -0.26516 3.6875 0.26517
v -0.14351 3.6875 0.34646
v 0 3.6875 0.375
v 0.14351 3.6875 0.34646
v 0.26516 3.6875 0.26517
v 0.34646 3.6875 0.14351
v 0.375 3.6875 0
v 0.34646 3.6875 -0.1435
v 0.26516 3.6875 -0.26516
v 0.14351 3.6875 -0.34645
v 0 3.6875 -0.3125
v -0.11959 3.6875 -0.28871
v -0.22097 3.6875 -0.22097
v -0.28871 3.6875 -0.11959
v -0.3125 3.6875 0
v -0.28871 3.6875 0.11959
v -0.22097 3.6875 0.22097
v -0.11959 3.6875 0.28871
v 0 3.6875 0.3125
v 0.11959 3.6875 0.28871
v 0.22097 3.6875 0.22097
v 0.28871 3.6875 0.11959
v 0.3125 3.6875 0
v 0.28871 3.6875 -0.11959
v 0.22097 3.6875 -0.22097
v 0.11959 3.6875 -0.28871
v 0 3.9375 -0.3125
v -0.11959 3.9375 -0.28871
v -0.22097 3.9375 -0.22097
v -0.28871 3.9375 -0.11959
v -0.3125 3.9375 0
v -0.28871 3.9375 0.11959
v -0.22097 3.9375 0.22097
v -0.11959 3.9375 0.28871
v 0 3.9375 0.3125
v 0.11959 3.9375 0.28871
v 0.22097 3.9375 0.22097
v 0.28871 3.9375 0.11959
v 0.3125 3.9375 0
v 0.28871 3.9375 -0.11959
v 0.22097 3.9375 -0.22097
v 0.11959 3.9375 -0.28871
v 0.125 2.46875 -0.4375
v 0 2.3125 -0.375
v 0 2.3125 0.375
v 0.0625 2.46875 -0.4375
v -0.14351 2.3125 -0.34646
v 0.14351 2.3125 0.34646
v -0.26516 2.3125 -0.26516
v 0.26516 2.3125 0.26516
v -0.34646 2.3125 -0.14351
v 0.34646 2.3125 0.14351
v 0.03125 2.46875 -0.4375
v -0.375 2.3125 0
v 0.375 2.3125 0
v -0.03125 2.46875 -0.4375
v -0.34646 2.3125 0.14351
v 0.34646 2.3125 -0.14351
v -0.0625 2.46875 -0.4375
v -0.26516 2.3125 0.26516
v 0.26516 2.3125 -0.26516
v -0.125 2.46875 -0.4375
v -0.14351 2.3125 0.34646
v 0.14351 2.3125 -0.34646
vn -0.0000 -1.0000 -0.0000
vn 1.0000 -0.0000 -0.0000
vn -1.0000 -0.0000 -0.0000
vn -0.0000 -0.0000 1.0000
vn -0.0000 -0.0000 -1.0000
vn -0.0000 1.0000 -0.0000
vn 0.3827 -0.0000 0.9239
vn -0.9239 -0.0000 -0.3827
vn -0.7071 -0.0000 -0.7071
vn 0.9239 -0.0000 0.3827
vn 0.7071 -0.0000 0.7071
vn 0.9239 -0.0000 -0.3827
vn -0.7071 -0.0000 0.7071
vn -0.9239 -0.0000 0.3827
vn 0.7071 -0.0000 -0.7071
vn -0.0000 -0.7071 -0.7071
vn -0.7071 -0.7071 -0.0000
vn -0.0000 0.7071 -0.7071
vn -0.7071 0.7071 -0.0000
vn -0.0000 -0.7071 0.7071
vn 0.7071 -0.7071 -0.0000
vn -0.0000 0.7071 0.7071
vn -0.3827 -0.0000 0.9239
vn 0.7071 0.7071 -0.0000
vn -0.3827 -0.0000 -0.9239
vn 0.3827 -0.0000 -0.9239
vt 0.03636 0.06667
vt 0.27273 0.06667
vt 0.04546 0.05333
vt 0.04546 0.29333
vt 0.27273 0.28
vt 0.03636 0.28
vt 0.19091 0.05333
vt 0.27273 0.06667
vt 0.2 0.06667
vt 0.27273 0.28
vt 0.2 0.28
vt 0.19091 0.29333
vt 0.04546 0.29333
vt 0.27273 0.06667
vt 0.03636 0.28
vt 0.27273 0.28
vt 0.03636 0.06667
vt 0.04546 0.05333
vt 0.19091 0.29333
vt 0.2 0.28
vt 0.27273 0.06667
vt 0.27273 0.28
vt 0.19091 0.05333
vt 0.2 0.06667
vt 0.29091 0.09333
vt 0.06364 0.32
vt 0.06364 0.02667
vt 0.29091 0.25333
vt 0.17273 0.32
vt 0.25455 0.09333
vt 0.17273 0.02667
vt 0.25455 0.25333
vt 0.05455 0.09333
vt 0.06364 0.08
vt 0.18182 0.09333
vt 0.17273 0.08
vt 0.06364 0.26667
vt 0.05455 0.25333
vt 0.18182 0.25333
vt 0.17273 0.26667
vt 0.25455 0.09333
vt 0.06364 0.02667
vt 0.06364 0.32
vt 0.25455 0.25333
vt 0.29091 0.09333
vt 0.17273 0.02667
vt 0.17273 0.32
vt 0.29091 0.25333
vt 0.29091 0.09333
vt 0.01818 0.09333
vt 0.01818 0.25333
vt 0.29091 0.25333
vt 0.25455 0.09333
vt 0.01818 0.25333
vt 0.25455 0.25333
vt 0.01818 0.09333
vt 0.21818 0.09333
vt 0.25455 0.09333
vt 0.21818 0.25333
vt 0.25455 0.25333
vt 0.29091 0.09333
vt 0.21818 0.25333
vt 0.29091 0.25333
vt 0.21818 0.09333
vt 0.06364 0.26667
vt 0.05455 0.25333
vt 0.18182 0.25333
vt 0.17273 0.26667
vt 0.05455 0.09333
vt 0.06364 0.08
vt 0.17273 0.08
vt 0.18182 0.09333
vt 0.23636 0.09333
vt 0.06364 -0
vt 0 0.09333
vt 0.30909 0.09333
vt -0 0.25333
vt 0.23636 0.25333
vt 0.06364 0.34667
vt 0.30909 0.25333
vt 0.30909 0.09333
vt 0.17273 -0
vt 0.23636 0.09333
vt 0.17273 0.34667
vt 0.30909 0.25333
vt 0.23636 0.25333
vt 0.30909 0.09333
vt 0.23636 0.09333
vt 0.06364 0.34667
vt 0 0.25333
vt 0.06364 -0
vt 0.23636 0.25333
vt -0 0.09333
vt 0.30909 0.25333
vt 0.17273 0.34667
vt 0.30909 0.09333
vt 0.23636 0.25333
vt 0.23636 0.09333
vt 0.23636 0.09333
vt 0.30909 0.25333
vt 0.17273 -0
vt 0.23636 0.25333
vt 0.40909 0.01333
vt 0.40909 0.14667
vt 0.31818 0.01333
vt 0.31818 0.14667
vt 0.41818 0
vt 0.41818 0.16
vt 0.30909 0
vt 0.30909 0.16
vt 0.37273 0.16
vt 0.38182 0.17333
vt 0.38182 0.25333
vt 0.37273 0.26667
vt 0.30909 0.17333
vt 0.31818 0.16
vt 0.31818 0.26667
vt 0.30909 0.25333
vt 0.37273 0.25333
vt 0.37273 0.17333
vt 0.31818 0.17333
vt 0.31818 0.25333
vt 0.40909 0.01333
vt 0.40909 0.14667
vt 0.31818 0.01333
vt 0.31818 0.14667
vt 0.41818 0
vt 0.41818 0.16
vt 0.30909 0
vt 0.30909 0.16
vt 0.37273 0.16
vt 0.38182 0.17333
vt 0.38182 0.25333
vt 0.37273 0.26667
vt 0.30909 0.17333
vt 0.31818 0.16
vt 0.31818 0.26667
vt 0.30909 0.25333
vt 0.37273 0.25333
vt 0.37273 0.17333
vt 0.31818 0.17333
vt 0.31818 0.25333
vt 0.40909 0.01333
vt 0.40909 0.14667
vt 0.31818 0.01333
vt 0.31818 0.14667
vt 0.41818 0
vt 0.41818 0.16
vt 0.30909 0
vt 0.30909 0.16
vt 0.37273 0.16
vt 0.38182 0.17333
vt 0.38182 0.25333
vt 0.37273 0.26667
vt 0.30909 0.17333
vt 0.31818 0.16
vt 0.31818 0.26667
vt 0.30909 0.25333
vt 0.37273 0.25333
vt 0.37273 0.17333
vt 0.31818 0.17333
vt 0.31818 0.25333
vt 0.40909 0.01333
vt 0.40909 0.14667
vt 0.31818 0.01333
vt 0.31818 0.14667
vt 0.41818 0
vt 0.41818 0.16
vt 0.30909 0
vt 0.30909 0.16
vt 0.37273 0.16
vt 0.38182 0.17333
vt 0.38182 0.25333
vt 0.37273 0.26667
vt 0.31818 0.16
vt 0.30909 0.17333
vt 0.31818 0.26667
vt 0.30909 0.25333
vt 0.37273 0.25333
vt 0.37273 0.17333
vt 0.31818 0.17333
vt 0.31818 0.25333
vt 0.06364 0.09333
vt 0.17273 0.09333
vt 0.17273 0.25333
vt 0.06364 0.25333
vt 0.06364 0.25333
vt 0.41818 0.85333
vt 1 0.85333
vt 0.17273 0.25333
vt 0.41818 0
vt 0.06364 0.09333
vt 1 0
vt 0.17273 0.09333
vt 0 0.93333
vt 0.29091 0.93333
vt 0.01818 0.93333
vt 0.03636 0.93333
vt 0.05455 0.93333
vt 0.07273 0.93333
vt 0.09091 0.93333
vt 0.10909 0.93333
vt 0.12727 0.93333
vt 0.14546 0.93333
vt 0.16364 0.93333
vt 0.18182 0.93333
vt 0.2 0.93333
vt 0.21818 0.93333
vt 0.23636 0.93333
vt 0.25455 0.93333
vt 0.27273 0.93333
vt 0.29091 0.94667
vt 0 0.94667
vt 0.01818 0.94667
vt 0.03636 0.94667
vt 0.05455 0.94667
vt 0.07273 0.94667
vt 0.09091 0.94667
vt 0.10909 0.94667
vt 0.12727 0.94667
vt 0.14546 0.94667
vt 0.16364 0.94667
vt 0.18182 0.94667
vt 0.2 0.94667
vt 0.21818 0.94667
vt 0.23636 0.94667
vt 0.25455 0.94667
vt 0.27273 0.94667
vt 0.3815 0.33333
vt 0.37806 0.35867
vt 0.36828 0.38015
vt 0.35364 0.3945
vt 0.33636 0.39953
vt 0.31909 0.3945
vt 0.30445 0.38015
vt 0.29466 0.35867
vt 0.29123 0.33333
vt 0.29466 0.308
vt 0.30445 0.28652
vt 0.31909 0.27217
vt 0.33636 0.26713
vt 0.35364 0.27217
vt 0.36828 0.28652
vt 0.37806 0.308
vt 0.3 0.48
vt 0.29091 0.46667
vt 0.3 0.4
vt 0.29091 0.41333
vt 0.33636 0.48
vt 0.34546 0.46667
vt 0.33636 0.4
vt 0.34546 0.41333
vt 0.33636 0.46667
vt 0.3 0.46667
vt 0.3 0.41333
vt 0.33636 0.41333
vt 0.39091 0.85333
vt 0.4 0.85333
vt 0.39091 0.8
vt 0.4 0.8
vt 0.4 0.85333
vt 0.40909 0.85333
vt 0.4 0.8
vt 0.40909 0.8
vt 0.38182 0.85333
vt 0.39091 0.85333
vt 0.38182 0.8
vt 0.39091 0.8
vt 0.39091 0.78667
vt 0.4 0.78667
vt 0.4 0.78667
vt 0.40909 0.78667
vt 0.38182 0.78667
vt 0.39091 0.78667
vt 0.39091 0.16
vt 0.4 0.16
vt 0.4 0.16
vt 0.40909 0.16
vt 0.38182 0.16
vt 0.39091 0.16
vt 0.29091 0.34667
vt 0 0.34667
vt 0.01818 0.34667
vt 0.03636 0.34667
vt 0.05455 0.34667
vt 0.07273 0.34667
vt 0.09091 0.34667
vt 0.10909 0.34667
vt 0.12727 0.34667
vt 0.14546 0.34667
vt 0.16364 0.34667
vt 0.18182 0.34667
vt 0.2 0.34667
vt 0.21818 0.34667
vt 0.23636 0.34667
vt 0.25455 0.34667
vt 0.27273 0.34667
vt 0 0.93333
vt 0.29091 0.93333
vt 0.01818 0.93333
vt 0.03636 0.93333
vt 0.05455 0.93333
vt 0.07273 0.93333
vt 0.09091 0.93333
vt 0.10909 0.93333
vt 0.12727 0.93333
vt 0.14546 0.93333
vt 0.16364 0.93333
vt 0.18182 0.93333
vt 0.2 0.93333
vt 0.21818 0.93333
vt 0.23636 0.93333
vt 0.25455 0.93333
vt 0.27273 0.93333
vt 0.29091 0.94667
vt 0 0.94667
vt 0.01818 0.94667
vt 0.03636 0.94667
vt 0.05455 0.94667
vt 0.07273 0.94667
vt 0.09091 0.94667
vt 0.10909 0.94667
vt 0.12727 0.94667
vt 0.14546 0.94667
vt 0.16364 0.94667
vt 0.18182 0.94667
vt 0.2 0.94667
vt 0.21818 0.94667
vt 0.23636 0.94667
vt 0.25455 0.94667
vt 0.27273 0.94667
vt 0 1
vt 0.29091 1
vt 0.01818 1
vt 0.03636 1
vt 0.05455 1
vt 0.07273 1
vt 0.09091 1
vt 0.10909 1
vt 0.12727 1
vt 0.14546 1
vt 0.16364 1
vt 0.18182 1
vt 0.2 1
vt 0.21818 1
vt 0.23636 1
vt 0.25455 1
vt 0.27273 1
vt 0.38182 0.47333
vt 0 0.64
vt 0.29091 0.64
vt 0.14546 0.64
vt 0.39091 0.47333
vt 0.01818 0.64
vt 0.16364 0.64
vt 0.03636 0.64
vt 0.18182 0.64
vt 0.05455 0.64
vt 0.2 0.64
vt 0.39091 0.47333
vt 0.07273 0.64
vt 0.21818 0.64
vt 0.4 0.47333
vt 0.09091 0.64
vt 0.23636 0.64
vt 0.4 0.47333
vt 0.10909 0.64
vt 0.25455 0.64
vt 0.40909 0.47333
vt 0.12727 0.64
vt 0.27273 0.64
s 0
f 1/1/1 15/38/1 5/15/1
f 15/37/1 7/19/1 5/13/1
f 8/22/2 11/30/2 7/21/2
f 10/27/2 8/23/2 6/18/2
f 11/29/2 5/13/2 7/19/2
f 9/25/2 6/16/2 5/14/2
f 7/20/1 14/35/1 3/9/1
f 3/7/1 13/34/1 1/3/1
f 19/45/3 4/10/3 3/8/3
f 18/44/3 1/2/3 2/5/3
f 20/47/3 2/4/3 4/12/3
f 1/3/3 19/46/3 3/7/3
f 24/55/4 5/14/4 6/16/4
f 21/49/4 2/5/4 1/2/4
f 5/15/4 21/50/4 1/1/4
f 22/51/4 6/17/4 2/6/4
f 28/64/5 4/11/5 8/24/5
f 26/60/5 3/8/5 4/10/5
f 7/21/5 28/63/5 8/22/5
f 3/9/5 27/62/5 7/20/5
f 30/67/6 8/24/6 4/11/6
f 32/71/6 6/18/6 8/23/6
f 29/65/6 4/12/6 2/4/6
f 31/69/6 2/6/6 6/17/6
f 168/256/6 166/254/6 167/255/6
f 107/185/4 32/72/4 30/67/4
f 34/79/1 20/47/1 36/84/1
f 44/106/5 41/103/5 42/104/5
f 55/121/2 52/118/2 51/115/2
f 38/93/1 22/51/1 34/77/1
f 85/159/2 81/152/2 82/153/2
f 71/141/5 68/138/5 67/135/5
f 72/142/6 66/134/6 68/137/6
s 1
f 250/342/7 233/324/4 234/325/7
s 0
f 40/101/1 10/27/1 38/91/1
f 38/94/5 9/25/5 37/87/5
f 39/97/6 25/57/6 35/83/6
f 37/89/6 11/29/6 39/95/6
s 1
f 244/336/8 227/318/9 228/319/8
f 252/344/10 235/326/11 236/327/10
s 0
f 69/139/4 65/132/4 66/133/4
f 166/254/3 163/249/3 161/245/3
f 105/183/5 29/66/5 31/69/5
s 1
f 254/346/12 237/328/2 238/329/12
s 0
f 54/120/1 51/116/1 49/111/1
f 33/73/5 18/44/5 34/78/5
f 40/100/3 27/61/3 39/96/3
f 36/86/1 28/64/1 40/99/1
s 1
f 215/305/13 271/364/14 274/367/13
s 0
f 48/110/15 43/105/15 44/106/15
f 46/108/9 41/103/9 45/107/9
f 47/109/16 41/103/16 43/105/16
f 59/125/17 61/127/17 57/123/17
s 1
f 220/310/10 264/357/11 266/359/10
s 0
f 60/126/3 57/123/3 58/124/3
f 110/190/4 14/35/4 16/39/4
f 70/140/1 67/136/1 65/131/1
f 111/192/5 15/38/5 13/33/5
f 183/271/18 176/264/18 175/263/18
f 46/108/18 44/106/18 42/104/18
f 62/128/13 57/123/13 61/127/13
f 58/124/19 64/130/19 60/126/19
f 79/149/20 73/143/20 75/145/20
f 168/256/2 162/247/2 164/251/2
f 76/146/4 73/143/4 74/144/4
s 1
f 253/345/2 236/327/10 237/328/2
s 0
f 86/160/1 83/156/1 81/151/1
f 108/186/2 30/68/2 29/65/2
f 109/187/3 16/40/3 15/37/3
f 96/170/11 91/165/11 92/166/11
f 78/148/11 73/143/11 77/147/11
f 94/168/15 89/163/15 93/167/15
f 91/165/21 93/167/21 89/163/21
f 72/142/3 70/140/3 69/139/3
f 92/166/2 89/163/2 90/164/2
s 1
f 245/337/3 228/319/8 229/320/3
s 0
f 102/180/1 99/175/1 97/171/1
f 104/182/2 102/180/2 101/179/2
f 38/92/3 23/53/3 24/55/3
f 78/148/22 76/146/22 74/144/22
s 1
f 277/370/23 199/288/13 200/289/23
s 0
f 64/130/9 59/125/9 60/126/9
f 90/164/24 96/170/24 92/166/24
f 104/182/6 98/174/6 100/177/6
f 106/184/3 31/70/3 32/71/3
s 1
f 221/311/2 266/359/10 269/362/2
s 0
f 106/184/6 108/186/6 105/183/6
f 88/162/4 86/160/4 85/159/4
f 88/162/6 82/154/6 84/157/6
s 1
f 246/338/14 229/320/3 230/321/14
s 0
f 122/205/6 137/221/6 121/204/6
f 128/211/6 143/227/6 127/210/6
f 80/150/13 75/145/13 76/146/13
f 119/202/6 136/220/6 135/219/6
f 120/203/6 137/221/6 136/220/6
f 126/209/6 141/225/6 125/208/6
f 132/216/6 115/198/6 116/199/6
f 123/206/6 140/224/6 139/223/6
f 118/201/6 133/217/6 117/200/6
f 127/210/6 142/226/6 126/209/6
f 128/211/6 129/212/6 144/228/6
f 115/198/6 130/214/6 114/197/6
f 133/217/6 116/199/6 117/200/6
f 114/197/6 129/213/6 113/195/6
f 119/202/6 134/218/6 118/201/6
f 122/205/6 139/223/6 138/222/6
f 157/241/6 159/243/6 145/229/6
f 56/122/6 50/114/6 52/117/6
f 181/269/18 172/260/18 171/259/18
s 1
f 210/300/25 258/350/5 261/354/25
f 212/302/8 263/356/9 265/358/8
s 0
f 171/259/6 170/258/6 169/257/6
f 179/267/6 178/266/6 177/265/6
s 1
f 243/335/9 226/317/25 227/318/9
s 0
f 191/279/5 260/353/5 257/349/5
s 1
f 211/301/9 261/354/25 263/356/9
s 0
f 109/188/1 112/193/1 110/189/1
f 185/273/18 180/268/18 179/267/18
s 1
f 247/339/13 230/321/14 231/322/13
s 0
f 53/119/3 49/112/3 50/113/3
s 1
f 219/309/11 262/355/7 264/357/11
s 0
f 1/1/1 13/33/1 15/38/1
f 15/37/1 16/40/1 7/19/1
f 8/22/2 12/32/2 11/30/2
f 10/27/2 12/31/2 8/23/2
f 11/29/2 9/26/2 5/13/2
f 9/25/2 10/28/2 6/16/2
f 7/20/1 16/39/1 14/35/1
f 3/7/1 14/36/1 13/34/1
f 19/45/3 20/48/3 4/10/3
f 18/44/3 17/41/3 1/2/3
f 20/47/3 18/43/3 2/4/3
f 1/3/3 17/42/3 19/46/3
f 24/55/4 23/53/4 5/14/4
f 21/49/4 22/52/4 2/5/4
f 5/15/4 23/54/4 21/50/4
f 22/51/4 24/56/4 6/17/4
f 28/64/5 26/59/5 4/11/5
f 26/60/5 25/58/5 3/8/5
f 7/21/5 27/61/5 28/63/5
f 3/9/5 25/57/5 27/62/5
f 30/67/6 32/72/6 8/24/6
f 32/71/6 31/70/6 6/18/6
f 29/65/6 30/68/6 4/12/6
f 31/69/6 29/66/6 2/6/6
f 70/140/1 71/141/1 67/136/1
s 1
f 277/370/23 274/367/13 199/288/13
f 243/335/9 242/334/25 226/317/25
f 212/302/8 211/301/9 263/356/9
s 0
f 78/148/22 80/150/22 76/146/22
s 1
f 264/357/11 262/355/7 202/291/7
s 0
f 118/201/6 134/218/6 133/217/6
f 104/182/2 103/181/2 102/180/2
s 1
f 220/310/10 219/309/11 264/357/11
s 0
f 106/184/3 105/183/3 31/70/3
f 183/271/18 184/272/18 176/264/18
f 179/267/6 180/268/6 178/266/6
f 64/130/9 63/129/9 59/125/9
s 1
f 261/354/25 258/350/5 193/282/5
s 0
f 166/254/3 165/253/3 163/249/3
s 1
f 252/344/10 251/343/11 235/326/11
s 0
f 133/217/6 132/216/6 116/199/6
s 1
f 271/364/14 268/361/3 197/286/3
s 0
f 127/210/6 143/227/6 142/226/6
f 126/209/6 142/226/6 141/225/6
s 1
f 272/365/12 269/362/2 205/294/2
f 278/371/26 275/368/15 207/296/15
s 0
f 111/192/5 109/187/5 15/38/5
f 171/259/6 172/260/6 170/258/6
s 1
f 210/300/25 209/298/5 258/350/5
f 262/355/7 201/290/4 202/291/7
f 268/361/3 196/285/8 197/286/3
s 0
f 273/366/5 184/272/5 183/271/5
s 1
f 258/351/5 208/297/26 193/281/5
f 254/346/12 253/345/2 237/328/2
s 0
f 122/205/6 123/206/6 139/223/6
f 38/92/3 37/88/3 23/53/3
s 1
f 269/362/2 266/359/10 204/293/10
s 0
f 60/126/3 59/125/3 57/123/3
f 119/202/6 135/219/6 134/218/6
f 267/360/5 182/270/5 181/269/5
s 1
f 271/364/14 197/286/3 198/287/14
f 264/357/11 202/291/7 203/292/11
f 275/368/15 206/295/12 207/296/15
s 0
f 40/100/3 28/63/3 27/61/3
f 115/198/6 131/215/6 130/214/6
f 102/180/1 103/181/1 99/175/1
s 1
f 265/358/8 263/356/9 195/284/9
s 0
f 59/125/17 63/129/17 61/127/17
f 128/211/6 113/196/6 129/212/6
f 257/349/5 186/274/5 185/273/5
s 1
f 265/358/8 195/284/9 196/285/8
f 269/362/2 204/293/10 205/294/2
f 272/365/12 205/294/2 206/295/12
s 0
f 36/86/1 26/59/1 28/64/1
f 123/206/6 124/207/6 140/224/6
f 92/166/2 91/165/2 89/163/2
f 257/349/5 260/353/5 186/274/5
f 46/108/9 42/104/9 41/103/9
f 132/216/6 131/215/6 115/198/6
s 1
f 261/354/25 193/282/5 194/283/25
f 278/371/26 207/296/15 208/297/26
f 263/356/9 194/283/25 195/284/9
f 259/352/4 200/289/23 201/290/4
s 0
f 48/110/15 47/109/15 43/105/15
f 119/202/6 120/203/6 136/220/6
f 91/165/21 95/169/21 93/167/21
s 1
f 275/368/15 272/365/12 206/295/12
f 215/305/13 214/304/14 271/364/14
s 0
f 47/109/16 45/107/16 41/103/16
f 80/150/13 79/149/13 75/145/13
f 38/93/1 24/56/1 22/51/1
f 72/142/6 69/139/6 66/134/6
s 1
f 266/359/10 203/292/11 204/293/10
s 0
f 107/185/4 106/184/4 32/72/4
f 39/97/6 27/62/6 25/57/6
f 40/101/1 12/31/1 10/27/1
f 34/79/1 18/43/1 20/47/1
f 168/256/6 165/253/6 166/254/6
f 38/94/5 10/28/5 9/25/5
f 55/121/2 56/122/2 52/118/2
f 85/159/2 86/160/2 81/152/2
s 1
f 274/367/13 198/287/14 199/288/13
s 0
f 37/89/6 9/26/6 11/29/6
s 1
f 250/342/7 249/341/4 233/324/4
s 0
f 44/106/5 43/105/5 41/103/5
f 71/141/5 72/142/5 68/138/5
f 145/229/6 146/230/6 149/233/6
f 146/230/6 147/231/6 149/233/6
f 147/231/6 148/232/6 149/233/6
f 149/233/6 150/234/6 151/235/6
f 151/235/6 152/236/6 153/237/6
f 153/237/6 154/238/6 155/239/6
f 155/239/6 156/240/6 157/241/6
f 157/241/6 158/242/6 159/243/6
f 159/243/6 160/244/6 145/229/6
f 149/233/6 151/235/6 145/229/6
f 151/235/6 153/237/6 145/229/6
f 153/237/6 155/239/6 145/229/6
f 155/239/6 157/241/6 145/229/6
f 110/190/4 112/194/4 14/35/4
f 96/170/11 95/169/11 91/165/11
f 122/205/6 138/222/6 137/221/6
f 33/73/5 17/41/5 18/44/5
f 267/360/5 270/363/5 182/270/5
s 1
f 258/351/5 278/371/26 208/297/26
s 0
f 168/256/2 167/255/2 162/247/2
f 273/366/5 276/369/5 184/272/5
f 108/186/2 107/185/2 30/68/2
f 114/197/6 130/214/6 129/213/6
f 109/187/3 110/190/3 16/40/3
s 1
f 268/361/3 265/358/8 196/285/8
s 0
f 56/122/6 53/119/6 50/114/6
s 1
f 253/345/2 252/344/10 236/327/10
f 214/304/14 268/361/3 271/364/14
s 0
f 187/275/5 270/363/5 267/360/5
f 175/263/6 174/262/6 173/261/6
f 56/122/5 54/120/5 53/119/5
f 33/75/6 23/54/6 37/90/6
f 165/253/5 164/252/5 163/250/5
s 1
f 213/303/3 265/358/8 268/361/3
f 242/334/25 225/316/5 226/317/25
f 218/308/7 259/352/4 262/355/7
s 0
f 189/277/5 276/369/5 273/366/5
s 1
f 209/299/5 278/371/26 258/351/5
s 0
f 36/85/4 19/45/4 35/81/4
f 35/82/6 17/42/6 33/74/6
s 1
f 223/313/15 272/365/12 275/368/15
f 222/312/12 269/362/2 272/365/12
f 256/348/26 239/330/15 240/331/26
s 0
f 101/179/5 97/172/5 98/173/5
s 1
f 217/307/4 277/370/23 259/352/4
f 251/343/11 234/325/7 235/326/11
f 241/333/5 240/331/26 225/315/5
f 249/341/4 232/323/23 233/324/4
f 248/340/23 231/322/13 232/323/23
s 0
f 112/194/2 13/34/2 14/36/2
f 36/86/2 25/58/2 26/60/2
s 1
f 224/314/26 275/368/15 278/371/26
f 255/347/15 238/329/12 239/330/15
f 216/306/23 274/367/13 277/370/23
s 0
f 33/76/2 22/52/2 21/49/2
f 124/207/6 141/225/6 140/224/6
f 103/181/4 100/178/4 99/176/4
f 87/161/3 84/158/3 83/155/3
f 167/255/4 161/246/4 162/248/4
f 88/162/4 87/161/4 86/160/4
f 86/160/1 87/161/1 83/156/1
f 76/146/4 75/145/4 73/143/4
f 54/120/1 55/121/1 51/116/1
f 105/183/5 108/186/5 29/66/5
f 78/148/11 74/144/11 73/143/11
f 94/168/15 90/164/15 89/163/15
f 106/184/6 107/185/6 108/186/6
f 88/162/6 85/159/6 82/154/6
f 181/269/18 182/270/18 172/260/18
f 53/119/3 54/120/3 49/112/3
f 46/108/18 48/110/18 44/106/18
f 90/164/24 94/168/24 96/170/24
s 1
f 219/309/11 218/308/7 262/355/7
f 246/338/14 245/337/3 229/320/3
f 247/339/13 246/338/14 230/321/14
s 0
f 120/203/6 121/204/6 137/221/6
s 1
f 262/355/7 259/352/4 201/290/4
s 0
f 58/124/19 62/128/19 64/130/19
s 1
f 211/301/9 210/300/25 261/354/25
s 0
f 185/273/18 186/274/18 180/268/18
f 109/188/1 111/191/1 112/193/1
s 1
f 221/311/2 220/310/10 266/359/10
s 0
f 191/279/5 192/280/5 260/353/5
f 104/182/6 101/179/6 98/174/6
f 79/149/20 77/147/20 73/143/20
f 62/128/13 58/124/13 57/123/13
f 69/139/4 70/140/4 65/132/4
s 1
f 244/336/8 243/335/9 227/318/9
s 0
f 72/142/3 71/141/3 70/140/3
s 1
f 245/337/3 244/336/8 228/319/8
s 0
f 128/211/6 144/228/6 143/227/6
f 40/102/4 11/30/4 12/32/4
s 1
f 263/356/9 261/354/25 194/283/25
f 259/352/4 277/370/23 200/289/23
f 266/359/10 264/357/11 203/292/11
f 274/367/13 271/364/14 198/287/14
f 214/304/14 213/303/3 268/361/3
s 0
f 187/275/5 188/276/5 270/363/5
f 175/263/6 176/264/6 174/262/6
f 56/122/5 55/121/5 54/120/5
f 33/75/6 21/50/6 23/54/6
f 165/253/5 168/256/5 164/252/5
s 1
f 213/303/3 212/302/8 265/358/8
f 242/334/25 241/332/5 225/316/5
f 218/308/7 217/307/4 259/352/4
s 0
f 189/277/5 190/278/5 276/369/5
s 1
f 209/299/5 224/314/26 278/371/26
s 0
f 36/85/4 20/48/4 19/45/4
f 35/82/6 19/46/6 17/42/6
s 1
f 223/313/15 222/312/12 272/365/12
f 222/312/12 221/311/2 269/362/2
f 256/348/26 255/347/15 239/330/15
s 0
f 101/179/5 102/180/5 97/172/5
s 1
f 217/307/4 216/306/23 277/370/23
f 251/343/11 250/342/7 234/325/7
f 241/333/5 256/348/26 240/331/26
f 249/341/4 248/340/23 232/323/23
f 248/340/23 247/339/13 231/322/13
s 0
f 112/194/2 111/192/2 13/34/2
f 36/86/2 35/83/2 25/58/2
s 1
f 224/314/26 223/313/15 275/368/15
f 255/347/15 254/346/12 238/329/12
f 216/306/23 215/305/13 274/367/13
s 0
f 33/76/2 34/80/2 22/52/2
f 124/207/6 125/208/6 141/225/6
f 103/181/4 104/182/4 100/178/4
f 87/161/3 88/162/3 84/158/3
f 167/255/4 166/254/4 161/246/4
f 40/102/4 39/98/4 11/30/4
