# Blender 3.4.1
# www.blender.org
o dish_control
v 0.625 0.75 0.3125
v 0.625 0.75 -1.25
v 0.625 0.5 0.3125
v 0.625 0.5 -1.25
v 0.125 0.75 0.3125
v 0.125 0.75 -1.25
v 0.125 0.5 0.3125
v 0.125 0.5 -1.25
v 0.125 0.75 -0.375
v 0.625 0.5 -0.375
v 0.625 0.75 0.1875
v 0.25 0.75 0.1875
v 0.625 0.6875 0.1875
v 0.625 0.6875 -0.375
v 0.25 0.6875 0.1875
v 0.25 0.6875 -0.375
v 0.625 0.75 -0.375
v 0.25 0.75 -0.375
v 0.53125 0.79688 -0.5625
v 0.53125 0.79688 -0.6875
v 0.53125 0.75 -0.5625
v 0.53125 0.75 -0.6875
v 0.40625 0.79688 -0.5625
v 0.40625 0.79688 -0.6875
v 0.40625 0.75 -0.5625
v 0.40625 0.75 -0.6875
v 0.53125 0.79688 -0.75
v 0.53125 0.79688 -0.875
v 0.53125 0.75 -0.75
v 0.53125 0.75 -0.875
v 0.40625 0.79688 -0.75
v 0.40625 0.79688 -0.875
v 0.40625 0.75 -0.75
v 0.40625 0.75 -0.875
v 0.5625 0.79688 -0.9375
v 0.5625 0.79688 -1.125
v 0.5625 0.75 -0.9375
v 0.5625 0.75 -1.125
v 0.375 0.79688 -0.9375
v 0.375 0.79688 -1.125
v 0.375 0.75 -0.9375
v 0.375 0.75 -1.125
v 0.53125 0.79688 -0.96875
v 0.53125 0.79688 -1.09375
v 0.40625 0.79688 -0.96875
v 0.40625 0.79688 -1.09375
v 0.53125 0.76562 -0.96875
v 0.53125 0.76562 -1.09375
v 0.40625 0.76562 -0.96875
v 0.40625 0.76562 -1.09375
v 0.51562 0.76562 -0.98438
v 0.51562 0.76562 -1.07812
v 0.42188 0.76562 -0.98438
v 0.42188 0.76562 -1.07812
v 0.51562 0.8125 -0.98438
v 0.51562 0.8125 -1.07812
v 0.42188 0.8125 -0.98438
v 0.42188 0.8125 -1.07812
v 0.34375 0.78125 -0.46875
v 0.34375 0.78125 -0.65625
v 0.34375 0.75 -0.46875
v 0.34375 0.75 -0.65625
v 0.15625 0.8125 -0.46875
v 0.15625 0.8125 -0.65625
v 0.15625 0.75 -0.46875
v 0.15625 0.75 -0.65625
v 0 1.6875 0.375
v 0 1.6875 -0.5625
v 0 1 0.375
v 0 1 -0.5625
v -0.3125 1.6875 0.375
v -0.3125 1.6875 -0.5625
v -0.3125 1 0.375
v -0.3125 1 -0.5625
v -0.3125 1.625 0.3125
v -0.3125 1.625 -0.5
v -0.3125 1.0625 0.3125
v -0.3125 1.0625 -0.5
v -0.4375 1.625 0.3125
v -0.4375 1.625 -0.5
v -0.4375 1.0625 0.3125
v -0.4375 1.0625 -0.5
v 0 1.6875 -0.625
v 0 1.6875 -1.4375
v 0 1 -0.625
v 0 1 -1.4375
v -0.3125 1.6875 -0.625
v -0.3125 1.6875 -1.4375
v -0.3125 1 -0.625
v -0.3125 1 -1.4375
v -0.3125 1.625 -0.6875
v -0.3125 1.625 -1.375
v -0.3125 1.0625 -0.6875
v -0.3125 1.0625 -1.375
v -0.4375 1.625 -0.6875
v -0.4375 1.625 -1.375
v -0.4375 1.0625 -0.6875
v -0.4375 1.0625 -1.375
v 0.5 0.625 0.5
v 0.5 0.625 -1.5
v 0.5 -0 0.5
v 0.5 0 -1.5
v -0.5 0.625 0.5
v -0.5 0.625 -1.5
v -0.5 -0 0.5
v -0.5 0 -1.5
v 0.125 1 0.5
v 0.125 1 -1.5
v -0.5 1 0.5
v -0.5 1 -1.5
v 0.125 1 0.3125
v 0.5 0.625 0.3125
v 0.125 1 -1.25
v 0.5 0.625 -1.25
v 0.125 0.625 -1.25
v 0.125 0.625 0.3125
v 0.23549 1.02887 -0.6875
v 0.23549 1.02887 -1.1875
v 0.31637 0.72701 -0.6875
v 0.31637 0.72701 -1.1875
v 0.05437 0.98034 -0.6875
v 0.05437 0.98034 -1.1875
v 0.13525 0.67849 -0.6875
v 0.13525 0.67849 -1.1875
v 0.0625 1.5625 -1.1875
v 0.0625 1.5625 -1.375
v 0.0625 1.0625 -1.1875
v 0.0625 1.0625 -1.375
v 0 1.5625 -1.1875
v 0 1.5625 -1.375
v 0 1.0625 -1.1875
v 0 1.0625 -1.375
v 0.125 2.0625 0.5
v 0.125 2.0625 -1.5
v 0.125 1.6875 0.5
v 0.125 1.6875 -1.5
v -0.5 2.0625 0.5
v -0.5 2.0625 -1.5
v -0.5 1.6875 0.5
v -0.5 1.6875 -1.5
v -0.40625 2.42256 -1.5765
v -0.40625 1.67542 -1.55801
v -0.46875 2.42256 -1.5765
v -0.46875 1.67542 -1.55801
v -0.28125 2.23578 -1.56016
v -0.28125 1.61315 -1.55256
v -0.34375 2.23578 -1.56016
v -0.34375 1.61315 -1.55256
v -0.40625 2.42256 -1.5765
v -0.40625 1.67542 -1.55801
v -0.46875 2.42256 -1.5765
v -0.46875 1.67542 -1.55801
v -0.28125 2.23578 -1.56016
v -0.28125 1.61315 -1.55256
v -0.34375 2.23578 -1.56016
v -0.34375 1.61315 -1.55256
v -0.28125 1.61588 -1.52143
v -0.28125 1.61043 -1.58369
v -0.28125 1.49135 -1.51054
v -0.28125 1.48591 -1.5728
v -0.34375 1.61588 -1.52143
v -0.34375 1.61043 -1.58369
v -0.34375 1.49135 -1.51054
v -0.34375 1.48591 -1.5728
v -0.40625 1.67814 -1.52688
v -0.40625 1.67269 -1.58914
v -0.40625 1.49135 -1.51054
v -0.40625 1.48591 -1.5728
v -0.46875 1.67814 -1.52688
v -0.46875 1.67269 -1.58914
v -0.46875 1.49135 -1.51054
v -0.46875 1.48591 -1.5728
v -0.15625 1.57268 -1.29807
v -0.15625 1.55089 -1.54712
v -0.15625 1.13685 -1.25994
v -0.15625 1.11506 -1.50899
v -0.53125 1.57268 -1.29807
v -0.53125 1.55089 -1.54712
v -0.53125 1.13685 -1.25994
v -0.53125 1.11506 -1.50899
v -0.15625 1.31818 -1.33854
v -0.15625 1.19366 -1.32765
v -0.15625 1.30184 -1.52533
v -0.15625 1.17732 -1.51443
v -0.53125 1.30184 -1.52533
v -0.53125 1.17732 -1.51443
v -0.53125 1.31818 -1.33854
v -0.53125 1.19366 -1.32765
v -0.21875 1.31818 -1.33854
v -0.21875 1.19366 -1.32765
v -0.21875 1.30729 -1.46307
v -0.21875 1.18277 -1.45217
v -0.46875 1.30729 -1.46307
v -0.46875 1.18277 -1.45217
v -0.46875 1.31818 -1.33854
v -0.46875 1.19366 -1.32765
v -0.5 0 -0.5
v -0.5 2.0625 -0.5
v 0.5 0.625 -0.5
v 0.125 1 -0.5
v -0.5 1.6875 -0.5
v 0.5 0 -0.5
v -0.5 1 -0.5
v 0.125 2.0625 -0.5
v 0.125 1.6875 -0.5
vn -1.0000 -0.0000 -0.0000
vn -0.0000 0.9962 -0.0872
vn -0.0000 -0.0000 1.0000
vn -0.0000 -0.9962 0.0872
vn 1.0000 -0.0000 -0.0000
vn -0.0000 -1.0000 -0.0000
vn -0.0000 0.0247 0.9997
vn -0.0000 0.0122 0.9999
vn -0.0000 1.0000 -0.0000
vn -0.0000 -0.0000 -1.0000
vn -0.0000 -0.0872 -0.9962
vn -0.2588 0.9659 -0.0000
vn 0.1644 0.9864 -0.0000
vn -0.0000 -0.0122 -0.9999
vn 0.7071 0.7071 -0.0000
vn -0.0000 -0.0247 -0.9997
vn -0.0000 0.0872 0.9962
vn 0.9659 0.2588 -0.0000
vt 0.15152 0.05085
vt 0.5303 0.05085
vt 0.15152 0.01695
vt 0.5303 0.01695
vt 0.15152 0.11864
vt 0.0303 0.05085
vt 0.5303 0.11864
vt 0.65151 0.05085
vt 0.15152 -0.05085
vt 0.0303 0.01695
vt 0.5303 -0.05085
vt 0.65151 0.01695
vt 0.31818 0.11864
vt 0.31818 0.01695
vt 0.18182 0.05085
vt 0.16667 0.05085
vt 0.18182 0.10169
vt 0.18182 0.11017
vt 0.16667 0.10169
vt 0.18182 0.05085
vt 0.18182 0.04237
vt 0.31818 0.05085
vt 0.31818 0.04237
vt 0.18182 0.10169
vt 0.31818 0.10169
vt 0.33333 0.05085
vt 0.31818 0.05085
vt 0.33333 0.10169
vt 0.31818 0.10169
vt 0.31818 0.11017
vt 0.10606 0.32203
vt 0.10606 0.31356
vt 0.12121 0.31356
vt 0.13636 0.31356
vt 0.12121 0.31356
vt 0.13636 0.32203
vt 0.10606 0.31356
vt 0.13636 0.31356
vt 0.10606 0.33051
vt 0.12121 0.33051
vt 0.10606 0.32203
vt 0.12121 0.33051
vt 0.13636 0.32203
vt 0.13636 0.33051
vt 0.10606 0.33051
vt 0.13636 0.33051
vt 0.10606 0.31356
vt 0.12121 0.31356
vt 0.10606 0.32203
vt 0.13636 0.31356
vt 0.12121 0.31356
vt 0.13636 0.32203
vt 0.10606 0.31356
vt 0.13636 0.31356
vt 0.12121 0.33051
vt 0.10606 0.33051
vt 0.10606 0.32203
vt 0.13636 0.32203
vt 0.13636 0.33051
vt 0.12121 0.33051
vt 0.10606 0.33051
vt 0.13636 0.33051
vt 0 0.32203
vt 0.04546 0.32203
vt 0.04546 0.34746
vt 0.04546 0.32203
vt 0 0.32203
vt 0 0.31356
vt 0.04546 0.31356
vt 0 0.31356
vt 0.04546 0.31356
vt 0 0.32203
vt 0.04546 0.32203
vt 0 0.32203
vt 0 0.34746
vt 0.04546 0.32203
vt 0.04546 0.31356
vt 0 0.31356
vt 0 0.31356
vt 0.04546 0.31356
vt 0.03788 0.32627
vt 0.00758 0.33051
vt 0.03788 0.34322
vt 0.03788 0.33051
vt 0.00758 0.32627
vt 0.00758 0.34322
vt 0.07576 0.31356
vt 0.0303 0.32627
vt 0.00758 0.32627
vt 0.07576 0.33051
vt 0.03788 0.33898
vt 0.0303 0.34322
vt 0.04546 0.31356
vt 0.01515 0.32627
vt 0.03788 0.32627
vt 0.04546 0.33051
vt 0.00758 0.33898
vt 0.01515 0.34322
vt 0.07197 0.31568
vt 0.10606 0.31356
vt 0.07197 0.32839
vt 0.07576 0.31356
vt 0.04924 0.31568
vt 0.07576 0.31356
vt 0.04924 0.32839
vt 0.10606 0.31356
vt 0.10606 0.32203
vt 0.10606 0.33898
vt 0.07576 0.32203
vt 0.07576 0.32203
vt 0.07576 0.33898
vt 0.10606 0.32203
vt 0.10606 0.35593
vt 0.10606 0.36441
vt 0.15152 0.36441
vt 0.10606 0.35593
vt 0.10606 0.35593
vt 0.15152 0.35593
vt 0.10606 0.35593
vt 0.10606 0.38983
vt 0.06061 0.36441
vt 0.06061 0.36441
vt 0.15152 0.38983
vt 0.01515 0.36441
vt 0.06061 0.35593
vt 0.06061 0.35593
vt 0.01515 0.35593
vt 0.30303 0.59322
vt 0.5303 0.59322
vt 0.30303 0.59322
vt 0.30303 0.5
vt 0.5303 0.5
vt 0.30303 0.5
vt 0.22727 0.59322
vt 0 0.59322
vt 0.22727 0.59322
vt 0.22727 0.5
vt 0 0.5
vt 0.22727 0.5
vt 0.22727 0.5
vt 0.25758 0.48305
vt 0.21212 0.58475
vt 0 0.48305
vt 0.01515 0.58475
vt 0.0303 0.5
vt 0.25758 0.40678
vt 0.22727 0.38983
vt 0.21212 0.50848
vt 0 0.40678
vt 0.0303 0.38983
vt 0.01515 0.50848
vt 0.22727 0.48305
vt 0.0303 0.48305
vt 0.22727 0.40678
vt 0.0303 0.40678
vt 0.80303 0.59322
vt 0.80303 0.59322
vt 1 0.59322
vt 0.80303 0.5
vt 0.80303 0.5
vt 1 0.5
vt 0.72727 0.59322
vt 0.5303 0.59322
vt 0.72727 0.59322
vt 0.72727 0.5
vt 0.5303 0.5
vt 0.72727 0.5
vt 0.71212 0.5
vt 0.74242 0.48305
vt 0.71212 0.58475
vt 0.54546 0.5
vt 0.51515 0.48305
vt 0.54546 0.58475
vt 0.74242 0.40678
vt 0.71212 0.50848
vt 0.71212 0.38983
vt 0.51515 0.40678
vt 0.54546 0.38983
vt 0.54546 0.50848
vt 0.71212 0.48305
vt 0.54546 0.48305
vt 0.71212 0.40678
vt 0.54546 0.40678
vt 0 0.67797
vt 0.72727 0.67797
vt 0.72727 0.67797
vt 0.48485 0.67797
vt 0 0.59322
vt 0.72727 0.59322
vt 0 1
vt 0.72727 0.59322
vt 0.48485 0.59322
vt 0.48485 1
vt 0.48485 0.67797
vt 0.9697 0.67797
vt 0.48485 0.59322
vt 0.48485 0.72881
vt 0 0.86441
vt 0.9697 0.59322
vt 0 0.72881
vt 0.48485 0.86441
vt 0.48485 0.77966
vt 0.63636 0.72881
vt 0 0.72881
vt 0.9697 0.77966
vt 0.81818 0.72881
vt 0.48485 0.72881
vt 0.48485 0.72881
vt 0.48485 0.86441
vt 0.9697 0.86441
vt 0.9697 0.72881
vt 0 0.86441
vt 0.66667 0.91525
vt 0.04546 0.72881
vt 0.04546 0.67797
vt 0.57576 0.86441
vt 0.48485 0.91525
vt 0.42424 0.72881
vt 0.57576 0.86441
vt 0.42424 0.67797
vt 0.48485 0.86441
vt 0.42424 0.67797
vt 0.66667 0.86441
vt 0.04546 0.67797
vt 0.74242 0.90678
vt 0.86364 0.90678
vt 0.74242 0.86441
vt 0.86364 0.86441
vt 0.74242 0.9322
vt 0.69697 0.90678
vt 0.86364 0.9322
vt 0.90909 0.90678
vt 0.69697 0.86441
vt 0.90909 0.86441
vt 0.93939 0.5678
vt 0.93939 0.57627
vt 0.95454 0.57627
vt 0.98485 0.57627
vt 0.98485 0.5678
vt 0.9697 0.57627
vt 0.93939 0.51695
vt 0.93939 0.50848
vt 0.95454 0.50848
vt 0.98485 0.51695
vt 0.9697 0.50848
vt 0.98485 0.50848
vt 0.93939 0.57627
vt 0.98485 0.57627
vt 0.93939 0.50848
vt 0.98485 0.50848
vt 0.15152 0.30508
vt 0.63636 0.30508
vt 0.15152 0.25424
vt 0.63636 0.25424
vt 0.15152 0.38983
vt 0.15152 0.11864
vt 0 0.30508
vt 0.78788 0.30508
vt 0.63636 0.38983
vt 0.63636 0.11864
vt 0 0.25424
vt 0.15152 0.16949
vt 0.78788 0.25424
vt 0.63636 0.16949
vt 0.98485 0.5
vt 0.98485 0.39831
vt 0.9697 0.5
vt 0.9697 0.39831
vt 0.9697 0.47458
vt 0.9697 0.38983
vt 0.95454 0.47458
vt 0.95454 0.38983
vt 0.98485 0.5
vt 0.98485 0.39831
vt 0.9697 0.5
vt 0.9697 0.39831
vt 0.9697 0.47458
vt 0.9697 0.38983
vt 0.95454 0.47458
vt 0.95454 0.38983
vt 0.9697 0.38136
vt 0.9697 0.38983
vt 0.95454 0.38983
vt 0.95454 0.38983
vt 0.9697 0.38983
vt 0.9697 0.37288
vt 0.95454 0.37288
vt 0.9697 0.38136
vt 0.95454 0.37288
vt 0.9697 0.37288
vt 0.95454 0.38136
vt 0.95454 0.38983
vt 0.9697 0.38983
vt 0.9697 0.38983
vt 0.95454 0.38983
vt 0.95454 0.38136
vt 0.95454 0.37288
vt 0.9697 0.37288
vt 0.9697 0.37288
vt 0.95454 0.37288
vt 0.98485 0.38983
vt 0.98485 0.39831
vt 0.9697 0.39831
vt 0.9697 0.39831
vt 0.98485 0.39831
vt 0.98485 0.38136
vt 0.98485 0.37288
vt 0.9697 0.37288
vt 0.9697 0.37288
vt 0.98485 0.37288
vt 0.9697 0.38983
vt 0.9697 0.39831
vt 0.98485 0.39831
vt 0.9697 0.39831
vt 0.98485 0.39831
vt 0.98485 0.37288
vt 0.9697 0.38136
vt 0.9697 0.37288
vt 0.9697 0.37288
vt 0.98485 0.37288
vt 0.84849 0.40678
vt 0.78788 0.37288
vt 0.84849 0.22034
vt 0.84849 0.37288
vt 0.78788 0.31356
vt 0.84849 0.27966
vt 0.84849 0.31356
vt 0.93939 0.40678
vt 0.93939 0.22034
vt 1 0.37288
vt 0.93939 0.37288
vt 0.93939 0.27966
vt 1 0.31356
vt 0.93939 0.31356
vt 0.78788 0.33898
vt 0.80303 0.33898
vt 0.80303 0.34746
vt 0.78788 0.32203
vt 0.80303 0.32203
vt 0.80303 0.31356
vt 0.84849 0.33898
vt 0.84849 0.34746
vt 0.84849 0.32203
vt 0.84849 0.31356
vt 0.93939 0.34746
vt 0.93939 0.33898
vt 0.93939 0.32203
vt 0.93939 0.31356
vt 1 0.33898
vt 0.98485 0.34746
vt 0.98485 0.33898
vt 1 0.32203
vt 0.98485 0.32203
vt 0.98485 0.31356
vt 0.83333 0.33898
vt 0.80303 0.33898
vt 0.80303 0.32203
vt 0.83333 0.32203
vt 0.83333 0.33898
vt 0.86364 0.33898
vt 0.83333 0.32203
vt 0.86364 0.32203
vt 0.92424 0.33898
vt 0.95454 0.33898
vt 0.92424 0.32203
vt 0.95454 0.32203
vt 0.95454 0.33898
vt 0.98485 0.33898
vt 0.95454 0.32203
vt 0.98485 0.32203
vt 0.24242 0.72881
vt 0.24242 0.86441
vt 0.39394 0.38983
vt 0.39394 0.11864
vt 0.24242 0.67797
vt 0.72727 0.77966
vt 0.39394 0.16949
vt 0.24242 0.59322
vt 0.24242 1
vt 0.72727 0.86441
vt 0.24242 0.86441
vt 0.39394 0.30508
vt 0.39394 0.25424
s 1
f 105/197/1 203/381/1 197/371/1
f 178/331/2 177/328/2 173/321/2
f 16/25/3 17/26/3 18/28/3
f 89/165/3 85/159/3 83/156/3
f 164/300/4 159/288/4 163/296/4
f 159/287/5 160/290/5 158/285/5
f 8/11/6 3/3/6 7/9/6
f 144/268/7 142/266/7 141/265/7
f 18/30/5 15/24/5 16/25/5
f 148/272/8 146/270/8 145/269/8
f 12/17/9 18/29/9 9/13/9
f 12/17/9 9/13/9 5/5/9
f 11/15/9 12/17/9 5/5/9
f 11/15/9 5/5/9 1/1/9
f 13/21/5 11/15/5 1/1/5
f 13/21/5 1/1/5 3/3/5
f 22/38/5 19/31/5 21/37/5
f 198/373/9 137/255/9 133/251/9
f 2/2/9 9/13/9 17/27/9
f 92/171/9 96/181/9 95/180/9
f 44/83/1 47/88/1 43/81/1
f 66/126/10 64/122/10 60/116/10
f 138/259/9 204/382/9 134/252/9
f 205/383/5 133/251/5 135/253/5
f 26/46/10 20/35/10 22/38/10
f 77/147/6 81/154/6 82/155/6
f 24/44/9 19/32/9 20/34/9
f 128/246/5 126/238/5 125/236/5
f 34/62/1 31/57/1 32/58/1
f 26/46/10 24/42/10 20/35/10
f 30/54/5 27/49/5 29/53/5
f 139/261/3 135/253/3 133/251/3
f 33/61/3 27/48/3 31/55/3
f 13/20/9 14/22/9 16/25/9
f 34/62/10 28/51/10 30/54/10
f 75/141/3 79/152/3 81/154/3
f 32/59/9 27/47/9 28/50/9
f 132/250/10 130/248/10 126/240/10
f 194/365/11 191/360/11 192/362/11
f 205/383/5 204/382/5 133/251/5
f 38/71/5 35/63/5 37/68/5
f 136/254/5 134/252/5 204/382/5
f 41/78/3 35/64/3 39/72/3
f 106/199/10 104/195/10 100/186/10
f 42/80/10 36/67/10 38/70/10
f 170/314/2 169/311/2 165/301/2
f 46/86/3 48/91/3 44/83/3
f 130/248/9 129/247/9 125/235/9
f 131/249/3 125/237/3 129/247/3
f 32/59/9 31/56/9 27/47/9
f 42/79/1 39/73/1 40/74/1
f 194/365/11 193/363/11 191/360/11
f 43/82/10 49/95/10 45/84/10
f 99/184/5 101/188/5 202/378/5
f 45/85/5 50/98/5 46/86/5
f 78/149/10 82/155/10 80/153/10
f 43/81/9 45/85/9 39/72/9
f 43/81/9 39/72/9 35/64/9
f 44/83/9 43/81/9 35/64/9
f 44/83/9 35/64/9 36/65/9
f 46/86/9 44/83/9 36/65/9
f 46/86/9 36/65/9 40/75/9
f 45/85/9 46/86/9 40/75/9
f 45/85/9 40/75/9 39/72/9
f 51/100/3 57/110/3 53/104/3
f 109/209/9 107/202/9 200/376/9
f 52/102/5 55/107/5 51/100/5
f 172/319/4 168/310/4 167/306/4
f 54/106/10 56/109/10 52/102/10
f 121/230/3 123/233/3 119/227/3
f 53/104/1 58/112/1 54/106/1
f 203/380/9 200/376/9 108/205/9
f 51/99/9 53/103/9 49/93/9
f 51/99/9 49/93/9 47/87/9
f 52/101/9 51/99/9 47/87/9
f 52/101/9 47/87/9 48/90/9
f 54/105/9 52/101/9 48/90/9
f 54/105/9 48/90/9 50/96/9
f 53/103/9 54/105/9 50/96/9
f 53/103/9 50/96/9 49/93/9
f 140/264/6 205/383/6 201/377/6
f 105/196/3 101/189/3 99/185/3
f 76/145/9 79/152/9 75/140/9
f 98/183/1 97/182/1 95/180/1
f 62/118/5 59/114/5 61/117/5
f 118/226/12 122/231/12 121/229/12
f 140/263/10 134/252/10 136/254/10
f 65/125/3 61/117/3 59/113/3
f 64/123/13 59/114/13 60/115/13
f 193/363/1 194/365/1 196/369/1
f 58/111/9 55/107/9 56/108/9
f 38/71/5 36/66/5 35/63/5
f 70/132/5 67/128/5 69/131/5
f 124/234/10 122/232/10 118/226/10
f 174/324/5 181/336/5 183/341/5
f 199/375/5 102/192/5 100/187/5
f 65/125/3 59/113/3 63/121/3
f 203/380/9 108/205/9 110/210/9
f 78/149/10 80/153/10 76/143/10
f 180/334/11 186/347/11 184/343/11
f 170/314/2 165/301/2 166/305/2
f 46/86/3 50/97/3 48/91/3
f 75/141/3 81/154/3 77/146/3
f 91/169/3 95/180/3 97/182/3
f 77/147/6 82/155/6 78/150/6
f 174/324/5 173/322/5 181/336/5
f 75/142/1 77/148/1 73/137/1
f 75/142/1 73/137/1 71/134/1
f 76/144/1 75/142/1 71/134/1
f 76/144/1 71/134/1 72/135/1
f 78/151/1 76/144/1 72/135/1
f 78/151/1 72/135/1 74/138/1
f 77/148/1 78/151/1 74/138/1
f 77/148/1 74/138/1 73/137/1
f 89/165/3 83/156/3 87/162/3
f 162/295/2 161/291/2 157/281/2
f 92/171/9 95/180/9 91/168/9
f 156/280/14 155/279/14 153/277/14
f 86/161/5 83/156/5 85/159/5
f 107/204/15 99/184/15 112/215/15
f 90/167/10 84/157/10 86/160/10
f 70/132/5 68/129/5 67/128/5
f 94/177/10 96/181/10 92/172/10
f 201/377/1 139/262/1 137/256/1
f 162/295/2 157/281/2 158/285/2
f 42/79/1 41/77/1 39/73/1
f 91/169/3 97/182/3 93/174/3
f 94/177/10 98/183/10 96/181/10
f 93/176/6 98/183/6 94/178/6
f 58/111/9 57/110/9 55/107/9
f 91/170/1 93/175/1 89/165/1
f 91/170/1 89/165/1 87/162/1
f 92/173/1 91/170/1 87/162/1
f 92/173/1 87/162/1 88/163/1
f 94/179/1 92/173/1 88/163/1
f 94/179/1 88/163/1 90/166/1
f 93/175/1 94/179/1 90/166/1
f 93/175/1 90/166/1 89/165/1
f 105/196/3 99/185/3 103/194/3
f 90/167/10 88/164/10 84/157/10
f 109/209/9 200/376/9 203/380/9
f 152/276/16 151/275/16 149/273/16
f 99/184/5 202/378/5 199/375/5
f 132/250/6 128/244/6 127/241/6
f 106/199/10 100/186/10 102/191/10
f 64/123/13 63/120/13 59/114/13
f 13/20/9 16/25/9 15/24/9
f 86/161/5 84/158/5 83/156/5
f 101/190/6 197/372/6 202/379/6
f 140/263/10 138/258/10 134/252/10
f 107/203/3 109/208/3 103/194/3
f 107/203/3 103/194/3 99/185/3
f 182/338/11 189/356/11 181/335/11
f 163/297/17 159/286/17 157/282/17
f 110/211/10 108/206/10 100/186/10
f 110/211/10 100/186/10 104/195/10
f 187/349/11 196/370/11 188/352/11
f 182/338/11 190/357/11 189/356/11
f 164/299/11 158/284/11 160/289/11
f 164/299/11 162/294/11 158/284/11
f 132/250/6 127/241/6 131/249/6
f 62/118/5 60/115/5 59/114/5
f 201/377/1 137/256/1 198/374/1
f 162/295/1 164/300/1 163/298/1
f 107/204/15 112/215/15 111/214/15
f 74/139/10 72/136/10 68/130/10
f 180/334/11 184/343/11 176/327/11
f 174/324/11 183/341/11 185/346/11
f 111/213/10 112/216/10 116/223/10
f 114/219/3 113/217/3 115/221/3
f 124/234/10 118/226/10 120/228/10
f 44/83/1 48/92/1 47/88/1
f 193/363/1 196/369/1 195/367/1
f 18/30/5 12/18/5 15/24/5
f 118/226/12 121/229/12 117/225/12
f 22/38/5 20/36/5 19/31/5
f 121/230/3 119/227/3 117/225/3
f 2/2/9 6/7/9 9/13/9
f 130/248/9 125/235/9 126/239/9
f 53/104/1 57/110/1 58/112/1
f 136/254/5 204/382/5 205/383/5
f 54/106/10 58/112/10 56/109/10
f 132/250/10 126/240/10 128/245/10
f 76/145/9 80/153/9 79/152/9
f 139/261/3 133/251/3 137/257/3
f 34/62/10 32/60/10 28/51/10
f 128/246/5 125/236/5 127/242/5
f 140/264/6 136/254/6 205/383/6
f 198/373/9 133/251/9 204/382/9
f 52/102/5 56/109/5 55/107/5
f 148/272/8 145/269/8 147/271/8
f 172/319/1 171/316/1 169/313/1
f 144/268/7 141/265/7 143/267/7
f 51/100/3 55/107/3 57/110/3
f 73/137/3 67/128/3 71/134/3
f 93/176/6 97/182/6 98/183/6
f 163/297/17 157/282/17 161/292/17
f 33/61/3 29/53/3 27/48/3
f 74/139/10 68/130/10 70/133/10
f 199/375/5 202/378/5 102/192/5
f 152/276/16 149/273/16 150/274/16
f 45/85/5 49/94/5 50/98/5
f 156/280/14 153/277/14 154/278/14
f 100/187/15 108/207/15 113/218/15
f 98/183/1 95/180/1 96/181/1
f 43/82/10 47/89/10 49/95/10
f 172/319/4 167/306/4 171/317/4
f 171/318/17 167/307/17 165/302/17
f 66/126/10 60/116/10 62/119/10
f 201/377/6 135/253/6 139/262/6
f 159/287/5 158/285/5 157/283/5
f 197/371/1 110/212/1 106/200/1
f 82/155/1 79/152/1 80/153/1
f 131/249/3 127/243/3 125/237/3
f 13/20/10 12/19/10 11/16/10
f 201/377/6 205/383/6 135/253/6
f 171/318/17 165/302/17 169/312/17
f 30/54/5 28/52/5 27/49/5
f 100/187/15 113/218/15 114/220/15
f 187/349/11 195/368/11 196/370/11
f 172/319/1 169/313/1 170/314/1
f 16/25/3 14/22/3 17/26/3
f 162/295/1 163/298/1 161/293/1
f 105/197/1 109/209/1 203/381/1
f 178/331/2 173/321/2 174/324/2
f 42/80/10 40/76/10 36/67/10
f 172/320/11 166/304/11 168/309/11
f 13/20/10 15/24/10 12/19/10
f 179/332/17 173/323/17 177/329/17
f 34/62/1 33/61/1 31/57/1
f 174/324/11 185/346/11 178/331/11
f 82/155/1 81/154/1 79/152/1
f 168/310/5 165/303/5 167/308/5
f 164/300/4 160/290/4 159/288/4
f 190/358/5 191/360/5 189/355/5
f 8/11/6 4/4/6 3/3/6
f 66/127/1 63/121/1 64/124/1
f 41/78/3 37/69/3 35/64/3
f 4/4/5 17/27/5 10/14/5
f 172/320/11 170/315/11 166/304/11
f 26/46/1 23/41/1 24/43/1
f 24/44/9 23/39/9 19/32/9
f 119/227/18 118/226/18 117/225/18
f 138/259/9 198/373/9 204/382/9
f 178/331/1 187/351/1 177/330/1
f 202/379/6 106/201/6 102/193/6
f 182/339/5 181/336/5 173/322/5
f 182/339/5 173/322/5 175/325/5
f 184/343/5 182/339/5 175/325/5
f 184/343/5 175/325/5 176/327/5
f 7/10/3 1/1/3 5/6/3
f 197/371/1 203/381/1 110/212/1
f 180/334/4 175/326/4 179/332/4
f 179/332/17 175/326/17 173/323/17
f 187/351/1 188/353/1 179/333/1
f 187/351/1 179/333/1 177/330/1
f 10/14/5 13/21/5 3/3/5
f 140/264/1 198/374/1 138/260/1
f 188/353/1 186/347/1 180/334/1
f 188/353/1 180/334/1 179/333/1
f 189/356/4 191/359/4 183/342/4
f 189/356/4 183/342/4 181/337/4
f 8/12/10 2/2/10 4/4/10
f 73/137/3 69/131/3 67/128/3
f 192/361/2 190/357/2 182/340/2
f 192/361/2 182/340/2 184/344/2
f 191/360/4 193/363/4 185/345/4
f 191/360/4 185/345/4 183/342/4
f 194/365/2 192/362/2 184/344/2
f 194/365/2 184/344/2 186/348/2
f 25/45/3 19/33/3 23/40/3
f 101/190/6 105/198/6 197/372/6
f 193/364/4 195/368/4 187/350/4
f 193/364/4 187/350/4 185/345/4
f 196/370/2 194/366/2 186/348/2
f 196/370/2 186/348/2 188/354/2
f 115/222/5 111/214/5 116/224/5
f 168/310/5 166/305/5 165/303/5
f 190/358/5 192/362/5 191/360/5
f 66/127/1 65/125/1 63/121/1
f 4/4/5 2/2/5 17/27/5
f 26/46/1 25/45/1 23/41/1
f 119/227/18 120/228/18 118/226/18
f 178/331/1 185/346/1 187/351/1
f 202/379/6 197/372/6 106/201/6
f 7/10/3 3/3/3 1/1/3
f 180/334/4 176/327/4 175/326/4
f 10/14/5 14/23/5 13/21/5
f 140/264/1 201/377/1 198/374/1
f 8/12/10 6/8/10 2/2/10
f 25/45/3 21/37/3 19/33/3
f 115/222/5 113/218/5 111/214/5
o drive
v 0.1875 1.125 -1.25
v 0.1875 1.125 -1.3125
v 0.0625 1.125 -1.25
v 0.0625 1.125 -1.3125
v 0.1875 1.5 -1.25
v 0.1875 1.5 -1.3125
v 0.0625 1.5 -1.25
v 0.0625 1.5 -1.3125
vn -0.0000 -0.0000 1.0000
vn -0.0000 1.0000 -0.0000
vn 1.0000 -0.0000 -0.0000
vn -0.0000 -0.0000 -1.0000
vn -0.0000 -1.0000 -0.0000
vt 0.74242 0.48305
vt 0.75758 0.48305
vt 0.75758 0.48305
vt 0.75758 0.4322
vt 0.74242 0.48305
vt 0.78788 0.48305
vt 0.74242 0.5
vt 0.78788 0.4322
vt 0.75758 0.5
vt 0.75758 0.4322
vt 0.75758 0.5
vt 0.74242 0.5
vt 0.75758 0.48305
vt 0.74242 0.4322
vt 0.75758 0.48305
vt 0.78788 0.4322
vt 0.74242 0.48305
vt 0.78788 0.48305
s 1
f 212/399/19 208/389/19 206/385/19
f 213/400/20 212/398/20 210/394/20
f 212/399/19 206/385/19 210/393/19
f 211/397/21 210/393/21 206/385/21
f 213/400/20 210/394/20 211/395/20
f 213/401/22 207/387/22 209/391/22
f 209/392/23 207/386/23 206/384/23
f 209/392/23 206/384/23 208/390/23
f 213/401/22 211/396/22 207/387/22
f 211/397/21 206/385/21 207/388/21
o joystick
v 0.5 0.92188 -1
v 0.5 0.92188 -1.0625
v 0.5 0.79688 -1
v 0.5 0.79688 -1.0625
v 0.4375 0.92188 -1
v 0.4375 0.92188 -1.0625
v 0.4375 0.79688 -1
v 0.4375 0.79688 -1.0625
vn -0.0000 -0.0000 1.0000
vn -1.0000 -0.0000 -0.0000
vn -0.0000 1.0000 -0.0000
vn -0.0000 -0.0000 -1.0000
vn 1.0000 -0.0000 -0.0000
vt 0.04546 0.34746
vt 0.06061 0.34746
vt 0.06061 0.34746
vt 0.04546 0.34746
vt 0.06061 0.35593
vt 0.06061 0.33051
vt 0.04546 0.33051
vt 0.04546 0.33051
vt 0.06061 0.33051
vt 0.04546 0.34746
vt 0.06061 0.34746
vt 0.04546 0.34746
vt 0.06061 0.34746
vt 0.04546 0.35593
vt 0.06061 0.33051
vt 0.04546 0.33051
vt 0.04546 0.33051
vt 0.06061 0.33051
s 1
f 220/417/24 216/407/24 214/403/24
f 221/418/25 220/416/25 218/412/25
f 220/417/24 214/403/24 218/411/24
f 219/415/26 218/411/26 214/403/26
f 221/418/25 218/412/25 219/413/25
f 221/419/27 215/405/27 217/409/27
f 217/410/28 215/404/28 214/402/28
f 217/410/28 214/402/28 216/408/28
f 221/419/27 219/414/27 215/405/27
f 219/415/26 214/403/26 215/406/26
