# Blender 3.4.1
# www.blender.org
o Cube_Cube.001
v -0.5 -0 0.5
v -0.5 1 0.5
v -0.5 0 -0.5
v -0.5 1 -0.5
v 0.5 -0 0.5
v 0.5 1 0.5
v 0.5 0 -0.5
v 0.5 1 -0.5
v -0.5 0.5 -0.5
v -0.5 0.85355 -0.35355
v -0.5 1 0
v -0.5 0.85355 0.35355
v -0.5 0.5 0.5
v -0.5 0.14645 0.35355
v -0.5 0 0
v -0.5 0.14645 -0.35355
v -2.5 0.5 -0.5
v -2.5 0.85355 -0.35355
v -2.5 1 0
v -2.5 0.85355 0.35355
v -2.5 0.5 0.5
v -2.5 0.14645 0.35355
v -2.5 0 0
v -2.5 0.14645 -0.35355
v -2.5 0.5 -0.4375
v -2.5 0.80936 -0.30936
v -2.5 0.9375 0
v -2.5 0.80936 0.30936
v -2.5 0.5 0.4375
v -2.5 0.19064 0.30936
v -2.5 0.0625 0
v -2.5 0.19064 -0.30936
v -1.5 0.5 -0.4375
v -1.5 0.80936 -0.30936
v -1.5 0.9375 0
v -1.5 0.80936 0.30936
v -1.5 0.5 0.4375
v -1.5 0.19064 0.30936
v -1.5 0.0625 0
v -1.5 0.19064 -0.30936
v -1.5 0.5 -0.5
v -1.5 1 0
v -1.5 0.5 0.5
v -1.5 0 0
v -1.5 0.85355 -0.35355
v -1.5 0.85355 0.35355
v -1.5 0.14645 0.35355
v -1.5 0.14645 -0.35355
vn -0.0000 1.0000 -0.0000
vn -0.0000 0.3827 -0.9239
vn -0.0000 -0.9239 -0.3827
vn -0.0000 -0.9239 0.3827
vn -0.0000 -0.3827 0.9239
vn -0.0000 -0.0000 -1.0000
vn -1.0000 -0.0000 -0.0000
vn -0.0000 0.9239 0.3827
vn -0.0000 0.9239 -0.3827
vn -0.0000 -0.3827 -0.9239
vn -0.0000 0.3827 0.9239
vn -0.0000 -1.0000 -0.0000
vn -0.0000 -0.0000 1.0000
vn 1.0000 -0.0000 -0.0000
vt 0 0.32653
vt 0 0
vt 0.25 0
vt 0.25 0.32653
vt 0 0.65306
vt 0 0.32653
vt 0.25 0
vt 0.25 0.32653
vt 0 0
vt 0.25 0.65306
vt 0.25 0.32653
vt 0 0.32653
vt 0 0.65306
vt 0.25 0
vt 0 0
vt 0.25 0.32653
vt 0 0.32653
vt 0.25 0.65306
vt 0 0
vt 0.25 0
vt 0 0.32653
vt 0.25 0.32653
vt 0.8125 0
vt 0.71875 0
vt 0.625 0
vt 0.53125 -0
vt 0.4375 0
vt 0.34375 0
vt 1 -0
vt 0.25 0
vt 0.90625 -0
vt 0.8125 0.65306
vt 0.71875 0.65306
vt 0.625 0.65306
vt 0.53125 0.65306
vt 0.4375 0.65306
vt 0.34375 0.65306
vt 1 0.65306
vt 0.25 0.65306
vt 0.90625 0.65306
vt 0.8125 0.67347
vt 0.71875 0.67347
vt 0.625 0.67347
vt 0.53125 0.67347
vt 0.4375 0.67347
vt 0.34375 0.67347
vt 1 0.67347
vt 0.25 0.67347
vt 0.90625 0.67347
vt 0.03143 0.79592
vt 0.8125 1
vt 0.71875 1
vt 0.06341 0.89677
vt 0.14062 0.93854
vt 0.625 1
vt 0.21784 0.89677
vt 0.53125 1
vt 0.4375 1
vt 0.24982 0.79592
vt 0.34375 1
vt 0.21784 0.69507
vt 0.25 1
vt 0.14062 0.6533
vt 1 1
vt 0.06341 0.69507
vt 0.90625 1
vt 0.8125 0.32653
vt 0.625 0.32653
vt 0.4375 0.32653
vt 1 0.32653
vt 0.25 0.32653
vt 0.71875 0.32653
vt 0.53125 0.32653
vt 0.34375 0.32653
vt 0.90625 0.32653
s 0
f 2/5/1 8/22/1 4/10/1
f 45/72/2 9/23/2 41/67/2
f 48/75/3 15/29/3 44/70/3
f 34/52/4 27/43/4 26/42/4
f 33/51/5 26/42/5 25/41/5
f 8/21/6 3/7/6 4/11/6
f 27/43/7 20/35/7 19/34/7
f 47/74/5 13/27/5 43/69/5
f 46/73/8 11/25/8 42/68/8
f 38/60/9 31/48/9 30/46/9
f 41/67/10 16/31/10 48/75/10
f 44/71/4 14/28/4 47/74/4
f 43/69/11 12/26/11 46/73/11
f 36/57/10 29/45/10 28/44/10
f 20/35/7 29/45/7 21/36/7
f 24/40/7 25/41/7 17/32/7
f 18/33/7 27/43/7 19/34/7
f 31/47/7 24/40/7 23/38/7
f 29/45/7 22/37/7 21/36/7
f 19/34/9 45/72/9 18/33/9
f 25/41/7 18/33/7 17/32/7
f 22/37/7 31/48/7 23/39/7
f 37/58/2 30/46/2 29/45/2
f 35/55/3 28/44/3 27/43/3
f 5/13/12 3/8/12 7/18/12
f 2/6/13 5/14/13 6/16/13
f 4/12/7 1/3/7 2/4/7
f 40/66/11 25/41/11 32/49/11
f 6/17/14 7/20/14 8/22/14
f 39/64/8 32/49/8 31/47/8
f 37/59/7 36/56/7 35/54/7
f 27/43/7 28/44/7 20/35/7
f 33/51/5 34/52/5 26/42/5
f 38/60/9 39/62/9 31/48/9
f 31/47/7 32/49/7 24/40/7
f 20/35/7 28/44/7 29/45/7
f 8/21/6 7/19/6 3/7/6
f 45/72/2 10/24/2 9/23/2
f 48/75/3 16/31/3 15/29/3
f 34/52/4 35/55/4 27/43/4
f 19/34/9 42/68/9 45/72/9
f 25/41/7 26/42/7 18/33/7
f 22/37/7 30/46/7 31/48/7
f 37/58/2 38/60/2 30/46/2
f 46/73/8 12/26/8 11/25/8
f 22/37/5 43/69/5 21/36/5
f 24/40/3 44/70/3 23/38/3
f 20/35/8 42/68/8 19/34/8
f 17/32/10 48/75/10 24/40/10
f 23/39/4 47/74/4 22/37/4
f 21/36/11 46/73/11 20/35/11
f 2/5/1 6/17/1 8/22/1
f 18/33/2 41/67/2 17/32/2
f 43/69/11 13/27/11 12/26/11
f 36/57/10 37/58/10 29/45/10
f 24/40/7 32/49/7 25/41/7
f 29/45/7 30/46/7 22/37/7
f 47/74/5 14/28/5 13/27/5
f 18/33/7 26/42/7 27/43/7
f 41/67/10 9/23/10 16/31/10
f 44/71/4 15/30/4 14/28/4
f 35/54/7 34/53/7 33/50/7
f 33/50/7 40/65/7 35/54/7
f 40/65/7 39/63/7 35/54/7
f 39/63/7 38/61/7 35/54/7
f 38/61/7 37/59/7 35/54/7
f 42/68/9 10/24/9 45/72/9
f 35/55/3 36/57/3 28/44/3
f 5/13/12 1/1/12 3/8/12
f 2/6/13 1/2/13 5/14/13
f 4/12/7 3/9/7 1/3/7
f 40/66/11 33/51/11 25/41/11
f 6/17/14 5/15/14 7/20/14
f 39/64/8 40/66/8 32/49/8
f 22/37/5 47/74/5 43/69/5
f 24/40/3 48/75/3 44/70/3
f 20/35/8 46/73/8 42/68/8
f 17/32/10 41/67/10 48/75/10
f 23/39/4 44/71/4 47/74/4
f 21/36/11 43/69/11 46/73/11
f 18/33/2 45/72/2 41/67/2
f 42/68/9 11/25/9 10/24/9
