# Blender 3.4.1
# www.blender.org
o Base
v 0.125 1 0.5
v -0.5 1 0.5
v -0.5 -0 0.5
v 0.5 -0 0.5
v 0.5 0.625 0.25
v 0.5 0.625 0.5
v 0.125 1 0.25
v 0.125 0.625 0.25
v 0.125 0.625 -0.625
v 0.5 0.625 -0.625
v 0.125 1 -0.625
v 0.5 0.625 -1.5
v 0.125 1 -1.5
v 0.5 0 -1.5
v -0.5 0 -1.5
v -0.5 1 -1.5
v 0.0625 1.5 -0.9375
v 0.0625 1.5 -1.4375
v 0.0625 1 -0.9375
v 0.0625 1 -1.4375
v -0.3125 1.5 -0.9375
v -0.3125 1.5 -1.4375
v -0.3125 1 -0.9375
v -0.3125 1 -1.4375
v -0.3125 1.4375 -1
v -0.3125 1.4375 -1.375
v -0.3125 1.0625 -1
v -0.3125 1.0625 -1.375
v -0.4375 1.4375 -1
v -0.4375 1.4375 -1.375
v -0.4375 1.0625 -1
v -0.4375 1.0625 -1.375
v 0.125 1.5 0.25
v 0.125 1.5 -0.625
v 0.125 1 0.25
v 0.125 1 -0.625
v -0.25 1.5 0.25
v -0.25 1.5 -0.625
v -0.25 1 0.25
v -0.25 1 -0.625
v -0.25 1.4375 0.1875
v -0.25 1.4375 -0.5625
v -0.25 1 0.1875
v -0.25 1 -0.5625
v -0.3125 1.4375 0.1875
v -0.3125 1.4375 -0.5625
v -0.3125 1 0.1875
v -0.3125 1 -0.5625
v -0.3125 1.125 -0.3125
v -0.3125 1.125 -0.375
v -0.3125 1 -0.3125
v -0.3125 1 -0.375
v -0.375 1.125 -0.3125
v -0.375 1.125 -0.375
v -0.3125 1.0625 -0.3125
v -0.375 1.0625 -0.3125
v -0.375 1.0625 -0.375
v -0.3125 1.0625 -0.375
v -0.5 1 -0.3125
v -0.5 1.0625 -0.3125
v -0.5 1.0625 -0.375
v -0.4375 1.0625 -0.375
v -0.4375 1 -0.375
v -0.5 1.0625 -1.0625
v -0.4375 1.0625 -1.0625
v -0.5 1 -1.0625
v -0.4375 1.0625 -1.125
v -0.4375 1 -1.125
v -0.5 1 -1.125
v -0.4375 1.1875 -1.125
v -0.5 1.1875 -1.125
v -0.5 1.1875 -1.0625
v -0.4375 1.1875 -1.0625
v 0.375 0.75 -0.875
v 0.1875 0.9375 -0.875
v 0.375 0.75 -1.375
v 0.1875 0.9375 -1.375
v 0.41919 0.79419 -1.375
v 0.23169 0.98169 -1.375
v 0.41919 0.79419 -0.875
v 0.23169 0.98169 -0.875
v -0.5 0 -0.5
v 0.125 1 -0.5
v 0.5 0 -0.5
v -0.5 1 -0.5
v 0.5 0.625 -0.5
vn -0.0000 -0.0000 -1.0000
vn -0.0000 -0.0000 1.0000
vn 1.0000 -0.0000 -0.0000
vn -0.7071 0.7071 -0.0000
vn -1.0000 -0.0000 -0.0000
vn 0.7071 0.7071 -0.0000
vn -0.0000 1.0000 -0.0000
vn -0.0000 -1.0000 -0.0000
vn 0.7071 -0.7071 -0.0000
vt 0.65625 0.25
vt 0 0.25
vt 0.5 0.34375
vt 0.5 0.25
vt 0.5 0.5
vt 0.5 0.25
vt 0 0.5
vt 0.5 0
vt 0.75 0
vt 0 0
vt 0 0.75
vt 0.59375 0.5
vt 0.59375 0.25
vt 0.0625 0.15625
vt 0.75 0.15625
vt 0 0.15625
vt 0.6875 0.59375
vt 0.0625 0.25
vt 0.6875 0.5
vt 0.59375 0.34375
vt 0.0625 0.15625
vt 0.5 0.5
vt 0.8125 0.34375
vt 0.28125 0.15625
vt 0.59375 0.5
vt 0.8125 0.25
vt 0.28125 0.15625
vt 0.5 0.59375
vt 0.28125 0.25
vt 0.5 0.15625
vt 0.75 0.15625
vt 0.84375 0.25
vt 1 0.34375
vt 0.5 0.25
vt 0.5 0
vt 0.75 0
vt 0.5 0.75
vt 0.5 0.5
vt 0 0.25
vt 1 0
vt 1 0.25
vt 0 0.5
vt 1 0.5
vt 0 0.875
vt 0.21875 0.75
vt 0.21875 0.875
vt 0.21875 0.875
vt 0.125 0.875
vt 0.21875 0.75
vt 0 0.75
vt 0.125 0.75
vt 0.125 1
vt 0.125 0.875
vt 0.125 0.75
vt 0.21875 0.875
vt 0 1
vt 0.125 0.875
vt 0.125 0.875
vt 0.125 0.75
vt 0.21875 0.75
vt 0 0.875
vt 0.125 0.98438
vt 0.10938 0.98438
vt 0.10938 1
vt 0 0.98438
vt 0.01562 0.98438
vt 0.01562 1
vt 0.125 0.89062
vt 0.10938 0.89062
vt 0.10938 0.875
vt 0 0.89062
vt 0.01562 0.89062
vt 0.01562 0.875
vt 0.10938 0.96875
vt 0.10938 0.98438
vt 0.09375 0.98438
vt 0.03125 0.98438
vt 0.01562 0.98438
vt 0.01562 0.96875
vt 0.09375 0.89062
vt 0.10938 0.89062
vt 0.10938 0.90625
vt 0.01562 0.90625
vt 0.01562 0.89062
vt 0.03125 0.89062
vt 0.53125 0.875
vt 0.53125 0.96875
vt 0.3125 0.875
vt 0.21875 0.875
vt 0.75 0.875
vt 0.3125 0.96875
vt 0.53125 0.75
vt 0.3125 0.75
vt 0.21875 0.75
vt 0.75 0.75
vt 0.21875 0.875
vt 0.53125 0.875
vt 0.3125 0.875
vt 0.53125 0.75
vt 0.21875 0.75
vt 0.3125 0.75
vt 0.51562 0.85938
vt 0.51562 0.84375
vt 0.32812 0.84375
vt 0.32812 0.85938
vt 0.51562 0.75
vt 0.32812 0.75
vt 0.51562 0.85938
vt 0.5 0.85938
vt 0.34375 0.85938
vt 0.32812 0.85938
vt 0.5 0.75
vt 0.51562 0.75
vt 0.32812 0.75
vt 0.34375 0.75
vt 0.73438 0.90625
vt 0.73438 0.92188
vt 0.71875 0.92188
vt 0.73438 0.92188
vt 0.73438 0.89062
vt 0.73438 0.89062
vt 0.71875 0.92188
vt 0.71875 0.90625
vt 0.73438 0.92188
vt 0.73438 0.92188
vt 0.71875 0.92188
vt 0.73438 0.90625
vt 0.71875 0.90625
vt 0.6875 0.92188
vt 0.73438 0.90625
vt 0.71875 0.90625
vt 0.67188 0.92188
vt 0.73438 0.90625
vt 0.71875 0.90625
vt 0.73438 0.90625
vt 0.6875 0.89062
vt 0.73438 0.875
vt 0.6875 0.89062
vt 0.6875 0.90625
vt 0.73438 0.89062
vt 0.67188 0.89062
vt 0.71875 0.875
vt 0.70312 0.90625
vt 0.54688 0.89062
vt 0.71875 0.89062
vt 0.54688 0.875
vt 0.70312 0.89062
vt 0.54688 0.875
vt 0.54688 0.89062
vt 0.53125 0.89062
vt 0.54688 0.89062
vt 0.54688 0.875
vt 0.73438 0.89062
vt 0.53125 0.875
vt 0.73438 0.875
vt 0.54688 0.875
vt 0.53125 0.875
vt 0.53125 0.92188
vt 0.54688 0.92188
vt 0.53125 0.92188
vt 0.54688 0.92188
vt 0.53125 0.92188
vt 0.53125 0.90625
vt 0.54688 0.92188
vt 0.54688 0.90625
vt 0.54688 0.92188
vt 0.70312 0.5
vt 0.6875 0.5
vt 0.82812 0.5
vt 0.6875 0.54688
vt 0.82812 0.5
vt 0.6875 0.5
vt 0.6875 0.54688
vt 0.70312 0.5
vt 0.46875 0.1875
vt 0.82812 0.51562
vt 0.70312 0.5
vt 0.70312 0.51562
vt 0.46875 0.23438
vt 0.70312 0.54688
vt 0.70312 0.51562
vt 0.34375 0.1875
vt 0.70312 0.5
vt 0.70312 0.54688
vt 0.34375 0.23438
vt 0.82812 0.51562
vt 0.25 0.5
vt 0.25 0.25
vt 0.75 0.34375
vt 0.25 0
vt 0.25 0.75
vt 0.25 0.5
vt 0.75 0.5
vt 0.25 0.15625
s 0
f 8/19/1 7/17/1 5/12/1
f 9/22/2 10/25/2 11/28/2
f 19/50/3 18/48/3 17/44/3
f 8/21/3 11/29/3 7/18/3
f 20/51/1 22/55/1 18/48/1
f 12/31/1 16/41/1 13/32/1
f 1/1/2 3/8/2 4/9/2
f 1/1/2 4/9/2 6/15/2
f 12/30/3 84/190/3 14/35/3
f 77/174/4 81/186/4 79/178/4
f 64/150/2 73/166/2 72/162/2
f 69/157/5 72/164/5 71/160/5
f 13/34/6 10/27/6 12/30/6
f 83/189/7 16/43/7 85/193/7
f 18/47/7 21/54/7 17/45/7
f 9/23/7 5/13/7 10/26/7
f 21/53/2 19/49/2 17/46/2
f 35/92/3 34/90/3 33/86/3
f 25/64/7 30/79/7 29/74/7
f 27/69/5 21/52/5 25/63/5
f 25/63/5 22/56/5 26/66/5
f 26/66/5 24/61/5 28/72/5
f 28/72/5 23/58/5 27/69/5
f 84/191/8 3/7/8 82/187/8
f 36/94/1 38/98/1 34/89/1
f 55/127/2 53/122/2 56/128/2
f 79/179/6 80/182/6 78/175/6
f 34/91/7 37/97/7 33/87/7
f 50/119/7 53/123/7 49/116/7
f 37/96/2 35/93/2 33/88/2
f 46/111/5 47/113/5 45/108/5
f 41/103/7 46/111/7 45/108/7
f 41/102/5 39/99/5 37/97/5
f 41/102/5 38/98/5 42/105/5
f 42/105/5 40/101/5 44/107/5
f 57/133/1 50/118/1 58/134/1
f 42/105/1 48/115/1 46/110/1
f 60/138/7 57/132/7 61/141/7
f 56/130/5 54/126/5 57/131/5
f 59/137/5 64/149/5 66/152/5
f 74/167/9 78/176/9 80/181/9
f 51/120/2 60/139/2 59/136/2
f 61/142/7 65/151/7 64/148/7
f 68/155/3 62/144/3 63/146/3
f 58/135/1 63/147/1 62/143/1
f 28/73/8 31/82/8 32/83/8
f 43/106/2 45/109/2 47/112/2
f 85/192/5 15/39/5 82/188/5
f 72/163/7 70/159/7 71/160/7
f 26/65/1 32/85/1 30/77/1
f 86/194/3 4/10/3 84/190/3
f 68/154/1 71/161/1 70/158/1
f 27/68/2 29/76/2 31/80/2
f 30/78/5 31/81/5 29/75/5
f 12/31/1 15/40/1 16/41/1
f 75/170/2 80/183/2 81/184/2
f 79/180/1 76/172/1 77/173/1
f 68/154/1 69/156/1 71/161/1
f 30/78/5 32/84/5 31/81/5
f 36/94/1 40/101/1 38/98/1
f 14/37/8 82/187/8 15/38/8
f 2/5/5 82/188/5 3/6/5
f 20/51/1 24/60/1 22/55/1
f 12/30/3 86/194/3 84/190/3
f 60/138/7 56/129/7 57/132/7
f 27/68/2 25/62/2 29/76/2
f 55/127/2 49/117/2 53/122/2
f 86/194/3 6/16/3 4/10/3
f 79/179/6 81/185/6 80/182/6
f 26/65/1 28/71/1 32/85/1
f 72/163/7 73/165/7 70/159/7
f 84/191/8 4/11/8 3/7/8
f 27/69/5 23/58/5 21/52/5
f 25/63/5 21/52/5 22/56/5
f 26/66/5 22/56/5 24/61/5
f 28/72/5 24/61/5 23/58/5
f 77/174/4 75/169/4 81/186/4
f 25/64/7 26/67/7 30/79/7
f 57/133/1 54/125/1 50/118/1
f 69/157/5 66/152/5 72/164/5
f 85/192/5 16/42/5 15/39/5
f 58/135/1 52/121/1 63/147/1
f 43/106/2 41/102/2 45/109/2
f 28/73/8 27/70/8 31/82/8
f 35/92/3 36/95/3 34/90/3
f 41/102/5 43/106/5 39/99/5
f 41/102/5 37/97/5 38/98/5
f 42/105/5 38/98/5 40/101/5
f 37/96/2 39/100/2 35/93/2
f 21/53/2 23/59/2 19/49/2
f 9/23/7 8/20/7 5/13/7
f 68/155/3 67/153/3 62/144/3
f 41/103/7 42/104/7 46/111/7
f 50/119/7 54/126/7 53/123/7
f 61/142/7 62/145/7 65/151/7
f 83/189/7 13/33/7 16/43/7
f 51/120/2 55/127/2 60/139/2
f 18/47/7 22/57/7 21/54/7
f 13/34/6 11/29/6 10/27/6
f 46/111/5 48/114/5 47/113/5
f 56/130/5 53/124/5 54/126/5
f 59/137/5 60/140/5 64/149/5
f 42/105/1 44/107/1 48/115/1
f 1/1/2 2/4/2 3/8/2
f 74/167/9 76/171/9 78/176/9
f 64/150/2 65/151/2 73/166/2
f 34/91/7 38/98/7 37/97/7
f 1/3/7 85/193/7 2/5/7
f 8/21/3 9/24/3 11/29/3
f 19/50/3 20/51/3 18/48/3
f 6/16/6 7/18/6 1/2/6
f 12/31/1 14/36/1 15/40/1
f 75/170/2 74/168/2 80/183/2
f 79/180/1 78/177/1 76/172/1
f 14/37/8 84/191/8 82/187/8
f 2/5/5 85/192/5 82/188/5
f 1/3/7 83/189/7 85/193/7
f 6/16/6 5/14/6 7/18/6
o Drive
v 0.35669 0.85669 -1.3125
v 0.29419 0.91919 -1.3125
v 0.35669 0.85669 -0.9375
v 0.29419 0.91919 -0.9375
v 0.44508 0.94508 -1.3125
v 0.38258 1.00758 -1.3125
v 0.44508 0.94508 -0.9375
v 0.38258 1.00758 -0.9375
vn -0.0000 -0.0000 -1.0000
vn 0.7071 0.7071 -0.0000
vn -0.0000 -0.0000 1.0000
vn 0.7071 -0.7071 -0.0000
vn -0.7071 0.7071 -0.0000
vt 0.1875 0.92188
vt 0.3125 0.875
vt 0.1875 0.90625
vt 0.3125 0.875
vt 0.1875 0.90625
vt 0.21875 0.875
vt 0.1875 0.92188
vt 0.21875 0.875
vt 0.21875 0.92188
vt 0.3125 0.90625
vt 0.21875 0.90625
vt 0.3125 0.92188
vt 0.3125 0.90625
vt 0.21875 0.90625
vt 0.21875 0.92188
vt 0.21875 0.90625
s 0
f 91/203/10 87/195/10 88/197/10
f 91/203/10 88/197/10 92/205/10
f 92/206/11 93/208/11 91/204/11
f 93/208/12 90/201/12 89/199/12
f 89/200/13 91/204/13 93/208/13
f 92/206/11 94/209/11 93/208/11
f 89/200/13 87/196/13 91/204/13
f 93/208/12 94/209/12 90/201/12
f 88/198/14 90/202/14 94/210/14
f 88/198/14 94/210/14 92/207/14
