# Blender 3.4.1
# www.blender.org
o Base
v -1 0 -1
v -1 -0 1
v 1 0 -1
v 1 -0 1
v 0.5 0.125 -0.5
v -0.5 0.125 -0.5
v -0.5 0.125 0.5
v 0.5 0.125 0.5
v 1 0.125 -1
v -1 0.125 -1
v -1 0.125 1
v 1 0.125 1
v 0.5 0.25 -0.5
v -0.5 0.25 -0.5
v -0.5 0.25 0.5
v 0.5 0.25 0.5
v -1 0 0
v 0 0 -1
v 0 -0 1
v 1 0 0
v 0 0.125 1
v 0 0.125 -1
v 1 0.125 0
v -1 0.125 0
v 0 0 0
vn -0.0000 1.0000 -0.0000
vn 1.0000 -0.0000 -0.0000
vn -1.0000 -0.0000 -0.0000
vn -0.0000 -0.0000 -1.0000
vn -0.0000 -0.0000 1.0000
vn -0.0000 -1.0000 -0.0000
vt 0.39682 0.53226
vt 0.38095 0.54839
vt 0.38095 0
vt 0.12698 0.54839
vt 0.11111 0.53226
vt 0.12698 0
vt 0.38095 0.25806
vt 0.39682 0.27419
vt 0.11111 0.27419
vt 0.12698 0.25806
vt 0.52381 -0
vt 0.53968 0.01613
vt 0.31746 0.33871
vt 0.53968 0.14516
vt 0.52381 0.16129
vt 0.31746 0.46774
vt 0.39682 0.16129
vt 0.38095 0.14516
vt 0.19048 0.46774
vt 0.38095 0.01613
vt 0.39682 -0
vt 0.19048 0.33871
vt 0.38095 0.27419
vt 0.38095 0.53226
vt 0.12698 0.53226
vt 0.12698 0.27419
vt 0.52381 0.01613
vt 0.52381 0.14516
vt 0.39682 0.14516
vt 0.39682 0.01613
vt 0.25397 0.54839
vt 0.25397 0
vt 0.39682 0.40323
vt 0.38095 0.12903
vt 0.12698 0.12903
vt 0.11111 0.40323
vt 0.25397 0.25806
vt 0.12698 0.40323
vt 0.38095 0.40323
vt 0.25397 0.27419
vt 0.25397 0.53226
vt 0.25397 0.12903
s 0
f 16/30/1 14/28/1 15/29/1
f 13/27/2 8/21/2 5/11/2
f 23/40/2 4/10/2 20/37/2
f 24/41/3 1/2/3 17/31/3
f 14/28/4 5/12/4 6/14/4
f 21/38/5 2/5/5 19/36/5
f 5/13/1 10/24/1 6/16/1
f 6/16/1 11/25/1 7/19/1
f 7/19/1 12/26/1 8/22/1
f 8/22/1 9/23/1 5/13/1
f 15/29/3 6/15/3 7/17/3
f 16/30/5 7/18/5 8/20/5
f 19/35/6 17/32/6 25/42/6
f 10/24/4 18/33/4 1/1/4
f 4/10/6 25/42/6 20/37/6
f 11/25/3 17/31/3 2/4/3
f 13/27/2 16/30/2 8/21/2
f 24/41/3 10/24/3 1/2/3
f 16/30/1 13/27/1 14/28/1
f 23/40/2 12/26/2 4/10/2
f 5/13/1 22/39/1 10/24/1
f 6/16/1 24/41/1 11/25/1
f 7/19/1 21/38/1 12/26/1
f 8/22/1 23/40/1 9/23/1
f 20/37/6 18/34/6 3/7/6
f 9/23/2 20/37/2 3/7/2
f 12/26/5 19/36/5 4/9/5
f 25/42/6 1/3/6 18/34/6
f 22/39/4 3/8/4 18/33/4
f 14/28/4 13/27/4 5/12/4
f 21/38/5 11/25/5 2/5/5
f 15/29/3 14/28/3 6/15/3
f 16/30/5 15/29/5 7/18/5
f 19/35/6 2/6/6 17/32/6
f 10/24/4 22/39/4 18/33/4
f 4/10/6 19/35/6 25/42/6
f 11/25/3 24/41/3 17/31/3
f 5/13/1 9/23/1 22/39/1
f 6/16/1 10/24/1 24/41/1
f 7/19/1 11/25/1 21/38/1
f 8/22/1 12/26/1 23/40/1
f 20/37/6 25/42/6 18/34/6
f 9/23/2 23/40/2 20/37/2
f 12/26/5 21/38/5 19/36/5
f 25/42/6 17/32/6 1/3/6
f 22/39/4 9/23/4 3/8/4
o Guides
v -1.5 1 1.25
v -1.5 1 1.5
v -1.25 1 1.25
v -1.25 1 1.5
v -1.25 -0 1.5
v -1.25 -0 1.25
v -1.5 -0 1.5
v -1.5 -0 1.25
v 1.5 -0 1.5
v 1.5 -0 1.25
v 1.25 -0 1.5
v 1.25 -0 1.25
v -1.25 0 -1.25
v -1.25 0 -1.5
v -1.5 0 -1.25
v -1.5 0 -1.5
v 1.5 0 -1.25
v 1.5 0 -1.5
v 1.25 0 -1.25
v 1.25 0 -1.5
v 1.5 1 1.5
v 1.5 1 1.25
v 1.25 1 1.5
v 1.25 1 1.25
v -1.25 1 -1.25
v -1.25 1 -1.5
v -1.5 1 -1.25
v -1.5 1 -1.5
v 1.5 1 -1.25
v 1.5 1 -1.5
v 1.25 1 -1.25
v 1.25 1 -1.5
vn -0.0000 -0.0000 1.0000
vn -0.0000 -1.0000 -0.0000
vn 1.0000 -0.0000 -0.0000
vn -1.0000 -0.0000 -0.0000
vn -0.0000 -0.0000 -1.0000
vn -0.0000 1.0000 -0.0000
vt 0.06349 0.16129
vt 0.03175 0.19355
vt 0 0.19355
vt 0.09524 0.16129
vt 0.03175 0.16129
vt 0.12698 0.16129
vt 0 0.16129
vt 0.12698 0.03226
vt 0 0.03226
vt 0.03175 0.03226
vt 0.09524 0.03226
vt 0 0
vt 0.03175 0
vt 0.06349 0.03226
vt 0.12698 0.03226
vt 0 0.03226
vt 0.03175 0.03226
vt 0.09524 0.03226
vt 0 0
vt 0.06349 0.03226
vt 0.03175 0
vt 0.12698 0.03226
vt 0 0.03226
vt 0.03175 0.03226
vt 0 0
vt 0.09524 0.03226
vt 0.03175 0
vt 0.06349 0.03226
vt 0.12698 0.03226
vt 0 0.03226
vt 0.03175 0.03226
vt 0 0
vt 0.09524 0.03226
vt 0.03175 0
vt 0.06349 0.03226
vt 0.12698 0.16129
vt 0 0.16129
vt 0.03175 0.16129
vt 0 0.19355
vt 0.09524 0.16129
vt 0.03175 0.19355
vt 0.06349 0.16129
vt 0 0.16129
vt 0.12698 0.16129
vt 0.03175 0.16129
vt 0 0.19355
vt 0.09524 0.16129
vt 0.03175 0.19355
vt 0.06349 0.16129
vt 0.12698 0.16129
vt 0 0.16129
vt 0.03175 0.16129
vt 0 0.19355
vt 0.09524 0.16129
vt 0.03175 0.19355
vt 0.06349 0.16129
s 0
f 29/48/7 32/53/7 30/50/7
f 50/86/7 40/68/7 38/64/7
f 40/67/8 39/66/8 38/65/8
f 47/80/9 34/58/9 35/59/9
f 52/89/10 41/70/10 40/68/10
f 53/91/11 39/66/11 41/70/11
f 55/94/9 42/72/9 43/73/9
f 27/46/10 33/56/10 32/53/10
f 56/96/10 45/77/10 44/75/10
f 29/48/7 27/46/7 32/53/7
f 33/55/8 30/51/8 32/54/8
f 51/87/12 52/88/12 50/85/12
f 36/61/8 35/59/8 34/58/8
f 54/92/7 44/75/7 42/71/7
f 49/84/11 35/59/11 37/62/11
f 57/97/12 54/93/12 55/94/12
f 57/98/11 43/73/11 45/77/11
f 28/47/9 30/51/9 31/52/9
f 47/80/12 48/81/12 46/79/12
f 51/87/9 38/65/9 39/66/9
f 48/82/10 37/62/10 36/60/10
f 26/43/11 31/52/11 33/56/11
f 46/78/7 36/60/7 34/57/7
f 45/76/8 42/72/8 44/74/8
f 33/55/8 31/52/8 30/51/8
f 45/76/8 43/73/8 42/72/8
f 46/78/7 48/82/7 36/60/7
f 40/67/8 41/69/8 39/66/8
f 51/87/9 50/85/9 38/65/9
f 28/47/9 29/49/9 30/51/9
f 57/97/12 56/95/12 54/93/12
f 49/84/11 47/80/11 35/59/11
f 50/86/7 52/89/7 40/68/7
f 51/87/12 53/90/12 52/88/12
f 47/80/12 49/83/12 48/81/12
f 26/44/12 27/45/12 29/49/12
f 56/96/10 57/98/10 45/77/10
f 26/43/11 28/47/11 31/52/11
f 57/98/11 55/94/11 43/73/11
f 53/91/11 51/87/11 39/66/11
f 54/92/7 56/96/7 44/75/7
f 48/82/10 49/84/10 37/62/10
f 52/89/10 53/91/10 41/70/10
f 55/94/9 54/93/9 42/72/9
f 36/61/8 37/63/8 35/59/8
f 27/46/10 26/43/10 33/56/10
f 47/80/9 46/79/9 34/58/9
f 26/44/12 29/49/12 28/47/12
o Piston
v 0.25 0.75 0.25
v 0.25 0.75 -0.25
v -0.25 0.75 0.25
v -0.25 0.75 -0.25
v 0.25 -0.25 0.25
v 0.25 -0.25 -0.25
v -0.25 -0.25 0.25
v -0.25 -0.25 -0.25
vn -0.0000 -0.0000 -1.0000
vn -0.0000 -0.0000 1.0000
vn -1.0000 -0.0000 -0.0000
vn 1.0000 -0.0000 -0.0000
vt 0.19048 0.67742
vt 0.25397 0.67742
vt 0.12698 0.67742
vt 0.38095 0.67742
vt 0.31746 0.67742
vt 0.19048 0.54839
vt 0.25397 0.54839
vt 0.12698 0.54839
vt 0.38095 0.54839
vt 0.31746 0.54839
s 0
f 63/105/13 65/108/13 61/103/13
f 63/105/13 61/103/13 59/100/13
f 64/106/14 58/99/14 60/101/14
f 65/108/15 60/102/15 61/103/15
f 64/106/14 62/104/14 58/99/14
f 62/104/16 63/105/16 59/100/16
f 65/108/15 64/107/15 60/102/15
f 62/104/16 59/100/16 58/99/16
o Platform
v -1.5 0.75 1.25
v -1.25 0.75 1.25
v -1.25 0.75 1.5
v 1.5 0.75 1.25
v 1.25 0.75 1.5
v 1.25 0.75 1.25
v -1.25 0.75 -1.25
v -1.25 0.75 -1.5
v -1.5 0.75 -1.25
v 1.5 0.75 -1.25
v 1.25 0.75 -1.25
v 1.25 0.75 -1.5
v -1 0.75 1.25
v -1 0.75 -1.25
v 1 0.75 1.25
v 1 0.75 -1.25
v 1.25 0.75 1
v -1.25 0.75 1
v 1.25 0.75 -1
v -1.25 0.75 -1
v -1.25 1 1.25
v -1.5 1 1.25
v -1.25 1 1.5
v 1.25 1 1.5
v 1.25 1 1.25
v 1.5 1 1.25
v -1.25 1 -1.25
v -1.25 1 -1.5
v -1.5 1 -1.25
v 1.25 1 -1.25
v 1.25 1 -1.5
v 1.5 1 -1.25
v -1 1 1.25
v 1 1 1.25
v 1.25 1 1
v 1.25 1 -1
v 1 1 -1.25
v -1 1 -1.25
v -1.25 1 -1
v -1.25 1 1
v -1 0.78125 1.25
v 1 0.78125 1.25
v 1.25 0.78125 1
v 1.25 0.78125 -1
v 1 0.78125 -1.25
v -1 0.78125 -1.25
v -1.25 0.78125 -1
v -1.25 0.78125 1
v -1 0.96875 1.25
v 1 0.96875 1.25
v 1.25 0.96875 1
v 1.25 0.96875 -1
v 1 0.96875 -1.25
v -1 0.96875 -1.25
v -1.25 0.96875 -1
v -1.25 0.96875 1
v -0.5 0.75 -0.25
v -0.25 0.75 -0.5
v -0.25 0.75 0.5
v -0.5 0.75 0.25
v 0.25 0.75 -0.5
v 0.5 0.75 -0.25
v 0.5 0.75 0.25
v 0.25 0.75 0.5
v 0.5 1 -0.25
v 0.25 1 -0.5
v -0.25 1 -0.5
v -0.5 1 -0.25
v -0.5 1 0.25
v -0.25 1 0.5
v 0.25 1 0.5
v 0.5 1 0.25
v 0 0.75 1.5
v -1.5 0.75 0
v 0.125 0.75 1.375
v 0 1 1.5
v 0 1 1.25
v 0 0.78125 1.25
v 1.25 0.78125 0
v 0 0.78125 -1.25
v -1.25 0.78125 0
v 0 0.96875 1.25
v 0 0.96875 -1.25
v 0 0.96875 1
v -1.375 0.75 0.125
v 1.375 1 0.125
v 1.25 0.96875 0
v 0 0.75 1.25
v -1 0.78125 0
v -1.25 0.96875 0
v 1.25 0.75 0
v 1.5 0.75 0
v 0 0.75 -1.5
v 1.375 0.75 0.125
v -1.5 1 0
v 0 1 -1.5
v 1.5 1 0
v 0.125 1 1.375
v -0.125 1 -1.375
v -1.375 1 0.125
v -1.125 0.78125 -0.125
v 0.125 0.96875 -1.125
v -0.125 0.75 -1.375
v -0.125 0.96875 1.125
v 0 0.96875 -1
v 1.125 0.78125 0.125
v 0 0.75 -1.25
v 1.25 1 0
v 1 0.78125 0
v 0 1 -1.25
v -1.25 0.75 0
v -1.25 1 0
v 0 0.96875 0
v 0 0.78125 0
vn -0.0000 -1.0000 -0.0000
vn -0.0000 1.0000 -0.0000
vn 1.0000 -0.0000 -0.0000
vn -1.0000 -0.0000 -0.0000
vn 0.7071 -0.0000 0.7071
vn -0.7071 -0.0000 0.7071
vn -0.0000 -0.0000 1.0000
vn 0.7071 -0.0000 -0.7071
vn -0.0000 -0.0000 -1.0000
vn -0.7071 -0.0000 -0.7071
vt 0.61905 0.83871
vt 0.61905 -0
vt 0.5873 0.83871
vt 0.61905 0.03226
vt 0.55556 0.80645
vt 0.55556 0.77419
vt 0.5873 0.03226
vt 0.61905 0.3871
vt 0.5873 0.35484
vt 0.55556 0.45161
vt 0.61905 0.35484
vt 0.55556 0.41935
vt 0.5873 0.3871
vt 1 0.80645
vt 0.93651 0.03226
vt 0.96825 0.83871
vt 1 0.77419
vt 0.96825 0.03226
vt 0.93651 0
vt 0.93651 0.83871
vt 0.93651 0.3871
vt 0.96825 0.3871
vt 0.93651 0.35484
vt 1 0.41935
vt 0.96825 0.35484
vt 1 0.45161
vt 0.61905 0.70968
vt 0.61905 0.06452
vt 0.93651 0.70968
vt 0.93651 0.06452
vt 0.61905 0.51613
vt 0.61905 0.32258
vt 0.93651 0.51613
vt 0.93651 0.32258
vt 0.65079 0.51613
vt 0.65079 0.35484
vt 0.65079 0.70968
vt 0.65079 0.03226
vt 0.90476 0.35484
vt 0.90476 0.51613
vt 0.90476 0.70968
vt 0.90476 0.03226
vt 0.61905 0.77419
vt 0.5873 0.80645
vt 0.61905 0.80645
vt 0.5873 0.77419
vt 0.5873 0.45161
vt 0.61905 0.45161
vt 0.5873 0.41935
vt 0.61905 0.41935
vt 0.93651 0.77419
vt 0.96825 0.80645
vt 0.96825 0.77419
vt 0.93651 0.80645
vt 0.93651 0.45161
vt 0.96825 0.41935
vt 0.96825 0.45161
vt 0.93651 0.41935
vt 0.61905 0.74194
vt 0.65079 0.06452
vt 0.61905 0.48387
vt 0.65079 0.32258
vt 0.65079 0.45161
vt 0.65079 0.48387
vt 0.90476 0.48387
vt 0.90476 0.45161
vt 0.93651 0.48387
vt 0.90476 0.32258
vt 0.90476 0.06452
vt 0.93651 0.74194
vt 0.90476 0.77419
vt 0.90476 0.74194
vt 0.65079 0.74194
vt 0.65079 0.77419
vt 0.09524 0.70968
vt 0.09524 0.96774
vt 0.12698 1
vt 0.38095 1
vt 0.4127 0.96774
vt 0.4127 0.70968
vt 0.38095 0.67742
vt 0.12698 0.67742
vt 0.09524 0.96774
vt 0.09524 0.70968
vt 0.12698 0.67742
vt 0.38095 0.67742
vt 0.4127 0.70968
vt 0.4127 0.96774
vt 0.38095 1
vt 0.12698 1
vt 0.52381 0.16129
vt 0.52381 0.48387
vt 0.5873 0.41935
vt 0.55556 0.19355
vt 0.55556 0.48387
vt 0.42857 0.19355
vt 0.39682 0.41935
vt 0.42857 0.48387
vt 0.46032 0.48387
vt 0.46032 0.16129
vt 0.55556 0.25806
vt 0.55556 0.29032
vt 0.5873 0.35484
vt 0.52381 0.29032
vt 0.46032 0.29032
vt 0.39682 0.35484
vt 0.42857 0.29032
vt 0.42857 0.25806
vt 0.52381 0.32258
vt 0.55556 0.32258
vt 0.55556 0.35484
vt 0.55556 0.41935
vt 0.55556 0.45161
vt 0.52381 0.45161
vt 0.46032 0.45161
vt 0.42857 0.45161
vt 0.42857 0.41935
vt 0.42857 0.32258
vt 0.42857 0.35484
vt 0.46032 0.32258
vt 0.5873 0.19355
vt 0.55556 0.6129
vt 0.77778 0.83871
vt 0.77778 0
vt 0.60318 0.20968
vt 0.5873 0.6129
vt 0.61905 0.6129
vt 0.65079 0.19355
vt 0.09524 0.83871
vt 0.25397 1
vt 0.4127 0.83871
vt 0.25397 0.67742
vt 0.09524 0.83871
vt 0.4127 0.83871
vt 0.12698 0.83871
vt 0.76191 0.01613
vt 0.76191 0.43548
vt 0.25397 0.67742
vt 0.61905 0.19355
vt 0.25397 0.70968
vt 0.25397 1
vt 0.77778 0.51613
vt 0.77778 0.35484
vt 0.77778 0.3871
vt 1 0.6129
vt 0.96825 0.19355
vt 0.76191 0.37097
vt 0.77778 0.80645
vt 0.96825 0.6129
vt 0.77778 0.41935
vt 0.60318 0.59677
vt 0.95238 0.62903
vt 0.76191 0.79032
vt 0.26984 0.69355
vt 0.39682 0.82258
vt 0.95238 0.17742
vt 0.11111 0.85484
vt 0.38095 0.83871
vt 0.2381 0.98387
vt 0.93651 0.19355
vt 0.77778 0.45161
vt 0.77778 0.48387
vt 0.25397 0.96774
vt 0.93651 0.6129
vt 0.90476 0.19355
vt 0.77778 0.03226
vt 0.77778 0.70968
vt 0.77778 0.77419
vt 0.77778 0.74194
vt 0.25397 0.83871
vt 0.25397 0.83871
s 0
f 168/264/17 73/126/17 158/254/17
f 84/147/17 157/252/17 159/255/17
f 140/233/17 78/136/17 153/247/17
f 150/244/17 66/110/17 139/232/17
f 72/123/17 79/138/17 85/150/17
f 76/131/17 84/147/17 81/142/17
f 71/119/17 80/140/17 82/144/17
f 83/146/17 78/136/17 67/112/17
f 102/175/18 161/257/18 164/260/18
f 151/245/18 91/158/18 162/258/18
f 163/259/18 99/169/18 142/235/18
f 104/179/18 160/256/18 165/261/18
f 103/178/18 93/161/18 92/159/18
f 101/174/18 97/166/18 95/163/18
f 99/169/18 89/155/18 90/156/18
f 86/151/18 98/167/18 105/182/18
f 89/155/19 71/120/19 90/157/19
f 134/223/20 122/200/20 125/207/20
f 103/178/21 85/149/21 79/137/21
f 101/173/22 81/141/22 84/148/22
f 91/158/23 71/121/23 69/116/23
f 136/226/21 128/213/21 137/228/21
f 136/227/23 124/205/23 129/214/23
f 95/164/19 77/134/19 96/165/19
f 86/152/23 66/109/23 67/111/23
f 124/206/22 134/223/22 125/207/22
f 113/190/17 154/248/17 106/183/17
f 133/222/18 137/228/18 131/219/18
f 105/181/24 78/135/24 83/145/24
f 177/277/19 83/145/19 176/275/19
f 123/202/17 129/216/17 125/208/17
f 126/210/24 130/217/24 127/212/24
f 173/270/20 84/148/20 156/250/20
f 112/189/17 166/262/17 146/240/17
f 154/248/17 145/239/17 179/279/17
f 92/160/20 73/125/20 72/122/20
f 130/217/19 128/213/19 127/212/19
f 160/256/20 74/128/20 139/231/20
f 175/273/23 79/138/23 172/268/23
f 132/220/25 126/211/25 123/201/25
f 99/169/26 82/143/26 80/139/26
f 95/164/25 75/129/25 76/130/25
f 94/162/25 72/124/25 74/128/25
f 142/236/25 80/140/25 153/247/25
f 162/258/19 69/116/19 157/252/19
f 141/234/23 68/114/23 138/230/23
f 132/221/26 122/200/26 133/222/26
f 161/257/25 77/134/25 158/253/25
f 79/138/17 168/264/17 172/268/17
f 159/255/17 156/251/17 84/147/17
f 138/229/17 78/136/17 140/233/17
f 83/146/17 150/244/17 176/274/17
f 72/123/17 73/126/17 79/138/17
f 85/150/17 74/127/17 72/123/17
f 76/131/17 75/129/17 84/147/17
f 81/142/17 77/133/17 76/131/17
f 71/119/17 70/117/17 80/140/17
f 82/144/17 69/116/17 71/119/17
f 67/112/17 66/110/17 83/146/17
f 78/136/17 68/115/17 67/112/17
f 164/260/18 175/272/18 102/175/18
f 100/171/18 151/245/18 173/269/18
f 163/259/18 141/234/18 89/155/18
f 165/261/18 177/276/18 104/179/18
f 92/159/18 94/162/18 104/179/18
f 104/179/18 103/178/18 92/159/18
f 95/163/18 96/165/18 102/175/18
f 102/175/18 101/174/18 95/163/18
f 90/156/18 91/158/18 100/171/18
f 100/171/18 99/169/18 90/156/18
f 105/182/18 87/153/18 86/151/18
f 86/151/18 88/154/18 98/167/18
f 98/167/18 163/259/18 142/235/18
f 115/192/18 149/243/18 169/265/18
f 179/279/17 110/187/17 174/271/17
f 131/219/18 132/220/18 133/222/18
f 133/222/18 134/223/18 135/225/18
f 135/225/18 136/227/18 137/228/18
f 137/228/18 130/217/18 131/219/18
f 155/249/18 170/266/18 120/197/18
f 178/278/18 117/194/18 170/266/18
f 81/142/17 172/268/17 168/264/17
f 93/161/25 158/253/25 73/125/25
f 100/172/20 156/250/20 82/143/20
f 103/178/18 164/260/18 93/161/18
f 97/166/19 157/252/19 75/129/19
f 109/186/17 144/238/17 171/267/17
f 121/198/18 178/278/18 155/249/18
f 87/153/20 139/231/20 66/109/20
f 98/167/18 141/234/18 163/259/18
f 167/263/18 148/242/18 119/196/18
f 167/263/18 170/266/18 117/194/18
f 119/196/18 170/266/18 167/263/18
f 169/265/18 147/241/18 115/192/18
f 169/265/18 149/243/18 121/198/18
f 102/176/23 172/268/23 81/142/23
f 143/237/17 174/271/17 107/184/17
f 149/243/18 152/246/18 178/278/18
f 174/271/17 171/267/17 107/184/17
f 108/185/17 171/267/17 144/238/17
f 118/195/18 167/263/18 117/194/18
f 154/248/17 166/262/17 111/188/17
f 105/182/18 165/261/18 87/153/18
f 82/144/17 159/255/17 69/116/17
f 89/155/23 138/230/23 70/118/23
f 104/180/19 176/275/19 85/149/19
f 98/168/25 153/247/25 78/136/25
f 125/208/17 122/199/17 123/202/17
f 123/202/17 126/209/17 127/212/17
f 127/212/17 128/213/17 129/216/17
f 129/216/17 124/204/17 125/208/17
f 114/191/18 169/265/18 121/198/18
f 106/183/17 179/279/17 143/237/17
f 113/190/17 146/240/17 166/262/17
f 70/117/17 138/229/17 140/233/17
f 85/150/17 176/274/17 150/244/17
f 101/174/18 173/269/18 151/245/18
f 101/174/18 162/258/18 97/166/18
f 87/153/18 165/261/18 160/256/18
f 109/186/17 174/271/17 110/187/17
f 88/154/20 67/113/20 68/114/20
f 93/161/18 164/260/18 161/257/18
f 85/150/17 139/232/17 74/127/17
f 140/233/17 80/140/17 70/117/17
f 69/116/17 159/255/17 157/252/17
f 81/142/17 158/254/17 77/133/17
f 84/147/17 75/129/17 157/252/17
f 102/175/18 96/165/18 161/257/18
f 163/259/18 89/155/18 99/169/18
f 104/179/18 94/162/18 160/256/18
f 89/155/19 70/118/19 71/120/19
f 134/223/20 133/222/20 122/200/20
f 103/178/21 104/180/21 85/149/21
f 101/173/22 102/175/22 81/141/22
f 91/158/23 90/157/23 71/121/23
f 136/226/21 129/215/21 128/213/21
f 136/227/23 135/225/23 124/205/23
f 95/164/19 76/132/19 77/134/19
f 86/152/23 87/153/23 66/109/23
f 124/206/22 135/224/22 134/223/22
f 113/190/17 166/262/17 154/248/17
f 133/222/18 135/225/18 137/228/18
f 105/181/24 98/167/24 78/135/24
f 177/277/19 105/181/19 83/145/19
f 123/202/17 127/212/17 129/216/17
f 126/210/24 131/218/24 130/217/24
f 173/270/20 101/173/20 84/148/20
f 112/189/17 111/188/17 166/262/17
f 154/248/17 111/188/17 145/239/17
f 92/160/20 93/161/20 73/125/20
f 130/217/19 137/228/19 128/213/19
f 160/256/20 94/162/20 74/128/20
f 175/273/23 103/177/23 79/138/23
f 132/220/25 131/219/25 126/211/25
f 99/169/26 100/172/26 82/143/26
f 95/164/25 97/166/25 75/129/25
f 94/162/25 92/160/25 72/124/25
f 142/236/25 99/170/25 80/140/25
f 162/258/19 91/158/19 69/116/19
f 141/234/23 88/154/23 68/114/23
f 132/221/26 123/203/26 122/200/26
f 161/257/25 96/165/25 77/134/25
f 79/138/17 73/126/17 168/264/17
f 138/229/17 68/115/17 78/136/17
f 83/146/17 66/110/17 150/244/17
f 100/171/18 91/158/18 151/245/18
f 115/192/18 116/193/18 149/243/18
f 179/279/17 145/239/17 110/187/17
f 155/249/18 178/278/18 170/266/18
f 178/278/18 152/246/18 117/194/18
f 93/161/25 161/257/25 158/253/25
f 100/172/20 173/270/20 156/250/20
f 103/178/18 175/272/18 164/260/18
f 97/166/19 162/258/19 157/252/19
f 121/198/18 149/243/18 178/278/18
f 87/153/20 160/256/20 139/231/20
f 98/167/18 88/154/18 141/234/18
f 119/196/18 120/197/18 170/266/18
f 102/176/23 175/273/23 172/268/23
f 143/237/17 179/279/17 174/271/17
f 149/243/18 116/193/18 152/246/18
f 108/185/17 107/184/17 171/267/17
f 118/195/18 148/242/18 167/263/18
f 105/182/18 177/276/18 165/261/18
f 82/144/17 156/251/17 159/255/17
f 89/155/23 141/234/23 138/230/23
f 104/180/19 177/277/19 176/275/19
f 98/168/25 142/236/25 153/247/25
f 114/191/18 147/241/18 169/265/18
f 106/183/17 154/248/17 179/279/17
f 101/174/18 151/245/18 162/258/18
f 109/186/17 171/267/17 174/271/17
f 88/154/20 86/152/20 67/113/20
f 85/150/17 150/244/17 139/232/17
f 140/233/17 153/247/17 80/140/17
f 81/142/17 168/264/17 158/254/17
