# Blender 3.4.1
# www.blender.org
o Plane
v -1.5 1 0.625
v -1.5 1 -0.625
v -1.5 0.875 -0.625
v -1.5 0.875 0.625
v 1.375 0.125 -0.5625
v 1.375 0.125 0.5625
v 1.5 0.125 0.625
v 1.5 0.125 -0.625
v 0.5625 0.125 -1.375
v -0.5625 0.125 -1.375
v -0.5625 0.875 -1.375
v 0.5625 0.875 -1.375
v -0.5625 0.125 1.375
v 0.5625 0.125 1.375
v 0.5625 0.875 1.375
v -0.5625 0.875 1.375
v 1.375 0.875 -0.5625
v 1.375 0.875 0.5625
v -1.375 0.125 -0.5625
v -1.375 0.125 0.5625
v -1.375 0.875 0.5625
v -1.375 0.875 -0.5625
v -1.5 0.125 -0.625
v -1.5 0.125 0.625
v 0.625 0.125 -1.5
v -0.625 0.125 -1.5
v -0.625 0.125 1.5
v 0.625 0.125 1.5
v 1.5 -0 0.625
v 1.5 0 -0.625
v -0.625 -0 1.5
v 0.625 -0 1.5
v 0.625 0 -1.5
v -1.5 0 -0.625
v -1.5 -0 0.625
v -0.625 0 -1.5
v 0.625 1 -1.5
v 1.5 1 -0.625
v 1.5 0.875 -0.625
v 0.625 0.875 -1.5
v -0.625 1 1.5
v -0.625 0.875 1.5
v -0.625 1 -1.5
v -0.625 0.875 -1.5
v 1.5 1 0.625
v 1.5 0.875 0.625
v 0.625 1 1.5
v 0.625 0.875 1.5
v -0.83625 -0 2
v 0.83625 -0 2
v -0.83625 0 -2
v 0.83625 0 -2
v 2 -0 0.83625
v 2 0 -0.83625
v -2 -0 0.83625
v -2 0 -0.83625
v -1.875 -0 0.78125
v 1.875 -0 0.78125
v -1.875 0 -0.78125
v 1.875 0 -0.78125
v 0.78125 -0 1.875
v 0.78125 0 -1.875
v -0.78125 -0 1.875
v -0.78125 0 -1.875
v -2 1 -0.83625
v -2 1 0.83625
v -0.83625 1 2
v 0.83625 1 2
v 2 1 0.83625
v 2 1 -0.83625
v 0.83625 1 -2
v -0.83625 1 -2
v -1.875 1 -0.78125
v -1.875 1 0.78125
v 0.78125 1 -1.875
v -0.78125 1 -1.875
v 1.875 1 0.78125
v 1.875 1 -0.78125
v -0.78125 1 1.875
v 0.78125 1 1.875
v -1.875 0.75 0.5625
v -1.875 0.75 -0.5625
v -1.375 0.75 -0.5625
v -1.375 0.75 0.5625
v 1.875 0.75 -0.5625
v 1.875 0.75 0.5625
v 1.375 0.75 0.5625
v 1.375 0.75 -0.5625
v 0.5625 0.75 1.875
v -0.5625 0.75 1.875
v -0.5625 0.75 1.375
v 0.5625 0.75 1.375
v -0.5625 0.75 -1.875
v 0.5625 0.75 -1.875
v 0.5625 0.75 -1.375
v -0.5625 0.75 -1.375
v -0.92808 0.75 1.72357
v -1.72357 0.75 0.92808
v -1.37002 0.75 0.57452
v -0.57452 0.75 1.37002
v 0.92808 0.75 -1.72357
v 1.72357 0.75 -0.92808
v 1.37002 0.75 -0.57452
v 0.57452 0.75 -1.37002
v 1.72357 0.75 0.92808
v 0.92808 0.75 1.72357
v 0.57452 0.75 1.37002
v 1.37002 0.75 0.57452
v -1.72357 0.75 -0.92808
v -0.92808 0.75 -1.72357
v -0.57452 0.75 -1.37002
v -1.37002 0.75 -0.57452
v -1.875 0.25 0.5625
v -1.875 0.25 -0.5625
v -1.375 0.25 -0.5625
v -1.375 0.25 0.5625
v 1.875 0.25 -0.5625
v 1.875 0.25 0.5625
v 1.375 0.25 0.5625
v 1.375 0.25 -0.5625
v 0.5625 0.25 1.875
v -0.5625 0.25 1.875
v -0.5625 0.25 1.375
v 0.5625 0.25 1.375
v -0.5625 0.25 -1.875
v 0.5625 0.25 -1.875
v 0.5625 0.25 -1.375
v -0.5625 0.25 -1.375
v -0.92808 0.25 1.72357
v -1.72357 0.25 0.92808
v -1.37002 0.25 0.57452
v -0.57452 0.25 1.37002
v 0.92808 0.25 -1.72357
v 1.72357 0.25 -0.92808
v 1.37002 0.25 -0.57452
v 0.57452 0.25 -1.37002
v 1.72357 0.25 0.92808
v 0.92808 0.25 1.72357
v 0.57452 0.25 1.37002
v 1.37002 0.25 0.57452
v -1.72357 0.25 -0.92808
v -0.92808 0.25 -1.72357
v -0.57452 0.25 -1.37002
v -1.37002 0.25 -0.57452
v -1.875 0.75 0.5625
v -1.875 0.75 -0.5625
v -1.375 0.75 -0.5625
v -1.375 0.75 0.5625
v 1.875 0.75 -0.5625
v 1.875 0.75 0.5625
v 1.375 0.75 0.5625
v 1.375 0.75 -0.5625
v 0.5625 0.75 1.875
v -0.5625 0.75 1.875
v -0.5625 0.75 1.375
v 0.5625 0.75 1.375
v -0.5625 0.75 -1.875
v 0.5625 0.75 -1.875
v 0.5625 0.75 -1.375
v -0.5625 0.75 -1.375
v -0.92808 0.75 1.72357
v -1.72357 0.75 0.92808
v -1.37002 0.75 0.57452
v -0.57452 0.75 1.37002
v 0.92808 0.75 -1.72357
v 1.72357 0.75 -0.92808
v 1.37002 0.75 -0.57452
v 0.57452 0.75 -1.37002
v 1.72357 0.75 0.92808
v 0.92808 0.75 1.72357
v 0.57452 0.75 1.37002
v 1.37002 0.75 0.57452
v -1.72357 0.75 -0.92808
v -0.92808 0.75 -1.72357
v -0.57452 0.75 -1.37002
v -1.37002 0.75 -0.57452
v -1.875 0.25 0.5625
v -1.875 0.25 -0.5625
v -1.375 0.25 -0.5625
v -1.375 0.25 0.5625
v 1.875 0.25 -0.5625
v 1.875 0.25 0.5625
v 1.375 0.25 0.5625
v 1.375 0.25 -0.5625
v 0.5625 0.25 1.875
v -0.5625 0.25 1.875
v -0.5625 0.25 1.375
v 0.5625 0.25 1.375
v -0.5625 0.25 -1.875
v 0.5625 0.25 -1.875
v 0.5625 0.25 -1.375
v -0.5625 0.25 -1.375
v -0.92808 0.25 1.72357
v -1.72357 0.25 0.92808
v -1.37002 0.25 0.57452
v -0.57452 0.25 1.37002
v 0.92808 0.25 -1.72357
v 1.72357 0.25 -0.92808
v 1.37002 0.25 -0.57452
v 0.57452 0.25 -1.37002
v 1.72357 0.25 0.92808
v 0.92808 0.25 1.72357
v 0.57452 0.25 1.37002
v 1.37002 0.25 0.57452
v -1.72357 0.25 -0.92808
v -0.92808 0.25 -1.72357
v -0.57452 0.25 -1.37002
v -1.37002 0.25 -0.57452
v -0.4375 -0 1.0625
v -1.0625 1 -0.4375
v -0.4375 1 1.0625
v 1.0625 -0 0.4375
v 1.0625 1 0.4375
v 0.625 1 0
v -1.0625 0 -0.4375
v 0.4375 0 -1.0625
v 0 0 0
v -0.21875 1 -0.21875
vn -1.0000 -0.0000 -0.0000
vn -0.0000 1.0000 -0.0000
vn -0.0000 -0.0000 1.0000
vn 1.0000 -0.0000 -0.0000
vn -0.7071 -0.0000 -0.7071
vn -0.0000 -0.0000 -1.0000
vn -0.0000 -1.0000 -0.0000
vn 0.7071 -0.0000 -0.7071
vn 0.7071 -0.0000 0.7071
vn -0.7071 -0.0000 0.7071
vt 0.09615 1
vt 0.06731 0.46154
vt 0 1
vt 0.76923 1
vt 0.16346 0.46154
vt 0.76923 0.98077
vt 0 0.98077
vt 0.09615 0.98077
vt 0.48558 0.84615
vt 0.47596 0.84615
vt 0.38942 0.84615
vt 0.37981 0.84615
vt 0.38461 0.82692
vt 0.48077 0.82692
vt 0.58173 0.84615
vt 0.57212 0.84615
vt 0.66827 0.84615
vt 0.67788 0.84615
vt 0.67788 0.96154
vt 0.66827 0.96154
vt 0.57212 0.96154
vt 0.58173 0.96154
vt 0.19712 0.84615
vt 0.1875 0.84615
vt 0.28365 0.84615
vt 0.29327 0.84615
vt 0.29327 0.96154
vt 0.28365 0.96154
vt 0.1875 0.96154
vt 0.19712 0.96154
vt 0.48558 0.96154
vt 0.47596 0.96154
vt 0.37981 0.96154
vt 0.38942 0.96154
vt 0.76442 0.84615
vt 0.00481 0.84615
vt 0.10096 0.84615
vt 0.09135 0.84615
vt 0.09135 0.96154
vt 0.10096 0.96154
vt 0.00481 0.96154
vt 0.76442 0.96154
vt 0.76923 0.82692
vt 0 0.82692
vt 0.09615 0.82692
vt 0.57692 0.82692
vt 0.67308 0.82692
vt 0.19231 0.82692
vt 0.28846 0.82692
vt 0.38461 0.80769
vt 0.39423 -0
vt 0.48077 0.80769
vt 0.29808 0
vt 0.19231 0.80769
vt 0.46154 0.32692
vt 0.28846 0.80769
vt 0.46154 0.13462
vt 0.57692 0.80769
vt 0.23077 0.13462
vt 0.76923 0.80769
vt 0 0.80769
vt 0.29808 0.46154
vt 0.09615 0.80769
vt 0.39423 0.46154
vt 0.67308 0.80769
vt 0.23077 0.32692
vt 0.57692 1
vt 0.23077 0.13462
vt 0.48077 1
vt 0.16346 -0
vt 0.48077 0.98077
vt 0.57692 0.98077
vt 0.19231 1
vt -0 0.32692
vt 0.19231 0.98077
vt 0.67308 1
vt 0.23077 0.32692
vt 0.67308 0.98077
vt 0.38461 1
vt 0.06731 -0
vt 0.38461 0.98077
vt 0.28846 1
vt -0 0.13462
vt 0.28846 0.98077
vt 0.25 0.48077
vt 0.375 0.48077
vt 0.875 0.48077
vt 0.75 0.48077
vt 0.5 0.48077
vt 0.625 0.48077
vt 0.125 0.48077
vt 1 0.48077
vt 0 0.48077
vt 0.12981 0.80769
vt 0.125 0.46154
vt 0.125 0.80769
vt 0.12981 0.46154
vt 0.50481 0.80769
vt 0.5 0.46154
vt 0.5 0.80769
vt 0.50481 0.46154
vt 0.00481 0.80769
vt 0.00481 0.46154
vt 1 0.46154
vt 1 0.80769
vt 0.62981 0.80769
vt 0.62981 0.46154
vt 0.625 0.80769
vt 0.625 0.46154
vt 0.37981 0.80769
vt 0.375 0.80769
vt 0.37981 0.46154
vt 0.375 0.46154
vt 0.75481 0.80769
vt 0.75481 0.46154
vt 0.75 0.46154
vt 0.75 0.80769
vt 0.25481 0.80769
vt 0.25 0.80769
vt 0.25481 0.46154
vt 0.25 0.46154
vt 0.87981 0.80769
vt 0.875 0.46154
vt 0.87981 0.46154
vt 0.875 0.80769
vt 0 0.63462
vt 1 0.63462
vt 0.125 0.63462
vt 0.25 0.63462
vt 0.375 0.63462
vt 0.5 0.63462
vt 0.625 0.63462
vt 0.75 0.63462
vt 0.875 0.63462
vt 1 0.65385
vt 0.00481 0.65385
vt 0.125 0.65385
vt 0.12981 0.65385
vt 0.75 0.65385
vt 0.75481 0.65385
vt 0.875 0.65385
vt 0.87981 0.65385
vt 0.5 0.65385
vt 0.50481 0.65385
vt 0.625 0.65385
vt 0.62981 0.65385
vt 0.25481 0.65385
vt 0.25 0.65385
vt 0.375 0.65385
vt 0.37981 0.65385
vt 0.54808 0.38461
vt 0.46154 0.38461
vt 0.46154 0.46154
vt 0.54808 0.46154
vt 0.54808 0.38461
vt 0.46154 0.38461
vt 0.46154 0.46154
vt 0.54808 0.46154
vt 0.54808 0.38461
vt 0.46154 0.38461
vt 0.46154 0.46154
vt 0.54808 0.46154
vt 0.54808 0.38461
vt 0.46154 0.38461
vt 0.46154 0.46154
vt 0.54808 0.46154
vt 0.54808 0.38461
vt 0.46154 0.38461
vt 0.46154 0.46154
vt 0.54808 0.46154
vt 0.54808 0.38461
vt 0.46154 0.38461
vt 0.46154 0.46154
vt 0.54808 0.46154
vt 0.54808 0.38461
vt 0.46154 0.38461
vt 0.46154 0.46154
vt 0.54808 0.46154
vt 0.54808 0.38461
vt 0.46154 0.38461
vt 0.46154 0.46154
vt 0.54808 0.46154
vt 0.54808 0.38461
vt 0.46154 0.38461
vt 0.46154 0.46154
vt 0.54808 0.46154
vt 0.54808 0.38461
vt 0.46154 0.38461
vt 0.46154 0.46154
vt 0.54808 0.46154
vt 0.54808 0.38461
vt 0.46154 0.38461
vt 0.46154 0.46154
vt 0.54808 0.46154
vt 0.54808 0.38461
vt 0.46154 0.38461
vt 0.46154 0.46154
vt 0.54808 0.46154
vt 0.54808 0.38461
vt 0.46154 0.38461
vt 0.46154 0.46154
vt 0.54808 0.46154
vt 0.54808 0.38461
vt 0.46154 0.38461
vt 0.46154 0.46154
vt 0.54808 0.46154
vt 0.54808 0.38461
vt 0.46154 0.38461
vt 0.46154 0.46154
vt 0.54808 0.46154
vt 0.54808 0.38461
vt 0.46154 0.38461
vt 0.46154 0.46154
vt 0.54808 0.46154
vt 0.54808 0.38461
vt 0.46154 0.38461
vt 0.46154 0.46154
vt 0.54808 0.46154
vt 0.54808 0.38461
vt 0.46154 0.38461
vt 0.46154 0.46154
vt 0.54808 0.46154
vt 0.54808 0.38461
vt 0.46154 0.38461
vt 0.46154 0.46154
vt 0.54808 0.46154
vt 0.54808 0.38461
vt 0.46154 0.38461
vt 0.46154 0.46154
vt 0.54808 0.46154
vt 0.54808 0.38461
vt 0.46154 0.38461
vt 0.46154 0.46154
vt 0.54808 0.46154
vt 0.54808 0.38461
vt 0.46154 0.38461
vt 0.46154 0.46154
vt 0.54808 0.46154
vt 0.54808 0.38461
vt 0.46154 0.38461
vt 0.46154 0.46154
vt 0.54808 0.46154
vt 0.54808 0.38461
vt 0.46154 0.38461
vt 0.46154 0.46154
vt 0.54808 0.46154
vt 0.54808 0.38461
vt 0.46154 0.38461
vt 0.46154 0.46154
vt 0.54808 0.46154
vt 0.54808 0.38461
vt 0.46154 0.38461
vt 0.46154 0.46154
vt 0.54808 0.46154
vt 0.54808 0.38461
vt 0.46154 0.38461
vt 0.46154 0.46154
vt 0.54808 0.46154
vt 0.54808 0.38461
vt 0.46154 0.38461
vt 0.46154 0.46154
vt 0.54808 0.46154
vt 0.54808 0.38461
vt 0.46154 0.38461
vt 0.46154 0.46154
vt 0.54808 0.46154
vt 0.54808 0.38461
vt 0.46154 0.38461
vt 0.46154 0.46154
vt 0.54808 0.46154
vt 0.54808 0.38461
vt 0.46154 0.38461
vt 0.46154 0.46154
vt 0.54808 0.46154
vt 0.54808 0.38461
vt 0.46154 0.38461
vt 0.46154 0.46154
vt 0.54808 0.46154
vt 0.42788 0.29808
vt 0.14904 0.39423
vt 0.03365 0.29808
vt 0.37981 0.06731
vt 0.08173 0.06731
vt 0.11538 0.13462
vt 0.3125 0.39423
vt 0.26442 0.16346
vt 0.34615 0.23077
vt 0.13221 0.26442
s 0
f 21/39/1 19/36/1 20/38/1
f 25/46/2 10/17/2 9/15/2
f 15/28/3 13/23/3 14/25/3
f 5/10/4 18/34/4 6/11/4
f 36/65/5 23/43/5 26/47/5
f 11/20/6 9/15/6 10/17/6
f 209/279/7 215/285/7 217/287/7
f 130/200/2 132/202/2 131/201/2
f 12/21/8 5/9/8 9/16/8
f 22/42/5 10/18/5 19/35/5
f 27/48/2 14/25/2 13/23/2
f 3/7/7 21/39/7 4/8/7
f 7/13/2 5/10/2 6/11/2
f 39/71/7 12/21/7 40/72/7
f 61/112/7 53/89/7 50/86/7
f 4/8/7 16/29/7 42/75/7
f 24/45/2 13/24/2 20/37/2
f 189/259/7 191/261/7 192/262/7
f 29/50/4 8/14/4 7/13/4
f 74/138/8 63/119/8 57/94/8
f 113/183/2 115/185/2 114/184/2
f 32/56/9 7/13/9 28/49/9
f 4/8/10 41/73/10 1/1/10
f 185/255/7 187/257/7 188/258/7
f 163/233/7 161/231/7 162/232/7
f 16/29/10 20/37/10 13/24/10
f 3/6/5 43/76/5 44/78/5
f 40/72/6 43/76/6 37/67/6
f 46/81/9 47/82/9 48/84/9
f 34/61/1 24/45/1 23/44/1
f 67/129/10 55/91/10 49/85/10
f 65/127/5 51/87/5 56/92/5
f 46/81/4 38/69/4 45/79/4
f 42/75/7 15/28/7 48/84/7
f 8/14/2 9/16/2 5/9/2
f 40/72/7 11/20/7 44/78/7
f 3/6/7 11/19/7 22/42/7
f 46/81/7 17/32/7 39/71/7
f 7/13/2 14/26/2 28/49/2
f 38/70/2 214/284/2 213/283/2
f 46/81/7 15/27/7 18/33/7
f 23/43/2 10/18/2 26/47/2
f 62/115/7 51/87/7 52/88/7
f 60/107/7 52/88/7 54/90/7
f 79/147/2 68/130/2 80/149/2
f 75/139/2 70/132/2 71/133/2
f 77/144/2 70/132/2 78/145/2
f 75/140/2 72/134/2 76/141/2
f 73/136/2 66/128/2 74/137/2
f 72/134/2 73/135/2 76/142/2
f 23/44/2 20/38/2 19/36/2
f 57/97/7 49/85/7 55/91/7
f 59/103/7 55/91/7 56/93/7
f 64/124/7 56/92/7 51/87/7
f 63/120/7 50/86/7 49/85/7
f 68/130/2 77/143/2 80/150/2
f 58/101/7 54/90/7 53/89/7
f 79/148/2 66/128/2 67/129/2
f 71/133/8 54/90/8 52/88/8
f 75/140/3 64/125/3 62/114/3
f 73/136/4 57/96/4 59/102/4
f 70/132/4 53/89/4 54/90/4
f 80/150/5 58/100/5 61/110/5
f 81/151/2 83/153/2 82/152/2
f 72/134/6 52/88/6 51/87/6
f 30/52/8 25/46/8 8/14/8
f 66/128/1 56/93/1 55/91/1
f 125/195/2 127/197/2 126/196/2
f 177/247/7 179/249/7 180/250/7
f 78/146/10 62/117/10 60/106/10
f 77/144/1 60/108/1 58/98/1
f 35/63/10 27/48/10 24/45/10
f 76/142/9 59/105/9 64/122/9
f 33/58/6 26/47/6 25/46/6
f 85/155/2 87/157/2 86/156/2
f 89/159/2 91/161/2 90/160/2
f 93/163/2 95/165/2 94/164/2
f 42/75/3 47/82/3 41/73/3
f 142/212/2 144/214/2 143/213/2
f 134/204/2 136/206/2 135/205/2
f 172/242/7 170/240/7 171/241/7
f 138/208/2 140/210/2 139/209/2
f 117/187/2 119/189/2 118/188/2
f 121/191/2 123/193/2 122/192/2
f 79/147/6 61/111/6 63/118/6
f 31/54/3 28/49/3 27/48/3
f 98/168/2 100/170/2 99/169/2
f 168/238/7 166/236/7 167/237/7
f 204/274/7 202/272/7 203/273/7
f 110/180/2 112/182/2 111/181/2
f 149/219/7 151/221/7 152/222/7
f 153/223/7 155/225/7 156/226/7
f 157/227/7 159/229/7 160/230/7
f 181/251/7 183/253/7 184/254/7
f 195/265/7 193/263/7 194/264/7
f 200/270/7 198/268/7 199/269/7
f 173/243/7 175/245/7 176/246/7
f 205/275/7 207/277/7 208/278/7
f 68/130/3 49/85/3 50/86/3
f 6/12/9 15/27/9 14/26/9
f 39/71/8 37/67/8 38/69/8
f 145/215/7 147/217/7 148/218/7
f 3/7/1 1/1/1 2/3/1
f 211/281/2 210/280/2 1/2/2
f 106/176/2 108/178/2 107/177/2
f 102/172/2 104/174/2 103/173/2
f 138/208/2 137/207/2 140/210/2
f 32/57/7 217/287/7 212/282/7
f 134/204/2 133/203/2 136/206/2
f 142/212/2 141/211/2 144/214/2
f 42/75/3 48/84/3 47/82/3
f 172/242/7 169/239/7 170/240/7
f 75/139/2 78/146/2 70/132/2
f 23/43/2 19/35/2 10/18/2
f 62/115/7 64/123/7 51/87/7
f 60/107/7 62/116/7 52/88/7
f 25/46/2 26/47/2 10/17/2
f 212/282/7 216/286/7 30/53/7
f 21/39/1 22/41/1 19/36/1
f 163/233/7 164/234/7 161/231/7
f 29/50/4 30/52/4 8/14/4
f 32/56/9 29/50/9 7/13/9
f 16/29/10 21/40/10 20/37/10
f 59/103/7 57/95/7 55/91/7
f 64/124/7 59/104/7 56/92/7
f 168/238/7 165/235/7 166/236/7
f 75/140/3 76/141/3 64/125/3
f 31/54/3 32/56/3 28/49/3
f 195/265/7 196/266/7 193/263/7
f 93/163/2 96/166/2 95/165/2
f 79/147/6 80/149/6 61/111/6
f 29/51/7 212/282/7 30/53/7
f 31/55/7 209/279/7 32/57/7
f 34/62/7 215/285/7 35/64/7
f 33/59/7 216/286/7 36/66/7
f 79/147/2 67/129/2 68/130/2
f 85/155/2 88/158/2 87/157/2
f 181/251/7 182/252/7 183/253/7
f 157/227/7 158/228/7 159/229/7
f 73/136/4 74/137/4 57/96/4
f 33/58/6 36/65/6 26/47/6
f 153/223/7 154/224/7 155/225/7
f 70/132/4 69/131/4 53/89/4
f 43/77/2 210/280/2 218/288/2
f 4/8/10 42/75/10 41/73/10
f 214/284/2 211/281/2 47/83/2
f 113/183/2 116/186/2 115/185/2
f 217/287/7 36/66/7 216/286/7
f 74/138/8 79/148/8 63/119/8
f 218/288/2 211/281/2 214/284/2
f 185/255/7 186/256/7 187/257/7
f 45/80/2 213/283/2 47/83/2
f 213/283/2 214/284/2 47/83/2
f 3/6/5 2/4/5 43/76/5
f 2/5/2 210/280/2 43/77/2
f 41/74/2 211/281/2 1/2/2
f 36/65/5 34/60/5 23/43/5
f 3/7/7 22/41/7 21/39/7
f 209/279/7 35/64/7 215/285/7
f 189/259/7 190/260/7 191/261/7
f 12/21/8 17/31/8 5/9/8
f 27/48/2 28/49/2 14/25/2
f 5/10/4 17/32/4 18/34/4
f 61/112/7 58/99/7 53/89/7
f 15/28/3 16/30/3 13/23/3
f 7/13/2 8/14/2 5/10/2
f 11/20/6 12/22/6 9/15/6
f 4/8/7 21/40/7 16/29/7
f 130/200/2 129/199/2 132/202/2
f 24/45/2 27/48/2 13/24/2
f 22/42/5 11/19/5 10/18/5
f 39/71/7 17/31/7 12/21/7
f 149/219/7 150/220/7 151/221/7
f 125/195/2 128/198/2 127/197/2
f 35/63/10 31/54/10 27/48/10
f 77/144/1 78/145/1 60/108/1
f 205/275/7 206/276/7 207/277/7
f 66/128/1 65/126/1 56/93/1
f 78/146/10 75/139/10 62/117/10
f 204/274/7 201/271/7 202/272/7
f 177/247/7 178/248/7 179/249/7
f 68/130/2 69/131/2 77/143/2
f 6/12/9 18/33/9 15/27/9
f 173/243/7 174/244/7 175/245/7
f 110/180/2 109/179/2 112/182/2
f 98/168/2 97/167/2 100/170/2
f 76/142/9 73/135/9 59/105/9
f 200/270/7 197/267/7 198/268/7
f 30/52/8 33/58/8 25/46/8
f 72/134/6 71/133/6 52/88/6
f 81/151/2 84/154/2 83/153/2
f 80/150/5 77/143/5 58/100/5
f 38/70/2 37/68/2 214/284/2
f 67/129/10 66/128/10 55/91/10
f 8/14/2 25/46/2 9/16/2
f 46/81/7 18/34/7 17/32/7
f 71/133/8 70/132/8 54/90/8
f 79/148/2 74/138/2 66/128/2
f 58/101/7 60/109/7 54/90/7
f 63/120/7 61/113/7 50/86/7
f 46/81/7 48/84/7 15/27/7
f 34/61/1 35/63/1 24/45/1
f 3/6/7 44/78/7 11/19/7
f 7/13/2 6/12/2 14/26/2
f 23/44/2 24/45/2 20/38/2
f 72/134/2 65/127/2 73/135/2
f 73/136/2 65/126/2 66/128/2
f 75/140/2 71/133/2 72/134/2
f 121/191/2 124/194/2 123/193/2
f 46/81/9 45/79/9 47/82/9
f 42/75/7 16/30/7 15/28/7
f 46/81/4 39/71/4 38/69/4
f 68/130/3 67/129/3 49/85/3
f 77/144/2 69/131/2 70/132/2
f 89/159/2 92/162/2 91/161/2
f 57/97/7 63/121/7 49/85/7
f 117/187/2 120/190/2 119/189/2
f 40/72/6 44/78/6 43/76/6
f 40/72/7 12/22/7 11/20/7
f 65/127/5 72/134/5 51/87/5
f 53/89/9 68/130/9 50/86/9
f 39/71/8 40/72/8 37/67/8
f 145/215/7 146/216/7 147/217/7
f 3/7/1 4/8/1 1/1/1
f 106/176/2 105/175/2 108/178/2
f 102/172/2 101/171/2 104/174/2
f 32/57/7 209/279/7 217/287/7
f 212/282/7 217/287/7 216/286/7
f 29/51/7 32/57/7 212/282/7
f 31/55/7 35/64/7 209/279/7
f 34/62/7 36/66/7 215/285/7
f 33/59/7 30/53/7 216/286/7
f 214/284/2 37/68/2 218/288/2
f 37/68/2 43/77/2 218/288/2
f 217/287/7 215/285/7 36/66/7
f 218/288/2 210/280/2 211/281/2
f 45/80/2 38/70/2 213/283/2
f 2/5/2 1/2/2 210/280/2
f 41/74/2 47/83/2 211/281/2
f 53/89/9 69/131/9 68/130/9
