# Blender 3.4.1
# www.blender.org
o Door
v 1.5 0.8125 0.4375
v 1.5 0.1875 0.4375
v 1.5 0.8125 -0.4375
v 1.5 0.1875 -0.4375
v 1.5625 0.8125 -0.4375
v 1.5625 0.8125 0.4375
v 1.5625 0.1875 0.4375
v 1.5625 0.1875 -0.4375
v 1.625 0.3125 -0.3125
v 1.625 0.3125 -0.25
v 1.625 0.6875 -0.3125
v 1.625 0.6875 -0.25
v 1.5625 0.6875 -0.25
v 1.5625 0.6875 -0.3125
v 1.5625 0.3125 -0.25
v 1.5625 0.3125 -0.3125
v 1.5625 0.75 -0.3125
v 1.5625 0.25 -0.3125
v 1.5625 0.25 -0.25
v 1.5625 0.75 -0.25
v 1.6875 0.75 -0.25
v 1.6875 0.25 -0.25
v 1.6875 0.25 -0.3125
v 1.6875 0.75 -0.3125
vn 1.0000 -0.0000 -0.0000
vn -0.0000 -0.0000 -1.0000
vn -0.0000 1.0000 -0.0000
vn -0.0000 -1.0000 -0.0000
vn -0.0000 -0.0000 1.0000
vn -1.0000 -0.0000 -0.0000
vt 0.42241 0.28571
vt 0.43103 0.29464
vt 0.42241 0.19643
vt 0.43103 0.1875
vt 0.56034 0.28571
vt 0.55172 0.29464
vt 0.55172 0.1875
vt 0.56034 0.19643
vt 0.55172 0.28571
vt 0.43103 0.28571
vt 0.43103 0.19643
vt 0.55172 0.19643
vt 0.43966 0.3125
vt 0.43966 0.33036
vt 0.44828 0.3125
vt 0.41379 0.3125
vt 0.41379 0.33036
vt 0.44828 0.33036
vt 0.43966 0.40179
vt 0.43966 0.38393
vt 0.44828 0.40179
vt 0.41379 0.38393
vt 0.41379 0.40179
vt 0.44828 0.38393
vt 0.41379 0.41071
vt 0.44828 0.41071
vt 0.43966 0.41071
vt 0.41379 0.30357
vt 0.44828 0.30357
vt 0.43966 0.30357
vt 0.43103 0.41071
vt 0.43103 0.30357
vt 0.42241 0.30357
vt 0.42241 0.41071
vt 0.42241 0.39286
vt 0.42241 0.32143
vt 0.43103 0.32143
vt 0.43103 0.39286
s 0
f 22/36/1 24/38/1 21/35/1
f 8/12/1 6/10/1 7/11/1
f 5/9/2 4/8/2 3/5/2
f 9/13/3 15/29/3 10/15/3
f 8/12/4 2/4/4 4/7/4
f 11/19/2 17/31/2 24/38/2
f 10/16/5 19/33/5 22/36/5
f 21/35/5 10/17/5 22/36/5
f 12/23/5 20/34/5 13/25/5
f 12/21/4 14/27/4 11/19/4
f 20/34/3 24/38/3 17/31/3
f 18/32/4 22/36/4 19/33/4
f 7/11/5 1/1/5 2/3/5
f 22/36/1 23/37/1 24/38/1
f 9/14/6 12/24/6 11/20/6
f 9/13/2 18/32/2 16/30/2
f 9/14/2 24/38/2 23/37/2
f 12/21/4 13/26/4 14/27/4
f 20/34/3 21/35/3 24/38/3
f 6/10/3 5/9/3 3/6/3
f 18/32/4 23/37/4 22/36/4
f 11/19/2 14/27/2 17/31/2
f 10/16/5 15/28/5 19/33/5
f 21/35/5 12/22/5 10/17/5
f 12/23/5 21/35/5 20/34/5
f 9/13/3 16/30/3 15/29/3
f 5/9/2 8/12/2 4/8/2
f 9/14/6 10/18/6 12/24/6
f 7/11/5 6/10/5 1/1/5
f 8/12/1 5/9/1 6/10/1
f 8/12/4 7/11/4 2/4/4
f 9/13/2 23/37/2 18/32/2
f 9/14/2 11/20/2 24/38/2
f 6/10/3 3/6/3 1/2/3
o Inner
v 1.375 0.75 -0.375
v 1.375 0.75 0.375
v 1.375 0.25 0.375
v 1.375 0.25 -0.375
v 1.375 0.875 -0.375
v 1.375 0.875 0.375
v 1.375 0.125 0.375
v 1.375 0.125 -0.375
v 0.625 0.875 -0.375
v 0.625 0.875 0.375
v 0.625 0.125 0.375
v 0.625 0.125 -0.375
vn -1.0000 -0.0000 -0.0000
vn -0.0000 -1.0000 -0.0000
vn 1.0000 -0.0000 -0.0000
vn -0.0000 1.0000 -0.0000
vn -0.0000 -0.0000 1.0000
vn -0.0000 -0.0000 -1.0000
vt 1 0.19643
vt 0.58621 0.19643
vt 0.68966 0.19643
vt 0.68966 0.125
vt 0.58621 0.125
vt 1 0.125
vt 0.58621 0.21429
vt 0.89655 0.32143
vt 1 0.21429
vt 0.7931 0.32143
vt 0.68966 0.21429
vt 0.7931 -0
vt 0.68966 0.10714
vt 0.89655 -0
vt 0.58621 0.10714
vt 1 0.10714
vt 0.89655 0.21429
vt 0.7931 0.21429
vt 0.7931 0.10714
vt 0.89655 0.10714
s 0
f 32/53/7 27/42/7 28/43/7
f 34/56/8 29/46/8 30/48/8
f 35/57/9 33/55/9 34/56/9
f 36/58/10 31/50/10 32/52/10
f 25/39/11 36/58/11 28/44/11
f 34/56/12 30/49/12 26/41/12
f 35/57/12 26/41/12 27/42/12
f 30/49/7 29/45/7 25/40/7
f 25/39/11 33/55/11 36/58/11
f 35/57/12 34/56/12 26/41/12
f 36/58/10 35/57/10 31/50/10
f 32/53/7 31/51/7 27/42/7
f 27/42/12 31/51/12 35/57/12
f 34/56/8 33/55/8 29/46/8
f 32/54/11 28/44/11 36/58/11
f 35/57/9 36/58/9 33/55/9
f 25/39/11 29/47/11 33/55/11
f 30/49/7 25/40/7 26/41/7
o InnerBurning
v 1.375 0.125 0.375
v 1.375 0.125 -0.375
v 0.625 0.125 0.375
v 0.625 0.25 -0.375
v 1.375 0.125 0.25
v 1.375 0.1875 0.125
v 1.375 0.1875 0
v 1.375 0.125 -0.125
v 1.375 0.125 -0.25
v 0.625 0.1875 0.25
v 0.625 0.25 0.125
v 0.625 0.25 0
v 0.625 0.1875 -0.125
v 0.625 0.1875 -0.25
v 0.75 0.1875 0.375
v 0.875 0.1875 0.375
v 1 0.25 0.375
v 1.125 0.1875 0.375
v 1.25 0.125 0.375
v 1.25 0.125 -0.375
v 1.125 0.1875 -0.375
v 1 0.125 -0.375
v 0.875 0.1875 -0.375
v 0.75 0.1875 -0.375
v 1.25 0.1875 0.25
v 1.125 0.1875 0.25
v 1 0.25 0.25
v 0.875 0.25 0.25
v 0.75 0.1875 0.25
v 1.25 0.1875 0.125
v 1.125 0.25 0.125
v 1 0.25 0.125
v 0.875 0.3125 0.125
v 0.75 0.25 0.125
v 1.25 0.1875 0
v 1.125 0.25 0
v 1 0.3125 0
v 0.875 0.3125 0
v 0.75 0.25 0
v 1.25 0.1875 -0.125
v 1.125 0.25 -0.125
v 1 0.25 -0.125
v 0.875 0.25 -0.125
v 0.75 0.25 -0.125
v 1.25 0.1875 -0.25
v 1.125 0.1875 -0.25
v 1 0.1875 -0.25
v 0.875 0.1875 -0.25
v 0.75 0.25 -0.25
v 1.375 0.75 -0.375
v 1.375 0.75 0.375
v 1.375 0.25 0.375
v 1.375 0.25 -0.375
v 1.375 0.875 -0.375
v 1.375 0.875 0.375
v 1.375 0.125 0.375
v 1.375 0.125 -0.375
v 0.625 0.875 -0.375
v 0.625 0.875 0.375
v 0.625 0.125 0.375
v 0.625 0.125 -0.375
vn -0.4082 0.8165 -0.4082
vn 0.1909 0.9743 -0.1199
vn 0.6664 0.6268 -0.4039
vn 0.5351 0.6537 -0.5351
vn -0.0000 1.0000 -0.0000
vn -1.0000 -0.0000 -0.0000
vn -0.1909 0.9743 0.1199
vn -0.6664 0.6268 0.4039
vn -0.5351 0.6537 0.5351
vn 0.1319 0.9176 0.3750
vn 0.5112 0.6562 0.5550
vn 0.5686 0.5944 0.5686
vn -0.0000 0.8944 -0.4472
vn -0.2385 0.9711 -0.0107
vn 0.1677 0.9562 0.2401
vn 0.2757 0.9209 0.2757
vn -0.3860 0.9223 0.0173
vn -0.2057 0.9568 0.2057
vn 0.1810 0.9487 -0.2593
vn -0.0107 0.9711 0.2385
vn 0.2401 0.9562 -0.1677
vn 0.2757 0.9209 -0.2757
vn 0.2171 0.6813 0.6991
vn 0.6991 0.6813 0.2171
vn 0.1962 0.7819 0.5917
vn -0.0000 0.8944 0.4472
vn 0.4472 0.8944 -0.0000
vn 0.3750 0.9176 -0.1319
vn 0.5550 0.6562 -0.5112
vn 0.5686 0.5944 -0.5686
vn -0.4472 0.8944 -0.0000
vn -0.2171 0.6813 -0.6991
vn -0.6991 0.6813 -0.2171
vn -0.1962 0.7819 -0.5917
vn 0.0107 0.9711 -0.2385
vn -0.2401 0.9562 0.1677
vn -0.2757 0.9209 0.2757
vn -0.3474 0.9303 -0.1179
vn 0.1179 0.9303 0.3474
vn -0.1989 0.9612 -0.1911
vn 0.6364 0.7201 -0.2766
vn 0.2766 0.7201 -0.6364
vn 0.6348 0.7632 -0.1207
vn 0.2593 0.9607 0.0993
vn -0.0993 0.9607 -0.2593
vn 0.2565 0.9290 0.2669
vn 0.2593 0.9487 0.1810
vn -0.0173 0.9223 -0.3860
vn -0.2057 0.9568 -0.2057
vn -0.3474 0.9303 0.1179
vn 0.1911 0.9612 -0.1989
vn 0.1179 0.9303 -0.3474
vn -0.1677 0.9562 -0.2401
vn -0.2757 0.9209 -0.2757
vn 0.2385 0.9711 0.0107
vn 0.3474 0.9303 -0.1179
vn -0.1911 0.9612 0.1989
vn -0.1179 0.9303 0.3474
vn -0.5550 0.6562 0.5112
vn -0.5686 0.5944 0.5686
vn -0.3750 0.9176 0.1319
vn -0.5112 0.6562 -0.5550
vn -0.5686 0.5944 -0.5686
vn -0.1319 0.9176 -0.3750
vn 0.2171 0.6813 -0.6991
vn 0.5917 0.7819 -0.1962
vn 0.6991 0.6813 -0.2171
vn 0.4082 0.8165 0.4082
vn 0.3860 0.9223 -0.0173
vn 0.2057 0.9568 -0.2057
vn -0.1810 0.9487 0.2593
vn -0.0000 -1.0000 -0.0000
vn 1.0000 -0.0000 -0.0000
vn -0.0000 -0.0000 -1.0000
vn -0.4082 0.8165 0.4082
vn -0.0000 -0.0000 1.0000
vn 0.0993 0.9607 0.2593
vn -0.2565 0.9290 -0.2669
vn -0.2593 0.9607 -0.0993
vn 0.4039 0.6268 0.6664
vn 0.5351 0.6537 0.5351
vn 0.1199 0.9743 0.1909
vn -0.2766 0.7201 0.6364
vn -0.6348 0.7632 0.1207
vn -0.6364 0.7201 0.2766
vt 0.7931 0.32143
vt 0.89655 0.32143
vt 0.7931 0.42857
vt 0.89655 0.42857
vt 0.81034 0.32143
vt 0.82759 0.32143
vt 0.84483 0.32143
vt 0.86207 0.32143
vt 0.87931 0.32143
vt 0.81034 0.42857
vt 0.82759 0.42857
vt 0.84483 0.42857
vt 0.86207 0.42857
vt 0.87931 0.42857
vt 0.7931 0.41071
vt 0.7931 0.39286
vt 0.7931 0.375
vt 0.7931 0.35714
vt 0.7931 0.33929
vt 0.89655 0.33929
vt 0.89655 0.35714
vt 0.89655 0.375
vt 0.89655 0.39286
vt 0.89655 0.41071
vt 0.81034 0.33929
vt 0.81034 0.35714
vt 0.81034 0.375
vt 0.81034 0.39286
vt 0.81034 0.41071
vt 0.82759 0.33929
vt 0.82759 0.35714
vt 0.82759 0.375
vt 0.82759 0.39286
vt 0.82759 0.41071
vt 0.84483 0.33929
vt 0.84483 0.35714
vt 0.84483 0.375
vt 0.84483 0.39286
vt 0.84483 0.41071
vt 0.86207 0.33929
vt 0.86207 0.35714
vt 0.86207 0.375
vt 0.86207 0.39286
vt 0.86207 0.41071
vt 0.87931 0.33929
vt 0.87931 0.35714
vt 0.87931 0.375
vt 0.87931 0.39286
vt 0.87931 0.41071
vt 0.58621 0.51786
vt 1 0.51786
vt 0.68966 0.51786
vt 0.68966 0.44643
vt 0.58621 0.44643
vt 1 0.44643
vt 0.58621 0.53571
vt 0.89655 0.64286
vt 1 0.53571
vt 0.7931 0.64286
vt 0.68966 0.53571
vt 0.68966 0.42857
vt 0.58621 0.42857
vt 1 0.42857
vt 0.89655 0.53571
vt 0.7931 0.53571
vt 0.7931 0.42857
vt 0.89655 0.42857
s 0
f 85/107/13 60/82/13 50/72/13
f 84/106/14 60/82/15 85/107/16
f 48/70/17 70/92/17 75/97/17
f 93/120/18 88/111/18 89/112/18
f 45/67/14 56/78/15 81/103/16
f 91/118/18 86/108/18 87/110/18
f 65/87/19 52/74/20 64/86/21
f 67/89/22 63/85/23 62/84/24
f 79/101/25 73/95/25 78/100/25
f 80/102/26 48/70/27 75/97/28
f 84/106/29 59/81/30 60/82/31
f 73/95/22 69/91/23 68/90/24
f 64/86/32 53/75/33 63/85/34
f 68/90/35 72/94/36 73/95/37
f 62/84/35 66/88/36 67/89/37
f 42/64/22 61/83/23 41/63/24
f 84/106/25 78/100/25 83/105/25
f 47/69/38 65/87/38 70/92/38
f 64/86/35 68/90/36 69/91/37
f 57/79/26 83/105/27 82/104/28
f 72/94/39 66/88/39 71/93/39
f 57/79/40 81/103/41 56/78/42
f 75/97/43 69/91/43 74/96/43
f 79/101/44 75/97/45 74/96/46
f 77/99/39 71/93/39 76/98/39
f 43/65/47 76/98/48 71/93/49
f 83/105/25 77/99/25 82/104/25
f 78/100/50 72/94/51 77/99/52
f 63/85/39 54/76/39 62/84/39
f 50/72/43 80/102/43 85/107/43
f 82/104/50 76/98/51 81/103/52
f 59/81/53 83/105/54 58/80/55
f 61/83/22 54/76/23 55/77/24
f 46/68/56 51/73/57 65/87/58
f 41/63/59 55/77/60 37/59/61
f 85/107/40 79/101/41 84/106/42
f 93/120/18 92/119/18 88/111/18
f 68/90/62 67/89/63 72/94/64
f 73/95/65 74/96/66 69/91/67
f 79/101/25 74/96/25 73/95/25
f 79/101/68 80/102/69 75/97/70
f 47/69/38 46/68/38 65/87/38
f 64/86/71 52/74/72 53/75/73
f 64/86/62 63/85/63 68/90/64
f 80/102/74 49/71/75 48/70/76
f 42/64/65 66/88/66 61/83/67
f 91/118/18 90/114/18 86/108/18
f 45/67/29 38/60/30 56/78/31
f 82/104/77 77/99/78 76/98/79
f 57/79/74 58/80/75 83/105/76
f 50/72/80 60/82/80 40/62/80
f 65/87/81 51/73/82 52/74/83
f 84/106/25 79/101/25 78/100/25
f 57/79/48 82/104/49 81/103/47
f 48/70/17 47/69/17 70/92/17
f 95/123/84 90/115/84 91/117/84
f 67/89/65 68/90/66 63/85/67
f 62/84/62 61/83/63 66/88/64
f 96/124/85 94/122/85 95/123/85
f 96/124/86 87/110/86 88/111/86
f 71/93/17 42/64/17 43/65/17
f 95/123/86 91/118/86 87/110/86
f 64/86/87 70/92/87 65/87/87
f 95/123/84 94/122/84 90/115/84
f 85/107/48 80/102/49 79/101/47
f 86/109/88 94/122/88 97/125/88
f 77/99/39 72/94/39 71/93/39
f 43/65/41 44/66/42 76/98/40
f 61/83/65 62/84/66 54/76/67
f 96/124/85 97/125/85 94/122/85
f 96/124/86 95/123/86 87/110/86
f 71/93/17 66/88/17 42/64/17
f 64/86/87 69/91/87 70/92/87
f 81/103/39 76/98/39 44/66/39
f 59/81/89 84/106/90 83/105/91
f 75/97/43 70/92/43 69/91/43
f 72/94/39 67/89/39 66/88/39
f 50/72/43 49/71/43 80/102/43
f 41/63/92 61/83/93 55/77/94
f 63/85/39 53/75/39 54/76/39
f 46/68/95 39/61/96 51/73/97
f 86/109/88 97/125/88 89/113/88
f 88/111/86 92/119/86 96/124/86
f 78/100/77 73/95/78 72/94/79
f 93/121/88 89/113/88 97/125/88
f 83/105/25 78/100/25 77/99/25
f 86/109/88 90/116/88 94/122/88
f 81/103/39 44/66/39 45/67/39
o Main
v -1.5 -0 1.5
v 1.5 -0 1.5
v -1.5 0 -1.5
v 1.5 0 -1.5
v -1.5 1 1.5
v 1.5 1 1.5
v -1.5 1 -1.5
v 1.5 1 -1.5
v -0.5 1 0.5
v 0.5 1 0.5
v -0.5 1 -0.5
v 0.5 1 -0.5
v -0.4375 1 -0.4375
v -0.4375 1 0.4375
v 0.4375 1 0.4375
v 0.4375 1 -0.4375
v -0.5 -0 0.5
v 0.5 -0 0.5
v -0.5 0 -0.5
v 0.5 0 -0.5
v -0.4375 0 -0.4375
v -0.4375 -0 0.4375
v 0.4375 -0 0.4375
v 0.4375 0 -0.4375
v -0.5 0.0625 -0.5
v -0.5 0.0625 0.5
v 0.5 0.0625 0.5
v 0.5 0.0625 -0.5
v -0.4375 0.0625 -0.4375
v -0.4375 0.0625 0.4375
v 0.4375 0.0625 0.4375
v 0.4375 0.0625 -0.4375
v -0.5 0.9375 -0.5
v -0.5 0.9375 0.5
v 0.5 0.9375 0.5
v 0.5 0.9375 -0.5
v -0.4375 0.9375 -0.4375
v -0.4375 0.9375 0.4375
v 0.4375 0.9375 0.4375
v 0.4375 0.9375 -0.4375
v 1.5 0.75 0.375
v 1.5 0.25 0.375
v 1.5 0.75 -0.375
v 1.5 0.25 -0.375
v 1.375 0.75 -0.375
v 1.375 0.75 0.375
v 1.375 0.25 0.375
v 1.375 0.25 -0.375
v 0 -0 1.5
v 1.5 0.875 -0.5625
v 0 0 -1.5
v 0 1 1.5
v -0.5 1 1
v -1.5 0 0
v -1 0 -0.5
v -0.5 -0 1
v -1.5 1 0
v 0 1 -1.5
v -1 1 -0.5
v 1.5 0 0
v 1.5 1 0
v 0.5 1 -1
v 0.5 0 -1
v 1 1 0.5
v 1 -0 0.5
v 1.5 0.125 0.5625
vn -0.0000 -0.0000 -1.0000
vn -0.0000 1.0000 -0.0000
vn -0.0000 -0.0000 1.0000
vn 1.0000 -0.0000 -0.0000
vn -0.0000 -1.0000 -0.0000
vn -1.0000 -0.0000 -0.0000
vt 0.41379 0.42857
vt 0 0
vt -0 0.42857
vt 0.41379 0.42857
vt 0 0.42857
vt 0.41379 0.42857
vt 0.41379 0
vt 0 0.42857
vt 0 0.42857
vt 0.41379 0.42857
vt -0 0.57143
vt 0.41379 0.57143
vt 0 1
vt 0 0.57143
vt 0.41379 0.57143
vt 0.41379 1
vt 0.41379 0.57143
vt 0 0.57143
vt 0 0.57143
vt 0.41379 0.57143
vt 0.43103 0.17857
vt 0.41379 0.16071
vt 0.13793 0.85714
vt 0.41379 0.01786
vt 0.43103 -0
vt 0.13793 0.71429
vt 0.58621 0.16071
vt 0.56897 0.17857
vt 0.27586 0.85714
vt 0.56897 -0
vt 0.58621 0.01786
vt 0.27586 0.71429
vt 0.56034 0.15179
vt 0.43966 0.15179
vt 0.43966 0.02679
vt 0.56034 0.02679
vt 0.41379 0.01786
vt 0.43103 -0
vt 0.13793 0.14286
vt 0.43103 0.17857
vt 0.41379 0.16071
vt 0.13793 0.28571
vt 0.56897 0
vt 0.58621 0.01786
vt 0.27586 0.14286
vt 0.58621 0.16071
vt 0.56897 0.17857
vt 0.27586 0.28571
vt 0.56034 0.02679
vt 0.43966 0.02679
vt 0.43966 0.15179
vt 0.56034 0.15179
vt 0.57759 0.01786
vt 0.56897 0.00893
vt 0.42241 0.01786
vt 0.43103 0.00893
vt 0.42241 0.16071
vt 0.43103 0.16964
vt 0.57759 0.16071
vt 0.56897 0.16964
vt 0.56034 0.01786
vt 0.56897 0.02679
vt 0.43966 0.01786
vt 0.43103 0.02679
vt 0.43966 0.16071
vt 0.43103 0.15179
vt 0.56034 0.16071
vt 0.56897 0.15179
vt 0.57759 0.16071
vt 0.56897 0.16964
vt 0.42241 0.16071
vt 0.43103 0.16964
vt 0.42241 0.01786
vt 0.43103 0.00893
vt 0.57759 0.01786
vt 0.56897 0.00893
vt 0.56034 0.16071
vt 0.56897 0.15179
vt 0.43103 0.15179
vt 0.43966 0.16071
vt 0.43103 0.02679
vt 0.43966 0.01786
vt 0.56897 0.02679
vt 0.56034 0.01786
vt 0.58621 0.32143
vt 0.56897 0.30357
vt 0.15517 0.53571
vt 0.56897 0.23214
vt 0.58621 0.21429
vt 0.15517 0.46429
vt 0.7069 0.30357
vt 0.68966 0.32143
vt 0.25862 0.53571
vt 0.68966 0.21429
vt 0.7069 0.23214
vt 0.25862 0.46429
vt 0.68966 0.30357
vt 0.58621 0.30357
vt 0.58621 0.23214
vt 0.68966 0.23214
vt 0 0.21429
vt 0.2069 0.42857
vt 0.28448 0.55357
vt 0.41379 0.21429
vt 0.2069 0.42857
vt 0.2069 0.57143
vt 0 0.78572
vt 0.06897 0.85714
vt 0.2069 0
vt 0.2069 0.42857
vt 0.27586 0.07143
vt 0.06897 0.14286
vt 0.2069 1
vt 0.2069 0.57143
vt 0.41379 0.78572
vt 0.2069 0.57143
vt 0.27586 0.92857
vt 0.2069 0.42857
vt 0.2069 0.57143
vt 0.34483 0.71429
vt 0.34483 0.28571
vt 0.13793 0.64286
vt 0.13793 0.35714
vt 0.12931 0.44643
s 0
f 123/180/98 115/166/98 114/162/98
f 161/247/99 103/139/99 158/244/99
f 125/184/100 116/169/100 117/171/100
f 147/228/101 105/145/101 158/244/101
f 155/241/98 101/134/98 148/230/98
f 113/161/99 111/159/99 112/160/99
f 143/223/102 140/217/102 138/210/102
f 159/245/99 105/145/99 155/240/99
f 156/242/99 104/141/99 154/238/99
f 150/233/99 102/138/99 149/232/99
f 121/177/102 119/175/102 118/174/102
f 144/224/98 138/211/98 139/213/98
f 130/194/100 109/156/100 108/152/100
f 135/204/100 112/160/100 111/159/100
f 122/179/101 114/163/101 116/168/101
f 127/188/103 118/174/103 119/175/103
f 129/192/101 120/176/101 121/177/101
f 132/198/98 106/147/98 107/149/98
f 114/164/102 151/234/102 152/236/102
f 116/170/102 148/229/102 160/246/102
f 117/173/102 157/243/102 162/248/102
f 115/167/102 146/226/102 153/237/102
f 126/186/102 123/181/102 122/179/102
f 129/193/102 122/178/102 125/184/102
f 127/189/102 124/182/102 123/180/102
f 128/190/102 125/185/102 124/183/102
f 133/201/103 107/150/103 109/155/103
f 134/202/103 111/159/103 110/158/103
f 124/183/103 117/172/103 115/165/103
f 131/197/101 108/153/101 106/146/101
f 131/197/99 134/202/99 130/195/99
f 130/194/99 137/208/99 133/200/99
f 132/198/99 135/204/99 131/196/99
f 133/201/99 136/207/99 132/199/99
f 137/208/98 110/158/98 113/161/98
f 128/191/100 119/175/100 120/176/100
f 138/212/101 99/130/101 139/215/101
f 149/231/100 98/128/100 146/227/100
f 136/207/101 113/161/101 112/160/101
f 102/137/103 151/235/103 98/126/103
f 163/249/101 99/130/101 157/243/101
f 141/221/101 105/145/101 140/218/101
f 142/222/100 141/220/100 140/216/100
f 126/187/98 121/177/98 118/174/98
f 145/225/99 139/214/99 141/219/99
f 127/188/103 126/186/103 118/174/103
f 107/151/99 161/247/99 109/157/99
f 155/241/98 105/144/98 101/134/98
f 140/218/101 147/228/101 138/212/101
f 116/170/102 100/132/102 148/229/102
f 114/164/102 98/127/102 151/234/102
f 130/194/100 133/200/100 109/156/100
f 109/157/99 159/245/99 108/154/99
f 108/154/99 156/242/99 106/148/99
f 106/148/99 150/233/99 107/151/99
f 132/198/98 131/196/98 106/147/98
f 106/148/99 154/238/99 102/138/99
f 135/204/100 136/206/100 112/160/100
f 108/154/99 155/240/99 104/141/99
f 129/192/101 128/190/101 120/176/101
f 123/180/98 124/182/98 115/166/98
f 109/157/99 158/244/99 105/145/99
f 138/212/101 158/244/101 103/139/101
f 116/170/102 152/236/102 100/132/102
f 117/173/102 160/246/102 101/135/102
f 115/167/102 162/248/102 99/130/102
f 114/164/102 153/237/102 98/127/102
f 126/186/102 127/188/102 123/181/102
f 129/193/102 126/187/102 122/178/102
f 127/189/102 128/191/102 124/182/102
f 128/190/102 129/192/102 125/185/102
f 143/223/102 142/222/102 140/217/102
f 99/130/102 162/248/102 157/243/102
f 125/184/100 122/178/100 116/169/100
f 122/179/101 123/181/101 114/163/101
f 131/197/99 135/205/99 134/202/99
f 130/194/99 134/203/99 137/208/99
f 132/198/99 136/206/99 135/204/99
f 133/201/99 137/209/99 136/207/99
f 104/142/98 148/230/98 100/131/98
f 101/135/102 160/246/102 148/229/102
f 98/127/102 153/237/102 146/226/102
f 113/161/99 110/158/99 111/159/99
f 100/132/102 152/236/102 151/234/102
f 141/221/101 157/243/101 101/135/101
f 139/215/101 163/249/101 141/221/101
f 103/140/100 146/227/100 99/129/100
f 144/224/98 143/223/98 138/211/98
f 121/177/102 120/176/102 119/175/102
f 107/151/99 149/232/99 103/139/99
f 154/239/103 100/133/103 151/235/103
f 117/173/102 101/135/102 157/243/102
f 115/167/102 99/130/102 146/226/102
f 133/201/103 132/199/103 107/150/103
f 134/202/103 135/205/103 111/159/103
f 124/183/103 125/185/103 117/172/103
f 131/197/101 130/195/101 108/153/101
f 137/208/98 134/203/98 110/158/98
f 128/191/100 127/189/100 119/175/100
f 138/212/101 103/139/101 99/130/101
f 149/231/100 102/136/100 98/128/100
f 136/207/101 137/209/101 113/161/101
f 102/137/103 154/239/103 151/235/103
f 141/221/101 101/135/101 105/145/101
f 142/222/100 145/225/100 141/220/100
f 126/187/98 129/193/98 121/177/98
f 145/225/99 144/224/99 139/214/99
f 107/151/99 103/139/99 161/247/99
f 140/218/101 105/145/101 147/228/101
f 109/157/99 105/145/99 159/245/99
f 108/154/99 104/141/99 156/242/99
f 106/148/99 102/138/99 150/233/99
f 106/148/99 156/242/99 154/238/99
f 108/154/99 159/245/99 155/240/99
f 109/157/99 161/247/99 158/244/99
f 138/212/101 147/228/101 158/244/101
f 116/170/102 114/164/102 152/236/102
f 117/173/102 116/170/102 160/246/102
f 115/167/102 117/173/102 162/248/102
f 114/164/102 115/167/102 153/237/102
f 104/142/98 155/241/98 148/230/98
f 141/221/101 163/249/101 157/243/101
f 139/215/101 99/130/101 163/249/101
f 103/140/100 149/231/100 146/227/100
f 107/151/99 150/233/99 149/232/99
f 154/239/103 104/143/103 100/133/103
