# Blender 3.4.1
# www.blender.org
o Base
v -1 -0 1
v 1 -0 1
v -1 0 -1
v 1 0 -1
v -0.875 2.75 0.875
v 0.875 2.75 0.875
v -0.875 2.75 -0.875
v 0.875 2.75 -0.875
v -1 2.75 -1
v -1 2.75 1
v 1 2.75 1
v 1 2.75 -1
v -0.625 3 -0.625
v -0.625 3 0.625
v 0.625 3 0.625
v 0.625 3 -0.625
v -0.875 3 -0.875
v -0.875 3 0.875
v 0.875 3 0.875
v 0.875 3 -0.875
v -0.625 2.75 -0.625
v -0.625 2.75 0.625
v 0.625 2.75 0.625
v 0.625 2.75 -0.625
v -0.625 3 -0.625
v -0.625 3 0.625
v 0.625 3 0.625
v 0.625 3 -0.625
v 0 2.75 0.875
v 0 3 0.625
v 0 2.75 0.625
v 0 2.75 -0.875
v 0 2.75 -0.625
v 0 3 -0.625
v 0 3 -0.875
v 0 3 0.875
v -0.875 2.75 0
v 0.875 2.75 0
v -0.625 3 0
v 0.625 3 0
v -0.625 2.75 0
v 0.625 2.75 0
v -0.875 3 0
v 0.875 3 0
v 0 2.75 0
v -1 0 0
v 0 0 -1
v 0 -0 1
v -1 2.75 0
v 0.0625 2.75 -0.9375
v -1 1.375 1
v -1 1.375 -1
v -0.9375 2.75 -0.0625
v 0 2.75 -1
v 1 2.75 0
v 1 0 0
v -0.0625 2.75 0.9375
v 0.9375 2.75 0.0625
v 1 1.375 -1
v 1 1.375 1
v 0 2.75 1
v 1 1.375 0
v 0 0 0
v 0 1.375 1
v 0 1.375 -1
v -1 1.375 0
vn -0.0000 1.0000 -0.0000
vn -0.0000 -0.0000 -1.0000
vn -0.0000 -0.0000 1.0000
vn -1.0000 -0.0000 -0.0000
vn -0.0000 -1.0000 -0.0000
vn 1.0000 -0.0000 -0.0000
vt 0.70909 0
vt -0 -0
vt 0.41818 -0
vt 0.70909 0
vt 0.41818 -0
vt 0 0.4
vt 1 0
vt 0.29091 -0
vt 0.41818 -0
vt 0.29091 0.4
vt 0.70909 0
vt 0.27273 0.6
vt 0.01818 0.6
vt 0.43636 0.975
vt 0.27273 0.6
vt 0.69091 0.975
vt 0.01818 0.6
vt 0.01818 0.6
vt 0.27273 0.6
vt 0.43636 0.625
vt 0.01818 0.6
vt 0.27273 0.6
vt 0.69091 0.625
vt 0.41818 0.55
vt 0.41818 0.6
vt 1 0.55
vt 0.41818 0.55
vt 0.70909 0.55
vt 0.41818 1
vt 0.70909 1
vt 0.41818 0.55
vt 0.70909 0.55
vt 0.70909 0.55
vt 0.70909 0.6
vt 0.05455 0.7
vt 0.23636 0.7
vt 0.05455 0.7
vt 0.23636 0.7
vt 0.23636 0.7
vt 0.05455 0.7
vt 0.05455 0.7
vt 0.23636 0.7
vt 0.27273 0.65
vt 0.01818 0.65
vt 0.27273 0.65
vt 0.01818 0.65
vt 0.27273 0.65
vt 0.01818 0.65
vt 0.27273 0.65
vt 0.01818 0.65
vt 0.23636 0.75
vt 0.23636 1
vt 0.05455 0.75
vt 0.23636 0.75
vt 0.05455 0.75
vt 0.05455 1
vt 0.23636 0.75
vt 0.05455 0.75
vt 0.23636 0.75
vt 0.05455 0.75
vt 0.41818 1
vt 0.23636 1
vt 0.23636 0.7375
vt 0.41818 0.7375
vt 0.56364 0.975
vt 0.14546 0.6
vt 0.14546 0.7
vt 0.14546 0.75
vt 0.05455 0.875
vt 0.56364 0.625
vt 0.14546 0.6
vt 0.23636 0.875
vt 0.14546 0.75
vt 0.14546 0.7
vt 0.14546 0.65
vt 0.14546 0.65
vt 0.14546 0.6
vt 0.43636 0.8125
vt 0.69091 0.8
vt 0.14546 0.6
vt 0.14546 0.7
vt 0.14546 0.7
vt 0.14546 1
vt 0.14546 0.75
vt 0.14546 0.75
vt 0.14546 0.65
vt 0.14546 0.65
vt 0.14546 0.875
vt 0.14545 0
vt 0.56364 0
vt 0.85454 0
vt 0.29091 0.2
vt 0.56364 0
vt 0 0.2
vt 0.56364 0.55
vt 0.41818 0.8
vt 0.57273 0.6125
vt 0.41818 0.275
vt 0.70909 0.275
vt 1 0.275
vt 0.41818 0.275
vt 0.42727 0.7875
vt 0.56364 0.6
vt 0.85454 0.55
vt 0.70909 0.8
vt 0.56364 0.55
vt 0.56364 0
vt 0.14545 0.4
vt 0.55455 0.9875
vt 0.7 0.8125
vt 0.70909 0.275
vt 0.41818 0.275
vt 0.70909 0.275
vt 0.56364 0.55
vt 0.56364 1
vt 0.56364 0.275
vt 0.14545 0.2
vt 0.56364 0.275
vt 0.85454 0.275
vt 0.56364 0.275
s 0
f 33/72/1 42/85/1 24/59/1
f 31/68/2 15/39/2 23/57/2
f 25/61/1 27/63/1 28/64/1
f 29/65/1 57/109/1 6/16/1
f 38/79/1 58/110/1 8/23/1
f 32/70/1 50/97/1 7/20/1
f 24/60/3 34/74/3 33/73/3
f 17/44/4 37/77/4 43/86/4
f 43/86/4 5/12/4 18/45/4
f 46/90/4 51/99/4 66/120/4
f 35/75/1 13/36/1 34/74/1
f 43/86/1 14/38/1 39/81/1
f 14/37/1 36/76/1 30/67/1
f 44/87/1 16/42/1 40/82/1
f 22/55/2 30/67/2 31/68/2
f 47/91/2 52/100/2 65/119/2
f 9/25/1 49/96/1 53/102/1
f 20/50/2 32/71/2 35/75/2
f 36/76/3 6/15/3 19/47/3
f 16/41/1 35/75/1 34/74/1
f 48/93/3 60/113/3 64/118/3
f 23/58/4 40/82/4 42/85/4
f 48/94/5 46/89/5 63/117/5
f 36/76/1 15/39/1 30/67/1
f 35/75/2 7/19/2 17/43/2
f 45/88/1 23/58/1 42/85/1
f 21/52/1 45/88/1 33/72/1
f 18/46/3 29/66/3 36/76/3
f 41/83/1 31/69/1 45/88/1
f 15/40/1 44/87/1 40/82/1
f 13/35/1 43/86/1 39/81/1
f 41/84/6 14/38/6 22/54/6
f 21/53/6 39/81/6 41/84/6
f 42/85/4 16/42/4 24/59/4
f 37/78/1 53/102/1 5/14/1
f 60/112/6 56/107/6 62/116/6
f 33/73/3 13/36/3 21/51/3
f 44/87/6 8/22/6 20/49/6
f 51/98/3 61/114/3 10/27/3
f 32/70/1 12/34/1 50/97/1
f 4/11/2 65/119/2 59/111/2
f 61/115/1 6/16/1 57/109/1
f 29/65/1 5/14/1 10/29/1
f 55/105/1 8/23/1 58/110/1
f 38/79/1 6/16/1 11/30/1
f 54/103/1 7/20/1 50/97/1
f 32/70/1 8/23/1 12/34/1
f 59/111/2 54/104/2 12/33/2
f 66/120/4 10/28/4 49/95/4
f 65/119/2 9/26/2 54/104/2
f 17/44/4 7/18/4 37/77/4
f 35/75/1 17/43/1 13/36/1
f 43/86/1 18/45/1 14/38/1
f 14/37/1 18/46/1 36/76/1
f 44/87/1 20/49/1 16/42/1
f 11/30/1 55/105/1 58/110/1
f 29/65/1 10/29/1 57/109/1
f 12/34/1 54/103/1 50/97/1
f 10/29/1 61/115/1 57/109/1
f 11/31/6 62/116/6 55/106/6
f 16/41/1 20/50/1 35/75/1
f 64/118/3 11/32/3 61/114/3
f 38/79/1 11/30/1 58/110/1
f 24/60/3 16/41/3 34/74/3
f 36/76/1 19/47/1 15/39/1
f 63/117/5 3/8/5 47/92/5
f 55/106/6 59/111/6 12/33/6
f 62/116/6 4/11/6 59/111/6
f 52/101/4 49/95/4 9/24/4
f 3/9/4 66/120/4 52/101/4
f 15/40/1 19/48/1 44/87/1
f 13/35/1 17/44/1 43/86/1
f 31/68/2 30/67/2 15/39/2
f 1/3/3 64/118/3 51/98/3
f 33/72/1 45/88/1 42/85/1
f 49/96/1 5/14/1 53/102/1
f 37/78/1 7/20/1 9/25/1
f 2/6/5 63/117/5 56/108/5
f 56/108/5 47/92/5 4/10/5
f 25/61/1 26/62/1 27/63/1
f 19/48/6 38/80/6 44/87/6
f 43/86/4 37/77/4 5/12/4
f 46/90/4 1/1/4 51/99/4
f 22/55/2 14/37/2 30/67/2
f 47/91/2 3/7/2 52/100/2
f 20/50/2 8/21/2 32/71/2
f 36/76/3 29/66/3 6/15/3
f 48/93/3 2/4/3 60/113/3
f 23/58/4 15/40/4 40/82/4
f 48/94/5 1/2/5 46/89/5
f 35/75/2 32/71/2 7/19/2
f 45/88/1 31/69/1 23/58/1
f 21/52/1 41/83/1 45/88/1
f 18/46/3 5/13/3 29/66/3
f 41/83/1 22/56/1 31/69/1
f 41/84/6 39/81/6 14/38/6
f 21/53/6 13/35/6 39/81/6
f 42/85/4 40/82/4 16/42/4
f 37/78/1 9/25/1 53/102/1
f 60/112/6 2/5/6 56/107/6
f 33/73/3 34/74/3 13/36/3
f 44/87/6 38/80/6 8/22/6
f 51/98/3 64/118/3 61/114/3
f 4/11/2 47/91/2 65/119/2
f 61/115/1 11/30/1 6/16/1
f 55/105/1 12/34/1 8/23/1
f 54/103/1 9/25/1 7/20/1
f 59/111/2 65/119/2 54/104/2
f 66/120/4 51/99/4 10/28/4
f 65/119/2 52/100/2 9/26/2
f 11/31/6 60/112/6 62/116/6
f 64/118/3 60/113/3 11/32/3
f 63/117/5 46/89/5 3/8/5
f 55/106/6 62/116/6 59/111/6
f 62/116/6 56/107/6 4/11/6
f 52/101/4 66/120/4 49/95/4
f 3/9/4 46/90/4 66/120/4
f 1/3/3 48/93/3 64/118/3
f 49/96/1 10/29/1 5/14/1
f 2/6/5 48/94/5 63/117/5
f 56/108/5 63/117/5 47/92/5
f 19/48/6 6/17/6 38/80/6
o Fan
v 0 2.75 -0.125
v -0.10825 2.75 -0.0625
v -0.10825 2.75 0.0625
v 0 2.75 0.125
v 0.10825 2.75 0.0625
v 0.10825 2.75 -0.0625
v 0 2.875 -0.125
v -0.10825 2.875 -0.0625
v -0.10825 2.875 0.0625
v 0 2.875 0.125
v 0.10825 2.875 0.0625
v 0.10825 2.875 -0.0625
v -0.10825 2.82868 -0.06037
v -0.10825 2.79632 0.06037
v -0.54127 2.87316 -0.22639
v -0.54127 2.75184 0.22639
v 0.00184 2.82868 0.12394
v 0.10641 2.79632 0.06356
v 0.07458 2.87316 0.58194
v 0.46669 2.75184 0.35556
v 0.10641 2.82868 -0.06356
v 0.00184 2.79632 -0.12394
v 0.46669 2.87316 -0.35556
v 0.07457 2.75184 -0.58194
vn 0.5000 -0.0000 -0.8660
vn -0.0000 1.0000 -0.0000
vn -1.0000 -0.0000 -0.0000
vn 0.2241 0.9659 -0.1294
vn 0.5000 -0.0000 0.8660
vn -0.5000 -0.0000 -0.8660
vn -0.0000 0.9659 0.2588
vn -0.2241 0.9659 -0.1294
vn -0.5000 -0.0000 0.8660
vn 1.0000 -0.0000 -0.0000
vt 0.32727 0
vt 0.34546 0
vt 0.36364 0
vt 0.38182 0
vt 0.4 0
vt 0.29091 0
vt 0.30909 0
vt 0.32727 0.025
vt 0.32727 0.05
vt 0.31818 0.075
vt 0.34546 0.025
vt 0.36364 0.025
vt 0.3 0.075
vt 0.29091 0.05
vt 0.38182 0.025
vt 0.4 0.025
vt 0.3 0.025
vt 0.29091 0.025
vt 0.31818 0.025
vt 0.30909 0.025
vt 0.37273 0.025
vt 0.35454 0.025
vt 0.4 0.125
vt 0.32727 0.125
vt 0.37273 0.025
vt 0.35454 0.025
vt 0.4 0.125
vt 0.32727 0.125
vt 0.37273 0.025
vt 0.35454 0.025
vt 0.4 0.125
vt 0.32727 0.125
s 0
f 78/140/7 67/121/7 73/128/7
f 78/139/8 75/133/8 77/137/8
f 74/131/9 69/123/9 75/132/9
f 85/147/10 84/146/10 83/145/10
f 76/135/11 71/125/11 77/136/11
f 73/128/12 68/122/12 74/131/12
f 82/144/13 79/141/13 81/143/13
f 78/140/7 72/127/7 67/121/7
f 87/149/14 90/152/14 88/150/14
f 73/129/8 74/130/8 75/133/8
f 75/133/8 76/134/8 77/137/8
f 75/132/15 70/124/15 76/135/15
f 82/144/13 80/142/13 79/141/13
f 73/128/12 67/121/12 68/122/12
f 75/132/15 69/123/15 70/124/15
f 76/135/11 70/124/11 71/125/11
f 77/138/16 71/126/16 72/127/16
f 85/147/10 86/148/10 84/146/10
f 78/139/8 73/129/8 75/133/8
f 74/131/9 68/122/9 69/123/9
f 87/149/14 89/151/14 90/152/14
f 77/138/16 72/127/16 78/140/16
