# Blender 3.4.1
# www.blender.org
o Off
v -0.09375 0.125 0.1875
v 0.09375 0.125 0.1875
v -0.09375 0.125 -0.1875
v 0.09375 0.125 -0.1875
v 0.1875 0.125 0.09375
v 0.1875 0.125 -0.09375
v -0.1875 0.125 0.09375
v -0.1875 0.125 -0.09375
v -0.09375 1.875 0.1875
v 0.09375 1.875 0.1875
v -0.09375 1.875 -0.1875
v 0.09375 1.875 -0.1875
v 0.1875 1.875 0.09375
v 0.1875 1.875 -0.09375
v -0.1875 1.875 0.09375
v -0.1875 1.875 -0.09375
v -0.09375 1 0.1875
v 0.09375 1 0.1875
v -0.09375 1 -0.1875
v 0.1875 1 0.09375
v 0.1875 1 -0.09375
v -0.1875 1 -0.09375
v 0.09375 1 -0.1875
v -0.1875 1 0.09375
vn -1.0000 -0.0000 -0.0000
vn -0.0000 -0.0000 -1.0000
vn -0.0000 -0.0000 1.0000
vn 0.7071 -0.0000 -0.7071
vn -0.7071 -0.0000 0.7071
vn 0.7071 -0.0000 0.7071
vn 1.0000 -0.0000 -0.0000
vn -0.7071 -0.0000 -0.7071
vt 0.57143 -0
vt 0.65714 -0
vt 0.54286 -0
vt 0.54286 -0
vt 0.65714 -0
vt 0.57143 -0
vt 0.57143 -0
vt 0.65714 -0
vt 0.54286 -0
vt 0.65714 -0
vt 0.54286 -0
vt 0.57143 -0
vt 0.57143 0.84849
vt 0.65714 0.84849
vt 0.54286 0.84849
vt 0.65714 0.84849
vt 0.54286 0.84849
vt 0.57143 0.84849
vt 0.57143 0.84849
vt 0.65714 0.84849
vt 0.54286 0.84849
vt 0.65714 0.84849
vt 0.54286 0.84849
vt 0.57143 0.84849
vt 0.57143 0.42424
vt 0.54286 0.42424
vt 0.65714 0.42424
vt 0.65714 0.42424
vt 0.54286 0.42424
vt 0.57143 0.42424
vt 0.65714 0.42424
vt 0.54286 0.42424
vt 0.57143 0.42424
vt 0.57143 0.42424
vt 0.54286 0.42424
vt 0.65714 0.42424
s 0
f 22/33/1 7/10/1 24/36/1
f 12/18/2 19/28/2 11/16/2
f 17/25/3 2/2/3 18/27/3
f 12/18/4 21/32/4 23/34/4
f 9/13/5 24/35/5 17/25/5
f 18/26/6 5/7/6 20/30/6
f 20/30/7 6/8/7 21/31/7
f 19/29/8 8/12/8 22/33/8
f 10/15/6 20/30/6 13/19/6
f 11/17/8 22/33/8 16/24/8
f 17/25/5 7/11/5 1/1/5
f 16/24/1 24/36/1 15/22/1
f 22/33/1 8/12/1 7/10/1
f 13/19/7 21/31/7 14/20/7
f 23/34/4 6/9/4 4/6/4
f 9/13/3 18/27/3 10/14/3
f 23/34/2 3/5/2 19/28/2
f 12/18/2 23/34/2 19/28/2
f 17/25/3 1/1/3 2/2/3
f 12/18/4 14/21/4 21/32/4
f 9/13/5 15/23/5 24/35/5
f 18/26/6 2/3/6 5/7/6
f 20/30/7 5/7/7 6/8/7
f 19/29/8 3/4/8 8/12/8
f 10/15/6 18/26/6 20/30/6
f 11/17/8 19/29/8 22/33/8
f 17/25/5 24/35/5 7/11/5
f 16/24/1 22/33/1 24/36/1
f 13/19/7 20/30/7 21/31/7
f 23/34/4 21/32/4 6/9/4
f 9/13/3 17/25/3 18/27/3
f 23/34/2 4/6/2 3/5/2
o On
v -0.09375 0.125 0.1875
v 0.09375 0.125 0.1875
v -0.09375 0.125 -0.1875
v 0.09375 0.125 -0.1875
v 0.1875 0.125 0.09375
v 0.1875 0.125 -0.09375
v -0.1875 0.125 0.09375
v -0.1875 0.125 -0.09375
v -0.09375 1.875 0.1875
v 0.09375 1.875 0.1875
v -0.09375 1.875 -0.1875
v 0.09375 1.875 -0.1875
v 0.1875 1.875 0.09375
v 0.1875 1.875 -0.09375
v -0.1875 1.875 0.09375
v -0.1875 1.875 -0.09375
v -0.09375 1 0.1875
v 0.09375 1 0.1875
v -0.09375 1 -0.1875
v 0.1875 1 0.09375
v 0.1875 1 -0.09375
v -0.1875 1 -0.09375
v 0.09375 1 -0.1875
v -0.1875 1 0.09375
vn -1.0000 -0.0000 -0.0000
vn -0.0000 -0.0000 -1.0000
vn -0.0000 -0.0000 1.0000
vn 0.7071 -0.0000 -0.7071
vn -0.7071 -0.0000 0.7071
vn 0.7071 -0.0000 0.7071
vn 1.0000 -0.0000 -0.0000
vn -0.7071 -0.0000 -0.7071
vt 0.68571 0
vt 0.77143 0
vt 0.65714 0
vt 0.65714 0
vt 0.77143 0
vt 0.68571 0
vt 0.68571 0
vt 0.77143 0
vt 0.65714 0
vt 0.77143 0
vt 0.65714 0
vt 0.68571 0
vt 0.68571 0.84849
vt 0.77143 0.84849
vt 0.65714 0.84849
vt 0.77143 0.84849
vt 0.65714 0.84849
vt 0.68571 0.84849
vt 0.68571 0.84849
vt 0.77143 0.84849
vt 0.65714 0.84849
vt 0.77143 0.84849
vt 0.65714 0.84849
vt 0.68571 0.84849
vt 0.68571 0.42424
vt 0.65714 0.42424
vt 0.77143 0.42424
vt 0.77143 0.42424
vt 0.65714 0.42424
vt 0.68571 0.42424
vt 0.77143 0.42424
vt 0.65714 0.42424
vt 0.68571 0.42424
vt 0.68571 0.42424
vt 0.65714 0.42424
vt 0.77143 0.42424
s 0
f 46/69/9 31/46/9 48/72/9
f 36/54/10 43/64/10 35/52/10
f 41/61/11 26/38/11 42/63/11
f 36/54/12 45/68/12 47/70/12
f 33/49/13 48/71/13 41/61/13
f 42/62/14 29/43/14 44/66/14
f 44/66/15 30/44/15 45/67/15
f 43/65/16 32/48/16 46/69/16
f 34/51/14 44/66/14 37/55/14
f 35/53/16 46/69/16 40/60/16
f 41/61/13 31/47/13 25/37/13
f 40/60/9 48/72/9 39/58/9
f 46/69/9 32/48/9 31/46/9
f 37/55/15 45/67/15 38/56/15
f 47/70/12 30/45/12 28/42/12
f 33/49/11 42/63/11 34/50/11
f 47/70/10 27/41/10 43/64/10
f 36/54/10 47/70/10 43/64/10
f 41/61/11 25/37/11 26/38/11
f 36/54/12 38/57/12 45/68/12
f 33/49/13 39/59/13 48/71/13
f 42/62/14 26/39/14 29/43/14
f 44/66/15 29/43/15 30/44/15
f 43/65/16 27/40/16 32/48/16
f 34/51/14 42/62/14 44/66/14
f 35/53/16 43/65/16 46/69/16
f 41/61/13 48/71/13 31/47/13
f 40/60/9 46/69/9 48/72/9
f 37/55/15 44/66/15 45/67/15
f 47/70/12 45/68/12 30/45/12
f 33/49/11 41/61/11 42/63/11
f 47/70/10 28/42/10 27/41/10
o UV
v -0.5 -0 0.5
v 0.5 -0 0.5
v -0.5 0 -0.5
v 0.5 0 -0.5
v -0.5 0.0625 0.5
v 0.5 0.0625 0.5
v -0.5 0.0625 -0.5
v 0.5 0.0625 -0.5
v -0.25 0.0625 0.25
v 0.25 0.0625 0.25
v -0.25 0.0625 -0.25
v 0.25 0.0625 -0.25
v -0.25 0.125 0.25
v 0.25 0.125 0.25
v -0.25 0.125 -0.25
v 0.25 0.125 -0.25
v -0.09375 0.125 0.09375
v 0.09375 0.125 0.09375
v -0.09375 0.125 -0.09375
v 0.09375 0.125 -0.09375
v -0.09375 1.875 0.09375
v 0.09375 1.875 0.09375
v -0.09375 1.875 -0.09375
v 0.09375 1.875 -0.09375
v -0.25 1.875 0.25
v 0.25 1.875 0.25
v -0.25 1.875 -0.25
v 0.25 1.875 -0.25
v -0.25 1.9375 0.25
v 0.25 1.9375 0.25
v -0.25 1.9375 -0.25
v 0.25 1.9375 -0.25
v -0.1875 2 -0.1875
v -0.1875 2 0.1875
v 0.1875 2 0.1875
v 0.1875 2 -0.1875
v -0.09375 1 0.09375
v -0.09375 1 -0.09375
v 0.09375 1 -0.09375
v 0.09375 1 0.09375
vn -0.0000 -0.0000 1.0000
vn -0.0000 -0.0000 -1.0000
vn -0.0000 -1.0000 -0.0000
vn -1.0000 -0.0000 -0.0000
vn -0.0000 1.0000 -0.0000
vn -0.7071 0.7071 -0.0000
vn 1.0000 -0.0000 -0.0000
vn -0.0000 0.7071 -0.7071
vn 0.7071 0.7071 -0.0000
vn -0.0000 0.7071 0.7071
vt -0 0.51515
vt -0 -0
vt -0 0.48485
vt -0 0.48485
vt 0.45714 0.48485
vt -0 0.51515
vt 0.45714 -0
vt 0.45714 0.51515
vt 0.45714 0.51515
vt 0.45714 0.48485
vt -0 0.48485
vt -0 1
vt -0 0.51515
vt -0 0.51515
vt 0.45714 0.51515
vt 0.45714 0.48485
vt -0 0.48485
vt 0.45714 1
vt 0.45714 0.48485
vt 0.45714 0.51515
vt 0.77143 0.51515
vt 0.77143 0.48485
vt 1 0.48485
vt 0.77143 0.48485
vt 0.77143 0.51515
vt 1 0.51515
vt 1 0.48485
vt 1 0.51515
vt 0.77143 0.75758
vt 0.77143 0.48485
vt 0.77143 0.51515
vt 0.77143 0.51515
vt 1 0.51515
vt 1 0.75758
vt 1 0.48485
vt 0.77143 0.48485
vt 1 0.51515
vt 1 0.48485
vt 0.45714 -0
vt 0.54286 -0
vt 0.54286 -0
vt 0.45714 -0
vt 0.45714 -0
vt 0.54286 -0
vt 0.45714 -0
vt 0.54286 -0
vt 0.54286 0.84849
vt 0.45714 0.84849
vt 0.54286 0.84849
vt 0.45714 0.84849
vt 0.54286 0.84849
vt 0.45714 0.84849
vt 0.54286 0.84849
vt 0.45714 0.84849
vt 1 0.24242
vt 0.77143 0.24242
vt 0.77143 0
vt 1 0.24242
vt 0.77143 0.24242
vt 1 -0
vt 1 0.24242
vt 0.77143 0.24242
vt 0.77143 0.24242
vt 1 0.24242
vt 1 0.27273
vt 0.77143 0.27273
vt 1 0.27273
vt 0.77143 0.27273
vt 1 0.27273
vt 0.77143 0.27273
vt 0.77143 0.27273
vt 1 0.27273
vt 0.97143 0.30303
vt 0.8 0.30303
vt 0.97143 0.48485
vt 0.97143 0.30303
vt 0.8 0.48485
vt 0.8 0.30303
vt 0.8 0.30303
vt 0.97143 0.30303
vt 0.8 0.30303
vt 0.97143 0.30303
vt 0.45714 0.42424
vt 0.54286 0.42424
vt 0.45714 0.42424
vt 0.54286 0.42424
vt 0.54286 0.42424
vt 0.45714 0.42424
vt 0.54286 0.42424
vt 0.45714 0.42424
s 0
f 78/139/17 73/128/17 74/130/17
f 55/89/18 52/81/18 51/78/18
f 76/136/19 73/129/19 75/132/19
f 86/157/20 65/112/20 85/156/20
f 62/105/17 57/94/17 58/95/17
f 56/92/21 53/84/21 54/86/21
f 63/108/18 60/100/18 59/97/18
f 52/82/19 49/74/19 51/79/19
f 64/109/21 61/101/21 62/104/21
f 82/148/22 79/142/22 77/137/22
f 84/154/21 82/149/21 83/151/21
f 87/160/18 67/116/18 86/158/18
f 61/102/20 59/98/20 57/93/20
f 56/92/23 50/76/23 52/82/23
f 88/162/23 68/118/23 87/159/23
f 77/137/20 75/134/20 73/127/20
f 81/145/24 80/143/24 79/141/24
f 85/155/17 66/113/17 88/161/17
f 80/144/23 74/131/23 76/136/23
f 53/83/20 51/80/20 49/73/20
f 79/141/18 76/135/18 75/133/18
f 64/109/23 58/96/23 60/99/23
f 84/154/25 78/140/25 80/144/25
f 69/120/17 88/161/17 70/121/17
f 83/152/26 77/138/26 78/139/26
f 77/137/20 79/142/20 75/134/20
f 79/141/18 80/143/18 76/135/18
f 64/109/21 63/106/21 61/101/21
f 61/102/20 63/107/20 59/98/20
f 53/83/20 55/88/20 51/80/20
f 64/109/23 62/104/23 58/96/23
f 85/155/17 65/111/17 66/113/17
f 81/145/24 84/153/24 80/143/24
f 80/144/23 78/140/23 74/131/23
f 55/89/18 56/91/18 52/81/18
f 86/157/20 67/115/20 65/112/20
f 87/160/18 68/117/18 67/116/18
f 62/105/17 61/103/17 57/94/17
f 82/148/22 81/146/22 79/142/22
f 84/154/21 81/147/21 82/149/21
f 52/82/19 50/76/19 49/74/19
f 78/139/17 77/138/17 73/128/17
f 56/92/21 55/90/21 53/84/21
f 88/162/23 66/114/23 68/118/23
f 56/92/23 54/86/23 50/76/23
f 63/108/18 64/110/18 60/100/18
f 76/136/19 74/131/19 73/129/19
f 71/124/20 85/156/20 69/119/20
f 70/122/23 87/159/23 72/125/23
f 72/126/18 86/158/18 71/123/18
f 54/87/17 49/75/17 50/77/17
f 84/154/25 83/151/25 78/140/25
f 69/120/17 85/155/17 88/161/17
f 83/152/26 82/150/26 77/138/26
f 71/124/20 86/157/20 85/156/20
f 70/122/23 88/162/23 87/159/23
f 72/126/18 87/160/18 86/158/18
f 54/87/17 53/85/17 49/75/17
