# Blender 3.4.1
# www.blender.org
o Obamna
v -0.5 -0 0.5
v 0.5 -0 0.5
v -0.5 0 -0.5
v 0.5 0 -0.5
v -0.5 2 0.5
v 0.5 2 0.5
v -0.5 2 -0.5
v 0.5 2 -0.5
v 0.5 0.5 0.3125
v 0.5 0.25 0.3125
v 0.5 0.5 -0.1875
v 0.5 0.25 -0.1875
v 0.375 0.5 -0.1875
v 0.375 0.5 0.3125
v 0.375 0.25 0.3125
v 0.375 0.25 -0.1875
v 0.5 1.75 0.375
v 0.5 0.625 0.375
v 0.5 1.75 -0.25
v 0.5 0.625 -0.25
v 0.25 1.75 -0.25
v 0.25 1.75 0.375
v 0.25 0.625 0.375
v 0.25 0.625 -0.25
v 0.5 1.75 -0.25
v 0.5 1.75 0.375
v 0.5 0.625 0.375
v 0.5 0.625 -0.25
v -0.5 1 0.5
v 0.5 1 0.5
v -0.5 1 -0.5
v 0.5 1 -0.5
vn -0.0000 -1.0000 -0.0000
vn -0.0000 -0.0000 -1.0000
vn -0.0000 -0.0000 1.0000
vn 1.0000 -0.0000 -0.0000
vn -0.0000 1.0000 -0.0000
vn -1.0000 -0.0000 -0.0000
vt 0.625 0.21622
vt 0.75 -0
vt 0.75 0.21622
vt 0.875 -0
vt 1 0.21622
vt 0.5 0.21622
vt 0.875 0.21622
vt 0.75 0.86486
vt 0.625 0.64865
vt 0.75 0.64865
vt 0.875 0.86486
vt 0.5 0.64865
vt 1 0.64865
vt 0.875 0.64865
vt 0.67188 0.10811
vt 0.65625 0.08108
vt 0.77344 0.32432
vt 0.65625 0.02703
vt 0.67188 0
vt 0.77344 0.27027
vt 0.75 0.08108
vt 0.83594 0.32432
vt 0.73438 0.10811
vt 0.73438 0
vt 0.75 0.02703
vt 0.83594 0.27027
vt 0.73438 0.08108
vt 0.67188 0.08108
vt 0.67188 0.02703
vt 0.73438 0.02703
vt 0.64062 1
vt 0.60938 0.94595
vt 0.76562 0.59459
vt 0.60938 0.7027
vt 0.64062 0.64865
vt 0.76562 0.35135
vt 0.75 0.94595
vt 0.71875 1
vt 0.84375 0.59459
vt 0.71875 0.64865
vt 0.75 0.7027
vt 0.84375 0.35135
vt 0.71875 0.94595
vt 0.64062 0.94595
vt 0.64062 0.7027
vt 0.71875 0.7027
vt 0.84375 0.59459
vt 0.76562 0.59459
vt 0.76562 0.35135
vt 0.84375 0.35135
vt 0.625 0.43243
vt 0.75 0.43243
vt 1 0.43243
vt 0.5 0.43243
vt 0.875 0.43243
s 0
f 22/44/1 19/38/1 17/31/1
f 7/13/2 32/55/2 31/53/2
f 21/43/3 20/41/3 19/37/3
f 28/50/4 26/48/4 27/49/4
f 14/28/1 11/23/1 9/15/1
f 8/14/5 5/8/5 6/10/5
f 18/36/4 11/22/4 20/42/4
f 23/45/2 17/32/2 18/34/2
f 4/7/1 1/2/1 3/4/1
f 16/30/5 10/19/5 12/24/5
f 16/30/4 14/28/4 15/29/4
f 13/27/3 12/25/3 11/21/3
f 5/9/6 31/54/6 29/51/6
f 15/29/2 9/16/2 10/18/2
f 30/52/3 1/1/3 2/3/3
f 24/46/5 18/35/5 20/40/5
f 12/26/4 2/3/4 4/7/4
f 10/20/4 9/17/4 18/36/4
f 11/22/4 12/26/4 4/7/4
f 6/10/4 19/39/4 8/14/4
f 24/46/4 22/44/4 23/45/4
f 16/30/5 15/29/5 10/19/5
f 15/29/2 14/28/2 9/16/2
f 23/45/2 22/44/2 17/32/2
f 8/14/5 7/11/5 5/8/5
f 5/9/6 7/12/6 31/54/6
f 30/52/3 29/51/3 1/1/3
f 31/53/2 4/7/2 3/5/2
f 22/44/1 21/43/1 19/38/1
f 16/30/4 13/27/4 14/28/4
f 21/43/3 24/46/3 20/41/3
f 7/13/2 8/14/2 32/55/2
f 13/27/3 16/30/3 12/25/3
f 18/36/4 9/17/4 11/22/4
f 28/50/4 25/47/4 26/48/4
f 29/51/6 3/6/6 1/1/6
f 4/7/1 2/3/1 1/2/1
f 12/26/4 10/20/4 2/3/4
f 17/33/4 6/10/4 18/36/4
f 30/52/4 18/36/4 6/10/4
f 2/3/4 10/20/4 18/36/4
f 32/55/4 20/42/4 4/7/4
f 8/14/4 19/39/4 20/42/4
f 20/42/4 11/22/4 4/7/4
f 6/10/4 17/33/4 19/39/4
f 14/28/1 13/27/1 11/23/1
f 6/10/3 29/51/3 30/52/3
f 24/46/5 23/45/5 18/35/5
f 24/46/4 21/43/4 22/44/4
f 31/53/2 32/55/2 4/7/2
f 29/51/6 31/54/6 3/6/6
f 30/52/4 2/3/4 18/36/4
f 32/55/4 8/14/4 20/42/4
f 6/10/3 5/9/3 29/51/3
o Soda
v -0.5 -0 0.5
v 0.5 -0 0.5
v -0.5 0 -0.5
v 0.5 0 -0.5
v -0.5 2 0.5
v 0.5 2 0.5
v -0.5 2 -0.5
v 0.5 2 -0.5
v 0.5 0.5 0.25
v 0.5 0.25 0.25
v 0.5 0.5 -0.25
v 0.5 0.25 -0.25
v 0.375 0.5 -0.25
v 0.375 0.5 0.25
v 0.375 0.25 0.25
v 0.375 0.25 -0.25
v 0.5 1 -0.5
v -0.5 1 0.5
v 0.5 1 0.5
v -0.5 1 -0.5
vn -0.0000 1.0000 -0.0000
vn -0.0000 -1.0000 -0.0000
vn 1.0000 -0.0000 -0.0000
vn -0.0000 -0.0000 -1.0000
vn -1.0000 -0.0000 -0.0000
vn -0.0000 -0.0000 1.0000
vt 0.25 0
vt 0.125 0.21622
vt 0.25 0.21622
vt 0.375 0
vt 0.5 0.21622
vt 0 0.21622
vt 0.375 0.21622
vt 0.25 0.86486
vt 0.125 0.64865
vt 0.25 0.64865
vt 0.375 0.86486
vt 0.5 0.64865
vt 0 0.64865
vt 0.375 0.64865
vt 0.17188 0.10811
vt 0.15625 0.08108
vt 0.28125 0.32432
vt 0.15625 0.02703
vt 0.17188 0
vt 0.28125 0.27027
vt 0.25 0.08108
vt 0.34375 0.32432
vt 0.23438 0.10811
vt 0.23438 0
vt 0.34375 0.27027
vt 0.25 0.02703
vt 0.23438 0.08108
vt 0.17188 0.08108
vt 0.17188 0.02703
vt 0.23438 0.02703
vt 0.375 0.43243
vt 0.125 0.43243
vt 0.25 0.43243
vt 0.5 0.43243
vt 0 0.43243
s 0
f 48/85/7 42/74/7 44/79/7
f 46/83/8 43/78/8 41/70/8
f 43/77/9 49/86/9 40/69/9
f 48/85/9 46/83/9 47/84/9
f 47/84/10 41/71/10 42/73/10
f 40/69/7 37/63/7 38/65/7
f 44/80/9 34/58/9 36/62/9
f 39/67/10 49/86/10 52/89/10
f 36/62/8 33/56/8 35/59/8
f 43/77/9 38/65/9 41/72/9
f 37/64/11 52/90/11 50/87/11
f 45/82/12 44/81/12 43/76/12
f 51/88/12 33/57/12 34/58/12
f 41/72/9 51/88/9 34/58/9
f 47/84/10 46/83/10 41/71/10
f 36/62/8 34/58/8 33/56/8
f 43/77/9 44/80/9 36/62/9
f 43/77/9 36/62/9 49/86/9
f 48/85/7 47/84/7 42/74/7
f 43/77/9 40/69/9 38/65/9
f 44/80/9 42/75/9 34/58/9
f 46/83/8 45/82/8 43/78/8
f 40/69/7 39/66/7 37/63/7
f 52/89/10 36/62/10 35/60/10
f 48/85/9 45/82/9 46/83/9
f 39/67/10 40/69/10 49/86/10
f 50/87/11 35/61/11 33/57/11
f 34/58/9 42/75/9 41/72/9
f 38/65/12 50/87/12 51/88/12
f 37/64/11 39/68/11 52/90/11
f 45/82/12 48/85/12 44/81/12
f 51/88/12 50/87/12 33/57/12
f 41/72/9 38/65/9 51/88/9
f 52/89/10 49/86/10 36/62/10
f 50/87/11 52/90/11 35/61/11
f 38/65/12 37/64/12 50/87/12
