# Blender 3.4.1
# www.blender.org
o Plane
v -1.5 1 1.5
v 1.5 1 1.5
v -1.5 1 -1.5
v 1.5 1 -1.5
v -0.5 1 0.5
v 0.5 1 0.5
v -0.5 1 -0.5
v 0.5 1 -0.5
v 0.5 0 -0.5
v 1.5 0 -0.5
v 0.5 0 -1.5
v 1.5 0 -1.5
v 0.5 -0 1.5
v 1.5 -0 1.5
v 0.5 -0 0.5
v 1.5 -0 0.5
v -1.5 0 -0.5
v -0.5 0 -0.5
v -1.5 0 -1.5
v -0.5 0 -1.5
v -1.5 -0 1.5
v -0.5 -0 1.5
v -1.5 -0 0.5
v -0.5 -0 0.5
v 0.5 0.5 -1.5
v 0.5 0.5 -0.5
v 1.5 0.5 -0.5
v 0.5 0.5 0.5
v 0.5 0.5 1.5
v 1.5 0.5 0.5
v -1.5 0.5 -0.5
v -0.5 0.5 -0.5
v -0.5 0.5 -1.5
v -0.5 0.5 1.5
v -0.5 0.5 0.5
v -1.5 0.5 0.5
v -0.5 1 0.5
v 0.5 1 0.5
v -0.5 1 -0.5
v 0.5 1 -0.5
v -0.5 1 0.5
v 0.5 1 0.5
v -0.5 1 -0.5
v 0.5 1 -0.5
v 0 1 1.5
v -1.5 1 0
v 0 1 -1.5
v -0.5 1 1
v -1 1 -0.5
v -1.5 0.75 -0.5
v 1.5 1 0
v 0.5 1 -1
v 0.5 0.75 1.5
v 1 1 0.5
v 1.5 0.75 -0.5
v 0.5 0.75 -1.5
vn -0.0000 1.0000 -0.0000
vn -0.0000 -0.0000 1.0000
vn -0.0000 -0.0000 -1.0000
vn -1.0000 -0.0000 -0.0000
vn -0.0000 -1.0000 -0.0000
vn 1.0000 -0.0000 -0.0000
vt 0.75 0.25
vt 0 0.25
vt -0 1
vt -0 0.25
vt 0.75 0.25
vt 0 0.25
vt 0.75 0.25
vt 0.75 1
vt 0 0.25
vt 0.75 0.25
vt 0.5 0.25
vt 0.25 0.25
vt 0.25 0.75
vt 0.25 0.25
vt 0.5 0.25
vt 0.25 0.5
vt 0.25 0.25
vt 0.5 0.25
vt 0.5 0.75
vt 0.25 0.25
vt 0.5 0.25
vt 0.5 0.5
vt 0.75 -0
vt 0.75 0.5
vt 1 0.5
vt 0.75 0.25
vt 1 0.5
vt 0.5 -0
vt 1 -0
vt 0.25 0
vt 0.75 0.5
vt 1 0.25
vt 0 0
vt 0.75 -0
vt 0.5 0
vt 1 0.5
vt 0.75 -0
vt 0.75 0.25
vt -0 -0
vt 0.75 0
vt 1 -0
vt 0.75 0.5
vt 1 0.5
vt 1 0.25
vt 0.25 -0
vt 0.75 0.5
vt 0.25 0
vt 0.75 -0
vt 0.75 0.5
vt 0.75 0.25
vt 1 0.5
vt 0.75 0.5
vt 1 -0
vt 0.75 0
vt 0 0
vt 0.5 0
vt 1 0.25
vt 1 0.5
vt 0.75 -0
vt 0 0
vt 0.25 0
vt 0.75 0.5
vt 0.75 0.25
vt 1 -0
vt 0.5 0
vt 1 0.5
vt 1 0.5
vt 1 0.25
vt 0.75 0.5
vt 1 0.25
vt 0.75 0.625
vt 0.25 0.125
vt 1 0.5
vt 1 0.625
vt 0.5 0.125
vt 0.75 0.625
vt 0.25 0.125
vt 0.75 0.5
vt 1 0.625
vt 0.75 0.25
vt 0.5 0.125
vt 0.75 0.625
vt 0.75 0.5
vt 0.25 0.125
vt 0.5 0.125
vt 1 0.5
vt 1 0.625
vt 1 0.625
vt 0.75 0.25
vt 0.5 0.125
vt 1 0.25
vt 0.25 0.125
vt 0.75 0.625
vt 1 0.25
vt 0.75 0.625
vt 0.25 0.125
vt 1 0.625
vt 1 0.5
vt 0.25 0.125
vt 0.75 0.5
vt 0.5 0.125
vt 0.75 0.625
vt 1 0.625
vt 0.75 0.25
vt 0.5 0.125
vt 0.75 0.625
vt 1 0.25
vt 0.25 0.125
vt 1 0.625
vt 0.25 0.125
vt 0.75 0.5
vt 1 0.5
vt 0.5 0.125
vt 0.75 0.625
vt 1 0.625
vt 0.75 0.25
vt 0.5 0.125
vt 0.25 0.75
vt 0.25 0.5
vt 0.5 0.75
vt 0.5 0.5
vt 0.25 0.75
vt 0.25 0.5
vt 0.5 0.75
vt 0.5 0.5
vt 0.375 0.25
vt 0 0.625
vt 0.375 0.25
vt 0.375 1
vt 0.375 0.25
vt 0.75 0.625
vt 0.125 0.75
vt 0.5 0.875
vt 0.25 0.1875
vt 0.375 0.25
vt 0.625 0.5
vt 0.5 0.1875
vt 0.25 0.375
vt 0.5 0.1875
vt 0.25 0.1875
s 0
f 49/133/1 3/8/1 46/129/1
f 48/132/1 1/3/1 45/127/1
f 52/136/1 4/10/1 47/131/1
f 54/138/1 2/4/1 51/135/1
f 31/95/2 18/51/2 32/97/2
f 28/84/3 5/11/3 6/14/3
f 28/82/4 13/36/4 29/88/4
f 35/111/5 31/94/5 32/98/5
f 16/44/5 13/37/5 15/41/5
f 20/57/5 17/48/5 19/53/5
f 24/68/5 21/59/5 23/64/5
f 34/107/5 28/83/5 29/89/5
f 12/32/5 9/23/5 11/29/5
f 34/106/6 24/67/6 35/109/6
f 38/119/1 39/120/1 37/118/1
f 42/123/5 43/124/5 44/125/5
f 19/54/3 33/105/3 20/56/3
f 26/77/4 6/15/4 8/20/4
f 35/114/3 23/66/3 36/115/3
f 26/76/2 10/27/2 27/79/2
f 32/101/6 5/12/6 35/110/6
f 32/100/5 25/70/5 26/73/5
f 25/72/3 12/33/3 11/30/3
f 30/91/5 26/78/5 27/80/5
f 55/139/6 4/10/6 51/135/6
f 26/75/2 7/17/2 32/99/2
f 31/96/4 19/55/4 17/47/4
f 53/137/2 2/5/2 45/126/2
f 21/59/4 36/117/4 23/65/4
f 14/39/6 30/92/6 2/4/6
f 36/117/4 46/128/4 50/134/4
f 4/9/3 56/140/3 47/130/3
f 34/108/2 21/60/2 22/61/2
f 33/105/3 47/130/3 56/140/3
f 27/81/6 12/34/6 4/10/6
f 14/40/2 29/90/2 13/35/2
f 32/102/6 20/58/6 33/103/6
f 25/71/4 9/25/4 26/74/4
f 7/19/1 49/133/1 5/13/1
f 5/13/1 48/132/1 6/16/1
f 8/22/1 52/136/1 7/19/1
f 6/16/1 54/138/1 8/22/1
f 20/57/5 18/50/5 17/48/5
f 35/111/5 36/116/5 31/94/5
f 19/54/3 3/7/3 33/105/3
f 28/82/4 15/42/4 13/36/4
f 38/119/1 40/121/1 39/120/1
f 34/106/6 22/62/6 24/67/6
f 12/32/5 10/26/5 9/23/5
f 34/107/5 35/112/5 28/83/5
f 42/123/5 41/122/5 43/124/5
f 25/72/3 4/9/3 12/33/3
f 26/75/2 8/21/2 7/17/2
f 26/76/2 9/24/2 10/27/2
f 28/84/3 35/113/3 5/11/3
f 24/68/5 22/63/5 21/59/5
f 32/100/5 33/104/5 25/70/5
f 21/59/4 1/1/4 36/117/4
f 26/77/4 28/85/4 6/15/4
f 32/101/6 7/18/6 5/12/6
f 7/19/1 47/131/1 3/8/1
f 31/96/4 3/6/4 19/55/4
f 27/81/6 55/139/6 30/92/6
f 16/44/5 14/38/5 13/37/5
f 34/108/2 45/126/2 1/2/2
f 29/90/2 53/137/2 34/108/2
f 5/13/1 46/129/1 1/3/1
f 6/16/1 45/127/1 2/4/1
f 31/96/4 50/134/4 3/6/4
f 3/6/4 50/134/4 46/128/4
f 31/95/2 17/49/2 18/51/2
f 25/72/3 56/140/3 4/9/3
f 8/22/1 51/135/1 4/10/1
f 30/92/6 51/135/6 2/4/6
f 30/91/5 28/86/5 26/78/5
f 35/114/3 24/69/3 23/66/3
f 30/93/3 15/43/3 28/87/3
f 14/39/6 16/45/6 30/92/6
f 36/117/4 1/1/4 46/128/4
f 34/108/2 1/2/2 21/60/2
f 33/105/3 3/7/3 47/130/3
f 27/81/6 10/28/6 12/34/6
f 14/40/2 2/5/2 29/90/2
f 32/102/6 18/52/6 20/58/6
f 25/71/4 11/31/4 9/25/4
f 7/19/1 3/8/1 49/133/1
f 5/13/1 1/3/1 48/132/1
f 8/22/1 4/10/1 52/136/1
f 6/16/1 2/4/1 54/138/1
f 7/19/1 52/136/1 47/131/1
f 27/81/6 4/10/6 55/139/6
f 34/108/2 53/137/2 45/126/2
f 29/90/2 2/5/2 53/137/2
f 5/13/1 49/133/1 46/129/1
f 6/16/1 48/132/1 45/127/1
f 31/96/4 36/117/4 50/134/4
f 25/72/3 33/105/3 56/140/3
f 8/22/1 54/138/1 51/135/1
f 30/92/6 55/139/6 51/135/6
f 30/93/3 16/46/3 15/43/3
