# Blender 3.4.1
# www.blender.org
o Cylinder
v 0 0 -1
v 0 10 -1
v 0.5 0 -0.86603
v 0.5 10 -0.86602
v 0.86603 0 -0.5
v 0.86603 10 -0.5
v 1 0 0
v 1 10 0
v 0.86603 -0 0.5
v 0.86603 10 0.5
v 0.5 -0 0.86603
v 0.5 10 0.86603
v 0 -0 1
v 0 10 1
v -0.5 -0 0.86603
v -0.5 10 0.86603
v -0.86603 -0 0.5
v -0.86603 10 0.5
v -1 0 0
v -1 10 0
v -0.86603 0 -0.5
v -0.86603 10 -0.5
v -0.5 0 -0.86603
v -0.5 10 -0.86602
v 0 5 -1
v 0.5 5 -0.86602
v 0.86603 5 -0.5
v 1 5 0
v 0.86603 5 0.5
v 0.5 5 0.86603
v 0 5 1
v -0.5 5 0.86603
v -0.86603 5 0.5
v -1 5 0
v -0.5 5 -0.86602
v -0.86603 5 -0.5
v 0.25 -0 0.43301
v -0 10 -0.5
v 0.25 0 -0.43301
v -0.43301 10 0.25
v 0 7.5 -1
v -0.5 2.5 -0.86602
v 0.5 7.5 -0.86602
v 1 2.5 0
v 0.86603 7.5 -0.5
v 0.86603 2.5 0.5
v 1 7.5 0
v -0.5 2.5 0.86603
v 0.86603 7.5 0.5
v 0.86603 2.5 -0.5
v 0.5 7.5 0.86603
v 0 7.5 1
v -0.5 7.5 0.86603
v 0 2.5 1
v -0.86603 7.5 0.5
v -1 2.5 0
v -1 7.5 0
v 0.5 2.5 0.86603
v 0.5 2.5 -0.86602
v -0.5 7.5 -0.86602
v -0.86603 7.5 -0.5
v -0.86603 2.5 -0.5
v -0.86603 2.5 0.5
v 0 2.5 -1
v 0 8.75 -1
v -0.5 3.75 -0.86602
v 0.5 8.75 -0.86602
v 1 3.75 0
v 0.86603 8.75 -0.5
v 0.86603 3.75 0.5
v 1 8.75 0
v -0.5 3.75 0.86603
v 0.86603 8.75 0.5
v 0.86603 3.75 -0.5
v 0.5 8.75 0.86603
v 0 8.75 1
v -0.5 8.75 0.86603
v 0 3.75 1
v -0.86603 8.75 0.5
v -1 3.75 0
v -1 8.75 0
v 0.5 3.75 0.86603
v 0.5 3.75 -0.86602
v -0.5 8.75 -0.86602
v -0.86603 8.75 -0.5
v -0.86603 3.75 -0.5
v -0.86603 3.75 0.5
v 0 3.75 -1
v 0 6.25 -1
v -0.5 1.25 -0.86603
v 0.5 6.25 -0.86602
v 1 1.25 0
v 0.86603 6.25 -0.5
v 0.86603 1.25 0.5
v 1 6.25 0
v -0.5 1.25 0.86603
v 0.86603 6.25 0.5
v 0.86603 1.25 -0.5
v 0.5 6.25 0.86603
v 0 6.25 1
v -0.5 6.25 0.86603
v 0 1.25 1
v -0.86603 6.25 0.5
v -1 1.25 0
v -1 6.25 0
v 0.5 1.25 0.86603
v 0.5 1.25 -0.86603
v -0.5 6.25 -0.86602
v -0.86603 6.25 -0.5
v -0.86603 1.25 -0.5
v -0.86603 1.25 0.5
v 0 1.25 -1
vn 0.7071 -0.0000 0.7071
vn 0.7071 -0.0000 -0.7071
vn -0.7071 -0.0000 0.7071
vn -0.0000 1.0000 -0.0000
vn -0.2588 -0.0000 0.9659
vn -0.2588 -0.0000 -0.9659
vn -0.9659 -0.0000 -0.2588
vn -0.7071 -0.0000 -0.7071
vn 0.9659 -0.0000 -0.2588
vn 0.2588 -0.0000 -0.9659
vn 0.2588 -0.0000 0.9659
vn -0.0000 -1.0000 -0.0000
vn -0.9659 -0.0000 0.2588
vn 0.9659 -0.0000 0.2588
vt 0.3 -0.00313
vt 0.54718 0.22321
vt 0.48128 0.02813
vt 0.3 1
vt 0.5829 0.24993
vt 0.2625 -0.00313
vt 0.46342 0.08157
vt 0.2625 1
vt 0.60076 0.30336
vt 0.225 -0.00313
vt 0.46342 0.13501
vt 0.225 1
vt 0.1875 -0.00313
vt 0.60076 0.3568
vt 0.48128 0.17954
vt 0.1875 1
vt 0.5829 0.40134
vt 0.15 -0.00313
vt 0.51105 0.20626
vt 0.15 1
vt 0.54718 0.42806
vt 0.1125 -0.00313
vt 0.54677 0.20626
vt 0.1125 1
vt 0.51145 0.42806
vt 0.075 -0.00313
vt 0.5825 0.17954
vt 0.075 1
vt 0.0375 -0.00313
vt 0.48169 0.40134
vt 0.60036 0.13501
vt 0.0375 1
vt 0.46382 0.3568
vt 0 -0.00313
vt 0.45 -0.00313
vt 0.45 1
vt 0.60036 0.08157
vt 0 1
vt 0.4125 -0.00313
vt 0.46382 0.30336
vt 0.5825 0.02813
vt 0.4125 1
vt 0.48169 0.24993
vt 0.375 -0.00313
vt 0.54677 0.00141
vt 0.375 1
vt 0.3375 -0.00313
vt 0.51145 0.22321
vt 0.51105 0.00141
vt 0.3375 1
vt 0.3 0.49844
vt 0.2625 0.49844
vt 0.225 0.49844
vt 0.1875 0.49844
vt 0.15 0.49844
vt 0.1125 0.49844
vt 0.075 0.49844
vt 0.0375 0.49844
vt 0 0.49844
vt 0.45 0.49844
vt 0.4125 0.49844
vt 0.3375 0.49844
vt 0.375 0.49844
vt 0.54122 0.37907
vt 0.5051 0.06821
vt 0.55611 0.29001
vt 0.56464 0.09048
vt 0.3 0.74922
vt 0.3375 0.24766
vt 0.2625 0.74922
vt 0.1875 0.24766
vt 0.225 0.74922
vt 0.15 0.24766
vt 0.1875 0.74922
vt 0.0375 0.24766
vt 0.15 0.74922
vt 0.225 0.24766
vt 0.1125 0.74922
vt 0.075 0.74922
vt 0.0375 0.74922
vt 0.075 0.24766
vt 0.45 0.74922
vt 0 0.74922
vt 0.4125 0.24766
vt 0.4125 0.74922
vt 0.1125 0.24766
vt 0.2625 0.24766
vt 0.3375 0.74922
vt 0.375 0.74922
vt 0.375 0.24766
vt 0.45 0.24766
vt 0 0.24766
vt 0.3 0.24766
vt 0.3 0.87461
vt 0.3375 0.37305
vt 0.2625 0.87461
vt 0.1875 0.37305
vt 0.225 0.87461
vt 0.15 0.37305
vt 0.1875 0.87461
vt 0.0375 0.37305
vt 0.15 0.87461
vt 0.225 0.37305
vt 0.1125 0.87461
vt 0.075 0.87461
vt 0.0375 0.87461
vt 0.075 0.37305
vt 0.45 0.87461
vt 0 0.87461
vt 0.4125 0.37305
vt 0.4125 0.87461
vt 0.1125 0.37305
vt 0.2625 0.37305
vt 0.3375 0.87461
vt 0.375 0.87461
vt 0.375 0.37305
vt 0.45 0.37305
vt 0 0.37305
vt 0.3 0.37305
vt 0.3 0.62383
vt 0.3375 0.12227
vt 0.2625 0.62383
vt 0.1875 0.12227
vt 0.225 0.62383
vt 0.15 0.12227
vt 0.1875 0.62383
vt 0.0375 0.12227
vt 0.15 0.62383
vt 0.225 0.12227
vt 0.1125 0.62383
vt 0.075 0.62383
vt 0.0375 0.62383
vt 0.075 0.12227
vt 0 0.62383
vt 0.45 0.62383
vt 0.4125 0.12227
vt 0.4125 0.62383
vt 0.1125 0.12227
vt 0.2625 0.12227
vt 0.3375 0.62383
vt 0.375 0.62383
vt 0.375 0.12227
vt 0.45 0.12227
vt 0 0.12227
vt 0.3 0.12227
s 0
f 106/138/1 9/18/1 94/125/1
f 98/129/2 3/6/2 107/139/2
f 111/144/3 15/29/3 96/127/3
f 40/67/4 38/65/4 22/45/4
f 102/133/5 15/29/5 13/26/5
f 90/121/6 1/1/6 23/47/6
f 110/142/7 19/39/7 104/136/7
f 90/121/8 21/44/8 110/142/8
f 98/129/9 7/13/9 5/10/9
f 107/139/10 1/1/10 112/145/10
f 99/130/11 31/57/11 30/56/11
f 37/64/12 39/66/12 7/14/12
f 104/136/13 17/35/13 111/143/13
f 4/7/4 38/65/4 6/11/4
f 2/3/4 24/49/4 22/45/4
f 22/45/4 20/41/4 18/37/4
f 18/37/4 16/31/4 14/27/4
f 14/27/4 12/23/4 10/19/4
f 10/19/4 8/15/4 6/11/4
f 4/7/4 2/3/4 22/45/4
f 18/37/4 40/67/4 22/45/4
f 1/2/12 39/66/12 23/48/12
f 3/5/12 5/9/12 7/14/12
f 7/14/12 9/17/12 11/21/12
f 11/21/12 13/25/12 7/14/12
f 15/30/12 17/33/12 19/40/12
f 19/40/12 21/43/12 23/48/12
f 1/2/12 3/5/12 7/14/12
f 13/25/12 37/64/12 7/14/12
f 92/123/14 9/18/14 7/13/14
f 91/122/10 25/51/10 89/120/10
f 95/126/9 27/53/9 93/124/9
f 108/140/6 25/51/6 35/62/6
f 19/40/12 39/66/12 37/64/12
f 82/112/11 54/81/11 58/86/11
f 97/128/1 30/56/1 29/55/1
f 109/141/7 34/61/7 105/137/7
f 40/67/4 10/19/4 38/65/4
f 108/140/8 36/63/8 109/141/8
f 91/122/2 27/53/2 26/52/2
f 97/128/14 28/54/14 95/126/14
f 103/135/13 34/61/13 33/60/13
f 103/134/3 32/58/3 101/132/3
f 100/131/5 32/58/5 31/57/5
f 102/133/11 11/22/11 106/138/11
f 77/106/5 52/79/5 76/105/5
f 79/109/3 53/80/3 77/106/3
f 81/111/13 55/82/13 79/108/13
f 73/102/14 47/74/14 71/100/14
f 67/96/2 45/72/2 43/70/2
f 84/114/8 61/89/8 85/115/8
f 85/115/7 57/85/7 81/111/7
f 73/102/1 51/78/1 49/76/1
f 65/94/6 60/88/6 84/114/6
f 69/98/9 47/74/9 45/72/9
f 65/94/10 43/70/10 41/68/10
f 68/97/14 46/73/14 44/71/14
f 80/110/13 63/91/13 87/117/13
f 75/104/11 52/79/11 51/78/11
f 88/119/10 59/87/10 64/93/10
f 68/97/9 50/77/9 74/103/9
f 66/95/8 62/90/8 86/116/8
f 86/116/7 56/84/7 80/110/7
f 88/119/6 42/69/6 66/95/6
f 72/101/5 54/81/5 78/107/5
f 72/101/3 63/92/3 48/75/3
f 74/103/2 59/87/2 83/113/2
f 82/112/1 46/73/1 70/99/1
f 29/55/1 82/112/1 70/99/1
f 27/53/2 83/113/2 26/52/2
f 33/59/3 72/101/3 32/58/3
f 32/58/5 78/107/5 31/57/5
f 35/62/6 88/119/6 66/95/6
f 36/63/7 80/110/7 34/61/7
f 35/62/8 86/116/8 36/63/8
f 27/53/9 68/97/9 74/103/9
f 26/52/10 88/119/10 25/51/10
f 12/24/11 76/105/11 75/104/11
f 33/60/13 80/110/13 87/117/13
f 28/54/14 70/99/14 68/97/14
f 2/4/10 67/96/10 65/94/10
f 6/12/9 71/100/9 69/98/9
f 2/4/6 84/114/6 24/50/6
f 10/20/1 75/104/1 73/102/1
f 22/46/7 81/111/7 20/42/7
f 24/50/8 85/115/8 22/46/8
f 4/8/2 69/98/2 67/96/2
f 10/20/14 71/100/14 8/16/14
f 20/42/13 79/108/13 18/36/13
f 18/38/3 77/106/3 16/32/3
f 16/32/5 76/105/5 14/28/5
f 58/86/11 102/133/11 106/138/11
f 53/80/5 100/131/5 52/79/5
f 55/83/3 101/132/3 53/80/3
f 57/85/13 103/135/13 55/82/13
f 49/76/14 95/126/14 47/74/14
f 43/70/2 93/124/2 91/122/2
f 60/88/8 109/141/8 61/89/8
f 61/89/7 105/137/7 57/85/7
f 49/76/1 99/130/1 97/128/1
f 31/57/11 82/112/11 30/56/11
f 60/88/6 89/120/6 108/140/6
f 47/74/9 93/124/9 45/72/9
f 43/70/10 89/120/10 41/68/10
f 46/73/14 92/123/14 44/71/14
f 56/84/13 111/143/13 63/91/13
f 52/79/11 99/130/11 51/78/11
f 59/87/10 112/145/10 64/93/10
f 44/71/9 98/129/9 50/77/9
f 42/69/8 110/142/8 62/90/8
f 62/90/7 104/136/7 56/84/7
f 42/69/6 112/145/6 90/121/6
f 48/75/5 102/133/5 54/81/5
f 63/92/3 96/127/3 48/75/3
f 50/77/2 107/139/2 59/87/2
f 58/86/1 94/125/1 46/73/1
f 106/138/1 11/22/1 9/18/1
f 98/129/2 5/10/2 3/6/2
f 111/144/3 17/34/3 15/29/3
f 102/133/5 96/127/5 15/29/5
f 90/121/6 112/145/6 1/1/6
f 110/142/7 21/44/7 19/39/7
f 90/121/8 23/47/8 21/44/8
f 98/129/9 92/123/9 7/13/9
f 107/139/10 3/6/10 1/1/10
f 99/130/11 100/131/11 31/57/11
f 104/136/13 19/39/13 17/35/13
f 4/7/4 22/45/4 38/65/4
f 18/37/4 14/27/4 40/67/4
f 1/2/12 7/14/12 39/66/12
f 13/25/12 15/30/12 37/64/12
f 92/123/14 94/125/14 9/18/14
f 91/122/10 26/52/10 25/51/10
f 95/126/9 28/54/9 27/53/9
f 108/140/6 89/120/6 25/51/6
f 37/64/12 15/30/12 19/40/12
f 19/40/12 23/48/12 39/66/12
f 82/112/11 78/107/11 54/81/11
f 97/128/1 99/130/1 30/56/1
f 109/141/7 36/63/7 34/61/7
f 14/27/4 10/19/4 40/67/4
f 10/19/4 6/11/4 38/65/4
f 108/140/8 35/62/8 36/63/8
f 91/122/2 93/124/2 27/53/2
f 97/128/14 29/55/14 28/54/14
f 103/135/13 105/137/13 34/61/13
f 103/134/3 33/59/3 32/58/3
f 100/131/5 101/132/5 32/58/5
f 102/133/11 13/26/11 11/22/11
f 77/106/5 53/80/5 52/79/5
f 79/109/3 55/83/3 53/80/3
f 81/111/13 57/85/13 55/82/13
f 73/102/14 49/76/14 47/74/14
f 67/96/2 69/98/2 45/72/2
f 84/114/8 60/88/8 61/89/8
f 85/115/7 61/89/7 57/85/7
f 73/102/1 75/104/1 51/78/1
f 65/94/6 41/68/6 60/88/6
f 69/98/9 71/100/9 47/74/9
f 65/94/10 67/96/10 43/70/10
f 68/97/14 70/99/14 46/73/14
f 80/110/13 56/84/13 63/91/13
f 75/104/11 76/105/11 52/79/11
f 88/119/10 83/113/10 59/87/10
f 68/97/9 44/71/9 50/77/9
f 66/95/8 42/69/8 62/90/8
f 86/116/7 62/90/7 56/84/7
f 88/119/6 64/93/6 42/69/6
f 72/101/5 48/75/5 54/81/5
f 72/101/3 87/118/3 63/92/3
f 74/103/2 50/77/2 59/87/2
f 82/112/1 58/86/1 46/73/1
f 29/55/1 30/56/1 82/112/1
f 27/53/2 74/103/2 83/113/2
f 33/59/3 87/118/3 72/101/3
f 32/58/5 72/101/5 78/107/5
f 35/62/6 25/51/6 88/119/6
f 36/63/7 86/116/7 80/110/7
f 35/62/8 66/95/8 86/116/8
f 27/53/9 28/54/9 68/97/9
f 26/52/10 83/113/10 88/119/10
f 12/24/11 14/28/11 76/105/11
f 33/60/13 34/61/13 80/110/13
f 28/54/14 29/55/14 70/99/14
f 2/4/10 4/8/10 67/96/10
f 6/12/9 8/16/9 71/100/9
f 2/4/6 65/94/6 84/114/6
f 10/20/1 12/24/1 75/104/1
f 22/46/7 85/115/7 81/111/7
f 24/50/8 84/114/8 85/115/8
f 4/8/2 6/12/2 69/98/2
f 10/20/14 73/102/14 71/100/14
f 20/42/13 81/111/13 79/108/13
f 18/38/3 79/109/3 77/106/3
f 16/32/5 77/106/5 76/105/5
f 58/86/11 54/81/11 102/133/11
f 53/80/5 101/132/5 100/131/5
f 55/83/3 103/134/3 101/132/3
f 57/85/13 105/137/13 103/135/13
f 49/76/14 97/128/14 95/126/14
f 43/70/2 45/72/2 93/124/2
f 60/88/8 108/140/8 109/141/8
f 61/89/7 109/141/7 105/137/7
f 49/76/1 51/78/1 99/130/1
f 31/57/11 78/107/11 82/112/11
f 60/88/6 41/68/6 89/120/6
f 47/74/9 95/126/9 93/124/9
f 43/70/10 91/122/10 89/120/10
f 46/73/14 94/125/14 92/123/14
f 56/84/13 104/136/13 111/143/13
f 52/79/11 100/131/11 99/130/11
f 59/87/10 107/139/10 112/145/10
f 44/71/9 92/123/9 98/129/9
f 42/69/8 90/121/8 110/142/8
f 62/90/7 110/142/7 104/136/7
f 42/69/6 64/93/6 112/145/6
f 48/75/5 96/127/5 102/133/5
f 63/92/3 111/144/3 96/127/3
f 50/77/2 98/129/2 107/139/2
f 58/86/1 106/138/1 94/125/1
