# Blender 3.4.1
# www.blender.org
o mp_f_20_3_usa
v 1 0 0
v -1 0 0
v -0.5 0 -0.86603
v 0 0 -1
v 0.5 0 -0.86603
v 0.86603 0 -0.5
v 0.86603 -0 0.5
v 0.5 -0 0.86603
v 0 -0 1
v -0.5 -0 0.86603
v -0.86603 -0 0.5
v -0.86603 0 -0.5
v 0.5 3 -0.86602
v 0.86603 3 -0.5
v 1 3 0
v 0.86603 3 0.5
v 0.5 3 0.86603
v 0 3 1
v -0.5 3 0.86603
v -0.86603 3 0.5
v -1 3 0
v -0.86603 3 -0.5
v 0 3 -1
v -0.5 3 -0.86602
v 0.25 0 -0.43301
v 0.5 1.5 -0.86603
v 0 1.5 1
v -0.5 1.5 0.86603
v -0.5 3 0
v 0.25 -0 0.43301
v 1 1.5 0
v 0.86603 1.5 -0.5
v -1 1.5 0
v 0.86603 1.5 0.5
v -0.5 1.5 -0.86603
v 0 1.5 -1
v 0.5 1.5 0.86603
v -0.86603 1.5 0.5
v -0.86603 1.5 -0.5
v 0.25 3 0.43301
vn -0.0000 -0.0000 -1.0000
vn 0.5000 -0.0000 -0.8660
vn -0.0000 -1.0000 -0.0000
vn 0.5000 -0.0000 0.8660
vn -0.0000 -0.0000 1.0000
vn -0.8660 -0.0000 0.5000
vn -0.5000 -0.0000 0.8660
vn 0.8660 -0.0000 -0.5000
vn 1.0000 -0.0000 -0.0000
vn 0.8660 -0.0000 0.5000
vn -0.5000 -0.0000 -0.8660
vn -1.0000 -0.0000 -0.0000
vn -0.8660 -0.0000 -0.5000
vn -0.0000 1.0000 -0.0000
vt 0.59861 0.10376
vt 0.33737 0.05565
vt 0.11247 0.05565
vt 0.46281 0.10376
vt 0.0375 0.05565
vt 0.49676 0.01583
vt 0.53071 0.00223
vt 0.44982 0.05565
vt 0.00002 0.05565
vt 0.41234 0.05565
vt 0.56466 0.01583
vt 0.58951 0.053
vt 0.37485 0.05565
vt 0.58951 0.15453
vt 0.29989 0.05565
vt 0.56466 0.19169
vt 0.2624 0.05565
vt 0.53071 0.2053
vt 0.22492 0.05565
vt 0.18743 0.05565
vt 0.49676 0.1917
vt 0.4719 0.15453
vt 0.14995 0.05565
vt 0.4719 0.053
vt 0.07498 0.05565
vt 0.56567 0.41399
vt 0.41234 0.36395
vt 0.59028 0.37719
vt 0.37485 0.36395
vt 0.33737 0.36395
vt 0.59929 0.32691
vt 0.59028 0.27663
vt 0.29989 0.36395
vt 0.2624 0.36395
vt 0.56567 0.23982
vt 0.53205 0.22635
vt 0.22492 0.36395
vt 0.18743 0.36395
vt 0.49842 0.23982
vt 0.47381 0.27663
vt 0.14995 0.36395
vt 0.11247 0.36395
vt 0.4648 0.32691
vt 0.47381 0.37719
vt 0.07498 0.36395
vt 0.53205 0.42746
vt 0.00002 0.36395
vt 0.44982 0.36395
vt 0.0375 0.36395
vt 0.49842 0.41399
vt 0.54768 0.0598
vt 0.41234 0.2098
vt 0.22492 0.2098
vt 0.18743 0.2098
vt 0.49842 0.32691
vt 0.54768 0.14773
vt 0.33737 0.2098
vt 0.37485 0.2098
vt 0.11247 0.2098
vt 0.29989 0.2098
vt 0.0375 0.2098
vt 0.00002 0.2098
vt 0.44982 0.2098
vt 0.2624 0.2098
vt 0.14995 0.2098
vt 0.07498 0.2098
vt 0.54886 0.28337
s 1
f 4/8/1 26/52/2 5/10/2
f 3/6/3 4/7/3 5/11/3
f 5/11/3 6/12/3 1/1/3
f 1/1/3 7/14/3 8/16/3
f 8/16/3 9/18/3 10/21/3
f 10/21/3 11/22/3 2/4/3
f 2/4/3 12/24/3 3/6/3
f 5/11/3 25/51/3 3/6/3
f 8/16/3 30/56/3 1/1/3
f 8/17/4 27/53/5 9/19/5
f 38/65/6 10/20/7 28/54/7
f 14/29/8 31/57/9 32/58/8
f 15/30/9 34/60/10 31/57/9
f 27/53/5 19/38/7 28/54/7
f 24/49/11 36/62/1 35/61/11
f 21/42/12 39/66/13 33/59/12
f 13/27/2 32/58/8 26/52/2
f 8/17/4 34/60/10 37/64/4
f 22/45/13 35/61/11 39/66/13
f 40/67/14 29/55/14 19/39/14
f 33/59/12 11/23/6 38/65/6
f 30/56/3 25/51/3 1/1/3
f 37/64/4 18/37/5 27/53/5
f 4/8/1 36/63/1 26/52/2
f 32/58/8 1/2/9 6/13/8
f 31/57/9 7/15/10 1/2/9
f 9/19/5 28/54/7 10/20/7
f 13/26/14 29/55/14 40/67/14
f 33/59/12 12/25/13 2/3/12
f 20/41/6 28/54/7 19/38/7
f 39/66/13 3/5/11 12/25/13
f 26/52/2 6/13/8 5/10/2
f 21/42/12 38/65/6 20/41/6
f 37/64/4 16/33/10 17/34/4
f 19/39/14 18/36/14 17/35/14
f 17/35/14 16/32/14 15/31/14
f 15/31/14 14/28/14 13/26/14
f 13/26/14 23/46/14 24/50/14
f 24/50/14 22/44/14 21/43/14
f 21/43/14 20/40/14 19/39/14
f 17/35/14 40/67/14 19/39/14
f 2/4/3 25/51/3 30/56/3
f 21/43/14 29/55/14 24/50/14
f 35/61/11 4/9/1 3/5/11
f 36/63/1 13/27/2 26/52/2
f 5/11/3 1/1/3 25/51/3
f 8/16/3 10/21/3 30/56/3
f 8/17/4 37/64/4 27/53/5
f 38/65/6 11/23/6 10/20/7
f 14/29/8 15/30/9 31/57/9
f 15/30/9 16/33/10 34/60/10
f 27/53/5 18/37/5 19/38/7
f 24/49/11 23/47/1 36/62/1
f 21/42/12 22/45/13 39/66/13
f 13/27/2 14/29/8 32/58/8
f 8/17/4 7/15/10 34/60/10
f 22/45/13 24/49/11 35/61/11
f 33/59/12 2/3/12 11/23/6
f 37/64/4 17/34/4 18/37/5
f 32/58/8 31/57/9 1/2/9
f 31/57/9 34/60/10 7/15/10
f 9/19/5 27/53/5 28/54/7
f 40/67/14 15/31/14 13/26/14
f 13/26/14 24/50/14 29/55/14
f 33/59/12 39/66/13 12/25/13
f 20/41/6 38/65/6 28/54/7
f 39/66/13 35/61/11 3/5/11
f 26/52/2 32/58/8 6/13/8
f 21/42/12 33/59/12 38/65/6
f 37/64/4 34/60/10 16/33/10
f 17/35/14 15/31/14 40/67/14
f 30/56/3 10/21/3 2/4/3
f 2/4/3 3/6/3 25/51/3
f 21/43/14 19/39/14 29/55/14
f 35/61/11 36/62/1 4/9/1
f 36/63/1 23/48/1 13/27/2
