# Blender 3.4.1
# www.blender.org
o Cylinder
v 0 0 -0.75
v 0 10 -0.75
v 0.375 0 -0.64952
v 0.375 10 -0.64952
v 0.64952 0 -0.375
v 0.64952 10 -0.375
v 0.75 0 0
v 0.75 10 0
v 0.64952 -0 0.375
v 0.64952 10 0.375
v 0.375 -0 0.64952
v 0.375 10 0.64952
v 0 -0 0.75
v 0 10 0.75
v -0.375 -0 0.64952
v -0.375 10 0.64952
v -0.64952 -0 0.375
v -0.64952 10 0.375
v -0.75 0 0
v -0.75 10 0
v -0.64952 0 -0.375
v -0.64952 10 -0.375
v -0.375 0 -0.64952
v -0.375 10 -0.64952
v 0 5 -0.75
v 0.375 5 -0.64952
v -0.375 5 -0.64952
v -0.64952 5 -0.375
v 0.64952 5 -0.375
v 0.75 5 0
v 0.64952 5 0.375
v 0.375 5 0.64952
v 0 5 0.75
v -0.375 5 0.64952
v -0.64952 5 0.375
v -0.75 5 0
v 0 7.5 -0.75
v -0.75 2.5 0
v -0.64952 2.5 0.375
v -0.375 2.5 0.64952
v 0 2.5 0.75
v 0.375 2.5 0.64952
v 0.64952 2.5 0.375
v 0.75 2.5 0
v 0.64952 2.5 -0.375
v -0.64952 2.5 -0.375
v -0.375 2.5 -0.64952
v 0.375 7.5 -0.64952
v -0.375 7.5 -0.64952
v -0.64952 7.5 -0.375
v 0.64952 7.5 -0.375
v 0.75 7.5 0
v 0.375 2.5 -0.64952
v 0.64952 7.5 0.375
v 0.375 7.5 0.64952
v 0 7.5 0.75
v -0.375 7.5 0.64952
v 0 2.5 -0.75
v -0.64952 7.5 0.375
v -0.75 7.5 0
v 0 8.75 -0.75
v -0.75 3.75 0
v -0.64952 3.75 0.375
v -0.375 3.75 0.64952
v 0 3.75 0.75
v 0.375 3.75 0.64952
v 0.64952 3.75 0.375
v 0.75 3.75 0
v 0.64952 3.75 -0.375
v -0.64952 3.75 -0.375
v -0.375 3.75 -0.64952
v 0.375 8.75 -0.64952
v -0.375 8.75 -0.64952
v -0.64952 8.75 -0.375
v 0.64952 8.75 -0.375
v 0.75 8.75 0
v 0.375 3.75 -0.64952
v 0.64952 8.75 0.375
v 0.375 8.75 0.64952
v 0 8.75 0.75
v -0.375 8.75 0.64952
v 0 3.75 -0.75
v -0.64952 8.75 0.375
v -0.75 8.75 0
v 0 6.25 -0.75
v -0.75 1.25 0
v -0.64952 1.25 0.375
v -0.375 1.25 0.64952
v 0 1.25 0.75
v 0.375 1.25 0.64952
v 0.64952 1.25 0.375
v 0.75 1.25 0
v 0.64952 1.25 -0.375
v -0.64952 1.25 -0.375
v -0.375 1.25 -0.64952
v 0.375 6.25 -0.64952
v -0.375 6.25 -0.64952
v -0.64952 6.25 -0.375
v 0.64952 6.25 -0.375
v 0.75 6.25 0
v 0.375 1.25 -0.64952
v 0.64952 6.25 0.375
v 0.375 6.25 0.64952
v 0 6.25 0.75
v -0.375 6.25 0.64952
v 0 1.25 -0.75
v -0.64952 6.25 0.375
v -0.75 6.25 0
vn 0.7071 -0.0000 -0.7071
vn 0.9659 -0.0000 -0.2588
vn 0.9659 -0.0000 0.2588
vn 0.7071 -0.0000 0.7071
vn 0.2588 -0.0000 0.9659
vn -0.2588 -0.0000 0.9659
vn -0.7071 -0.0000 0.7071
vn -0.9659 -0.0000 0.2588
vn -0.9659 -0.0000 -0.2588
vn -0.2588 -0.0000 -0.9659
vn -0.7071 -0.0000 -0.7071
vn -0.0000 -1.0000 -0.0000
vn 0.2588 -0.0000 -0.9659
vn -0.0000 1.0000 -0.0000
vt 0.6 0.075
vt 0.3375 0
vt 0.525 0.15
vt 0.3375 1
vt 0.5875 0.0375
vt 0.3 0
vt 0.5625 0.1625
vt 0.3 1
vt 0.5625 0.0125
vt 0.2625 0
vt 0.2625 1
vt 0.5875 0.1875
vt 0.525 0
vt 0.225 0
vt 0.6 0.225
vt 0.225 1
vt 0.4875 0.0125
vt 0.1875 0
vt 0.5875 0.2625
vt 0.1875 1
vt 0.4625 0.0375
vt 0.15 0
vt 0.5625 0.2875
vt 0.15 1
vt 0.45 0.075
vt 0.1125 0
vt 0.1125 1
vt 0.525 0.3
vt 0.4625 0.1125
vt 0.075 0
vt 0.075 1
vt 0.4875 0.2875
vt 0.4875 0.1375
vt 0.0375 0
vt 0.4625 0.2625
vt 0.0375 1
vt 0.525 0.15
vt 0.45 0
vt 0 0
vt 0.45 0.225
vt -0 1
vt 0.45 1
vt 0.5625 0.1375
vt 0.4125 0
vt 0.4625 0.1875
vt 0.4125 1
vt 0.5875 0.1125
vt 0.375 0
vt 0.4875 0.1625
vt 0.375 1
vt 0.3375 0.5
vt 0.3 0.5
vt 0.375 0.5
vt 0.4125 0.5
vt 0.2625 0.5
vt 0.225 0.5
vt 0.1875 0.5
vt 0.15 0.5
vt 0.1125 0.5
vt 0.075 0.5
vt 0.0375 0.5
vt 0.45 0.5
vt 0 0.5
vt 0.3375 0.75
vt 0.45 0.25
vt 0 0.25
vt 0.0375 0.25
vt 0.075 0.25
vt 0.1125 0.25
vt 0.15 0.25
vt 0.1875 0.25
vt 0.225 0.25
vt 0.2625 0.25
vt 0.4125 0.25
vt 0.375 0.25
vt 0.3 0.75
vt 0.375 0.75
vt 0.4125 0.75
vt 0.2625 0.75
vt 0.225 0.75
vt 0.3 0.25
vt 0.1875 0.75
vt 0.15 0.75
vt 0.1125 0.75
vt 0.075 0.75
vt 0.3375 0.25
vt 0.0375 0.75
vt 0.45 0.75
vt 0 0.75
vt 0.3375 0.875
vt 0.45 0.375
vt 0 0.375
vt 0.0375 0.375
vt 0.075 0.375
vt 0.1125 0.375
vt 0.15 0.375
vt 0.1875 0.375
vt 0.225 0.375
vt 0.2625 0.375
vt 0.4125 0.375
vt 0.375 0.375
vt 0.3 0.875
vt 0.375 0.875
vt 0.4125 0.875
vt 0.2625 0.875
vt 0.225 0.875
vt 0.3 0.375
vt 0.1875 0.875
vt 0.15 0.875
vt 0.1125 0.875
vt 0.075 0.875
vt 0.3375 0.375
vt 0.0375 0.875
vt 0.45 0.875
vt 0 0.875
vt 0.3375 0.625
vt 0 0.125
vt 0.45 0.125
vt 0.0375 0.125
vt 0.075 0.125
vt 0.1125 0.125
vt 0.15 0.125
vt 0.1875 0.125
vt 0.225 0.125
vt 0.2625 0.125
vt 0.4125 0.125
vt 0.375 0.125
vt 0.3 0.625
vt 0.375 0.625
vt 0.4125 0.625
vt 0.2625 0.625
vt 0.225 0.625
vt 0.3 0.125
vt 0.1875 0.625
vt 0.15 0.625
vt 0.1125 0.625
vt 0.075 0.625
vt 0.3375 0.125
vt 0.0375 0.625
vt 0 0.625
vt 0.45 0.625
s 0
f 4/8/1 75/105/1 72/102/1
f 6/11/2 76/106/2 75/105/2
f 8/16/3 78/108/3 76/106/3
f 10/20/4 79/109/4 78/108/4
f 12/24/5 80/110/5 79/109/5
f 14/27/6 81/111/6 80/110/6
f 16/31/7 83/113/7 81/111/7
f 18/36/8 84/115/8 83/113/8
f 20/42/9 74/104/9 84/114/9
f 24/50/10 61/90/10 73/103/10
f 28/54/11 71/101/11 70/100/11
f 23/47/12 7/13/12 15/29/12
f 2/4/13 72/102/13 61/90/13
f 16/32/14 6/12/14 22/45/14
f 47/75/10 106/138/10 95/127/10
f 50/78/11 97/129/11 98/130/11
f 26/52/1 69/99/1 77/107/1
f 29/55/2 68/98/2 69/99/2
f 30/56/3 67/97/3 68/98/3
f 31/57/4 66/96/4 67/97/4
f 32/58/5 65/95/5 66/96/5
f 33/59/6 64/94/6 65/95/6
f 34/60/7 63/93/7 64/94/7
f 35/61/8 62/92/8 63/93/8
f 6/12/14 4/7/14 22/45/14
f 2/3/14 24/49/14 22/45/14
f 22/45/14 20/40/14 18/35/14
f 18/35/14 16/32/14 22/45/14
f 14/28/14 12/23/14 10/19/14
f 10/19/14 8/15/14 14/28/14
f 4/7/14 2/3/14 22/45/14
f 25/51/13 77/107/13 82/112/13
f 14/28/14 8/15/14 6/12/14
f 36/62/9 70/100/9 62/91/9
f 38/65/9 94/126/9 86/118/9
f 23/47/12 1/1/12 3/5/12
f 3/5/12 5/9/12 7/13/12
f 7/13/12 9/17/12 11/21/12
f 11/21/12 13/25/12 7/13/12
f 15/29/12 17/33/12 19/37/12
f 19/37/12 21/43/12 23/47/12
f 27/53/10 82/112/10 71/101/10
f 7/13/12 13/25/12 15/29/12
f 15/29/12 19/37/12 23/47/12
f 22/46/11 73/103/11 74/104/11
f 58/86/13 101/133/13 106/138/13
f 39/67/8 86/117/8 87/119/8
f 40/68/7 87/119/7 88/120/7
f 41/69/6 88/120/6 89/121/6
f 42/70/5 89/121/5 90/122/5
f 43/71/4 90/122/4 91/123/4
f 44/72/3 91/123/3 92/124/3
f 45/73/2 92/124/2 93/125/2
f 53/81/1 93/125/1 101/133/1
f 37/64/13 96/128/13 85/116/13
f 46/74/11 95/127/11 94/126/11
f 49/77/10 85/116/10 97/129/10
f 60/88/9 98/130/9 108/141/9
f 59/87/8 108/140/8 107/139/8
f 57/85/7 107/139/7 105/137/7
f 56/84/6 105/137/6 104/136/6
f 55/83/5 104/136/5 103/135/5
f 54/82/4 103/135/4 102/134/4
f 52/80/3 102/134/3 100/132/3
f 51/79/2 100/132/2 99/131/2
f 48/76/1 99/131/1 96/128/1
f 96/128/1 29/55/1 26/52/1
f 99/131/2 30/56/2 29/55/2
f 100/132/3 31/57/3 30/56/3
f 102/134/4 32/58/4 31/57/4
f 103/135/5 33/59/5 32/58/5
f 104/136/6 34/60/6 33/59/6
f 105/137/7 35/61/7 34/60/7
f 107/139/8 36/63/8 35/61/8
f 108/141/9 28/54/9 36/62/9
f 97/129/10 25/51/10 27/53/10
f 94/126/11 23/48/11 21/44/11
f 85/116/13 26/52/13 25/51/13
f 101/133/1 5/10/1 3/6/1
f 93/125/2 7/14/2 5/10/2
f 92/124/3 9/18/3 7/14/3
f 91/123/4 11/22/4 9/18/4
f 90/122/5 13/26/5 11/22/5
f 89/121/6 15/30/6 13/26/6
f 88/120/7 17/34/7 15/30/7
f 87/119/8 19/39/8 17/34/8
f 106/138/13 3/6/13 1/2/13
f 74/104/11 49/77/11 50/78/11
f 71/101/10 58/86/10 47/75/10
f 86/118/9 21/44/9 19/38/9
f 62/91/9 46/74/9 38/65/9
f 82/112/13 53/81/13 58/86/13
f 63/93/8 38/66/8 39/67/8
f 64/94/7 39/67/7 40/68/7
f 65/95/6 40/68/6 41/69/6
f 66/96/5 41/69/5 42/70/5
f 67/97/4 42/70/4 43/71/4
f 68/98/3 43/71/3 44/72/3
f 69/99/2 44/72/2 45/73/2
f 77/107/1 45/73/1 53/81/1
f 98/130/11 27/53/11 28/54/11
f 95/127/10 1/2/10 23/48/10
f 61/90/13 48/76/13 37/64/13
f 70/100/11 47/75/11 46/74/11
f 73/103/10 37/64/10 49/77/10
f 84/114/9 50/78/9 60/88/9
f 83/113/8 60/89/8 59/87/8
f 81/111/7 59/87/7 57/85/7
f 80/110/6 57/85/6 56/84/6
f 79/109/5 56/84/5 55/83/5
f 78/108/4 55/83/4 54/82/4
f 76/106/3 54/82/3 52/80/3
f 75/105/2 52/80/2 51/79/2
f 72/102/1 51/79/1 48/76/1
f 4/8/1 6/11/1 75/105/1
f 6/11/2 8/16/2 76/106/2
f 8/16/3 10/20/3 78/108/3
f 10/20/4 12/24/4 79/109/4
f 12/24/5 14/27/5 80/110/5
f 14/27/6 16/31/6 81/111/6
f 16/31/7 18/36/7 83/113/7
f 18/36/8 20/41/8 84/115/8
f 20/42/9 22/46/9 74/104/9
f 24/50/10 2/4/10 61/90/10
f 28/54/11 27/53/11 71/101/11
f 23/47/12 3/5/12 7/13/12
f 2/4/13 4/8/13 72/102/13
f 16/32/14 14/28/14 6/12/14
f 47/75/10 58/86/10 106/138/10
f 50/78/11 49/77/11 97/129/11
f 26/52/1 29/55/1 69/99/1
f 29/55/2 30/56/2 68/98/2
f 30/56/3 31/57/3 67/97/3
f 31/57/4 32/58/4 66/96/4
f 32/58/5 33/59/5 65/95/5
f 33/59/6 34/60/6 64/94/6
f 34/60/7 35/61/7 63/93/7
f 35/61/8 36/63/8 62/92/8
f 25/51/13 26/52/13 77/107/13
f 36/62/9 28/54/9 70/100/9
f 38/65/9 46/74/9 94/126/9
f 27/53/10 25/51/10 82/112/10
f 22/46/11 24/50/11 73/103/11
f 58/86/13 53/81/13 101/133/13
f 39/67/8 38/66/8 86/117/8
f 40/68/7 39/67/7 87/119/7
f 41/69/6 40/68/6 88/120/6
f 42/70/5 41/69/5 89/121/5
f 43/71/4 42/70/4 90/122/4
f 44/72/3 43/71/3 91/123/3
f 45/73/2 44/72/2 92/124/2
f 53/81/1 45/73/1 93/125/1
f 37/64/13 48/76/13 96/128/13
f 46/74/11 47/75/11 95/127/11
f 49/77/10 37/64/10 85/116/10
f 60/88/9 50/78/9 98/130/9
f 59/87/8 60/89/8 108/140/8
f 57/85/7 59/87/7 107/139/7
f 56/84/6 57/85/6 105/137/6
f 55/83/5 56/84/5 104/136/5
f 54/82/4 55/83/4 103/135/4
f 52/80/3 54/82/3 102/134/3
f 51/79/2 52/80/2 100/132/2
f 48/76/1 51/79/1 99/131/1
f 96/128/1 99/131/1 29/55/1
f 99/131/2 100/132/2 30/56/2
f 100/132/3 102/134/3 31/57/3
f 102/134/4 103/135/4 32/58/4
f 103/135/5 104/136/5 33/59/5
f 104/136/6 105/137/6 34/60/6
f 105/137/7 107/139/7 35/61/7
f 107/139/8 108/140/8 36/63/8
f 108/141/9 98/130/9 28/54/9
f 97/129/10 85/116/10 25/51/10
f 94/126/11 95/127/11 23/48/11
f 85/116/13 96/128/13 26/52/13
f 101/133/1 93/125/1 5/10/1
f 93/125/2 92/124/2 7/14/2
f 92/124/3 91/123/3 9/18/3
f 91/123/4 90/122/4 11/22/4
f 90/122/5 89/121/5 13/26/5
f 89/121/6 88/120/6 15/30/6
f 88/120/7 87/119/7 17/34/7
f 87/119/8 86/117/8 19/39/8
f 106/138/13 101/133/13 3/6/13
f 74/104/11 73/103/11 49/77/11
f 71/101/10 82/112/10 58/86/10
f 86/118/9 94/126/9 21/44/9
f 62/91/9 70/100/9 46/74/9
f 82/112/13 77/107/13 53/81/13
f 63/93/8 62/92/8 38/66/8
f 64/94/7 63/93/7 39/67/7
f 65/95/6 64/94/6 40/68/6
f 66/96/5 65/95/5 41/69/5
f 67/97/4 66/96/4 42/70/4
f 68/98/3 67/97/3 43/71/3
f 69/99/2 68/98/2 44/72/2
f 77/107/1 69/99/1 45/73/1
f 98/130/11 97/129/11 27/53/11
f 95/127/10 106/138/10 1/2/10
f 61/90/13 72/102/13 48/76/13
f 70/100/11 71/101/11 47/75/11
f 73/103/10 61/90/10 37/64/10
f 84/114/9 74/104/9 50/78/9
f 83/113/8 84/115/8 60/89/8
f 81/111/7 83/113/7 59/87/7
f 80/110/6 81/111/6 57/85/6
f 79/109/5 80/110/5 56/84/5
f 78/108/4 79/109/4 55/83/4
f 76/106/3 78/108/3 54/82/3
f 75/105/2 76/106/2 52/80/2
f 72/102/1 75/105/1 51/79/1
