# Blender 3.4.1
# www.blender.org
o mp_f_20_6_usa
v -1 6 0
v 0.86603 6 -0.5
v 0.5 6 0.86603
v -0.86603 6 0.5
v -0.86603 6 -0.5
v 1 0 0
v -1 0 0
v -0.5 0 -0.86603
v 0 0 -1
v 0.5 0 -0.86603
v 0.86603 0 -0.5
v 0.86603 -0 0.5
v 0.5 -0 0.86603
v 0 -0 1
v -0.5 -0 0.86603
v -0.86603 -0 0.5
v -0.86603 0 -0.5
v 1 6 0
v -0.5 6 -0.86602
v 0 6 -1
v 0.5 6 -0.86602
v 0.86603 6 0.5
v 0 6 1
v -0.5 6 0.86603
v 0.25 0 -0.43301
v 0.25 6 0.43301
v -1 3 0
v 0.86603 3 -0.5
v 0.5 3 0.86603
v -0.86603 3 0.5
v 0.25 -0 0.43301
v -0.86603 3 -0.5
v 1 3 0
v -0.5 3 -0.86602
v 0 3 -1
v 0.5 3 -0.86602
v 0.86603 3 0.5
v 0 3 1
v 0.25 6 -0.43301
v -0.5 3 0.86603
v -0.5 1.5 -0.86602
v -1 1.5 0
v 0.86603 1.5 0.5
v -1 4.5 0
v 0.86603 1.5 -0.5
v 0.5 1.5 0.86603
v 1 1.5 0
v 0.86603 4.5 -0.5
v -0.86603 1.5 0.5
v -0.86603 1.5 -0.5
v 1 4.5 0
v -0.5 4.5 -0.86602
v -0.86603 4.5 -0.5
v 0 4.5 -1
v 0 1.5 1
v 0.5 4.5 -0.86602
v 0 1.5 -1
v 0.86603 4.5 0.5
v 0.5 1.5 -0.86602
v 0 4.5 1
v 0.5 4.5 0.86603
v -0.5 4.5 0.86603
v -0.86603 4.5 0.5
v -0.5 1.5 0.86603
vn -0.0000 -1.0000 -0.0000
vn -0.0000 1.0000 -0.0000
vn -0.5000 -0.0000 -0.8660
vn -0.0000 -0.0000 -1.0000
vn 0.5000 -0.0000 -0.8660
vn 1.0000 -0.0000 -0.0000
vn 0.8660 -0.0000 0.5000
vn -0.0000 -0.0000 1.0000
vn 0.5000 -0.0000 0.8660
vn -0.5000 -0.0000 0.8660
vn -0.8660 -0.0000 0.5000
vn -0.8660 -0.0000 -0.5000
vn -1.0000 -0.0000 -0.0000
vn 0.8660 -0.0000 -0.5000
vt 0.375 0.5
vt 0.37546 0.2491
vt 0.00003 0.50004
vt 0.49122 0.29033
vt 0.21875 0.5
vt 0.46852 0.17768
vt 0.125 0.5
vt 0.38378 0.20787
vt 0.03125 0.5
vt 0.38378 0.29033
vt 0.34375 0.5
vt 0.49954 0.08293
vt 0.1875 0
vt 0.00006 0.00008
vt 0.375 0
vt 0.37546 0.08293
vt 0.40648 0.01151
vt 0.3125 0
vt 0.4375 0.00046
vt 0.28125 0
vt 0.46852 0.01151
vt 0.25 0
vt 0.49122 0.0417
vt 0.21875 0
vt 0.49122 0.12416
vt 0.15625 0
vt 0.46852 0.15435
vt 0.125 0
vt 0.4375 0.1654
vt 0.09375 0
vt 0.0625 0
vt 0.40648 0.15435
vt 0.38378 0.12416
vt 0.03125 0
vt 0.38378 0.0417
vt 0.34375 0
vt 0.49954 0.2491
vt 0.1875 0.5
vt 0.3125 0.5
vt 0.40648 0.32052
vt 0.4375 0.33157
vt 0.28125 0.5
vt 0.46852 0.32052
vt 0.25 0.5
vt 0.49122 0.20787
vt 0.15625 0.5
vt 0.4375 0.16663
vt 0.09375 0.5
vt 0.40648 0.17768
vt 0.0625 0.5
vt 0.45301 0.04722
vt 0.45301 0.21339
vt 0.375 0.25
vt 0.00005 0.25006
vt 0.21875 0.25
vt 0.125 0.25
vt 0.03125 0.25
vt 0.45301 0.11864
vt 0.34375 0.25
vt 0.1875 0.25
vt 0.3125 0.25
vt 0.28125 0.25
vt 0.25 0.25
vt 0.15625 0.25
vt 0.09375 0.25
vt 0.45301 0.28481
vt 0.0625 0.25
vt 0.3125 0.125
vt 0.375 0.125
vt 0.00005 0.12507
vt 0.15625 0.125
vt 0.375 0.375
vt 0.00004 0.37505
vt 0.21875 0.125
vt 0.125 0.125
vt 0.1875 0.125
vt 0.21875 0.375
vt 0.03125 0.125
vt 0.34375 0.125
vt 0.1875 0.375
vt 0.3125 0.375
vt 0.34375 0.375
vt 0.28125 0.375
vt 0.09375 0.125
vt 0.25 0.375
vt 0.28125 0.125
vt 0.15625 0.375
vt 0.25 0.125
vt 0.09375 0.375
vt 0.125 0.375
vt 0.0625 0.375
vt 0.03125 0.375
vt 0.0625 0.125
s 1
f 31/58/1 25/51/1 6/12/1
f 24/49/2 23/47/2 3/6/2
f 3/6/2 22/45/2 18/37/2
f 18/37/2 2/4/2 21/43/2
f 21/43/2 20/41/2 19/40/2
f 19/40/2 5/10/2 1/2/2
f 1/2/2 4/8/2 24/49/2
f 3/6/2 26/52/2 24/49/2
f 21/43/2 39/66/2 18/37/2
f 34/61/3 57/86/4 41/68/3
f 54/83/4 36/63/5 35/62/4
f 8/17/1 9/19/1 10/21/1
f 10/21/1 11/23/1 6/12/1
f 6/12/1 12/25/1 13/27/1
f 13/27/1 14/29/1 15/32/1
f 15/32/1 16/33/1 7/16/1
f 7/16/1 17/35/1 8/17/1
f 10/21/1 25/51/1 8/17/1
f 13/27/1 31/58/1 6/12/1
f 51/80/6 37/64/7 33/60/6
f 55/84/8 13/28/9 46/75/9
f 64/93/10 14/30/8 55/84/8
f 49/78/11 15/31/10 64/93/10
f 53/82/12 19/39/3 52/81/3
f 39/66/2 26/52/2 18/37/2
f 42/70/13 16/34/11 49/78/11
f 21/44/5 48/77/14 56/85/5
f 47/76/6 11/24/14 45/74/14
f 50/79/12 7/15/13 42/69/13
f 46/75/9 12/26/7 43/71/7
f 19/39/3 54/83/4 52/81/3
f 43/71/7 6/13/6 47/76/6
f 51/80/6 28/55/14 48/77/14
f 59/88/5 28/55/14 45/74/14
f 44/73/13 30/57/11 63/92/11
f 1/2/2 26/52/2 39/66/2
f 61/90/9 37/64/7 58/87/7
f 53/82/12 27/53/13 44/72/13
f 35/62/4 59/88/5 57/86/4
f 62/91/10 38/65/8 60/89/8
f 62/91/10 30/57/11 40/67/10
f 7/16/1 25/51/1 31/58/1
f 32/59/12 41/68/3 50/79/12
f 61/90/9 38/65/8 29/56/9
f 57/86/4 10/22/5 9/20/4
f 3/7/9 60/89/8 61/90/9
f 50/79/12 8/18/3 17/36/12
f 24/50/10 63/92/11 62/91/10
f 24/50/10 60/89/8 23/48/8
f 5/11/12 44/72/13 1/1/13
f 22/46/7 61/90/9 58/87/7
f 1/3/13 63/92/11 4/9/11
f 59/88/5 11/24/14 10/22/5
f 2/5/14 51/80/6 48/77/14
f 37/64/7 47/76/6 33/60/6
f 52/81/3 35/62/4 34/61/3
f 29/56/9 43/71/7 37/64/7
f 32/59/12 42/69/13 27/53/13
f 33/60/6 45/74/14 28/55/14
f 56/85/5 28/55/14 36/63/5
f 30/57/11 42/70/13 49/78/11
f 53/82/12 34/61/3 32/59/12
f 30/57/11 64/93/10 40/67/10
f 40/67/10 55/84/8 38/65/8
f 29/56/9 55/84/8 46/75/9
f 22/46/7 51/80/6 18/38/6
f 21/44/5 54/83/4 20/42/4
f 41/68/3 9/20/4 8/18/3
f 3/6/2 18/37/2 26/52/2
f 21/43/2 19/40/2 39/66/2
f 34/61/3 35/62/4 57/86/4
f 54/83/4 56/85/5 36/63/5
f 10/21/1 6/12/1 25/51/1
f 13/27/1 15/32/1 31/58/1
f 51/80/6 58/87/7 37/64/7
f 55/84/8 14/30/8 13/28/9
f 64/93/10 15/31/10 14/30/8
f 49/78/11 16/34/11 15/31/10
f 53/82/12 5/11/12 19/39/3
f 42/70/13 7/14/13 16/34/11
f 21/44/5 2/5/14 48/77/14
f 47/76/6 6/13/6 11/24/14
f 50/79/12 17/36/12 7/15/13
f 46/75/9 13/28/9 12/26/7
f 19/39/3 20/42/4 54/83/4
f 43/71/7 12/26/7 6/13/6
f 51/80/6 33/60/6 28/55/14
f 59/88/5 36/63/5 28/55/14
f 44/73/13 27/54/13 30/57/11
f 39/66/2 19/40/2 1/2/2
f 1/2/2 24/49/2 26/52/2
f 61/90/9 29/56/9 37/64/7
f 53/82/12 32/59/12 27/53/13
f 35/62/4 36/63/5 59/88/5
f 62/91/10 40/67/10 38/65/8
f 62/91/10 63/92/11 30/57/11
f 31/58/1 15/32/1 7/16/1
f 7/16/1 8/17/1 25/51/1
f 32/59/12 34/61/3 41/68/3
f 61/90/9 60/89/8 38/65/8
f 57/86/4 59/88/5 10/22/5
f 3/7/9 23/48/8 60/89/8
f 50/79/12 41/68/3 8/18/3
f 24/50/10 4/9/11 63/92/11
f 24/50/10 62/91/10 60/89/8
f 5/11/12 53/82/12 44/72/13
f 22/46/7 3/7/9 61/90/9
f 1/3/13 44/73/13 63/92/11
f 59/88/5 45/74/14 11/24/14
f 2/5/14 18/38/6 51/80/6
f 37/64/7 43/71/7 47/76/6
f 52/81/3 54/83/4 35/62/4
f 29/56/9 46/75/9 43/71/7
f 32/59/12 50/79/12 42/69/13
f 33/60/6 47/76/6 45/74/14
f 56/85/5 48/77/14 28/55/14
f 30/57/11 27/54/13 42/70/13
f 53/82/12 52/81/3 34/61/3
f 30/57/11 49/78/11 64/93/10
f 40/67/10 64/93/10 55/84/8
f 29/56/9 38/65/8 55/84/8
f 22/46/7 58/87/7 51/80/6
f 21/44/5 56/85/5 54/83/4
f 41/68/3 57/86/4 9/20/4
