# Blender 3.4.1
# www.blender.org
o Cube
v 0.10547 1 -1.58203
v 0.10547 1 1.58203
v -0.10547 1 1.58203
v -0.10547 1 -1.58203
v 0.10547 2.5 -1.26562
v 0.10547 2.5 1.26563
v -0.10547 2.5 1.26562
v -0.10547 2.5 -1.26562
v -1.58203 1 -0.10547
v 1.58203 1 -0.10547
v 1.58203 1 0.10547
v -1.58203 1 0.10547
v -1.26562 2.5 -0.10547
v 1.26563 2.5 -0.10547
v 1.26562 2.5 0.10547
v -1.26562 2.5 0.10547
v 0.10547 3.5 -0.63281
v 0.10547 3.5 0.63281
v -0.10547 3.5 -0.63281
v -0.10547 3.5 0.63281
v -0.63281 3.5 -0.10547
v 0.63281 3.5 -0.10547
v -0.63281 3.5 0.10547
v 0.63281 3.5 0.10547
v 0.10547 1 0
v 0.10547 2.5 0
v -0.10547 2.5 0
v 0 1 -0.10547
v 0 2.5 -0.10547
v -0.10547 1 -0
v -0 1 0.10547
v 0 2.5 0.10547
vn -0.0000 0.2064 -0.9785
vn -0.0000 1.0000 -0.0000
vn -0.0000 -0.0000 1.0000
vn 0.9785 0.2064 -0.0000
vn -0.0000 -0.0000 -1.0000
vn -0.9785 0.2064 -0.0000
vn -0.0000 -1.0000 -0.0000
vn 1.0000 -0.0000 -0.0000
vn -1.0000 -0.0000 -0.0000
vn -0.0000 0.2064 0.9785
vn -0.0000 0.5347 0.8450
vn 0.8450 0.5347 -0.0000
vn -0.8450 0.5347 -0.0000
vn -0.0000 0.5347 -0.8450
s 0
f 1//1 8//1 5//1
f 17//2 20//2 18//2
f 31//3 16//3 12//3
f 14//4 11//4 10//4
f 29//5 21//5 22//5
f 9//6 16//6 13//6
f 25//7 3//7 30//7
f 26//8 17//8 18//8
f 25//8 6//8 2//8
f 28//5 14//5 10//5
f 30//9 8//9 4//9
f 6//10 3//10 2//10
f 7//11 18//11 20//11
f 15//12 22//12 24//12
f 21//2 24//2 22//2
f 27//9 20//9 19//9
f 28//7 11//7 31//7
f 9//7 31//7 12//7
f 32//3 24//3 23//3
f 13//13 23//13 21//13
f 25//7 2//7 3//7
f 6//10 7//10 3//10
f 17//2 19//2 20//2
f 22//5 14//5 29//5
f 15//3 31//3 11//3
f 9//6 12//6 16//6
f 18//8 6//8 26//8
f 5//8 25//8 1//8
f 31//3 32//3 16//3
f 14//4 15//4 11//4
f 1//1 4//1 8//1
f 29//5 13//5 21//5
f 30//9 27//9 8//9
f 25//8 26//8 6//8
f 28//5 29//5 14//5
f 13//5 28//5 9//5
f 26//8 5//8 17//8
f 7//9 30//9 3//9
f 1//7 30//7 4//7
f 7//11 6//11 18//11
f 5//14 19//14 17//14
f 15//12 14//12 22//12
f 21//2 23//2 24//2
f 19//9 8//9 27//9
f 27//9 7//9 20//9
f 28//7 10//7 11//7
f 9//7 28//7 31//7
f 23//3 16//3 32//3
f 32//3 15//3 24//3
f 13//13 16//13 23//13
f 15//3 32//3 31//3
f 5//8 26//8 25//8
f 13//5 29//5 28//5
f 7//9 27//9 30//9
f 1//7 25//7 30//7
f 5//14 8//14 19//14
