# Blender 3.4.1
# www.blender.org
o Cube.003_Cube.004
v 0.67175 0.375 0.67175
v 0.67175 4.5 0.67175
v 0.49497 0.375 0.74498
v 0.49497 4.5 0.74498
v 0.3182 0.375 0.67175
v 0.3182 4.5 0.67175
v 0.24497 0.375 0.49497
v 0.24497 4.5 0.49498
v 0.3182 0.375 0.3182
v 0.3182 4.5 0.3182
v 0.49497 0.375 0.24497
v 0.49497 4.5 0.24498
v 0.67175 0.375 0.3182
v 0.67175 4.5 0.3182
v 0.74498 0.375 0.49497
v 0.74498 4.5 0.49498
v 0.24497 -0 0.49497
v 0.3182 -0 0.3182
v 0.49497 -0 0.24497
v 0.67175 0.25 0.67175
v 0.49497 0.25 0.74498
v 0.74498 0.25 0.49497
v 0.49497 5 0.49498
v 0.3182 0.125 0.67175
v 0.67175 0.125 0.3182
v 0.3182 0.125 -0.67175
v 0.67175 0.125 -0.3182
v 0.49497 5 -0.49497
v 0.49497 0.25 -0.74498
v 0.74498 0.25 -0.49497
v 0.67175 0.25 -0.67175
v 0.24497 0 -0.49497
v 0.3182 0 -0.3182
v 0.49497 0 -0.24497
v 0.49497 4.5 -0.74497
v 0.49497 0.375 -0.74498
v 0.3182 4.5 -0.67175
v 0.3182 0.375 -0.67175
v 0.24497 4.5 -0.49497
v 0.24497 0.375 -0.49497
v 0.3182 4.5 -0.3182
v 0.3182 0.375 -0.3182
v 0.49497 4.5 -0.24497
v 0.49497 0.375 -0.24497
v 0.67175 4.5 -0.3182
v 0.67175 0.375 -0.3182
v 0.74498 4.5 -0.49497
v 0.74498 0.375 -0.49497
v 0.67175 4.5 -0.67175
v 0.67175 0.375 -0.67175
v -0.25 -0 0.03125
v -0.5 0.25 0.03125
v -0.625 -0 0.03125
v -0.6875 0.25 0.03125
v -0.25 0 -0.03125
v -0.5 0.25 -0.03125
v -0.625 0 -0.03125
v -0.6875 0.25 -0.03125
v -0.875 0.25 0.03125
v -0.875 0.25 -0.03125
v -0.875 1 0.03125
v -0.875 1 -0.03125
v -0.6875 1.375 0.03125
v -0.6875 1.375 -0.03125
v -0.75 1.375 0.03125
v -0.75 1.375 -0.03125
v 0.25 0 -0.03125
v 0.5 0.25 -0.03125
v 0.625 0 -0.03125
v 0.6875 0.25 -0.03125
v 0.25 -0 0.03125
v 0.5 0.25 0.03125
v 0.625 -0 0.03125
v 0.6875 0.25 0.03125
v 0.875 0.25 -0.03125
v 0.875 0.25 0.03125
v 0.875 1 -0.03125
v 0.875 1 0.03125
v 0.6875 1.375 -0.03125
v 0.6875 1.375 0.03125
v 0.75 1.375 -0.03125
v 0.75 1.375 0.03125
v 0.03125 -0 0.25
v 0.03125 0.25 0.5
v 0.03125 -0 0.625
v 0.03125 0.25 0.6875
v -0.03125 -0 0.25
v -0.03125 0.25 0.5
v -0.03125 -0 0.625
v -0.03125 0.25 0.6875
v 0.03125 0.25 0.875
v -0.03125 0.25 0.875
v 0.03125 1 0.875
v -0.03125 1 0.875
v 0.03125 1.375 0.6875
v -0.03125 1.375 0.6875
v 0.03125 1.375 0.75
v -0.03125 1.375 0.75
v -0.03125 0 -0.25
v -0.03125 0.25 -0.5
v -0.03125 0 -0.625
v -0.03125 0.25 -0.6875
v 0.03125 0 -0.25
v 0.03125 0.25 -0.5
v 0.03125 0 -0.625
v 0.03125 0.25 -0.6875
v -0.03125 0.25 -0.875
v 0.03125 0.25 -0.875
v -0.03125 1 -0.875
v 0.03125 1 -0.875
v -0.03125 1.375 -0.6875
v 0.03125 1.375 -0.6875
v -0.03125 1.375 -0.75
v 0.03125 1.375 -0.75
v 0 0.5 -0.75
v 0 1.5 -0.75
v 0.375 0.5 -0.64952
v 0.375 1.5 -0.64952
v 0.64952 0.5 -0.375
v 0.64952 1.5 -0.375
v 0.75 0.5 0
v 0.75 1.5 0
v 0.64952 0.5 0.375
v 0.64952 1.5 0.375
v 0.375 0.5 0.64952
v 0.375 1.5 0.64952
v 0 0.5 0.75
v 0 1.5 0.75
v -0.375 0.5 0.64952
v -0.375 1.5 0.64952
v -0.64952 0.5 0.375
v -0.64952 1.5 0.375
v -0.75 0.5 0
v -0.75 1.5 0
v -0.64952 0.5 -0.375
v -0.64952 1.5 -0.375
v -0.375 0.5 -0.64952
v -0.375 1.5 -0.64952
v 0 0.75 -0.6375
v 0.31875 0.75 -0.55209
v 0.55209 0.75 -0.31875
v 0.6375 0.75 0
v 0.55209 0.75 0.31875
v 0.31875 0.75 0.55209
v 0 0.75 0.6375
v -0.31875 0.75 0.55209
v -0.55209 0.75 0.31875
v -0.6375 0.75 0
v -0.55209 0.75 -0.31875
v -0.31875 0.75 -0.55209
v 0 0.225 -0.45
v -0.225 0.225 -0.38971
v -0.38971 0.225 -0.225
v -0.45 0.225 0
v -0.38971 0.225 0.225
v -0.225 0.225 0.38971
v 0 0.225 0.45
v 0.225 0.225 0.38971
v 0.38971 0.225 0.225
v 0.45 0.225 0
v 0.38971 0.225 -0.225
v 0.225 0.225 -0.38971
v -0.19125 0.675 -0.33126
v 0 0.675 -0.3825
v -0.33126 0.675 -0.19125
v -0.3825 0.675 0
v -0.33126 0.675 0.19125
v -0.19125 0.675 0.33126
v 0 0.675 0.3825
v 0.19125 0.675 0.33126
v 0.33126 0.675 0.19125
v 0.3825 0.675 0
v 0.33126 0.675 -0.19125
v 0.19125 0.675 -0.33126
v -0.125 0.625 -0.21651
v 0 0.625 -0.25
v -0.21651 0.625 -0.125
v -0.25 0.625 0
v -0.21651 0.625 0.125
v -0.125 0.625 0.21651
v 0 0.625 0.25
v 0.125 0.625 0.21651
v 0.21651 0.625 0.125
v 0.25 0.625 0
v 0.21651 0.625 -0.125
v 0.125 0.625 -0.21651
v -0.67175 0.125 -0.3182
v -0.3182 0.125 -0.67175
v -0.49497 5 -0.49497
v -0.74498 0.25 -0.49497
v -0.49497 0.25 -0.74498
v -0.67175 0.25 -0.67175
v -0.49497 0 -0.24497
v -0.3182 0 -0.3182
v -0.24497 0 -0.49497
v -0.74498 4.5 -0.49497
v -0.74498 0.375 -0.49497
v -0.67175 4.5 -0.3182
v -0.67175 0.375 -0.3182
v -0.49497 4.5 -0.24497
v -0.49497 0.375 -0.24497
v -0.3182 4.5 -0.3182
v -0.3182 0.375 -0.3182
v -0.24497 4.5 -0.49497
v -0.24497 0.375 -0.49497
v -0.3182 4.5 -0.67175
v -0.3182 0.375 -0.67175
v -0.49497 4.5 -0.74497
v -0.49497 0.375 -0.74498
v -0.67175 4.5 -0.67175
v -0.67175 0.375 -0.67175
v -0.3182 0.125 0.67175
v -0.67175 0.125 0.3182
v -0.49497 5 0.49498
v -0.49497 0.25 0.74498
v -0.74498 0.25 0.49497
v -0.67175 0.25 0.67175
v -0.24497 -0 0.49497
v -0.3182 -0 0.3182
v -0.49497 -0 0.24497
v -0.49497 4.5 0.74498
v -0.49497 0.375 0.74498
v -0.3182 4.5 0.67175
v -0.3182 0.375 0.67175
v -0.24497 4.5 0.49498
v -0.24497 0.375 0.49497
v -0.3182 4.5 0.3182
v -0.3182 0.375 0.3182
v -0.49497 4.5 0.24498
v -0.49497 0.375 0.24497
v -0.67175 4.5 0.3182
v -0.67175 0.375 0.3182
v -0.74498 4.5 0.49498
v -0.74498 0.375 0.49497
v -0.67175 4.5 0.67175
v -0.67175 0.375 0.67175
v 0.67175 2.4375 0.67175
v 0.3182 2.4375 0.3182
v 0.67175 2.4375 -0.67175
v 0.74498 2.4375 -0.49497
v -0.24497 2.4375 0.49497
v -0.3182 2.4375 0.67175
v -0.24497 2.4375 -0.49497
v -0.67175 2.4375 -0.67175
v 0.49497 2.4375 0.74498
v 0.49497 2.4375 0.24497
v 0.3182 2.4375 -0.3182
v 0.49497 2.4375 -0.74498
v -0.67175 2.4375 0.67175
v -0.74498 2.4375 -0.49497
v -0.74498 2.4375 0.49497
v -0.3182 2.4375 0.3182
v 0.3182 2.4375 0.67175
v 0.67175 2.4375 0.3182
v 0.49497 2.4375 -0.24497
v 0.67175 2.4375 -0.3182
v -0.49497 2.4375 0.74498
v -0.49497 2.4375 -0.74498
v -0.3182 2.4375 -0.67175
v 0.3182 2.4375 -0.67175
v 0.24497 2.4375 0.49497
v 0.74498 2.4375 0.49497
v 0.24497 2.4375 -0.49497
v -0.67175 2.4375 0.3182
v -0.3182 2.4375 -0.3182
v -0.67175 2.4375 -0.3182
v -0.49497 2.4375 0.24497
v -0.49497 2.4375 -0.24497
v 0.67175 3.46875 0.67175
v 0.3182 3.46875 0.3182
v 0.67175 1.40625 -0.67175
v 0.74498 1.40625 -0.49497
v 0.74498 1.40625 0.49497
v 0.67175 1.40625 0.3182
v 0.67175 3.46875 -0.3182
v -0.24497 1.40625 0.49497
v -0.3182 3.46875 0.3182
v -0.3182 1.40625 0.67175
v -0.24497 1.40625 -0.49497
v 0.67175 1.40625 0.67175
v 0.24497 1.40625 0.49497
v -0.67175 3.46875 0.3182
v -0.67175 1.40625 -0.67175
v 0.49497 3.46875 0.74498
v 0.49497 3.46875 0.24498
v 0.3182 1.40625 -0.3182
v 0.3182 1.40625 0.67175
v 0.49497 1.40625 -0.74498
v 0.49497 1.40625 0.74498
v -0.49497 3.46875 0.24498
v -0.74498 3.46875 0.49498
v 0.67175 3.46875 -0.67175
v -0.67175 1.40625 0.67175
v -0.3182 3.46875 -0.67175
v -0.74498 1.40625 -0.49497
v -0.3182 3.46875 0.67175
v -0.74498 1.40625 0.49497
v -0.3182 1.40625 0.3182
v -0.74498 3.46875 -0.49497
v 0.3182 3.46875 0.67175
v 0.67175 3.46875 0.3182
v 0.49497 1.40625 0.24497
v -0.24497 3.46875 0.49498
v 0.3182 1.40625 0.3182
v 0.49497 1.40625 -0.24497
v 0.67175 1.40625 -0.3182
v -0.49497 3.46875 -0.24497
v -0.49497 3.46875 -0.74497
v -0.49497 1.40625 0.74498
v -0.67175 3.46875 -0.67175
v 0.49497 3.46875 -0.74497
v -0.49497 1.40625 -0.74498
v 0.49497 3.46875 -0.24497
v -0.67175 3.46875 -0.3182
v -0.3182 1.40625 -0.67175
v 0.3182 1.40625 -0.67175
v 0.24497 3.46875 0.49498
v 0.74498 3.46875 0.49498
v -0.24497 3.46875 -0.49497
v 0.24497 1.40625 -0.49497
v 0.3182 3.46875 -0.67175
v 0.24497 3.46875 -0.49497
v -0.67175 3.46875 0.67175
v 0.74498 3.46875 -0.49497
v -0.67175 1.40625 0.3182
v -0.3182 1.40625 -0.3182
v -0.67175 1.40625 -0.3182
v -0.49497 1.40625 0.24497
v -0.3182 3.46875 -0.3182
v -0.49497 3.46875 0.74498
v -0.49497 1.40625 -0.24497
v 0.3182 3.46875 -0.3182
vn -0.3827 -0.0000 -0.9239
vn 0.3827 -0.0000 0.9239
vn 0.3827 -0.0000 -0.9239
vn -0.3827 -0.0000 0.9239
vn 0.9239 -0.0000 0.3827
vn -0.9239 -0.0000 0.3827
vn 0.9239 -0.0000 -0.3827
vn 0.7071 0.7071 -0.0000
vn -0.9239 -0.0000 -0.3827
vn -0.2588 -0.0000 -0.9659
vn -1.0000 -0.0000 -0.0000
vn -0.0000 -1.0000 -0.0000
vn -0.3474 0.4194 -0.8387
vn 0.3474 0.4194 -0.8387
vn 0.8387 0.4194 -0.3474
vn 0.8387 0.4194 0.3474
vn 0.3474 0.4194 0.8387
vn -0.8387 0.4194 -0.3474
vn -0.8387 0.4194 0.3474
vn -0.3474 0.4194 0.8387
vn -0.0000 1.0000 -0.0000
vn -0.7071 0.7071 -0.0000
vn 1.0000 -0.0000 -0.0000
vn -0.7071 -0.7071 -0.0000
vn -0.0000 -0.0000 -1.0000
vn -0.0000 -0.0000 1.0000
vn -0.9487 0.3162 -0.0000
vn -0.0000 0.7071 -0.7071
vn -0.0000 0.7071 0.7071
vn -0.0000 -0.7071 0.7071
vn -0.0000 0.3162 0.9487
vn 0.2588 -0.0000 -0.9659
vn -0.0000 -0.7071 -0.7071
vn 0.7071 -0.0000 0.7071
vn -0.7071 -0.0000 0.7071
vn -0.9659 -0.0000 0.2588
vn 0.7071 -0.0000 -0.7071
vn 0.9659 -0.0000 -0.2588
vn 0.7071 -0.7071 -0.0000
vn 0.2588 -0.0000 0.9659
vn -0.2588 -0.0000 0.9659
vn -0.6485 -0.3986 -0.6485
vn 0.6485 -0.3986 -0.6485
vn -0.2374 -0.3986 -0.8859
vn -0.2374 -0.3986 0.8859
vn 0.6485 -0.3986 0.6485
vn 0.2374 -0.3986 0.8859
vn -0.8859 -0.3986 -0.2374
vn 0.6367 -0.4349 -0.6367
vn 0.2374 -0.3986 -0.8859
vn 0.8859 -0.3986 -0.2374
vn -0.6485 -0.3986 0.6485
vn 0.8859 -0.3986 0.2374
vn -0.2331 -0.4349 -0.8698
vn -0.9559 0.1434 0.2561
vn 0.9559 0.1434 0.2561
vn 0.6998 0.1434 -0.6998
vn 0.2561 0.1434 -0.9559
vn -0.8859 -0.3986 0.2374
vn -0.9559 0.1434 -0.2561
vn 0.2561 0.1434 0.9559
vn -0.6998 0.1434 -0.6998
vn 0.9559 0.1434 -0.2561
vn -0.2561 0.1434 0.9559
vn -0.6998 0.1434 0.6998
vn -0.2561 0.1434 -0.9559
vn -0.2331 -0.4349 0.8698
vn -0.6367 -0.4349 0.6367
vn -0.8698 -0.4349 0.2331
vn -0.8698 -0.4349 -0.2331
vn 0.2331 -0.4349 -0.8698
vn 0.6367 -0.4349 0.6367
vn -0.6367 -0.4349 -0.6367
vn 0.2331 -0.4349 0.8698
vn 0.8698 -0.4349 -0.2331
vn 0.8698 -0.4349 0.2331
vn -0.7071 -0.0000 -0.7071
vn 0.9659 -0.0000 0.2588
vn 0.9487 0.3162 -0.0000
vn -0.9659 -0.0000 -0.2588
vn -0.0000 0.3162 -0.9487
vn 0.6998 0.1434 0.6998
s 0
f 10//1 285//1 270//1
f 44//2 27//2 46//2
f 12//3 301//3 285//3
f 221//4 323//4 330//4
f 3//2 20//2 1//2
f 236//4 215//4 222//4
f 1//5 22//5 15//5
f 198//6 299//6 314//6
f 205//7 188//7 207//7
f 52//8 55//8 56//8
f 9//9 17//9 7//9
f 138//10 115//10 137//10
f 40//6 33//6 42//6
f 80//11 70//11 74//11
f 9//12 11//12 15//12
f 40//9 26//9 32//9
f 224//2 215//2 212//2
f 10//13 23//13 12//13
f 12//14 23//14 14//14
f 14//15 23//15 16//15
f 16//16 23//16 2//16
f 2//17 23//17 4//17
f 8//18 23//18 10//18
f 6//19 23//19 8//19
f 4//20 23//20 6//20
f 47//16 28//16 45//16
f 45//17 28//17 43//17
f 43//20 28//20 41//20
f 49//15 28//15 47//15
f 35//14 28//14 49//14
f 37//13 28//13 35//13
f 39//18 28//18 37//18
f 41//19 28//19 39//19
f 130//21 120//21 136//21
f 201//4 187//4 193//4
f 202//2 307//2 329//2
f 228//3 220//3 230//3
f 210//1 308//1 310//1
f 59//11 62//11 60//11
f 14//7 318//7 301//7
f 230//1 213//1 232//1
f 8//9 270//9 317//9
f 43//4 332//4 313//4
f 45//2 313//2 275//2
f 206//7 319//7 294//7
f 211//9 190//9 197//9
f 39//9 321//9 322//9
f 232//9 216//9 234//9
f 41//6 322//6 332//6
f 58//21 52//21 56//21
f 196//9 310//9 299//9
f 68//22 71//22 72//22
f 53//12 55//12 51//12
f 35//3 292//3 311//3
f 75//23 78//23 76//23
f 48//7 31//7 50//7
f 53//24 60//24 57//24
f 64//25 58//25 62//25
f 54//26 63//26 61//26
f 56//25 57//25 58//25
f 54//26 53//26 52//26
f 74//21 68//21 72//21
f 61//27 66//27 62//27
f 84//28 87//28 88//28
f 69//12 71//12 67//12
f 64//23 54//23 58//23
f 83//12 89//12 87//12
f 66//21 63//21 64//21
f 226//7 219//7 228//7
f 80//26 74//26 78//26
f 70//25 79//25 77//25
f 72//26 73//26 74//26
f 70//25 69//25 68//25
f 100//29 103//29 104//29
f 91//26 94//26 92//26
f 201//2 194//2 203//2
f 203//5 195//5 205//5
f 88//21 86//21 84//21
f 107//25 110//25 108//25
f 49//7 324//7 292//7
f 85//30 92//30 89//30
f 96//11 90//11 94//11
f 86//23 95//23 93//23
f 88//11 89//11 90//11
f 86//23 85//23 84//23
f 106//21 100//21 104//21
f 93//31 98//31 94//31
f 116//32 117//32 115//32
f 101//12 103//12 99//12
f 96//25 86//25 90//25
f 47//5 275//5 324//5
f 82//21 79//21 80//21
f 101//33 108//33 105//33
f 112//23 106//23 110//23
f 102//11 111//11 109//11
f 104//23 105//23 106//23
f 102//11 101//11 100//11
f 124//34 125//34 123//34
f 112//26 102//26 106//26
f 96//21 97//21 95//21
f 130//35 131//35 129//35
f 132//36 133//36 131//36
f 118//37 119//37 117//37
f 120//38 121//38 119//38
f 223//2 330//2 296//2
f 69//39 76//39 73//39
f 126//40 127//40 125//40
f 262//5 280//5 273//5
f 6//6 317//6 300//6
f 128//41 129//41 127//41
f 125//42 143//42 123//42
f 179//12 185//12 181//12
f 129//43 147//43 146//43
f 125//44 145//44 144//44
f 117//45 139//45 115//45
f 135//46 150//46 149//46
f 137//47 139//47 150//47
f 123//48 142//48 121//48
f 155//49 180//49 156//49
f 129//50 145//50 127//50
f 131//51 148//51 147//51
f 117//52 141//52 140//52
f 135//53 148//53 133//53
f 158//54 181//54 182//54
f 11//3 25//3 19//3
f 155//55 166//55 154//55
f 159//56 172//56 171//56
f 162//57 173//57 161//57
f 174//58 151//58 164//58
f 119//59 142//59 141//59
f 153//60 166//60 165//60
f 157//61 170//61 169//61
f 152//62 165//62 163//62
f 160//63 173//63 172//63
f 168//64 157//64 169//64
f 156//65 167//65 155//65
f 151//66 163//66 164//66
f 162//67 176//67 151//67
f 162//68 185//68 186//68
f 161//69 184//69 185//69
f 159//70 184//70 160//70
f 146//12 150//12 142//12
f 156//71 181//71 157//71
f 153//72 175//72 177//72
f 159//73 182//73 183//73
f 152//74 176//74 175//74
f 155//75 178//75 179//75
f 153//76 178//76 154//76
f 208//14 189//14 206//14
f 206//15 189//15 204//15
f 204//16 189//16 202//16
f 210//13 189//13 208//13
f 196//18 189//18 210//18
f 198//19 189//19 196//19
f 200//20 189//20 198//20
f 202//17 189//17 200//17
f 38//1 29//1 26//1
f 226//5 212//5 218//5
f 136//77 137//77 135//77
f 122//78 123//78 121//78
f 42//4 34//4 44//4
f 50//3 29//3 36//3
f 114//21 111//21 112//21
f 13//7 22//7 25//7
f 37//1 311//1 321//1
f 204//5 329//5 319//5
f 77//79 82//79 78//79
f 227//7 303//7 277//7
f 225//5 296//5 303//5
f 200//4 314//4 307//4
f 46//5 30//5 48//5
f 234//6 217//6 236//6
f 233//18 214//18 231//18
f 231//13 214//13 229//13
f 229//14 214//14 227//14
f 235//19 214//19 233//19
f 221//20 214//20 235//20
f 223//17 214//17 221//17
f 225//16 214//16 223//16
f 227//15 214//15 225//15
f 199//6 190//6 187//6
f 207//3 191//3 209//3
f 2//2 284//2 269//2
f 208//3 294//3 308//3
f 134//80 135//80 133//80
f 231//1 290//1 282//1
f 209//1 192//1 211//1
f 7//6 24//6 5//6
f 235//6 291//6 323//6
f 229//3 277//3 290//3
f 233//9 282//9 291//9
f 4//4 300//4 284//4
f 109//81 114//81 110//81
f 9//12 1//12 7//12
f 5//4 21//4 3//4
f 11//1 18//1 9//1
f 46//12 44//12 40//12
f 207//12 205//12 201//12
f 232//12 230//12 226//12
f 206//7 204//7 319//7
f 252//7 276//7 298//7
f 296//2 257//2 242//2
f 310//1 258//1 244//1
f 205//7 195//7 188//7
f 53//24 59//24 60//24
f 203//5 194//5 195//5
f 45//2 43//2 313//2
f 237//2 289//2 280//2
f 273//5 1//5 15//5
f 88//21 90//21 86//21
f 314//6 250//6 266//6
f 201//2 193//2 194//2
f 198//6 196//6 299//6
f 158//82 171//82 170//82
f 3//12 5//12 7//12
f 316//1 36//1 38//1
f 11//12 13//12 15//12
f 1//12 3//12 7//12
f 248//3 271//3 288//3
f 264//1 328//1 325//1
f 251//9 325//9 297//9
f 239//7 272//7 271//7
f 58//21 54//21 52//21
f 325//1 230//1 232//1
f 232//9 213//9 216//9
f 3//2 21//2 20//2
f 330//4 249//4 257//4
f 241//5 278//5 276//5
f 74//21 70//21 68//21
f 8//9 10//9 270//9
f 230//1 220//1 213//1
f 91//26 93//26 94//26
f 14//7 16//7 318//7
f 285//3 254//3 246//3
f 260//1 288//1 316//1
f 61//27 65//27 66//27
f 300//6 261//6 253//6
f 280//2 3//2 1//2
f 321//1 248//1 260//1
f 298//7 226//7 228//7
f 236//4 217//4 215//4
f 221//4 235//4 323//4
f 196//9 210//9 310//9
f 284//4 253//4 245//4
f 60//25 62//25 58//25
f 66//25 64//25 62//25
f 65//26 61//26 63//26
f 59//26 54//26 61//26
f 60//25 58//25 57//25
f 56//25 55//25 57//25
f 51//26 52//26 53//26
f 54//26 59//26 53//26
f 319//5 265//5 243//5
f 291//9 264//9 251//9
f 277//7 241//7 252//7
f 290//3 252//3 267//3
f 1//5 20//5 22//5
f 12//3 14//3 301//3
f 68//22 67//22 71//22
f 292//7 240//7 239//7
f 76//26 78//26 74//26
f 82//26 80//26 78//26
f 81//25 77//25 79//25
f 75//25 70//25 77//25
f 76//26 74//26 73//26
f 72//26 71//26 73//26
f 67//25 68//25 69//25
f 70//25 75//25 69//25
f 303//5 242//5 241//5
f 44//2 34//2 27//2
f 40//6 32//6 33//6
f 332//6 263//6 247//6
f 80//11 79//11 70//11
f 10//1 12//1 285//1
f 84//28 83//28 87//28
f 322//9 260//9 263//9
f 92//11 94//11 90//11
f 98//11 96//11 94//11
f 97//23 93//23 95//23
f 91//23 86//23 93//23
f 92//11 90//11 89//11
f 88//11 87//11 89//11
f 83//23 84//23 85//23
f 86//23 91//23 85//23
f 307//4 266//4 268//4
f 294//7 243//7 259//7
f 269//2 245//2 237//2
f 275//2 255//2 256//2
f 40//9 38//9 26//9
f 270//1 246//1 238//1
f 53//12 57//12 55//12
f 313//4 247//4 255//4
f 108//23 110//23 106//23
f 114//23 112//23 110//23
f 113//11 109//11 111//11
f 107//11 102//11 109//11
f 108//23 106//23 105//23
f 104//23 103//23 105//23
f 99//11 100//11 101//11
f 102//11 107//11 101//11
f 308//3 259//3 258//3
f 224//2 222//2 215//2
f 69//12 73//12 71//12
f 210//1 208//1 308//1
f 282//1 267//1 264//1
f 130//21 128//21 120//21
f 64//23 63//23 54//23
f 228//3 219//3 220//3
f 323//6 251//6 249//6
f 201//4 199//4 187//4
f 120//21 118//21 136//21
f 116//21 138//21 136//21
f 136//21 134//21 132//21
f 132//21 130//21 136//21
f 128//21 126//21 124//21
f 124//21 122//21 128//21
f 118//21 116//21 136//21
f 245//4 287//4 289//4
f 128//21 122//21 120//21
f 329//2 268//2 265//2
f 83//12 85//12 89//12
f 279//5 203//5 205//5
f 150//12 139//12 142//12
f 140//12 141//12 142//12
f 142//12 143//12 146//12
f 144//12 145//12 146//12
f 146//12 147//12 148//12
f 148//12 149//12 150//12
f 139//12 140//12 142//12
f 143//12 144//12 146//12
f 247//6 320//6 286//6
f 278//2 222//2 224//2
f 309//4 236//4 222//4
f 287//6 7//6 5//6
f 331//4 199//4 201//4
f 272//5 46//5 48//5
f 326//2 201//2 203//2
f 318//5 237//5 262//5
f 328//3 228//3 230//3
f 312//3 207//3 209//3
f 293//6 234//6 236//6
f 274//7 15//7 13//7
f 255//4 286//4 305//4
f 177//12 175//12 176//12
f 176//12 186//12 185//12
f 185//12 184//12 183//12
f 183//12 182//12 181//12
f 181//12 180//12 179//12
f 179//12 178//12 177//12
f 177//12 176//12 185//12
f 185//12 183//12 181//12
f 250//9 283//9 295//9
f 302//3 13//3 11//3
f 315//7 205//7 207//7
f 295//9 211//9 197//9
f 320//9 38//9 40//9
f 304//1 11//1 9//1
f 283//1 209//1 211//1
f 327//6 197//6 199//6
f 289//4 5//4 3//4
f 305//4 42//4 44//4
f 281//9 9//9 7//9
f 286//6 40//6 42//6
f 306//2 44//2 46//2
f 244//1 312//1 283//1
f 259//7 279//7 315//7
f 256//2 305//2 306//2
f 266//6 295//6 327//6
f 263//9 316//9 320//9
f 261//9 304//9 281//9
f 246//3 274//3 302//3
f 238//1 302//1 304//1
f 254//7 273//7 274//7
f 257//4 293//4 309//4
f 265//2 331//2 326//2
f 267//3 298//3 328//3
f 240//5 306//5 272//5
f 66//21 65//21 63//21
f 59//11 61//11 62//11
f 43//4 41//4 332//4
f 288//3 50//3 36//3
f 35//3 49//3 292//3
f 258//3 315//3 312//3
f 41//6 39//6 322//6
f 299//9 244//9 250//9
f 311//3 239//3 248//3
f 138//10 116//10 115//10
f 100//29 99//29 103//29
f 75//23 77//23 78//23
f 253//6 281//6 287//6
f 39//9 37//9 321//9
f 249//6 297//6 293//6
f 242//2 309//2 278//2
f 211//9 192//9 190//9
f 48//7 30//7 31//7
f 202//2 200//2 307//2
f 301//7 262//7 254//7
f 226//7 218//7 219//7
f 268//4 327//4 331//4
f 9//9 18//9 17//9
f 297//9 232//9 234//9
f 271//7 48//7 50//7
f 324//5 256//5 240//5
f 317//9 238//9 261//9
f 276//5 224//5 226//5
f 243//5 326//5 279//5
f 52//8 51//8 55//8
f 40//12 38//12 36//12
f 36//12 50//12 40//12
f 48//12 46//12 40//12
f 44//12 42//12 40//12
f 40//12 50//12 48//12
f 201//12 199//12 197//12
f 197//12 211//12 201//12
f 209//12 207//12 201//12
f 205//12 203//12 201//12
f 201//12 211//12 209//12
f 226//12 224//12 222//12
f 222//12 236//12 226//12
f 234//12 232//12 226//12
f 230//12 228//12 226//12
f 226//12 236//12 234//12
f 16//5 269//5 318//5
f 107//25 109//25 110//25
f 49//7 47//7 324//7
f 85//30 91//30 92//30
f 106//21 102//21 100//21
f 93//31 97//31 98//31
f 116//32 118//32 117//32
f 101//12 105//12 103//12
f 96//25 95//25 86//25
f 47//5 45//5 275//5
f 82//21 81//21 79//21
f 101//33 107//33 108//33
f 124//34 126//34 125//34
f 112//26 111//26 102//26
f 96//21 98//21 97//21
f 130//35 132//35 131//35
f 132//36 134//36 133//36
f 118//37 120//37 119//37
f 120//38 122//38 121//38
f 223//2 221//2 330//2
f 69//39 75//39 76//39
f 126//40 128//40 127//40
f 262//5 237//5 280//5
f 6//6 8//6 317//6
f 128//41 130//41 129//41
f 125//42 144//42 143//42
f 179//12 177//12 185//12
f 129//43 131//43 147//43
f 125//44 127//44 145//44
f 117//45 140//45 139//45
f 135//46 137//46 150//46
f 137//47 115//47 139//47
f 123//48 143//48 142//48
f 155//49 179//49 180//49
f 129//50 146//50 145//50
f 131//51 133//51 148//51
f 117//52 119//52 141//52
f 135//53 149//53 148//53
f 158//54 157//54 181//54
f 11//3 13//3 25//3
f 155//55 167//55 166//55
f 159//56 160//56 172//56
f 162//57 174//57 173//57
f 174//58 162//58 151//58
f 119//59 121//59 142//59
f 153//60 154//60 166//60
f 157//61 158//61 170//61
f 152//62 153//62 165//62
f 160//63 161//63 173//63
f 168//64 156//64 157//64
f 156//65 168//65 167//65
f 151//66 152//66 163//66
f 162//67 186//67 176//67
f 162//68 161//68 185//68
f 161//69 160//69 184//69
f 159//70 183//70 184//70
f 146//12 148//12 150//12
f 156//71 180//71 181//71
f 153//72 152//72 175//72
f 159//73 158//73 182//73
f 152//74 151//74 176//74
f 155//75 154//75 178//75
f 153//76 177//76 178//76
f 38//1 36//1 29//1
f 226//5 224//5 212//5
f 136//77 138//77 137//77
f 122//78 124//78 123//78
f 42//4 33//4 34//4
f 50//3 31//3 29//3
f 114//21 113//21 111//21
f 13//7 15//7 22//7
f 37//1 35//1 311//1
f 204//5 202//5 329//5
f 77//79 81//79 82//79
f 227//7 225//7 303//7
f 225//5 223//5 296//5
f 200//4 198//4 314//4
f 46//5 27//5 30//5
f 234//6 216//6 217//6
f 199//6 197//6 190//6
f 207//3 188//3 191//3
f 2//2 4//2 284//2
f 208//3 206//3 294//3
f 134//80 136//80 135//80
f 231//1 229//1 290//1
f 209//1 191//1 192//1
f 7//6 17//6 24//6
f 235//6 233//6 291//6
f 229//3 227//3 277//3
f 233//9 231//9 282//9
f 4//4 6//4 300//4
f 109//81 113//81 114//81
f 9//12 15//12 1//12
f 5//4 24//4 21//4
f 11//1 19//1 18//1
f 252//7 241//7 276//7
f 296//2 330//2 257//2
f 310//1 308//1 258//1
f 237//2 245//2 289//2
f 273//5 280//5 1//5
f 314//6 299//6 250//6
f 158//82 159//82 171//82
f 316//1 288//1 36//1
f 248//3 239//3 271//3
f 264//1 267//1 328//1
f 251//9 264//9 325//9
f 239//7 240//7 272//7
f 325//1 328//1 230//1
f 330//4 323//4 249//4
f 241//5 242//5 278//5
f 285//3 301//3 254//3
f 260//1 248//1 288//1
f 300//6 317//6 261//6
f 280//2 289//2 3//2
f 321//1 311//1 248//1
f 298//7 276//7 226//7
f 284//4 300//4 253//4
f 319//5 329//5 265//5
f 291//9 282//9 264//9
f 277//7 303//7 241//7
f 290//3 277//3 252//3
f 292//7 324//7 240//7
f 303//5 296//5 242//5
f 332//6 322//6 263//6
f 322//9 321//9 260//9
f 307//4 314//4 266//4
f 294//7 319//7 243//7
f 269//2 284//2 245//2
f 275//2 313//2 255//2
f 270//1 285//1 246//1
f 313//4 332//4 247//4
f 308//3 294//3 259//3
f 282//1 290//1 267//1
f 323//6 291//6 251//6
f 245//4 253//4 287//4
f 329//2 307//2 268//2
f 279//5 326//5 203//5
f 247//6 263//6 320//6
f 278//2 309//2 222//2
f 309//4 293//4 236//4
f 287//6 281//6 7//6
f 331//4 327//4 199//4
f 272//5 306//5 46//5
f 326//2 331//2 201//2
f 318//5 269//5 237//5
f 328//3 298//3 228//3
f 312//3 315//3 207//3
f 293//6 297//6 234//6
f 274//7 273//7 15//7
f 255//4 247//4 286//4
f 250//9 244//9 283//9
f 302//3 274//3 13//3
f 315//7 279//7 205//7
f 295//9 283//9 211//9
f 320//9 316//9 38//9
f 304//1 302//1 11//1
f 283//1 312//1 209//1
f 327//6 295//6 197//6
f 289//4 287//4 5//4
f 305//4 286//4 42//4
f 281//9 304//9 9//9
f 286//6 320//6 40//6
f 306//2 305//2 44//2
f 244//1 258//1 312//1
f 259//7 243//7 279//7
f 256//2 255//2 305//2
f 266//6 250//6 295//6
f 263//9 260//9 316//9
f 261//9 238//9 304//9
f 246//3 254//3 274//3
f 238//1 246//1 302//1
f 254//7 262//7 273//7
f 257//4 249//4 293//4
f 265//2 268//2 331//2
f 267//3 252//3 298//3
f 240//5 256//5 306//5
f 288//3 271//3 50//3
f 258//3 259//3 315//3
f 299//9 310//9 244//9
f 311//3 292//3 239//3
f 253//6 261//6 281//6
f 249//6 251//6 297//6
f 242//2 257//2 309//2
f 301//7 318//7 262//7
f 268//4 266//4 327//4
f 297//9 325//9 232//9
f 271//7 272//7 48//7
f 324//5 275//5 256//5
f 317//9 270//9 238//9
f 276//5 278//5 224//5
f 243//5 265//5 326//5
f 16//5 2//5 269//5
