# Blender 3.4.1
# www.blender.org
o Cylinder
v 0.08401 1.21587 0.00637
v 0.775 1.875 0
v 0.13401 1.21587 -0.08024
v 0.825 1.875 -0.0866
v 0.23401 1.21587 -0.08024
v 0.925 1.875 -0.0866
v 0.28401 1.21587 0.00637
v 0.975 1.875 0
v 0.23401 1.21587 0.09297
v 0.925 1.875 0.0866
v 0.13401 1.21587 0.09297
v 0.825 1.875 0.0866
v -0.06599 1.21587 0.00637
v -0.775 1.875 0
v -0.11599 1.21587 0.09297
v -0.825 1.875 0.0866
v -0.21599 1.21587 0.09297
v -0.925 1.875 0.0866
v -0.26599 1.21587 0.00637
v -0.975 1.875 0
v -0.21599 1.21587 -0.08024
v -0.925 1.875 -0.0866
v -0.11599 1.21587 -0.08024
v -0.825 1.875 -0.0866
v 0.00901 1.21587 -0.06863
v 0 1.875 -0.775
v -0.07759 1.21587 -0.11863
v -0.0866 1.875 -0.825
v -0.07759 1.21587 -0.21863
v -0.0866 1.875 -0.925
v 0.00901 1.21587 -0.26863
v 0 1.875 -0.975
v 0.09562 1.21587 -0.21863
v 0.0866 1.875 -0.925
v 0.09562 1.21587 -0.11863
v 0.0866 1.875 -0.825
v 0.00901 1.21587 0.08137
v 0 1.875 0.775
v 0.09562 1.21587 0.13137
v 0.0866 1.875 0.825
v 0.09562 1.21587 0.23137
v 0.0866 1.875 0.925
v 0.00901 1.21587 0.28137
v 0 1.875 0.975
v -0.07759 1.21587 0.23137
v -0.0866 1.875 0.925
v -0.07759 1.21587 0.13137
v -0.0866 1.875 0.825
v 0 1.875 -1
v 0 2 -1
v 0.5 1.875 -0.86603
v 0.5 2 -0.86603
v 0.86603 1.875 -0.5
v 0.86603 2 -0.5
v 1 1.875 0
v 1 2 0
v 0.86603 1.875 0.5
v 0.86603 2 0.5
v 0.5 1.875 0.86603
v 0.5 2 0.86603
v 0 1.875 1
v 0 2 1
v -0.5 1.875 0.86603
v -0.5 2 0.86603
v -0.86603 1.875 0.5
v -0.86603 2 0.5
v -1 1.875 0
v -1 2 0
v -0.86603 1.875 -0.5
v -0.86603 2 -0.5
v -0.5 1.875 -0.86603
v -0.5 2 -0.86603
v 0 2.0125 -0.35
v 0.175 2.0125 -0.30311
v 0.30311 2.0125 -0.175
v 0.35 2.0125 0
v 0.30311 2.0125 0.175
v 0.175 2.0125 0.30311
v 0 2.0125 0.35
v -0.175 2.0125 0.30311
v -0.30311 2.0125 0.175
v -0.35 2.0125 0
v -0.30311 2.0125 -0.175
v -0.175 2.0125 -0.30311
v 0 1.4875 -0.35
v 0.175 1.4875 -0.30311
v 0.30311 1.4875 -0.175
v 0.35 1.4875 0
v 0.30311 1.4875 0.175
v 0.175 1.4875 0.30311
v 0 1.4875 0.35
v -0.175 1.4875 0.30311
v -0.30311 1.4875 0.175
v -0.35 1.4875 0
v -0.30311 1.4875 -0.175
v -0.175 1.4875 -0.30311
v 0 1.3125 -0.2625
v 0.13125 1.3125 -0.22733
v 0.22733 1.3125 -0.13125
v 0.2625 1.3125 0
v 0.22733 1.3125 0.13125
v 0.13125 1.3125 0.22733
v 0 1.3125 0.2625
v -0.13125 1.3125 0.22733
v -0.22733 1.3125 0.13125
v -0.2625 1.3125 0
v -0.22733 1.3125 -0.13125
v -0.13125 1.3125 -0.22733
v 0 0 -0.595
v 0.2975 0 -0.51528
v 0.51528 0 -0.2975
v 0.595 0 0
v 0.51528 -0 0.2975
v 0.2975 -0 0.51528
v 0 -0 0.595
v -0.2975 -0 0.51528
v -0.51528 -0 0.2975
v -0.595 0 0
v -0.51528 0 -0.2975
v -0.2975 0 -0.51528
v 0 0.7875 -0.49686
v 0.24843 0.7875 -0.43029
v 0.43029 0.7875 -0.24843
v 0.49686 0.7875 0
v 0.43029 0.7875 0.24843
v 0.24843 0.7875 0.43029
v 0 0.7875 0.49686
v -0.24843 0.7875 0.43029
v -0.43029 0.7875 0.24843
v -0.49686 0.7875 0
v -0.43029 0.7875 -0.24843
v -0.24843 0.7875 -0.43029
v -0.2975 0.35 -0.51528
v -0.51528 0.35 -0.2975
v -0.595 0.35 0
v -0.51528 0.35 0.2975
v -0.2975 0.35 0.51528
v 0 0.35 0.595
v 0.2975 0.35 0.51528
v 0.51528 0.35 0.2975
v 0.595 0.35 0
v 0.51528 0.35 -0.2975
v 0.2975 0.35 -0.51528
v 0 0.35 -0.595
v 0 0 -0.50575
v 0.25288 0 -0.43799
v 0.43799 0 -0.25288
v 0.50575 0 0
v 0.43799 -0 0.25288
v 0.25288 -0 0.43799
v 0 -0 0.50575
v -0.25288 -0 0.43799
v -0.43799 -0 0.25288
v -0.50575 0 0
v -0.43799 0 -0.25288
v -0.25288 0 -0.43799
v 0 1.225 -0.22759
v 0.11379 1.225 -0.1971
v 0.1971 1.225 -0.11379
v 0.22759 1.225 0
v 0.1971 1.225 0.11379
v 0.11379 1.225 0.1971
v 0 1.225 0.22759
v -0.11379 1.225 0.1971
v -0.1971 1.225 0.11379
v -0.22759 1.225 0
v -0.1971 1.225 -0.11379
v -0.11379 1.225 -0.1971
v -0.43301 2 0.25
v -0 2 -0.5
v 0.25 1.875 0.43301
v 0.25 1.875 -0.43301
vn 0.3708 -0.6708 0.6423
vn -0.0000 -0.0097 -1.0000
vn 0.3652 0.6829 0.6326
vn -0.6427 0.6702 -0.3711
vn 0.6397 -0.6741 -0.3693
vn -0.0000 0.0097 1.0000
vn -0.6321 -0.6835 -0.3650
vn 0.3677 -0.6776 -0.6369
vn 0.6427 -0.6702 0.3711
vn -0.6352 -0.6797 0.3667
vn -0.0000 1.0000 -0.0000
vn -0.9999 -0.0137 -0.0000
vn 0.6321 0.6835 0.3650
vn -0.3677 0.6776 0.6369
vn -0.3652 -0.6829 -0.6326
vn 0.9999 0.0137 -0.0000
vn -0.6397 0.6741 0.3693
vn -0.3708 0.6708 -0.6423
vn 0.3683 0.6763 -0.6379
vn 0.6352 0.6797 -0.3667
vn 0.7071 -0.0000 0.7071
vn 0.9659 -0.0000 -0.2588
vn -0.9659 -0.0000 -0.2588
vn 0.7071 -0.0000 -0.7071
vn -0.9659 -0.0000 0.2588
vn 0.9659 -0.0000 0.2588
vn 0.2588 -0.0000 -0.9659
vn -0.7071 -0.0000 -0.7071
vn -0.0000 -1.0000 -0.0000
vn -0.2588 -0.0000 -0.9659
vn -0.2331 -0.4349 0.8698
vn -0.2588 -0.0000 0.9659
vn -0.7071 -0.0000 0.7071
vn -0.2377 0.3959 0.8870
vn 0.2331 -0.4349 0.8698
vn -0.8698 -0.4349 -0.2331
vn 0.8698 -0.4349 -0.2331
vn -0.8698 -0.4349 0.2331
vn 0.6367 -0.4349 -0.6367
vn 0.8698 -0.4349 0.2331
vn -0.6367 -0.4349 0.6367
vn -0.6367 -0.4349 -0.6367
vn -0.2331 -0.4349 -0.8698
vn 0.2331 -0.4349 -0.8698
vn -0.6911 0.2118 0.6911
vn -0.8870 0.3959 -0.2377
vn 0.8870 0.3959 0.2377
vn -0.8870 0.3960 0.2377
vn 0.6493 0.3959 0.6493
vn -0.6493 0.3960 0.6493
vn 0.6493 0.3960 -0.6493
vn -0.2377 0.3960 -0.8870
vn 0.2377 0.3959 0.8870
vn 0.6367 -0.4349 0.6367
vn -0.6493 0.3959 -0.6493
vn 0.2377 0.3959 -0.8870
vn 0.6911 0.2118 -0.6911
vn 0.2588 -0.0000 0.9659
vn -0.9440 0.2118 -0.2529
vn 0.2529 0.2118 -0.9440
vn 0.9440 0.2118 0.2529
vn -0.2529 0.2118 -0.9440
vn -0.6907 -0.2142 0.6907
vn 0.6911 0.2118 0.6911
vn 0.9440 0.2118 -0.2529
vn 0.2530 0.2118 0.9440
vn -0.2530 0.2118 0.9440
vn -0.9440 0.2118 0.2529
vn -0.6911 0.2118 -0.6911
vn 0.8870 0.3959 -0.2377
vn -0.3683 -0.6763 0.6379
vn 0.6907 -0.2142 0.6907
vn 0.9435 -0.2142 -0.2528
vn -0.2528 -0.2142 -0.9435
vn -0.9435 -0.2142 0.2528
vn 0.9435 -0.2142 0.2528
vn 0.2528 -0.2142 -0.9435
vn -0.9435 -0.2142 -0.2528
vn 0.6907 -0.2142 -0.6907
vn -0.2528 -0.2142 0.9435
vn -0.6907 -0.2142 -0.6907
vn 0.2528 -0.2142 0.9435
vn -0.2529 0.2118 0.9440
vn 0.2529 0.2118 0.9440
vn 0.2377 0.3960 -0.8870
vn -0.6493 0.3960 -0.6493
vn -0.6493 0.3959 0.6493
vn -0.8870 0.3959 0.2377
vn 0.6493 0.3959 -0.6493
vn -0.2377 0.3959 -0.8870
vt 0.49091 0.28182
vt 0.43636 0.28182
vt 0.49091 0.42727
vt 0.43636 0.42727
vt 0.48182 0.28182
vt 0.48182 0.42727
vt 0.47273 0.28182
vt 0.47273 0.42727
vt 0.46364 0.28182
vt 0.46364 0.42727
vt 0.45454 0.28182
vt 0.45454 0.42727
vt 0.44545 0.28182
vt 0.44545 0.42727
vt 0.49091 0.28182
vt 0.43636 0.28182
vt 0.49091 0.42727
vt 0.43636 0.42727
vt 0.48182 0.28182
vt 0.48182 0.42727
vt 0.47273 0.28182
vt 0.47273 0.42727
vt 0.46364 0.28182
vt 0.46364 0.42727
vt 0.45454 0.28182
vt 0.45454 0.42727
vt 0.44545 0.28182
vt 0.44545 0.42727
vt 0.43636 0.28182
vt 0.49091 0.28182
vt 0.49091 0.42727
vt 0.43636 0.42727
vt 0.48182 0.28182
vt 0.48182 0.42727
vt 0.47273 0.28182
vt 0.47273 0.42727
vt 0.46364 0.28182
vt 0.46364 0.42727
vt 0.45454 0.28182
vt 0.45454 0.42727
vt 0.44545 0.28182
vt 0.44545 0.42727
vt 0.43636 0.28182
vt 0.49091 0.28182
vt 0.43636 0.42727
vt 0.49091 0.42727
vt 0.48182 0.28182
vt 0.48182 0.42727
vt 0.47273 0.28182
vt 0.47273 0.42727
vt 0.46364 0.28182
vt 0.46364 0.42727
vt 0.45454 0.28182
vt 0.45454 0.42727
vt 0.44545 0.28182
vt 0.44545 0.42727
vt 0.55882 0.66161
vt 0.65455 0.42727
vt 0.29025 0.59091
vt 0.65455 0.44545
vt 0.58182 0.42727
vt 0.50706 0.71337
vt 0.27085 0.51851
vt 0.58182 0.44545
vt 0.43636 0.73231
vt 0.50909 0.42727
vt 0.21785 0.46551
vt 0.50909 0.44545
vt 0.43636 0.42727
vt 0.36566 0.71337
vt 0.14546 0.44611
vt 0.43636 0.44545
vt 0.31391 0.66161
vt 0.36364 0.42727
vt 0.07306 0.46551
vt 0.36364 0.44545
vt 0.29091 0.42727
vt 0.29496 0.59091
vt 0.02006 0.51851
vt 0.29091 0.44545
vt 0.31391 0.52021
vt 0.21818 0.42727
vt 0.21818 0.44545
vt 0.00066 0.59091
vt 0.14546 0.42727
vt 0.36566 0.46845
vt 0.02006 0.66331
vt 0.14546 0.44545
vt 0.43636 0.44951
vt 0.07273 0.42727
vt 0.07273 0.44545
vt 0.07306 0.71631
vt 0.87273 0.42727
vt -0 0.42727
vt 0.50706 0.46845
vt 0.14545 0.73571
vt 0.87273 0.44545
vt -0 0.44545
vt 0.8 0.42727
vt 0.55882 0.52021
vt 0.8 0.44545
vt 0.21785 0.71631
vt 0.72727 0.42727
vt 0.57777 0.59091
vt 0.27085 0.66331
vt 0.72727 0.44545
vt 0.32727 0.42727
vt 0.29091 0.42727
vt 0.25455 0.42727
vt 0.21818 0.42727
vt 0.18182 0.42727
vt 0.14546 0.42727
vt 0.10909 0.42727
vt 0.07273 0.42727
vt 0.03636 0.42727
vt 0.43636 0.42727
vt -0 0.42727
vt 0.4 0.42727
vt 0.36364 0.42727
vt 0.32727 0.31818
vt 0.29091 0.31818
vt 0.25455 0.31818
vt 0.21818 0.31818
vt 0.18182 0.31818
vt 0.14546 0.31818
vt 0.10909 0.31818
vt 0.07273 0.31818
vt 0.03636 0.31818
vt 0.43636 0.31818
vt 0 0.31818
vt 0.4 0.31818
vt 0.36364 0.31818
vt 0.33636 0.28182
vt 0.55454 0.28182
vt 0.32727 0.28182
vt 0.59091 0.28182
vt 0.49091 0.28182
vt 0.29091 0.28182
vt 0.52727 0.28182
vt 0.3 0.28182
vt 0.42727 0.28182
vt 0.26364 0.28182
vt 0.25455 0.28182
vt 0.46364 0.28182
vt 0.21818 0.28182
vt 0.4 0.28182
vt 0.22727 0.28182
vt 0.36364 0.28182
vt 0.18182 0.28182
vt 0.19091 0.28182
vt 0.3 0.28182
vt 0.33636 0.28182
vt 0.23636 0.28182
vt 0.14546 0.28182
vt 0.27273 0.28182
vt 0.15454 0.28182
vt 0.10909 0.28182
vt 0.11818 0.28182
vt 0.17273 0.28182
vt 0.20909 0.28182
vt 0.07273 0.28182
vt 0.08182 0.28182
vt 0.14546 0.28182
vt 0.10909 0.28182
vt 0.03636 0.28182
vt 0.04546 0.28182
vt 0.08182 0.28182
vt 0.43636 0.28182
vt 0.00909 0.28182
vt 0.01818 0.28182
vt 0.74545 0.28182
vt 0.4 0.28182
vt 0.40909 0.28182
vt 0.68182 0.28182
vt 0.71818 0.28182
vt 0.36364 0.28182
vt 0.37273 0.28182
vt 0.65455 0.28182
vt 0.61818 0.28182
vt 0.62514 0.56224
vt 0.57273 0
vt 0.65052 0.56224
vt 0.50909 0
vt 0.67249 0.57493
vt 0.44545 0
vt 0.38182 -0
vt 0.68518 0.59691
vt 0.68518 0.62229
vt 0.31818 -0
vt 0.25455 0
vt 0.67249 0.64426
vt 0.19091 0
vt 0.65052 0.65695
vt 0.12727 -0
vt 0.62514 0.65695
vt 0.06364 0
vt 0.60316 0.64426
vt -0 -0
vt 0.59047 0.62229
vt 0.76364 -0
vt 0.59047 0.59691
vt 0.7 -0
vt 0.60316 0.57493
vt 0.63636 -0
vt 0.57273 0.16364
vt 0.58182 0.16364
vt 0.51818 0.16364
vt 0.50909 0.16364
vt 0.44545 0.16364
vt 0.45454 0.16364
vt 0.39091 0.16364
vt 0.38182 0.16364
vt 0.31818 0.16364
vt 0.32727 0.16364
vt 0.26364 0.16364
vt 0.25455 0.16364
vt 0.19091 0.16364
vt 0.2 0.16364
vt 0.13636 0.16364
vt 0.12727 0.16364
vt 0.07273 0.16364
vt 0.06364 0.16364
vt 0.00909 0.16364
vt 0.76364 0.16364
vt 0.7 0.16364
vt 0.70909 0.16364
vt 0.64546 0.16364
vt 0.63636 0.16364
vt 0.63636 0.07273
vt 0.7 0.07273
vt -0 0.07273
vt 0.76364 0.07273
vt 0.06364 0.07273
vt 0.12727 0.07273
vt 0.19091 0.07273
vt 0.25455 0.07273
vt 0.31818 0.07273
vt 0.38182 0.07273
vt 0.44545 0.07273
vt 0.50909 0.07273
vt 0.57273 0.07273
vt 0.16364 0.73636
vt 0.62704 0.56935
vt 0.21818 0.73636
vt 0.64861 0.56935
vt 0.66729 0.58013
vt 0.27273 0.73636
vt 0.32727 0.73636
vt 0.67808 0.59881
vt 0.38182 0.73636
vt 0.67808 0.62038
vt 0.66729 0.63906
vt 0.43636 0.73636
vt 0.49091 0.73636
vt 0.64861 0.64985
vt 0.54546 0.73636
vt 0.62704 0.64985
vt 0.60836 0.63906
vt 0.6 0.73636
vt -0 0.73636
vt 0.65455 0.73636
vt 0.59758 0.62038
vt 0.59758 0.59881
vt 0.05455 0.73636
vt 0.60836 0.58013
vt 0.10909 0.73636
vt 0.16364 0.99091
vt 0.67412 0.46282
vt 0.21818 0.99091
vt 0.68773 0.4864
vt 0.27273 0.99091
vt 0.68773 0.51362
vt 0.32727 0.99091
vt 0.67412 0.53719
vt 0.38182 0.99091
vt 0.65054 0.5508
vt 0.43636 0.99091
vt 0.62332 0.5508
vt 0.49091 0.99091
vt 0.59975 0.53719
vt 0.54546 0.99091
vt 0.58614 0.51362
vt 0.6 0.99091
vt 0.58614 0.4864
vt 0.65455 0.99091
vt -0 0.99091
vt 0.59975 0.46282
vt 0.05455 0.99091
vt 0.62332 0.44921
vt 0.10909 0.99091
vt 0.65054 0.44921
vt 0.10926 0.65361
vt 0.21785 0.59091
vt 0.36566 0.59091
vt 0.47171 0.65214
s 0
f 42/50/1 43/51/1 41/49/1
f 4/6/2 6/8/2 5/7/2
f 35/41/3 26/32/3 25/29/3
f 2/3/4 3/5/4 1/1/4
f 6/8/5 7/9/5 5/7/5
f 9/11/6 10/12/6 12/14/6
f 19/23/7 22/26/7 21/25/7
f 16/20/6 18/22/6 17/21/6
f 31/37/8 34/40/8 33/39/8
f 7/9/9 10/12/9 9/11/9
f 18/22/10 19/23/10 17/21/10
f 21/25/2 22/26/2 24/28/2
f 58/75/11 170/293/11 169/292/11
f 28/34/12 30/36/12 29/35/12
f 14/17/13 15/19/13 13/15/13
f 26/31/14 27/33/14 25/30/14
f 30/36/15 31/37/15 29/35/15
f 33/39/16 34/40/16 36/42/16
f 11/13/17 2/4/17 1/2/17
f 40/48/16 42/50/16 41/49/16
f 47/55/18 38/45/18 37/43/18
f 38/46/19 39/47/19 37/44/19
f 23/27/20 14/18/20 13/16/20
f 45/53/12 46/54/12 48/56/12
f 58/76/21 59/77/21 57/74/21
f 111/185/22 141/238/22 112/186/22
f 83/118/23 94/129/23 82/116/23
f 52/64/24 53/66/24 51/61/24
f 66/91/25 67/94/25 65/90/25
f 68/97/23 69/99/23 67/93/23
f 54/68/22 55/69/22 53/66/22
f 56/72/26 57/74/26 55/69/26
f 74/108/27 85/120/27 73/107/27
f 119/202/28 133/229/28 120/204/28
f 171/294/29 172/295/29 55/70/29
f 120/204/30 144/241/30 109/181/30
f 82/117/25 93/128/25 81/115/25
f 164/282/29 168/291/29 160/274/29
f 91/126/31 104/162/31 103/157/31
f 112/186/26 140/237/26 113/189/26
f 50/60/27 51/61/27 49/58/27
f 115/192/32 137/234/32 116/194/32
f 77/111/26 88/123/26 76/110/26
f 62/83/32 63/85/32 61/82/32
f 76/110/22 87/122/22 75/109/22
f 110/183/24 142/239/24 111/185/24
f 116/194/33 136/233/33 117/196/33
f 64/88/33 65/90/33 63/85/33
f 117/196/25 135/231/25 118/198/25
f 118/200/23 134/230/23 119/202/23
f 70/101/28 71/103/28 69/99/28
f 127/217/34 104/163/34 128/219/34
f 91/126/35 102/154/35 90/125/35
f 94/129/36 107/173/36 106/168/36
f 88/123/37 99/143/37 87/122/37
f 120/203/29 155/263/29 119/201/29
f 93/128/38 106/169/38 105/165/38
f 87/122/39 98/138/39 86/121/39
f 88/123/40 101/150/40 100/145/40
f 92/127/41 105/166/41 104/161/41
f 95/131/42 108/177/42 107/172/42
f 96/132/43 97/133/43 108/176/43
f 86/121/44 97/135/44 85/120/44
f 114/191/29 151/255/29 150/252/29
f 136/233/45 128/220/45 129/221/45
f 130/224/46 107/175/46 131/226/46
f 124/212/47 101/152/47 125/214/47
f 106/170/48 129/222/48 105/166/48
f 101/151/49 126/215/49 125/213/49
f 128/220/50 105/167/50 129/221/50
f 99/144/51 122/208/51 98/137/51
f 108/179/52 121/206/52 132/228/52
f 103/160/53 126/216/53 102/153/53
f 89/124/54 102/156/54 101/149/54
f 107/174/55 132/227/55 131/225/55
f 97/134/56 122/207/56 121/205/56
f 142/239/57 122/208/57 123/210/57
f 79/113/58 90/125/58 78/112/58
f 131/226/59 135/232/59 130/224/59
f 60/80/58 61/82/58 59/77/58
f 122/207/60 144/241/60 121/205/60
f 114/190/58 138/235/58 115/192/58
f 125/214/61 141/238/61 124/212/61
f 80/114/32 91/126/32 79/113/32
f 144/241/62 132/228/62 121/206/62
f 147/247/63 158/269/63 146/244/63
f 109/181/27 143/240/27 110/183/27
f 113/189/21 139/236/21 114/190/21
f 78/112/21 89/124/21 77/111/21
f 81/115/33 92/127/33 80/114/33
f 126/215/64 140/237/64 125/213/64
f 141/238/65 123/209/65 124/211/65
f 127/218/66 139/236/66 126/216/66
f 137/234/67 127/217/67 128/219/67
f 135/231/68 129/222/68 130/223/68
f 132/227/69 134/230/69 131/225/69
f 84/119/28 95/131/28 83/118/28
f 73/107/30 96/132/30 84/119/30
f 75/109/24 86/121/24 74/108/24
f 99/141/70 124/211/70 123/209/70
f 156/265/29 109/180/29 145/243/29
f 145/243/29 110/182/29 146/245/29
f 116/195/29 151/255/29 115/193/29
f 117/197/29 154/262/29 153/258/29
f 111/184/29 148/249/29 147/246/29
f 114/191/29 149/251/29 113/188/29
f 111/184/29 146/245/29 110/182/29
f 43/51/71 46/54/71 45/53/71
f 118/199/29 155/263/29 154/262/29
f 113/188/29 148/249/29 112/187/29
f 169/292/11 170/293/11 70/102/11
f 117/197/29 152/257/29 116/195/29
f 167/288/72 156/266/72 168/290/72
f 153/259/73 166/285/73 165/283/73
f 151/254/74 162/277/74 150/253/74
f 148/248/75 159/271/75 147/247/75
f 155/264/76 166/286/76 154/260/76
f 151/254/77 164/281/77 163/279/77
f 149/250/78 160/273/78 148/248/78
f 153/259/79 164/281/79 152/256/79
f 146/244/80 157/267/80 145/242/80
f 150/253/81 161/275/81 149/250/81
f 156/266/82 157/267/82 168/290/82
f 31/37/8 32/38/8 34/40/8
f 3/5/2 4/6/2 5/7/2
f 26/31/14 28/34/14 27/33/14
f 7/9/9 8/10/9 10/12/9
f 30/36/15 32/38/15 31/37/15
f 11/13/6 9/11/6 12/14/6
f 169/292/11 62/84/11 58/75/11
f 15/19/6 16/20/6 17/21/6
f 35/41/3 36/42/3 26/32/3
f 18/22/10 20/24/10 19/23/10
f 2/3/4 4/6/4 3/5/4
f 23/27/2 21/25/2 24/28/2
f 67/95/29 172/295/29 171/294/29
f 27/33/12 28/34/12 29/35/12
f 58/75/11 54/67/11 170/293/11
f 42/50/1 44/52/1 43/51/1
f 14/17/13 16/20/13 15/19/13
f 35/41/16 33/39/16 36/42/16
f 11/13/17 12/14/17 2/4/17
f 39/47/16 40/48/16 41/49/16
f 19/23/7 20/24/7 22/26/7
f 47/55/18 48/56/18 38/45/18
f 6/8/5 8/10/5 7/9/5
f 47/55/12 45/53/12 48/56/12
f 156/265/29 120/203/29 109/180/29
f 153/259/73 154/261/73 166/285/73
f 137/234/83 138/235/83 127/217/83
f 151/254/74 163/279/74 162/277/74
f 99/141/70 100/146/70 124/211/70
f 113/188/29 149/251/29 148/249/29
f 135/231/68 136/233/68 129/222/68
f 148/248/75 160/273/75 159/271/75
f 75/109/24 87/122/24 86/121/24
f 118/199/29 119/201/29 155/263/29
f 54/67/11 52/63/11 50/59/11
f 50/59/11 72/105/11 54/67/11
f 70/102/11 68/96/11 66/92/11
f 66/92/11 64/87/11 62/84/11
f 62/84/11 60/79/11 58/75/11
f 58/75/11 56/71/11 54/67/11
f 72/105/11 170/293/11 54/67/11
f 66/92/11 169/292/11 70/102/11
f 68/97/23 70/101/23 69/99/23
f 156/266/82 145/242/82 157/267/82
f 84/119/28 96/132/28 95/131/28
f 71/104/29 49/57/29 51/62/29
f 51/62/29 53/65/29 55/70/29
f 55/70/29 57/73/29 59/78/29
f 59/78/29 61/81/29 63/86/29
f 63/86/29 65/89/29 67/95/29
f 67/95/29 69/100/29 71/104/29
f 51/62/29 172/295/29 71/104/29
f 59/78/29 171/294/29 55/70/29
f 66/91/25 68/98/25 67/94/25
f 64/88/33 66/91/33 65/90/33
f 146/244/80 158/269/80 157/267/80
f 145/243/29 109/180/29 110/182/29
f 149/250/78 161/275/78 160/273/78
f 78/112/21 90/125/21 89/124/21
f 132/227/69 133/229/69 134/230/69
f 111/184/29 147/246/29 146/245/29
f 114/191/29 150/252/29 149/251/29
f 127/218/84 138/235/84 139/236/84
f 155/264/76 167/288/76 166/286/76
f 113/189/21 140/237/21 139/236/21
f 117/197/29 118/199/29 154/262/29
f 73/107/30 85/120/30 96/132/30
f 87/122/39 99/142/39 98/138/39
f 110/183/24 143/240/24 142/239/24
f 116/194/33 137/234/33 136/233/33
f 117/196/25 136/233/25 135/231/25
f 91/126/31 92/127/31 104/162/31
f 62/83/32 64/88/32 63/85/32
f 50/60/27 52/64/27 51/61/27
f 118/200/23 135/232/23 134/230/23
f 115/192/32 138/235/32 137/234/32
f 112/186/26 141/238/26 140/237/26
f 77/111/26 89/124/26 88/123/26
f 76/110/22 88/123/22 87/122/22
f 56/72/26 58/76/26 57/74/26
f 114/190/58 139/236/58 138/235/58
f 96/132/43 85/120/43 97/133/43
f 95/131/42 96/132/42 108/177/42
f 93/128/38 94/130/38 106/169/38
f 92/127/41 93/128/41 105/166/41
f 91/126/35 103/158/35 102/154/35
f 88/123/37 100/147/37 99/143/37
f 127/217/34 103/159/34 104/163/34
f 88/123/40 89/124/40 101/150/40
f 70/101/28 72/106/28 71/103/28
f 94/129/36 95/131/36 107/173/36
f 120/203/29 156/265/29 155/263/29
f 109/181/27 144/241/27 143/240/27
f 43/51/71 44/52/71 46/54/71
f 122/207/60 143/240/60 144/241/60
f 117/197/29 153/258/29 152/257/29
f 142/239/57 143/240/57 122/208/57
f 126/215/64 139/236/64 140/237/64
f 60/80/58 62/83/58 61/82/58
f 151/254/77 152/256/77 164/281/77
f 97/134/85 98/139/85 122/207/85
f 107/174/86 108/178/86 132/227/86
f 141/238/65 142/239/65 123/209/65
f 167/288/72 155/264/72 156/266/72
f 116/195/29 152/257/29 151/255/29
f 150/253/81 162/277/81 161/275/81
f 125/214/61 140/237/61 141/238/61
f 79/113/58 91/126/58 90/125/58
f 144/241/62 133/229/62 132/228/62
f 80/114/32 92/127/32 91/126/32
f 131/226/59 134/230/59 135/232/59
f 147/247/63 159/271/63 158/269/63
f 111/184/29 112/187/29 148/249/29
f 153/259/79 165/283/79 164/281/79
f 81/115/33 93/128/33 92/127/33
f 86/121/44 98/140/44 97/135/44
f 23/27/20 24/28/20 14/18/20
f 119/202/28 134/230/28 133/229/28
f 120/204/30 133/229/30 144/241/30
f 164/282/29 166/287/29 168/291/29
f 74/108/27 86/121/27 85/120/27
f 83/118/23 95/131/23 94/129/23
f 111/185/22 142/239/22 141/238/22
f 38/46/19 40/48/19 39/47/19
f 58/76/21 60/80/21 59/77/21
f 82/117/25 94/130/25 93/128/25
f 54/68/22 56/72/22 55/69/22
f 168/291/29 157/268/29 158/270/29
f 158/270/29 159/272/29 160/274/29
f 160/274/29 161/276/29 162/278/29
f 162/278/29 163/280/29 164/282/29
f 164/282/29 165/284/29 166/287/29
f 166/287/29 167/289/29 168/291/29
f 168/291/29 158/270/29 160/274/29
f 160/274/29 162/278/29 164/282/29
f 52/64/24 54/68/24 53/66/24
f 128/220/87 104/164/87 105/167/87
f 106/170/88 130/223/88 129/222/88
f 114/191/29 115/193/29 151/255/29
f 99/144/89 123/210/89 122/208/89
f 101/151/49 102/155/49 126/215/49
f 136/233/45 137/234/45 128/220/45
f 108/179/90 97/136/90 121/206/90
f 103/160/53 127/218/53 126/216/53
f 130/224/46 106/171/46 107/175/46
f 89/124/54 90/125/54 102/156/54
f 124/212/47 100/148/47 101/152/47
f 72/106/30 49/58/30 71/103/30
f 171/294/29 63/86/29 67/95/29
f 67/95/29 71/104/29 172/295/29
f 72/105/11 70/102/11 170/293/11
f 66/92/11 62/84/11 169/292/11
f 51/62/29 55/70/29 172/295/29
f 59/78/29 63/86/29 171/294/29
f 72/106/30 50/60/30 49/58/30
