# Blender 3.4.1
# www.blender.org
o Cylinder
v 0 0.75 -1
v 0 1 -1
v 0.5 0.75 -0.86603
v 0.5 1 -0.86603
v 0.86603 0.75 -0.5
v 0.86603 1 -0.5
v 1 0.75 0
v 1 1 0
v 0.86603 0.75 0.5
v 0.86603 1 0.5
v 0.5 0.75 0.86603
v 0.5 1 0.86603
v 0 0.75 1
v 0 1 1
v -0.5 0.75 0.86603
v -0.5 1 0.86603
v -0.86603 0.75 0.5
v -0.86603 1 0.5
v -1 0.75 0
v -1 1 0
v -0.86603 0.75 -0.5
v -0.86603 1 -0.5
v -0.5 0.75 -0.86603
v -0.5 1 -0.86603
v 0 0 -1
v 0.5 0 -0.86603
v 0.86603 0 -0.5
v 1 0 0
v 0.86603 -0 0.5
v 0.5 -0 0.86603
v 0 -0 1
v -0.5 -0 0.86603
v -0.86603 -0 0.5
v -1 0 0
v -0.86603 0 -0.5
v -0.5 0 -0.86603
v 0.425 0.75 -0.73612
v 0 0.75 -0.85
v 0.73612 0.75 -0.425
v 0.85 0.75 0
v 0.73612 0.75 0.425
v 0.425 0.75 0.73612
v 0 0.75 0.85
v -0.425 0.75 0.73612
v -0.73612 0.75 0.425
v -0.85 0.75 0
v -0.73612 0.75 -0.425
v -0.425 0.75 -0.73612
v 0.4 0 -0.69282
v 0 0 -0.8
v 0.69282 0 -0.4
v 0.8 0 0
v 0.69282 -0 0.4
v 0.4 -0 0.69282
v 0 -0 0.8
v -0.4 -0 0.69282
v -0.69282 -0 0.4
v -0.8 0 0
v -0.69282 0 -0.4
v -0.4 0 -0.69282
v 0.2 0.75 -0.34641
v 0 0.75 -0.4
v 0.34641 0.75 -0.2
v 0.4 0.75 0
v 0.34641 0.75 0.2
v 0.2 0.75 0.34641
v 0 0.75 0.4
v -0.2 0.75 0.34641
v -0.34641 0.75 0.2
v -0.4 0.75 0
v -0.34641 0.75 -0.2
v -0.2 0.75 -0.34641
v 0.25 0.75 -0.43301
v 0.25 0.75 0.43301
v 0.43301 1 0.25
v -0.43301 1 0.25
vn -0.2588 -0.0000 -0.9659
vn 0.9659 -0.0000 -0.2588
vn 0.9659 -0.0000 0.2588
vn 0.7071 -0.0000 0.7071
vn -0.7071 -0.0000 -0.7071
vn -0.7071 -0.0000 0.7071
vn 0.2588 -0.0000 -0.9659
vn -0.9659 -0.0000 -0.2588
vn 0.6943 0.1897 0.6943
vn -0.9659 -0.0000 0.2588
vn -0.0000 -1.0000 -0.0000
vn 0.7071 -0.0000 -0.7071
vn 0.2588 -0.0000 0.9659
vn -0.9484 0.1897 0.2541
vn -0.6943 0.1897 -0.6943
vn 0.6286 -0.4580 -0.6286
vn 0.9484 0.1897 0.2541
vn -0.2541 0.1897 -0.9484
vn 0.6943 0.1897 -0.6943
vn 0.9484 0.1897 -0.2541
vn -0.9484 0.1897 -0.2541
vn -0.6943 0.1897 0.6943
vn 0.2541 0.1897 -0.9484
vn 0.2541 0.1897 0.9484
vn -0.2541 0.1897 0.9484
vn 0.2301 -0.4580 -0.8587
vn -0.0000 1.0000 -0.0000
vn -0.2301 -0.4580 0.8587
vn -0.6286 -0.4580 -0.6286
vn -0.8587 -0.4580 0.2301
vn 0.8587 -0.4580 -0.2301
vn -0.8587 -0.4580 -0.2301
vn 0.6286 -0.4580 0.6286
vn -0.2301 -0.4580 -0.8587
vn 0.2301 -0.4580 0.8587
vn 0.8587 -0.4580 0.2301
vn -0.6286 -0.4580 0.6286
vn -0.2588 -0.0000 0.9659
vt 0.66418 0.41667
vt 0.75 0.58333
vt 0.33215 0.41667
vt 0.75 0.625
vt 0.66667 0.58333
vt 0.64219 0.49876
vt 0.30998 0.33393
vt 0.66667 0.625
vt 0.58209 0.55885
vt 0.58333 0.58333
vt 0.58333 0.625
vt 0.24941 0.27336
vt 0.5 0.58333
vt 0.5 0.58085
vt 0.16667 0.25119
vt 0.5 0.625
vt 0.41791 0.55885
vt 0.41667 0.58333
vt 0.41667 0.625
vt 0.08393 0.27336
vt 0.33333 0.58333
vt 0.35781 0.49876
vt 0.02336 0.33393
vt 0.33333 0.625
vt 0.33582 0.41667
vt 0.25 0.58333
vt 0.00119 0.41667
vt 0.25 0.625
vt 0.35781 0.33458
vt 0.16667 0.58333
vt 0.02336 0.49941
vt 0.16667 0.625
vt 0.41791 0.27448
vt 0.08333 0.58333
vt 0.08333 0.625
vt 0.08393 0.55998
vt 1 0.58333
vt 0 0.58333
vt 0.5 0.25249
vt 0.16667 0.58215
vt 1 0.625
vt 0 0.625
vt 0.91667 0.58333
vt 0.58209 0.27448
vt 0.24941 0.55998
vt 0.91667 0.625
vt 0.83333 0.58333
vt 0.64219 0.33458
vt 0.30998 0.49941
vt 0.83333 0.625
vt 0.71849 0.32934
vt 0.75 0.125
vt 0.69829 0.32934
vt 0.66667 0.125
vt 0.6808 0.31924
vt 0.58333 0.125
vt 0.6707 0.30174
vt 0.5 0.125
vt 0.6707 0.28154
vt 0.41667 0.125
vt 0.6808 0.26405
vt 0.33333 0.125
vt 0.25 0.125
vt 0.69829 0.25395
vt 0.71849 0.25395
vt 0.16667 0.125
vt 0.73598 0.26405
vt 0.08333 0.125
vt 0.74608 0.28154
vt 1 0.125
vt 0 0.125
vt 0.74608 0.30174
vt 0.91667 0.125
vt 0.83333 0.125
vt 0.73598 0.31924
vt 0.66667 0.25
vt 0.75 0.25
vt 0.58333 0.25
vt 0.5 0.25
vt 0.41667 0.25
vt 0.33333 0.25
vt 0.25 0.25
vt 0.16667 0.25
vt 0.08333 0.25
vt 1 0.25
vt 0 0.25
vt 0.91667 0.25
vt 0.83333 0.25
vt 0.33333 0
vt 0.70031 0.3218
vt 0.25 0
vt 0.71647 0.3218
vt 0.41667 -0
vt 0.68632 0.31372
vt 0.5 -0
vt 0.67824 0.29972
vt 0.58333 -0
vt 0.67824 0.28356
vt 0.66667 -0
vt 0.68632 0.26957
vt 0.75 0
vt 0.70031 0.26149
vt 0.83333 -0
vt 0.71647 0.26149
vt 0.91667 -0
vt 0.73047 0.26957
vt 0 -0
vt 1 0
vt 0.73855 0.28356
vt 0.08333 -0
vt 0.73855 0.29972
vt 0.16667 0
vt 0.73047 0.31372
vt 0.33333 0.125
vt 0.25 0.125
vt 0.41667 0.125
vt 0.5 0.125
vt 0.58333 0.125
vt 0.66667 0.125
vt 0.75 0.125
vt 0.83333 0.125
vt 0.91667 0.125
vt 0 0.125
vt 1 0.125
vt 0.08333 0.125
vt 0.16667 0.125
vt 0.57109 0.45771
vt 0.42891 0.45771
vt 0.1253 0.34501
vt 0.1253 0.48832
s 0
f 24/50/1 1/2/1 23/47/1
f 6/11/2 7/13/2 5/10/2
f 8/16/3 9/18/3 7/13/3
f 10/19/4 11/21/4 9/18/4
f 22/46/5 23/47/5 21/43/5
f 16/32/6 17/34/6 15/30/6
f 2/4/7 3/5/7 1/2/7
f 20/41/8 21/43/8 19/37/8
f 30/62/9 41/80/9 42/81/9
f 18/35/10 19/38/10 17/34/10
f 30/61/11 55/102/11 54/100/11
f 4/8/12 5/10/12 3/5/12
f 12/24/13 13/26/13 11/21/13
f 33/67/11 56/104/11 32/65/11
f 36/75/11 59/111/11 35/72/11
f 46/86/14 33/68/14 45/84/14
f 36/74/15 47/87/15 48/88/15
f 57/105/16 68/121/16 56/103/16
f 28/58/17 41/80/17 29/60/17
f 36/74/18 38/77/18 25/52/18
f 27/56/19 37/76/19 39/78/19
f 28/58/20 39/78/20 40/79/20
f 35/73/21 46/85/21 47/87/21
f 33/68/22 44/83/22 45/84/22
f 25/52/23 37/76/23 26/54/23
f 31/63/24 42/81/24 43/82/24
f 31/63/25 44/83/25 32/66/25
f 56/103/26 67/120/26 55/101/26
f 27/55/11 52/96/11 51/94/11
f 30/61/11 53/98/11 29/59/11
f 74/128/11 73/127/11 7/14/11
f 25/51/11 60/113/11 36/75/11
f 27/55/11 49/90/11 26/53/11
f 2/3/27 76/130/27 75/129/27
f 75/129/27 76/130/27 14/27/27
f 29/59/11 52/96/11 28/57/11
f 33/67/11 58/109/11 57/106/11
f 26/53/11 50/92/11 25/51/11
f 32/65/11 55/102/11 31/64/11
f 49/89/28 62/115/28 50/91/28
f 54/99/29 65/118/29 53/97/29
f 51/93/30 64/117/30 63/116/30
f 57/105/31 70/124/31 69/122/31
f 53/97/32 64/117/32 52/95/32
f 60/112/33 71/125/33 59/110/33
f 54/99/34 67/120/34 66/119/34
f 60/112/35 62/115/35 72/126/35
f 35/72/11 58/109/11 34/69/11
f 58/107/36 71/125/36 70/123/36
f 51/93/37 61/114/37 49/89/37
f 58/107/36 59/110/36 71/125/36
f 60/112/35 50/91/35 62/115/35
f 54/99/34 55/101/34 67/120/34
f 60/112/33 72/126/33 71/125/33
f 53/97/32 65/118/32 64/117/32
f 51/93/30 52/95/30 64/117/30
f 51/93/37 63/116/37 61/114/37
f 54/99/29 66/119/29 65/118/29
f 32/65/11 56/104/11 55/102/11
f 49/89/28 61/114/28 62/115/28
f 6/12/27 4/7/27 2/3/27
f 2/3/27 24/49/27 22/45/27
f 22/45/27 20/40/27 18/36/27
f 18/36/27 16/31/27 14/27/27
f 14/27/27 12/23/27 10/20/27
f 10/20/27 8/15/27 6/12/27
f 20/41/8 22/46/8 21/43/8
f 18/36/27 76/130/27 22/45/27
f 10/20/27 75/129/27 14/27/27
f 35/72/11 59/111/11 58/109/11
f 57/105/31 58/108/31 70/124/31
f 23/48/11 1/1/11 3/6/11
f 3/6/11 5/9/11 7/14/11
f 7/14/11 9/17/11 11/22/11
f 11/22/11 13/25/11 15/29/11
f 15/29/11 17/33/11 19/39/11
f 19/39/11 21/44/11 23/48/11
f 3/6/11 73/127/11 23/48/11
f 11/22/11 74/128/11 7/14/11
f 6/11/2 8/16/2 7/13/2
f 4/8/12 6/11/12 5/10/12
f 2/3/27 22/45/27 76/130/27
f 31/63/25 43/82/25 44/83/25
f 31/63/24 30/62/24 42/81/24
f 56/103/26 68/121/26 67/120/26
f 27/55/11 51/94/11 49/90/11
f 26/53/11 49/90/11 50/92/11
f 25/51/11 50/92/11 60/113/11
f 33/67/11 34/69/11 58/109/11
f 75/129/27 6/12/27 2/3/27
f 27/55/11 28/57/11 52/96/11
f 30/61/11 54/100/11 53/98/11
f 29/59/11 53/98/11 52/96/11
f 35/73/21 34/70/21 46/85/21
f 22/46/5 24/50/5 23/47/5
f 30/61/11 31/64/11 55/102/11
f 8/16/3 10/19/3 9/18/3
f 24/50/1 2/4/1 1/2/1
f 18/35/10 20/42/10 19/38/10
f 19/39/11 73/127/11 74/128/11
f 30/62/9 29/60/9 41/80/9
f 16/32/6 18/35/6 17/34/6
f 2/4/7 4/8/7 3/5/7
f 10/19/4 12/24/4 11/21/4
f 12/24/13 14/28/13 13/26/13
f 36/74/15 35/73/15 47/87/15
f 33/68/22 32/66/22 44/83/22
f 36/74/18 48/88/18 38/77/18
f 27/56/19 26/54/19 37/76/19
f 28/58/17 40/79/17 41/80/17
f 36/75/11 60/113/11 59/111/11
f 28/58/20 27/56/20 39/78/20
f 57/105/16 69/122/16 68/121/16
f 33/67/11 57/106/11 56/104/11
f 46/86/14 34/71/14 33/68/14
f 25/52/23 38/77/23 37/76/23
f 14/28/38 15/30/38 13/26/38
f 18/36/27 14/27/27 76/130/27
f 10/20/27 6/12/27 75/129/27
f 3/6/11 7/14/11 73/127/11
f 11/22/11 15/29/11 74/128/11
f 74/128/11 15/29/11 19/39/11
f 19/39/11 23/48/11 73/127/11
f 14/28/38 16/32/38 15/30/38
