# Blender 3.4.1
# www.blender.org
o Fairing
v 0.5 7 -0.86603
v 1 0 0
v -1 0 0
v -0.5 0 -0.86603
v 0 0 -1
v 0.5 0 -0.86603
v 0.86603 0 -0.5
v 0.86603 -0 0.5
v 0.5 -0 0.86603
v 0 -0 1
v -0.5 -0 0.86603
v -0.86603 -0 0.5
v -0.86603 0 -0.5
v 0 0.5 -1
v 0.5 0.5 -0.86603
v 0.86603 0.5 -0.5
v 1 0.5 0
v 0.86603 0.5 0.5
v 0.5 0.5 0.86603
v 0 0.5 1
v -0.5 0.5 0.86603
v -0.86603 0.5 0.5
v -1 0.5 0
v -2 1.5 0
v -0.86603 0.5 -0.5
v -0.5 0.5 -0.86603
v -1 1.5 1.73205
v -1.73205 5 1
v -1.73205 1.5 1
v 0 1.5 2
v 1 1.5 1.73205
v 1.73205 1.5 1
v 0 1.5 -2
v 1 1.5 -1.73205
v 2 1.5 0
v -1 1.5 -1.73205
v 1.73205 1.5 -1
v -1.73205 1.5 -1
v 0 5 -2
v 1 5 -1.73205
v 1 5 1.73205
v 1.73205 5 -1
v -2 5 0
v 0 5 2
v 2 5 0
v -1.73205 5 -1
v -1 5 1.73205
v 1.73205 5 1
v -1 5 -1.73205
v -0.5 7 -0.86603
v -0.86603 7 -0.5
v 0 7.5 0
v -0.5 7 0.86603
v -0.86603 7 0.5
v 0.5 7 0.86603
v 0 7 -1
v 0.86603 7 -0.5
v -1 7 0
v 0 7 1
v 1 7 0
v 0.86603 7 0.5
v 1 3.25 1.73205
v 1.73205 3.25 -1
v -1 3.25 1.73205
v -0.75 6 -1.29904
v -0.75 6 1.29904
v -1.5 6 0
v 1.5 6 0
v 0.75 6 1.29904
v 0.75 6 -1.29904
v -1 3.25 -1.73205
v 1 3.25 -1.73205
v -1.29904 6 0.75
v 1.29904 6 -0.75
v 0.25 0 -0.43301
v -1.73205 3.25 -1
v -1.73205 3.25 1
v -2 3.25 0
v 0 3.25 2
v 1.73205 3.25 1
v 0 6 1.5
v 0.25 -0 0.43301
v 1.29904 6 0.75
v 0 6 -1.5
v -1.29904 6 -0.75
v 0 3.25 -2
v 2 3.25 0
v 1.73205 2.375 -1
v -1 2.375 -1.73205
v -1.73205 4.125 1
v 1 4.125 1.73205
v 1.73205 4.125 -1
v -1 4.125 1.73205
v 0 2.375 2
v -2 2.375 0
v -1 4.125 -1.73205
v 1 4.125 -1.73205
v 1 2.375 1.73205
v -1.73205 4.125 -1
v 2 2.375 0
v -1 2.375 1.73205
v -1.73205 2.375 1
v 1 2.375 -1.73205
v -2 4.125 0
v 0 4.125 2
v 1.73205 4.125 1
v 0 2.375 -2
v 1.73205 2.375 1
v -1.73205 2.375 -1
v 0 4.125 -2
v 2 4.125 0
vn -0.0000 0.4472 0.8944
vn -0.4876 0.2217 0.8445
vn -0.0000 0.2217 0.9751
vn -0.0000 -1.0000 -0.0000
vn 0.4472 0.4472 -0.7746
vn 0.8445 0.2217 -0.4876
vn 0.4876 0.2217 -0.8445
vn -0.5000 -0.0000 0.8660
vn -0.0000 -0.0000 1.0000
vn 0.5000 -0.0000 0.8660
vn 0.8660 -0.0000 0.5000
vn -0.8660 -0.0000 0.5000
vn 0.4876 0.2217 0.8445
vn -1.0000 -0.0000 -0.0000
vn -0.8660 -0.0000 -0.5000
vn 1.0000 -0.0000 -0.0000
vn 0.8660 -0.0000 -0.5000
vn -0.5000 -0.0000 -0.8660
vn -0.3536 -0.7071 -0.6124
vn -0.0000 -0.7071 -0.7071
vn -0.6335 0.6819 -0.3657
vn -0.4472 0.4472 -0.7746
vn -0.7746 0.4472 -0.4472
vn 0.5000 -0.0000 -0.8660
vn -0.0000 -0.0000 -1.0000
vn 0.3536 -0.7071 -0.6124
vn 0.6124 -0.7071 -0.3536
vn 0.3536 -0.7071 0.6124
vn -0.0000 -0.7071 0.7071
vn -0.3536 -0.7071 0.6124
vn -0.6124 -0.7071 0.3536
vn -0.7071 -0.7071 -0.0000
vn -0.6124 -0.7071 -0.3536
vn 0.7071 -0.7071 -0.0000
vn 0.6124 -0.7071 0.3536
vn 0.7746 0.4472 -0.4472
vn 0.7315 0.6819 -0.0000
vn 0.8944 0.4472 -0.0000
vn -0.0000 0.2217 -0.9751
vn -0.8445 0.2217 -0.4876
vn -0.8445 0.2217 0.4876
vn -0.9751 0.2217 -0.0000
vn 0.9751 0.2217 -0.0000
vn -0.4876 0.2217 -0.8445
vn 0.8445 0.2217 0.4876
vn -0.3657 0.6819 -0.6335
vn -0.0000 1.0000 -0.0000
vn -0.4472 0.4472 0.7746
vn 0.6335 0.6819 0.3657
vn 0.7746 0.4472 0.4472
vn 0.3657 0.6819 0.6335
vn 0.4472 0.4472 0.7746
vn -0.0000 0.4472 -0.8944
vn -0.6335 0.6819 0.3657
vn -0.8944 0.4472 -0.0000
vn -0.7746 0.4472 0.4472
vn -0.7315 0.6819 -0.0000
vn 0.3657 0.6819 -0.6335
vn 0.6335 0.6819 -0.3657
vn -0.0000 0.6819 -0.7315
vn -0.3657 0.6819 0.6335
vn -0.0000 0.6819 0.7315
vt 0.80357 0.875
vt 0.76786 0.875
vt 1 0.125
vt 0.66071 0
vt 0.625 0
vt 0.19643 0
vt 0.23214 0
vt 0.85714 0.125
vt 0.05357 0
vt 0.08929 0
vt 0.89286 0.01562
vt 0.92857 0
vt 0.83929 0
vt 0.01786 0
vt 0.96429 0.01562
vt 0.80357 0
vt 0.76786 0
vt 0.99107 0.0625
vt 0.69643 0
vt 0.73214 0
vt 0.99107 0.1875
vt 0.55357 0
vt 0.58929 0
vt 0.96429 0.23438
vt 0.51786 0
vt 0.48214 0
vt 0.92857 0.25
vt 0.41071 0
vt 0.44643 0
vt 0.33929 0
vt 0.375 0
vt 0.89286 0.23438
vt 0.86607 0.1875
vt 0.26786 0
vt 0.30357 0
vt 0.86607 0.0625
vt 0.125 0
vt 0.16071 0
vt 0.83929 0.0625
vt 0.01786 0.0625
vt 0.80357 0.0625
vt 0.76786 0.0625
vt 0.69643 0.0625
vt 0.73214 0.0625
vt 0.66071 0.0625
vt 0.625 0.0625
vt 0.55357 0.0625
vt 0.58929 0.0625
vt 0.48214 0.0625
vt 0.51786 0.0625
vt 0.44643 0.0625
vt 0.41071 0.0625
vt 0.375 0.0625
vt 0.33929 0.0625
vt 0.26786 0.0625
vt 0.30357 0.0625
vt 0.23214 0.0625
vt 0.19643 0.0625
vt 0.21429 0.1875
vt 0.16071 0.0625
vt 0.125 0.0625
vt 0.08929 0.0625
vt 0.05357 0.0625
vt 0.35714 0.1875
vt 0.28571 0.625
vt 0.28571 0.1875
vt 0.42857 0.1875
vt 0.5 0.1875
vt 0.57143 0.1875
vt 0.85714 0.1875
vt 0 0.1875
vt 0.78571 0.1875
vt 0.64286 0.1875
vt 0.07143 0.1875
vt 0.71429 0.1875
vt 0.14286 0.1875
vt 0 0.625
vt 0.85714 0.625
vt 0.78571 0.625
vt 0.5 0.625
vt 0.71429 0.625
vt 0.21429 0.625
vt 0.42857 0.625
vt 0.64286 0.625
vt 0.14286 0.625
vt 0.35714 0.625
vt 0.57143 0.625
vt 0.07143 0.625
vt 0.08929 0.875
vt 0.05357 0.875
vt 0.125 0.875
vt 0.16071 0.875
vt 0.10714 1
vt 0.82143 1
vt 0.32143 1
vt 0.53571 1
vt 0.03571 1
vt 0.75 1
vt 0.25 1
vt 0.46429 1
vt 0.67857 1
vt 0.17857 1
vt 0.39286 1
vt 0.60714 1
vt 0.33929 0.875
vt 0.375 0.875
vt 0.26786 0.875
vt 0.30357 0.875
vt 0.51786 0.875
vt 0.48214 0.875
vt 0.01786 0.875
vt 0.83929 0.875
vt 0.69643 0.875
vt 0.73214 0.875
vt 0.23214 0.875
vt 0.19643 0.875
vt 0.44643 0.875
vt 0.41071 0.875
vt 0.66071 0.875
vt 0.625 0.875
vt 0.58929 0.875
vt 0.55357 0.875
vt 0.5 0.40625
vt 0.71429 0.40625
vt 0.35714 0.40625
vt 0.0625 0.75
vt 0.08036 0.75
vt 0.34821 0.75
vt 0.36607 0.75
vt 0.22321 0.75
vt 0.20536 0.75
vt 0.63393 0.75
vt 0.65178 0.75
vt 0.49107 0.75
vt 0.50893 0.75
vt 0.77678 0.75
vt 0.79464 0.75
vt 0.07143 0.40625
vt 0.78571 0.40625
vt 0.27679 0.75
vt 0.29464 0.75
vt 0.72322 0.75
vt 0.70536 0.75
vt 0.94643 0.07031
vt 0.14286 0.40625
vt 0.28571 0.40625
vt 0.21429 0.40625
vt 0.42857 0.40625
vt 0.57143 0.40625
vt 0.41964 0.75
vt 0.4375 0.75
vt 0.94643 0.17969
vt 0.5625 0.75
vt 0.58036 0.75
vt 0.00893 0.75
vt 0.84822 0.75
vt 0.15179 0.75
vt 0.13393 0.75
vt 0 0.40625
vt 0.85714 0.40625
vt 0.64286 0.40625
vt 0.71429 0.29688
vt 0.07143 0.29688
vt 0.28571 0.51562
vt 0.5 0.51562
vt 0.71429 0.51562
vt 0.35714 0.51562
vt 0.42857 0.29688
vt 0.21429 0.29688
vt 0.07143 0.51562
vt 0.78571 0.51562
vt 0.5 0.29688
vt 0.14286 0.51562
vt 0.64286 0.29688
vt 0.35714 0.29688
vt 0.28571 0.29688
vt 0.78571 0.29688
vt 0.21429 0.51562
vt 0.42857 0.51562
vt 0.57143 0.51562
vt 0.85714 0.29688
vt 0 0.29688
vt 0.57143 0.29688
vt 0.14286 0.29688
vt 0.85714 0.51562
vt 0 0.51562
vt 0.64286 0.51562
s 1
f 81/150/1 47/86/2 44/83/3
f 4/11/4 5/12/4 6/15/4
f 6/15/4 7/18/4 2/3/4
f 2/3/4 8/21/4 9/24/4
f 9/24/4 10/27/4 11/32/4
f 11/32/4 12/33/4 3/8/4
f 3/8/4 13/36/4 4/11/4
f 6/15/4 75/144/4 4/11/4
f 9/24/4 82/152/4 2/3/4
f 70/136/5 42/81/6 40/79/7
f 44/83/3 93/167/8 105/179/9
f 19/50/10 8/22/11 18/47/11
f 47/86/2 90/164/12 93/167/8
f 41/80/13 105/179/9 91/165/10
f 20/51/9 9/26/10 19/49/10
f 23/57/14 12/34/12 22/55/12
f 21/54/8 12/35/12 11/30/8
f 23/58/14 13/38/15 3/6/14
f 17/45/16 7/19/17 16/43/17
f 25/61/15 4/10/18 13/37/15
f 36/74/19 14/40/20 26/63/19
f 51/91/21 65/127/22 85/158/23
f 20/52/9 11/31/8 10/28/9
f 15/41/24 5/13/25 14/39/25
f 15/42/26 37/75/27 16/44/27
f 31/68/28 20/51/29 19/49/28
f 82/152/4 75/144/4 2/3/4
f 21/54/30 29/66/31 22/56/31
f 29/66/31 23/57/32 22/55/31
f 14/39/20 34/72/26 15/41/26
f 20/52/29 27/64/30 21/53/30
f 23/58/32 38/76/33 25/60/33
f 37/75/27 17/45/34 16/43/27
f 38/76/33 26/62/19 25/61/33
f 17/46/34 32/69/35 18/48/35
f 74/143/36 60/119/37 68/133/38
f 39/78/39 97/171/24 110/185/25
f 40/79/7 92/166/17 97/171/24
f 46/85/40 96/170/18 99/173/15
f 42/81/6 111/187/16 92/166/17
f 28/65/41 104/178/14 90/164/12
f 43/82/42 99/173/15 104/178/14
f 45/84/43 106/180/11 111/187/16
f 49/88/44 110/186/25 96/170/18
f 26/63/18 5/14/25 4/9/18
f 48/87/45 91/165/10 106/180/11
f 18/48/11 2/5/16 17/46/16
f 50/89/46 51/91/21 52/93/47
f 66/128/48 28/65/41 47/86/2
f 68/132/38 61/121/49 83/154/50
f 83/153/50 55/109/51 69/135/52
f 50/90/46 84/155/53 65/126/22
f 54/107/54 67/130/55 73/140/56
f 58/116/57 85/157/23 67/131/55
f 32/69/35 19/50/28 18/47/35
f 55/110/51 81/151/1 69/134/52
f 84/156/53 1/1/58 70/137/5
f 70/136/5 57/114/59 74/142/36
f 1/1/58 56/112/60 52/94/47
f 54/108/54 53/105/61 52/95/47
f 55/109/51 61/122/49 52/96/47
f 56/111/60 50/90/46 52/97/47
f 57/114/59 1/2/58 52/98/47
f 58/115/57 54/107/54 52/99/47
f 59/117/62 55/110/51 52/100/47
f 60/119/37 57/113/59 52/101/47
f 51/92/21 58/116/57 52/102/47
f 53/106/61 59/118/62 52/103/47
f 61/121/49 60/120/37 52/104/47
f 99/173/15 71/138/18 76/145/15
f 81/150/1 66/129/48 47/86/2
f 110/185/25 72/139/24 86/160/25
f 100/174/16 32/69/11 35/73/16
f 105/179/9 64/125/8 79/148/9
f 93/167/8 77/146/12 64/125/8
f 94/168/9 27/64/8 30/67/9
f 88/162/17 35/73/16 37/75/17
f 91/165/10 79/148/9 62/123/10
f 102/176/12 24/59/14 29/66/12
f 65/126/22 39/77/39 49/88/44
f 103/177/24 37/75/17 34/72/24
f 107/181/25 34/72/24 33/70/25
f 97/171/24 63/124/17 72/139/24
f 87/161/16 108/183/11 100/174/16
f 69/134/52 44/83/3 41/80/13
f 39/78/39 70/137/5 40/79/7
f 78/147/14 109/184/15 95/169/14
f 48/87/45 69/135/52 41/80/13
f 73/140/56 43/82/42 28/65/41
f 67/131/55 46/85/40 43/82/42
f 53/105/61 73/141/56 66/128/48
f 80/149/11 98/172/10 108/183/11
f 71/138/18 107/182/25 89/163/18
f 45/84/43 83/154/50 48/87/45
f 76/145/15 89/163/18 109/184/15
f 96/170/18 86/159/25 71/138/18
f 90/164/12 78/147/14 77/146/12
f 104/178/14 76/145/15 78/147/14
f 108/183/11 31/68/10 32/69/11
f 95/169/14 38/76/15 24/59/14
f 89/163/18 33/71/25 36/74/18
f 109/184/15 36/74/18 38/76/15
f 92/166/17 87/161/16 63/124/17
f 101/175/8 29/66/12 27/64/8
f 111/187/16 80/149/11 87/161/16
f 106/180/11 62/123/10 80/149/11
f 64/125/8 102/176/12 101/175/8
f 86/160/25 103/177/24 107/181/25
f 79/148/9 101/175/8 94/168/9
f 42/81/6 68/133/38 45/84/43
f 3/8/4 75/144/4 82/152/4
f 63/124/17 100/174/16 88/162/17
f 77/146/12 95/169/14 102/176/12
f 85/158/23 49/88/44 46/85/40
f 72/139/24 88/162/17 103/177/24
f 98/172/10 30/67/9 31/68/10
f 59/118/62 66/129/48 81/150/1
f 62/123/10 94/168/9 98/172/10
f 16/44/17 6/17/24 15/42/24
f 6/15/4 2/3/4 75/144/4
f 9/24/4 11/32/4 82/152/4
f 70/136/5 74/142/36 42/81/6
f 44/83/3 47/86/2 93/167/8
f 19/50/10 9/25/10 8/22/11
f 47/86/2 28/65/41 90/164/12
f 41/80/13 44/83/3 105/179/9
f 20/51/9 10/29/9 9/26/10
f 23/57/14 3/7/14 12/34/12
f 21/54/8 22/56/12 12/35/12
f 23/58/14 25/60/15 13/38/15
f 17/45/16 2/4/16 7/19/17
f 25/61/15 26/62/18 4/10/18
f 36/74/19 33/71/20 14/40/20
f 51/91/21 50/89/46 65/127/22
f 20/52/9 21/53/8 11/31/8
f 15/41/24 6/16/24 5/13/25
f 15/42/26 34/72/26 37/75/27
f 31/68/28 30/67/29 20/51/29
f 21/54/30 27/64/30 29/66/31
f 29/66/31 24/59/32 23/57/32
f 14/39/20 33/70/20 34/72/26
f 20/52/29 30/67/29 27/64/30
f 23/58/32 24/59/32 38/76/33
f 37/75/27 35/73/34 17/45/34
f 38/76/33 36/74/19 26/62/19
f 17/46/34 35/73/34 32/69/35
f 74/143/36 57/113/59 60/119/37
f 39/78/39 40/79/7 97/171/24
f 40/79/7 42/81/6 92/166/17
f 46/85/40 49/88/44 96/170/18
f 42/81/6 45/84/43 111/187/16
f 28/65/41 43/82/42 104/178/14
f 43/82/42 46/85/40 99/173/15
f 45/84/43 48/87/45 106/180/11
f 49/88/44 39/77/39 110/186/25
f 26/63/18 14/40/25 5/14/25
f 48/87/45 41/80/13 91/165/10
f 18/48/11 8/23/11 2/5/16
f 66/128/48 73/141/56 28/65/41
f 68/132/38 60/120/37 61/121/49
f 83/153/50 61/122/49 55/109/51
f 50/90/46 56/111/60 84/155/53
f 54/107/54 58/115/57 67/130/55
f 58/116/57 51/92/21 85/157/23
f 32/69/35 31/68/28 19/50/28
f 55/110/51 59/117/62 81/151/1
f 84/156/53 56/112/60 1/1/58
f 70/136/5 1/2/58 57/114/59
f 99/173/15 96/170/18 71/138/18
f 110/185/25 97/171/24 72/139/24
f 100/174/16 108/183/11 32/69/11
f 105/179/9 93/167/8 64/125/8
f 93/167/8 90/164/12 77/146/12
f 94/168/9 101/175/8 27/64/8
f 88/162/17 100/174/16 35/73/16
f 91/165/10 105/179/9 79/148/9
f 102/176/12 95/169/14 24/59/14
f 65/126/22 84/155/53 39/77/39
f 103/177/24 88/162/17 37/75/17
f 107/181/25 103/177/24 34/72/24
f 97/171/24 92/166/17 63/124/17
f 87/161/16 80/149/11 108/183/11
f 69/134/52 81/151/1 44/83/3
f 39/78/39 84/156/53 70/137/5
f 78/147/14 76/145/15 109/184/15
f 48/87/45 83/153/50 69/135/52
f 73/140/56 67/130/55 43/82/42
f 67/131/55 85/157/23 46/85/40
f 53/105/61 54/108/54 73/141/56
f 80/149/11 62/123/10 98/172/10
f 71/138/18 86/159/25 107/182/25
f 45/84/43 68/132/38 83/154/50
f 76/145/15 71/138/18 89/163/18
f 96/170/18 110/186/25 86/159/25
f 90/164/12 104/178/14 78/147/14
f 104/178/14 99/173/15 76/145/15
f 108/183/11 98/172/10 31/68/10
f 95/169/14 109/184/15 38/76/15
f 89/163/18 107/182/25 33/71/25
f 109/184/15 89/163/18 36/74/18
f 92/166/17 111/187/16 87/161/16
f 101/175/8 102/176/12 29/66/12
f 111/187/16 106/180/11 80/149/11
f 106/180/11 91/165/10 62/123/10
f 64/125/8 77/146/12 102/176/12
f 86/160/25 72/139/24 103/177/24
f 79/148/9 64/125/8 101/175/8
f 42/81/6 74/143/36 68/133/38
f 82/152/4 11/32/4 3/8/4
f 3/8/4 4/11/4 75/144/4
f 63/124/17 87/161/16 100/174/16
f 77/146/12 78/147/14 95/169/14
f 85/158/23 65/127/22 49/88/44
f 72/139/24 63/124/17 88/162/17
f 98/172/10 94/168/9 30/67/9
f 59/118/62 53/106/61 66/129/48
f 62/123/10 79/148/9 94/168/9
f 16/44/17 7/20/17 6/17/24
