# Blender 3.4.1
# www.blender.org
o Cone
v 0 1.75 -0.175
v 0 2 0
v 0.0875 1.75 -0.15155
v 0.15155 1.75 -0.0875
v 0.175 1.75 0
v 0.15155 1.75 0.0875
v 0.0875 1.75 0.15155
v 0 1.75 0.175
v -0.0875 1.75 0.15155
v -0.15155 1.75 0.0875
v -0.175 1.75 0
v -0.15155 1.75 -0.0875
v -0.0875 1.75 -0.15155
v 0 0 -0.5
v 0.25 0 -0.43301
v 0.43301 0 -0.25
v 0.5 0 0
v 0.43301 -0 0.25
v 0.25 -0 0.43301
v 0 -0 0.5
v -0.25 -0 0.43301
v -0.43301 -0 0.25
v -0.5 0 0
v -0.43301 0 -0.25
v -0.25 0 -0.43301
v 0 0.875 -0.3375
v 0.29228 0.875 -0.16875
v 0.3375 0.875 0
v 0.16875 0.875 0.29228
v 0.16875 0.875 -0.29228
v 0.29228 0.875 0.16875
v 0 0.875 0.3375
v -0.16875 0.875 0.29228
v -0.29228 0.875 0.16875
v -0.3375 0.875 0
v -0.29228 0.875 -0.16875
v -0.16875 0.875 -0.29228
vn -0.5858 0.5601 -0.5858
vn 0.2144 0.5601 -0.8002
vn -0.8002 0.5601 -0.2144
vn -0.8002 0.5601 0.2144
vn -0.5858 0.5601 0.5858
vn -0.2144 0.5601 0.8002
vn 0.2144 0.5601 0.8002
vn 0.5858 0.5601 0.5858
vn 0.8002 0.5601 0.2144
vn 0.8002 0.5601 -0.2144
vn -0.2144 0.5601 -0.8002
vn 0.5858 0.5601 -0.5858
vn 0.9507 0.1766 0.2548
vn 0.6960 0.1766 -0.6960
vn 0.6960 0.1766 0.6960
vn -0.6960 0.1766 0.6960
vn -0.2548 0.1766 -0.9507
vn -0.9507 0.1766 0.2548
vn -0.0000 -1.0000 -0.0000
vn -0.2548 0.1766 0.9507
vn 0.9507 0.1766 -0.2548
vn -0.9507 0.1766 -0.2548
vn 0.2548 0.1766 -0.9507
vn -0.6960 0.1766 -0.6960
vn 0.2548 0.1766 0.9507
vt 0.375 0.58333
vt 0.77083 0.58333
vt 0.72917 0.58333
vt 0.4375 0.66667
vt 0.35417 0.66667
vt 0.47917 0.66667
vt 0.02083 0.66667
vt 0.0625 0.66667
vt 0.10417 0.66667
vt 0.14583 0.66667
vt 0.1875 0.66667
vt 0.22917 0.66667
vt 0.27083 0.66667
vt 0.39583 0.66667
vt 0.3125 0.66667
vt 0.33333 0.58333
vt 0.64583 0.58333
vt 0.6875 0.58333
vt 0.29167 0.58333
vt 0.60417 0.58333
vt 0.5625 0.58333
vt 0.25 0.58333
vt 0.47917 0.58333
vt 0.52083 0.58333
vt 0.20833 0.58333
vt 0.4375 0.58333
vt 0.39583 0.58333
vt 0.16667 0.58333
vt 0.3125 0.58333
vt 0.35417 0.58333
vt 0.125 0.58333
vt 0.22917 0.58333
vt 0.27083 0.58333
vt 0.08333 0.58333
vt 0.14583 0.58333
vt 0.1875 0.58333
vt 0.04167 0.58333
vt 0.0625 0.58333
vt 0.10417 0.58333
vt 0.5 0.58333
vt -0 0.58333
vt 0.02083 0.58333
vt 0.97917 0.58333
vt 0.45833 0.58333
vt 0.89583 0.58333
vt 0.9375 0.58333
vt 0.41667 0.58333
vt 0.8125 0.58333
vt 0.85417 0.58333
vt 0.83333 0.75
vt 0.75 -0
vt 0.8125 0.66667
vt 0.66667 -0
vt 0.75 0.60417
vt 0.58333 0
vt 0.66667 0.58333
vt 0.5 0
vt 0.58333 0.60417
vt 0.41667 0
vt 0.52083 0.66667
vt 0.33333 -0
vt 0.5 0.75
vt 0.25 0
vt 0.52083 0.83333
vt 0.16667 0
vt 0.58333 0.89583
vt 0.08333 0
vt -0 -0
vt 0.66667 0.91667
vt 1 0
vt 0.75 0.89583
vt 0.91667 0
vt 0.8125 0.83333
vt 0.83333 0
vt 0.73958 0.29167
vt 0.76042 0.29167
vt 0.57292 0.29167
vt 0.59375 0.29167
vt 0.48958 0.29167
vt 0.51042 0.29167
vt 0.32292 0.29167
vt 0.34375 0.29167
vt 0.65625 0.29167
vt 0.67708 0.29167
vt 0.40625 0.29167
vt 0.42708 0.29167
vt 0.26042 0.29167
vt 0.23958 0.29167
vt 0.15625 0.29167
vt 0.17708 0.29167
vt 0.07292 0.29167
vt 0.09375 0.29167
vt 0.98958 0.29167
vt 0.01042 0.29167
vt 0.90625 0.29167
vt 0.92708 0.29167
vt 0.82292 0.29167
vt 0.84375 0.29167
s 0
f 12/44/1 2/4/1 13/47/1
f 1/1/2 2/5/2 3/16/2
f 11/40/3 2/6/3 12/44/3
f 10/37/4 2/7/4 11/41/4
f 9/34/5 2/8/5 10/37/5
f 8/31/6 2/9/6 9/34/6
f 7/28/7 2/10/7 8/31/7
f 6/25/8 2/11/8 7/28/8
f 5/22/9 2/12/9 6/25/9
f 4/19/10 2/13/10 5/22/10
f 13/47/11 2/14/11 1/1/11
f 3/16/12 2/15/12 4/19/12
f 28/79/13 6/26/13 31/86/13
f 4/20/14 30/83/14 3/17/14
f 31/85/15 19/61/15 18/59/15
f 9/35/16 34/92/16 33/89/16
f 26/76/17 25/74/17 37/97/17
f 35/94/18 22/67/18 34/91/18
f 23/69/19 17/56/19 21/64/19
f 8/32/20 33/90/20 32/88/20
f 28/80/21 16/55/21 27/77/21
f 36/96/22 23/70/22 35/93/22
f 26/75/23 15/53/23 14/51/23
f 36/95/24 25/74/24 24/72/24
f 29/81/25 8/33/25 32/87/25
f 1/2/17 37/97/17 13/48/17
f 25/73/19 14/50/19 15/52/19
f 15/52/19 16/54/19 17/56/19
f 17/56/19 18/58/19 19/60/19
f 19/60/19 20/62/19 21/64/19
f 21/64/19 22/66/19 23/69/19
f 23/69/19 24/71/19 25/73/19
f 25/73/19 15/52/19 17/56/19
f 17/56/19 19/60/19 21/64/19
f 29/81/25 20/63/25 19/61/25
f 4/20/14 27/78/14 30/83/14
f 6/27/15 29/82/15 31/85/15
f 11/42/18 34/91/18 10/38/18
f 28/79/13 18/59/13 17/57/13
f 12/45/24 37/98/24 36/95/24
f 33/89/16 22/67/16 21/65/16
f 32/88/20 21/65/20 20/63/20
f 5/24/21 27/77/21 4/21/21
f 11/43/22 36/96/22 35/93/22
f 28/79/13 5/23/13 6/26/13
f 1/3/23 30/84/23 26/75/23
f 27/78/14 15/53/14 30/83/14
f 31/85/15 29/82/15 19/61/15
f 9/35/16 10/39/16 34/92/16
f 26/76/17 14/51/17 25/74/17
f 35/94/18 23/68/18 22/67/18
f 23/69/19 25/73/19 17/56/19
f 8/32/20 9/36/20 33/90/20
f 28/80/21 17/57/21 16/55/21
f 36/96/22 24/72/22 23/70/22
f 26/75/23 30/84/23 15/53/23
f 36/95/24 37/98/24 25/74/24
f 29/81/25 7/29/25 8/33/25
f 1/2/17 26/76/17 37/97/17
f 29/81/25 32/87/25 20/63/25
f 6/27/15 7/30/15 29/82/15
f 11/42/18 35/94/18 34/91/18
f 28/79/13 31/86/13 18/59/13
f 12/45/24 13/49/24 37/98/24
f 33/89/16 34/92/16 22/67/16
f 32/88/20 33/90/20 21/65/20
f 5/24/21 28/80/21 27/77/21
f 11/43/22 12/46/22 36/96/22
f 1/3/23 3/18/23 30/84/23
f 27/78/14 16/55/14 15/53/14
