# Blender 3.4.1
# www.blender.org
o Cone
v 0 0.25 -0.5625
v 0 2.5 0
v 0.28125 0.25 -0.48714
v 0.48714 0.25 -0.28125
v 0.5625 0.25 0
v 0.48714 0.25 0.28125
v 0.28125 0.25 0.48714
v 0 0.25 0.5625
v -0.28125 0.25 0.48714
v -0.48714 0.25 0.28125
v -0.5625 0.25 0
v -0.48714 0.25 -0.28125
v -0.28125 0.25 -0.48714
v 0 0.125 -0.7125
v 0.35625 0.125 -0.61704
v 0.61704 0.125 -0.35625
v 0.7125 0.125 0
v 0.61704 0.125 0.35625
v 0.35625 0.125 0.61704
v 0 0.125 0.7125
v -0.35625 0.125 0.61704
v -0.61704 0.125 0.35625
v -0.7125 0.125 0
v -0.61704 0.125 -0.35625
v -0.35625 0.125 -0.61704
v 0 0 -0.75
v 0.375 0 -0.64952
v 0.64952 0 -0.375
v 0.75 0 0
v 0.64952 -0 0.375
v 0.375 -0 0.64952
v 0 -0 0.75
v -0.375 -0 0.64952
v -0.64952 -0 0.375
v -0.75 0 0
v -0.64952 0 -0.375
v -0.375 0 -0.64952
v 0 1.375 -0.28125
v 0.14062 1.375 -0.24357
v 0.24357 1.375 -0.14062
v 0.28125 1.375 0
v 0.24357 1.375 0.14062
v 0.14062 1.375 0.24357
v 0 1.375 0.28125
v -0.14062 1.375 0.24357
v -0.24357 1.375 0.14062
v -0.28125 1.375 0
v -0.24357 1.375 -0.14062
v -0.14062 1.375 -0.24357
vn -0.6873 0.2347 -0.6873
vn 0.2516 0.2347 -0.9389
vn -0.9389 0.2347 -0.2516
vn -0.9389 0.2347 0.2516
vn -0.6873 0.2347 0.6873
vn -0.2516 0.2347 0.9389
vn 0.2516 0.2347 0.9389
vn 0.6873 0.2347 0.6873
vn 0.9389 0.2347 0.2516
vn 0.9389 0.2347 -0.2516
vn -0.2516 0.2347 -0.9389
vn 0.6873 0.2347 -0.6873
vn -0.6310 0.7572 -0.1691
vn 0.2486 0.2783 -0.9278
vn -0.6310 0.7572 0.1691
vn 0.6310 0.7572 0.1691
vn -0.4619 0.7572 0.4619
vn -0.1691 0.7572 0.6310
vn -0.1691 0.7572 -0.6310
vn -0.0000 -1.0000 -0.0000
vn -0.4619 0.7572 -0.4619
vn 0.6310 0.7572 -0.1691
vn 0.4619 0.7572 0.4619
vn 0.1691 0.7572 -0.6310
vn 0.4619 0.7572 -0.4619
vn 0.6874 0.2347 -0.6873
vn 0.2486 0.2783 0.9278
vn -0.6792 0.2783 0.6792
vn 0.6792 0.2783 0.6792
vn 0.6792 0.2783 -0.6792
vn -0.6792 0.2783 -0.6792
vn -0.2486 0.2783 0.9278
vn 0.1691 0.7572 0.6310
vn -0.9278 0.2783 -0.2486
vn -0.2486 0.2783 -0.9278
vn -0.9278 0.2783 0.2486
vn 0.9278 0.2783 0.2486
vn -0.6874 0.2347 0.6873
vn 0.9278 0.2783 -0.2486
vn -0.6873 0.2347 0.6874
vn 0.6874 0.2347 0.6873
vn -0.6874 0.2347 -0.6873
vt 0.75 0.05556
vt 0.875 0.56944
vt 0.70833 0.56944
vt 0.95833 0.56944
vt 0.04167 0.56944
vt 0.125 0.56944
vt 0.20833 0.56944
vt 0.29167 0.56944
vt 0.375 0.56944
vt 0.45833 0.56944
vt 0.54167 0.56944
vt 0.79167 0.56944
vt 0.625 0.56944
vt 0.66667 0.05556
vt 0.58333 0.05556
vt 0.5 0.05556
vt 0.41667 0.05556
vt 0.33333 0.05556
vt 0.25 0.05556
vt 0.16667 0.05556
vt 0.08333 0.05556
vt 1 0.05556
vt -0 0.05556
vt 0.91667 0.05556
vt 0.83333 0.05556
vt 0.75 0.02778
vt 0.66667 0.02778
vt 0.58333 0.02778
vt 0.5 0.02778
vt 0.41667 0.02778
vt 0.33333 0.02778
vt 0.25 0.02778
vt 0.16667 0.02778
vt 0.08333 0.02778
vt 1 0.02778
vt 0 0.02778
vt 0.91667 0.02778
vt 0.83333 0.02778
vt 0.16667 0.56944
vt 0.75 -0
vt 0.25 0.59722
vt 0.66667 0
vt 0.30556 0.65278
vt 0.58333 0
vt 0.33333 0.73611
vt 0.5 -0
vt 0.30556 0.81944
vt 0.41667 0
vt 0.33333 -0
vt 0.25 0.875
vt 0.16667 0.90278
vt 0.25 -0
vt 0.08333 0.875
vt 0.16667 0
vt 0.02778 0.81944
vt 0.08333 0
vt 0 0.73611
vt 1 0
vt -0 -0
vt 0.02778 0.65278
vt 0.91667 0
vt 0.08333 0.59722
vt 0.83333 0
vt 0.72917 0.3125
vt 0.77083 0.3125
vt 0.64583 0.3125
vt 0.6875 0.3125
vt 0.60417 0.3125
vt 0.5625 0.3125
vt 0.52083 0.3125
vt 0.47917 0.3125
vt 0.39583 0.3125
vt 0.4375 0.3125
vt 0.35417 0.3125
vt 0.3125 0.3125
vt 0.22917 0.3125
vt 0.27083 0.3125
vt 0.14583 0.3125
vt 0.1875 0.3125
vt 0.10417 0.3125
vt 0.0625 0.3125
vt 0.97917 0.3125
vt 0.02083 0.3125
vt 0.9375 0.3125
vt 0.89583 0.3125
vt 0.85417 0.3125
vt 0.8125 0.3125
s 0
f 48/85/1 2/2/1 49/86/1
f 38/64/2 2/3/2 39/67/2
f 47/82/3 2/4/3 48/84/3
f 46/81/4 2/5/4 47/83/4
f 45/78/5 2/6/5 46/80/5
f 44/76/6 2/7/6 45/79/6
f 43/75/7 2/8/7 44/77/7
f 42/72/8 2/9/8 43/74/8
f 41/71/9 2/10/9 42/73/9
f 40/69/10 2/11/10 41/70/10
f 49/87/11 2/12/11 38/65/11
f 39/66/12 2/13/12 40/68/12
f 12/24/13 23/35/13 11/22/13
f 15/27/14 26/40/14 14/26/14
f 11/23/15 22/34/15 10/21/15
f 6/17/16 17/29/16 5/16/16
f 10/21/17 21/33/17 9/20/17
f 8/19/18 21/33/18 20/32/18
f 1/1/19 25/38/19 13/25/19
f 36/60/20 29/45/20 33/53/20
f 13/25/21 24/37/21 12/24/21
f 16/28/22 5/16/22 17/29/22
f 6/17/23 19/31/23 18/30/23
f 1/1/24 15/27/24 14/26/24
f 4/15/25 15/27/25 3/14/25
f 39/66/26 4/15/26 3/14/26
f 19/31/27 32/52/27 31/49/27
f 22/34/28 33/54/28 21/33/28
f 30/48/29 19/31/29 31/49/29
f 16/28/30 27/42/30 15/27/30
f 25/38/31 36/61/31 24/37/31
f 21/33/32 32/52/32 20/32/32
f 19/31/33 8/19/33 20/32/33
f 24/37/34 35/58/34 23/35/34
f 14/26/35 37/63/35 25/38/35
f 23/36/36 34/56/36 22/34/36
f 18/30/37 29/46/37 17/29/37
f 38/64/2 3/14/2 1/1/2
f 36/60/20 37/62/20 29/45/20
f 45/78/38 10/21/38 9/20/38
f 47/82/3 12/24/3 11/22/3
f 42/72/8 7/18/8 6/17/8
f 12/24/13 24/37/13 23/35/13
f 48/85/1 13/25/1 12/24/1
f 4/15/10 41/70/10 5/16/10
f 44/76/6 9/20/6 8/19/6
f 10/21/4 47/83/4 11/23/4
f 43/75/7 8/19/7 7/18/7
f 15/27/14 27/42/14 26/40/14
f 41/71/9 6/17/9 5/16/9
f 37/62/20 26/39/20 29/45/20
f 27/41/20 28/43/20 29/45/20
f 29/45/20 30/47/20 31/50/20
f 31/50/20 32/51/20 29/45/20
f 33/53/20 34/55/20 35/57/20
f 35/57/20 36/60/20 33/53/20
f 26/39/20 27/41/20 29/45/20
f 29/45/20 32/51/20 33/53/20
f 49/87/11 1/1/11 13/25/11
f 6/17/23 7/18/23 19/31/23
f 10/21/17 22/34/17 21/33/17
f 1/1/19 14/26/19 25/38/19
f 6/17/16 18/30/16 17/29/16
f 8/19/18 9/20/18 21/33/18
f 13/25/21 25/38/21 24/37/21
f 11/23/15 23/36/15 22/34/15
f 4/15/25 16/28/25 15/27/25
f 16/28/22 4/15/22 5/16/22
f 39/66/12 40/68/12 4/15/12
f 1/1/24 3/14/24 15/27/24
f 17/29/39 28/44/39 16/28/39
f 19/31/27 20/32/27 32/52/27
f 22/34/28 34/56/28 33/54/28
f 30/48/29 18/30/29 19/31/29
f 16/28/30 28/44/30 27/42/30
f 25/38/31 37/63/31 36/61/31
f 21/33/32 33/54/32 32/52/32
f 19/31/33 7/18/33 8/19/33
f 24/37/34 36/61/34 35/58/34
f 14/26/35 26/40/35 37/63/35
f 23/36/36 35/59/36 34/56/36
f 18/30/37 30/48/37 29/46/37
f 38/64/2 39/67/2 3/14/2
f 45/78/40 46/80/40 10/21/40
f 47/82/3 48/84/3 12/24/3
f 42/72/41 43/74/41 7/18/41
f 48/85/42 49/86/42 13/25/42
f 4/15/10 40/69/10 41/70/10
f 44/76/6 45/79/6 9/20/6
f 10/21/4 46/81/4 47/83/4
f 43/75/7 44/77/7 8/19/7
f 41/71/9 42/73/9 6/17/9
f 49/87/11 38/65/11 1/1/11
f 17/29/39 29/46/39 28/44/39
