# Blender 3.4.1
# www.blender.org
o Plane
v -1 0.25 2.5
v 1 0.25 2.5
v -1 0.25 -2.5
v 1 0.25 -2.5
v -1 0.75 -2.5
v -1 0.75 2.5
v 1 0.75 2.5
v 1 0.75 -2.5
v 0.5625 0.375 2.5625
v 0.5625 0.875 2.5625
v 0.5625 0.375 2.0625
v 0.5625 0.875 2.0625
v 1.0625 0.375 2.5625
v 1.0625 0.875 2.5625
v 1.0625 0.375 2.0625
v 1.0625 0.875 2.0625
v -1.0625 0.375 2.5625
v -1.0625 0.875 2.5625
v -1.0625 0.375 2.0625
v -1.0625 0.875 2.0625
v -0.5625 0.375 2.5625
v -0.5625 0.875 2.5625
v -0.5625 0.375 2.0625
v -0.5625 0.875 2.0625
v 0.5625 0.375 -1.8125
v 0.5625 0.875 -1.8125
v 0.5625 0.375 -2.5625
v 0.5625 0.875 -2.5625
v 1.0625 0.375 -1.8125
v 1.0625 0.875 -1.8125
v 1.0625 0.375 -2.5625
v 1.0625 0.875 -2.5625
v -1.0625 0.375 -1.8125
v -1.0625 0.875 -1.8125
v -1.0625 0.375 -2.5625
v -1.0625 0.875 -2.5625
v -0.5625 0.375 -1.8125
v -0.5625 0.875 -1.8125
v -0.5625 0.375 -2.5625
v -0.5625 0.875 -2.5625
v 0.875 0.75 1.0625
v -0.125 0.75 1.0625
v 0 1.625 1.1875
v 0.75 1.625 1.1875
v 0 0.75 1.1875
v 0.75 0.75 1.1875
v 0.875 0.75 1.875
v 0.6875 0.75 2.0625
v 0.0625 0.75 2.0625
v -0.125 0.75 1.875
v 0.6875 1.75 2.0625
v 0.875 1.75 1.875
v -0.125 1.75 1.875
v 0.0625 1.75 2.0625
v 0 1.625 1.875
v 0.75 1.625 1.875
v 0.6875 1.75 1.9375
v 0.0625 1.75 1.9375
v -0.875 0.75 1.25
v 0.75 1.75 1.875
v -0.875 0.75 1.75
v 0 1.75 1.875
v 0.6875 1.625 1.9375
v 0.0625 1.625 1.9375
v 0 0.75 1.0625
v 0.75 0.75 1.0625
v 0.875 1.5 1.0625
v 0.875 1.75 1.1875
v -0.125 1.75 1.1875
v -0.125 1.5 1.0625
v 0.75 1.75 1.1875
v 0.75 1.5 1.0625
v -0.1875 0.75 1.75
v 0 1.5 1.0625
v 0 1.75 1.1875
v -0.1875 0.75 1.25
v -0.1875 0.9375 1.25
v -0.1875 0.9375 1.75
v -0.875 0.9375 1.25
v -0.875 0.9375 1.75
v -0.1875 1.0625 1.375
v -0.1875 1.0625 1.625
v -0.875 1.0625 1.375
v -0.875 1.0625 1.625
v 0.9375 0.75 1
v 0.8125 0.75 1
v 0.9375 0.75 0.875
v 0.8125 0.75 0.875
v 0.8125 1.75 0.875
v 0.9375 1.75 0.875
v 0.8125 1.75 1
v 0.9375 1.75 1
v -0.8125 0.75 0.75
v -0.9375 0.75 0.75
v -0.8125 0.75 0.625
v -0.9375 0.75 0.625
v -0.8125 1.375 0.75
v -0.9375 1.375 0.75
v -0.8125 1.5 0.625
v -0.9375 1.5 0.625
v -0.8125 1.375 1.125
v -0.9375 1.375 1.25
v -0.8125 1.5 1.125
v -0.9375 1.5 1.25
v -0.125 1.375 1.125
v -0.125 1.375 1.25
v -0.125 1.5 1.125
v -0.125 1.5 1.25
v 0.875 0.25 -1.625
v 0.75 0.25 1.75
v 0.75 0.07322 -1.67678
v 0.875 0.25 -1.25
v 0.875 0.25 1.75
v 0.75 0.07322 1.32322
v 0.75 -0 1.5
v 0.75 0.07322 1.67678
v 0.75 0.25 -1.25
v 0.75 0.25 1.25
v 0.875 0.25 -1.375
v 0.875 0.07322 -1.32322
v 0.875 0.25 1.25
v 0.875 0.07322 1.32322
v 0.875 -0 1.5
v 0.875 0.07322 1.67678
v 0.875 0.25 1.625
v 0.875 0 -1.5
v 0.875 0.07322 -1.67678
v 0.875 0.25 -1.75
v 0.875 0.25 1.375
v 0.875 0.16161 1.41161
v 0.875 0.125 1.5
v 0.875 0.16161 1.58839
v 0.9375 0.25 1.625
v 0.75 0.25 -1.75
v 0.75 0.07322 -1.32322
v 0.75 0 -1.5
v 0.9375 0.25 1.375
v 0.9375 0.16161 1.41161
v 0.9375 0.125 1.5
v 0.9375 0.16161 1.58839
v 0.875 0.16161 -1.58839
v 0.875 0.125 -1.5
v 0.875 0.16161 -1.41161
v 0.9375 0.25 -1.375
v 0.9375 0.25 -1.625
v 0.9375 0.16161 -1.58839
v 0.9375 0.125 -1.5
v 0.9375 0.16161 -1.41161
v -0.75 0.25 2
v 0.75 0.25 2
v -0.75 0.25 -2
v 0.75 0.25 -2
v -0.75 0.125 -1.875
v -0.75 0.125 1.875
v 0.75 0.125 1.875
v 0.75 0.125 -1.875
v -0.875 0.25 1.625
v -0.75 0.25 -1.75
v -0.75 0.07322 1.67678
v -0.875 0.25 1.25
v -0.875 0.25 -1.75
v -0.75 0.07322 -1.32322
v -0.75 0 -1.5
v -0.75 0.07322 -1.67678
v -0.75 0.25 1.25
v -0.75 0.25 -1.25
v -0.875 0.25 1.375
v -0.875 0.07322 1.32322
v -0.875 0.25 -1.25
v -0.875 0.07322 -1.32322
v -0.875 0 -1.5
v -0.875 0.07322 -1.67678
v -0.875 0.25 -1.625
v -0.875 -0 1.5
v -0.875 0.07322 1.67678
v -0.875 0.25 1.75
v -0.875 0.25 -1.375
v -0.875 0.16161 -1.41161
v -0.875 0.125 -1.5
v -0.875 0.16161 -1.58839
v -0.9375 0.25 -1.625
v -0.75 0.25 1.75
v -0.75 0.07322 1.32322
v -0.75 -0 1.5
v -0.9375 0.25 -1.375
v -0.9375 0.16161 -1.41161
v -0.9375 0.125 -1.5
v -0.9375 0.16161 -1.58839
v -0.875 0.16161 1.58839
v -0.875 0.125 1.5
v -0.875 0.16161 1.41161
v -0.9375 0.25 1.375
v -0.9375 0.25 1.625
v -0.9375 0.16161 1.58839
v -0.9375 0.125 1.5
v -0.9375 0.16161 1.41161
v 0 0.25 2.5
v -1 0.25 0
v -0.75 0.125 0
v 1 0.25 0
v 0 0.25 -2.5
v 0.75 0.125 0
v -1 0.75 0
v 0 0.75 -2.5
v -0.75 0.25 0
v 0 0.75 2.5
v 0.75 0.25 0
v 0.75 0.1875 0.0625
v 1 0.75 0
v -0.75 0.1875 -0.0625
v 0 0.75 0
v 0 0.25 0
v -1 0.25 -1.25
v -0.75 0.21875 -1.03125
v -0.75 0.125 0.9375
v -0.75 0.125 -0.9375
v 1 0.25 -1.25
v 0.75 0.25 1
v 0 0.75 -1.25
v 0 0.25 -1.25
v -1 0.75 -1.25
v 0.75 0.125 -0.9375
v -0.75 0.25 1
v 0 0.75 1.25
v 1 0.75 1.25
v -1 0.75 1.25
v -1 0.25 1.25
v -0.75 0.25 -1
v 0.75 0.125 0.9375
v 0.75 0.25 -1
v 0.75 0.15625 -0.90625
v 1 0.75 -1.25
v -0.75 0.15625 0.90625
v 0.75 0.21875 1.03125
v 0 0.25 1.25
v 1 0.25 1.25
vn -0.0000 -0.0000 1.0000
vn 1.0000 -0.0000 -0.0000
vn -0.0000 -0.7071 0.7071
vn -0.0000 -1.0000 -0.0000
vn -0.0000 1.0000 -0.0000
vn -1.0000 -0.0000 -0.0000
vn -0.0000 -0.0000 -1.0000
vn -0.7071 -0.0000 0.7071
vn -0.0000 -0.7071 -0.7071
vn 0.7071 -0.0000 0.7071
vn -0.0000 0.7071 -0.7071
vn 0.7071 -0.0000 -0.7071
vn -0.0000 -0.3827 -0.9239
vn -0.0000 0.4472 -0.8944
vn -0.0000 0.7071 0.7071
vn -0.0000 -0.3827 0.9239
vn -0.7071 -0.0000 -0.7071
vt -0 0.45454
vt 0.04938 0.54546
vt 0.04938 0.09091
vt -0 0.09091
vt 0.04938 0
vt 0.04938 0.45454
vt 0.59259 0.45454
vt 0.54321 0.09091
vt 0.54321 0.54546
vt 0.59259 0.09091
vt 0.54321 0
vt 0.54321 0.45454
vt 0.54321 0.45454
vt 0.04938 0.45454
vt 0.04938 0.09091
vt 0.54321 0.09091
vt 0.04938 0.63636
vt 0.04938 0.72727
vt -0 0.63636
vt 0.04938 0.54546
vt 0.04938 0.90909
vt -0 0.72727
vt 0.04938 0.81818
vt 0.09877 0.63636
vt 0.09877 0.72727
vt 0.09877 0.54546
vt 0.14815 0.63636
vt 0.09877 0.90909
vt 0.14815 0.72727
vt 0.09877 0.81818
vt 0.04938 0.63636
vt 0.04938 0.72727
vt 0.04938 0.90909
vt -0 0.63636
vt 0.04938 0.54546
vt 0.04938 0.81818
vt -0 0.72727
vt 0.09877 0.63636
vt 0.09877 0.72727
vt 0.09877 0.54546
vt 0.09877 0.90909
vt 0.14815 0.63636
vt 0.14815 0.72727
vt 0.09877 0.81818
vt 0.2716 0.54546
vt 0.2716 1
vt 0.34568 0.68182
vt 0.34568 0.77273
vt 0.2716 0.90909
vt 0.2716 0.68182
vt 0.2716 0.77273
vt 0.22222 0.54546
vt 0.22222 1
vt 0.14815 0.68182
vt 0.14815 0.77273
vt 0.22222 0.90909
vt 0.22222 0.68182
vt 0.22222 0.77273
vt 0.34568 0.68182
vt 0.2716 0.54546
vt 0.2716 1
vt 0.34568 0.77273
vt 0.2716 0.90909
vt 0.2716 0.68182
vt 0.2716 0.77273
vt 0.14815 0.68182
vt 0.22222 0.54546
vt 0.22222 1
vt 0.14815 0.77273
vt 0.22222 0.90909
vt 0.22222 0.68182
vt 0.22222 0.77273
vt 0.87654 0.31818
vt 0.61728 0.31818
vt 0.59259 0.47727
vt 0.98765 0.47727
vt 0.90124 0.47727
vt 0.91358 0.47727
vt 0.98765 0.31818
vt 0.59259 0.31818
vt 0.90124 0.31818
vt 0.91358 0.31818
vt 0.7963 0.31818
vt 0.77778 0.31818
vt 0.7169 0.31868
vt 0.69753 0.31818
vt 0.77778 0.5
vt 0.7963 0.53409
vt 0.7963 0.5
vt 0.69753 0.53409
vt 0.69753 0.5
vt 0.71605 0.5
vt 0.98765 0.61364
vt 0.98765 0.60227
vt 0.91358 0.60227
vt 0.91358 0.61364
vt 0.77778 0.52273
vt 0.91975 0.63636
vt 0.98148 0.63636
vt 0.71605 0.52273
vt 0.69136 0.53409
vt 0.72222 0.56818
vt 0.90124 0.60227
vt 0.78395 0.53409
vt 0.7963 0.52273
vt 0.91358 0.63636
vt 0.69136 0.69318
vt 0.72222 0.65909
vt 0.98765 0.63636
vt 0.70988 0.53409
vt 0.69753 0.52273
vt 1 0.60227
vt 0.91975 0.61364
vt 0.98148 0.61364
vt 0.60494 0.31818
vt 0.88889 0.31818
vt 0.87654 0.45454
vt 0.8642 0.5
vt 0.87654 0.5
vt 0.61728 0.5
vt 0.62963 0.5
vt 0.61728 0.45454
vt 0.90124 0.47727
vt 0.90124 0.5
vt 0.8642 0.52273
vt 0.88889 0.5
vt 0.88889 0.45454
vt 0.62346 0.69318
vt 0.59259 0.65909
vt 0.60494 0.45454
vt 0.59259 0.5
vt 1 0.47727
vt 0.60494 0.5
vt 0.62963 0.52273
vt 0.62346 0.53409
vt 0.59259 0.56818
vt 0.62346 0.56818
vt 0.61111 0.56818
vt 0.62346 0.65909
vt 0.61111 0.65909
vt 0.69136 0.56818
vt 0.7037 0.56818
vt 0.7037 0.65909
vt 0.69136 0.65909
vt 0.62346 0.59091
vt 0.62346 0.63636
vt 0.69136 0.59091
vt 0.69136 0.63636
vt 0.54321 0.54546
vt 0.49383 0.54546
vt 0.53086 0.54546
vt 0.50617 0.54546
vt 0.51852 0.54546
vt 0.51852 0.72727
vt 0.50617 0.72727
vt 0.51852 0.75
vt 0.53086 0.72727
vt 0.50617 0.75
vt 0.54321 0.72727
vt 0.49383 0.72727
vt 0.54321 0.45454
vt 0.59259 0.45454
vt 0.58025 0.45454
vt 0.55556 0.45454
vt 0.5679 0.45454
vt 0.59259 0.56818
vt 0.59259 0.61364
vt 0.54321 0.56818
vt 0.54321 0.61364
vt 0.58025 0.56818
vt 0.58025 0.61364
vt 0.55556 0.59091
vt 0.5679 0.59091
vt 0.59259 0.68182
vt 0.54321 0.68182
vt 0.59259 0.72727
vt 0.54321 0.72727
vt 0.58025 0.70454
vt 0.55556 0.68182
vt 0.55556 0.72727
vt 0.5679 0.70454
vt 0.59259 0.85227
vt 0.54321 0.85227
vt 0.58025 0.85227
vt 0.55556 0.85227
vt 0.5679 0.85227
vt 0.48765 0.59091
vt 0.41921 0.59049
vt 0.41975 0.54546
vt 0.37787 0.55897
vt 0.47531 0.54546
vt 0.41975 0.56818
vt 0.41975 0.56818
vt 0.37787 0.55897
vt 0.47531 0.54546
vt 0.395 0.54592
vt 0.45679 0.54546
vt 0.41212 0.55897
vt 0.43827 0.54546
vt 0.41975 0.54546
vt 0.41921 0.59049
vt 0.49383 0.54546
vt 0.37078 0.59049
vt 0.41975 0.59091
vt 0.43827 0.56818
vt 0.49383 0.56818
vt 0.47531 0.56818
vt 0.45679 0.56818
vt 0.43827 0.56818
vt 0.41975 0.59091
vt 0.45679 0.56818
vt 0.47531 0.56818
vt 0.49383 0.56818
vt 0.48765 0.59091
vt 0.47531 0.59091
vt 0.46914 0.59091
vt 0.45062 0.59091
vt 0.45679 0.59091
vt 0.4321 0.59091
vt 0.43827 0.59091
vt 0.34591 0.59064
vt 0.41975 0.60227
vt 0.37078 0.59049
vt 0.49383 0.54546
vt 0.41212 0.55897
vt 0.43827 0.54546
vt 0.45679 0.54546
vt 0.395 0.54592
vt 0.37013 0.59064
vt 0.48765 0.60227
vt 0.36658 0.57488
vt 0.47531 0.60227
vt 0.46914 0.60227
vt 0.35802 0.56835
vt 0.45062 0.60227
vt 0.45679 0.60227
vt 0.34946 0.57488
vt 0.4321 0.60227
vt 0.43827 0.60227
vt 0.46914 0.59091
vt 0.47531 0.59091
vt 0.45062 0.59091
vt 0.45679 0.59091
vt 0.4321 0.59091
vt 0.43827 0.59091
vt 0.34591 0.59064
vt 0.41975 0.60227
vt 0.37013 0.59064
vt 0.48765 0.60227
vt 0.36658 0.57488
vt 0.46914 0.60227
vt 0.47531 0.60227
vt 0.35802 0.56835
vt 0.45679 0.60227
vt 0.45062 0.60227
vt 0.34946 0.57488
vt 0.43827 0.60227
vt 0.4321 0.60227
vt 0.59259 0
vt 0.59259 0.02273
vt 0.59259 0.31818
vt 0.59259 0.29546
vt 0.98765 0
vt 0.98765 0.02273
vt 0.98765 0.31818
vt 0.98765 0.29546
vt 0.97531 0.02273
vt 0.60494 0.02273
vt 0.60494 0.29546
vt 0.97531 0.29546
vt 0.48765 0.59091
vt 0.41975 0.54546
vt 0.41921 0.59049
vt 0.37787 0.55897
vt 0.47531 0.54546
vt 0.41975 0.56818
vt 0.41975 0.56818
vt 0.37787 0.55897
vt 0.47531 0.54546
vt 0.395 0.54592
vt 0.45679 0.54546
vt 0.41212 0.55897
vt 0.43827 0.54546
vt 0.41921 0.59049
vt 0.41975 0.54546
vt 0.37078 0.59049
vt 0.49383 0.54546
vt 0.41975 0.59091
vt 0.43827 0.56818
vt 0.49383 0.56818
vt 0.47531 0.56818
vt 0.45679 0.56818
vt 0.43827 0.56818
vt 0.41975 0.59091
vt 0.45679 0.56818
vt 0.47531 0.56818
vt 0.49383 0.56818
vt 0.48765 0.59091
vt 0.46914 0.59091
vt 0.47531 0.59091
vt 0.45062 0.59091
vt 0.45679 0.59091
vt 0.4321 0.59091
vt 0.43827 0.59091
vt 0.34591 0.59064
vt 0.41975 0.60227
vt 0.49383 0.54546
vt 0.37078 0.59049
vt 0.41212 0.55897
vt 0.43827 0.54546
vt 0.395 0.54592
vt 0.45679 0.54546
vt 0.37013 0.59064
vt 0.48765 0.60227
vt 0.36658 0.57488
vt 0.47531 0.60227
vt 0.46914 0.60227
vt 0.35802 0.56835
vt 0.45062 0.60227
vt 0.45679 0.60227
vt 0.34946 0.57488
vt 0.43827 0.60227
vt 0.4321 0.60227
vt 0.47531 0.59091
vt 0.46914 0.59091
vt 0.45062 0.59091
vt 0.45679 0.59091
vt 0.4321 0.59091
vt 0.43827 0.59091
vt 0.41975 0.60227
vt 0.34591 0.59064
vt 0.48765 0.60227
vt 0.37013 0.59064
vt 0.36658 0.57488
vt 0.47531 0.60227
vt 0.46914 0.60227
vt 0.45062 0.60227
vt 0.35802 0.56835
vt 0.45679 0.60227
vt 0.4321 0.60227
vt 0.43827 0.60227
vt 0.34946 0.57488
vt 0 0.27273
vt 0.04938 0.27273
vt 0.2963 0.54546
vt 0.2963 0.09091
vt 0.79012 0.02273
vt 0.2963 0
vt 0.2963 0.45454
vt 0.59259 0.27273
vt 0.54321 0.27273
vt 0.79012 0.29546
vt 0.2963 0.45454
vt 0.54321 0.27273
vt 0.79012 0
vt 0.04938 0.27273
vt 0.79012 0.31818
vt 0.78395 0.30682
vt 0.2963 0.09091
vt 0.7963 0.01136
vt 0.2963 0.27273
vt 0.2963 0.27273
vt 0.41975 0.54546
vt 0.41975 0.09091
vt 0.89197 0.00568
vt 0.69753 0.02273
vt 0.88272 0.02273
vt 0.41975 0
vt 0.41975 0.45454
vt 0.69136 0.31818
vt 0.41975 0.27273
vt 0.41975 0.27273
vt 0.41975 0.45454
vt 0.88272 0.29546
vt 0.69136 0
vt 0.17284 0.27273
vt 0.17284 0.09091
vt 0.17284 0.45454
vt 0.17284 0.09091
vt 0.17284 0.54546
vt 0.88889 0
vt 0.69753 0.29546
vt 0.88889 0.31818
vt 0.87963 0.30114
vt 0.41975 0.09091
vt 0.70062 0.01705
vt 0.68827 0.3125
vt 0.17284 0.27273
vt 0.17284 0
vt 0.17284 0.45454
s 0
f 206/356/1 1/1/1 197/343/1
f 14/25/2 15/27/2 16/29/2
s 1
f 170/291/3 163/281/4 162/279/3
s 0
f 10/18/1 13/24/1 14/25/1
f 71/125/5 52/89/5 68/118/5
f 12/22/6 9/17/6 10/18/6
f 20/37/6 17/31/6 18/32/6
f 18/32/5 24/44/5 20/36/5
f 22/39/2 23/42/2 24/43/2
f 13/24/4 11/20/4 15/26/4
f 18/32/1 21/38/1 22/39/1
f 16/30/7 11/21/7 12/23/7
f 28/51/6 25/47/6 26/48/6
f 26/49/5 32/58/5 28/51/5
f 30/55/2 31/57/2 32/58/2
f 21/38/4 19/35/4 23/40/4
f 26/49/1 29/53/1 30/56/1
f 24/44/7 19/33/7 20/36/7
f 36/65/6 33/59/6 34/62/6
f 34/63/5 40/72/5 36/65/5
f 38/69/2 39/71/2 40/72/2
f 29/52/4 27/50/4 31/57/4
f 34/63/1 37/68/1 38/70/1
f 32/58/7 27/50/7 28/51/7
f 53/91/8 49/85/8 54/92/8
f 43/76/7 46/82/7 45/79/7
f 62/111/5 69/121/5 53/91/5
f 37/67/4 35/64/4 39/71/4
f 63/113/7 58/99/7 57/98/7
f 40/72/7 35/64/7 36/65/7
s 1
f 187/319/4 180/304/9 179/301/4
s 0
f 204/354/7 4/10/7 201/350/7
f 47/83/10 51/87/10 48/84/10
f 79/141/11 81/145/11 77/137/11
f 55/93/12 58/99/12 64/114/12
f 41/73/7 72/127/7 67/117/7
s 1
f 196/340/9 167/288/13 191/328/9
s 0
f 55/94/5 44/78/5 43/76/5
f 78/139/1 61/107/1 73/128/1
f 46/81/6 72/127/6 66/116/6
f 54/92/5 62/110/5 53/90/5
f 60/104/5 51/87/5 52/88/5
f 74/130/7 42/74/7 70/122/7
f 71/126/14 67/117/14 72/127/14
f 79/141/7 76/135/7 59/101/7
f 69/120/14 74/130/14 70/122/14
s 1
f 123/208/4 116/199/3 115/197/4
s 0
f 67/117/2 68/118/2 52/89/2
f 53/91/6 69/121/6 70/122/6
f 100/173/7 95/164/7 96/165/7
f 74/130/2 43/75/2 45/80/2
s 1
f 137/230/13 130/215/9 129/214/13
s 0
f 82/146/15 80/144/15 78/139/15
s 1
f 120/205/3 117/200/16 135/226/3
s 0
f 91/157/6 88/153/6 86/151/6
f 89/154/7 87/152/7 88/153/7
f 175/296/6 190/327/6 174/295/6
f 71/123/6 56/95/6 60/103/6
s 1
f 174/295/4 183/310/9 184/312/4
s 0
f 89/154/5 92/158/5 90/155/5
s 1
f 195/337/4 191/329/9 190/326/4
f 171/292/4 164/283/9 163/281/4
s 0
f 92/159/1 86/151/1 85/149/1
f 83/147/6 61/108/6 84/148/6
s 1
f 127/212/9 136/227/4 111/191/9
s 0
f 98/170/1 93/162/1 97/166/1
f 96/165/6 98/170/6 100/173/6
f 106/184/1 104/181/1 102/178/1
f 95/164/2 97/168/2 93/161/2
f 101/174/4 98/171/4 97/167/4
f 100/173/5 103/179/5 99/172/5
f 103/179/2 97/169/2 99/172/2
f 98/171/6 104/181/6 100/173/6
s 1
f 121/206/13 114/195/9 118/202/13
f 182/307/16 175/296/3 159/275/3
s 0
f 101/176/4 106/184/4 102/178/4
f 103/180/5 108/186/5 107/185/5
f 179/301/6 172/293/6 171/292/6
f 127/212/2 142/243/2 126/211/2
f 117/201/6 111/190/6 136/228/6
f 172/293/6 173/294/6 161/277/6
f 148/256/2 147/253/2 146/250/2
f 122/207/2 131/218/2 123/208/2
f 129/214/2 122/207/2 121/206/2
f 176/297/6 189/324/6 175/296/6
f 142/242/2 120/205/2 126/211/2
f 124/209/2 125/210/2 113/193/2
f 140/237/2 139/234/2 138/231/2
f 114/194/6 115/196/6 116/198/6
s 1
f 126/211/4 135/226/3 136/227/4
s 0
f 229/382/4 154/268/4 215/366/4
s 1
f 193/332/16 189/324/3 157/271/16
s 0
f 156/270/2 230/383/2 231/384/2
f 154/268/6 223/375/6 233/386/6
f 131/217/2 124/209/2 123/208/2
f 190/326/6 168/289/6 174/295/6
f 165/284/2 159/274/2 184/311/2
f 140/237/2 137/229/2 133/221/2
f 195/338/6 194/334/6 193/333/6
f 170/291/6 179/302/6 171/292/6
f 168/289/6 167/288/6 160/276/6
f 114/194/6 110/188/6 118/203/6
f 120/205/2 119/204/2 112/192/2
f 169/290/6 178/300/6 170/291/6
f 187/318/6 186/315/6 185/313/6
f 162/278/2 163/280/2 164/282/2
f 127/212/2 141/240/2 142/243/2
f 29/52/4 25/45/4 27/50/4
f 79/141/7 77/137/7 76/135/7
f 169/290/6 177/298/6 178/300/6
f 71/123/6 44/78/6 56/95/6
f 179/301/6 180/304/6 172/293/6
s 1
f 182/307/16 176/297/16 175/296/3
s 0
f 78/139/1 80/144/1 61/107/1
f 38/69/2 37/66/2 39/71/2
f 120/205/2 143/244/2 119/204/2
f 114/194/6 116/198/6 110/188/6
f 74/130/7 65/115/7 42/74/7
s 1
f 121/206/13 122/207/9 114/195/9
f 196/340/9 192/330/13 167/288/13
s 0
f 34/63/5 38/70/5 40/72/5
f 168/289/6 191/328/6 167/288/6
f 170/291/6 178/299/6 179/302/6
f 55/94/5 56/95/5 44/78/5
f 106/184/1 108/186/1 104/181/1
f 55/93/12 62/109/12 58/99/12
f 36/65/6 35/64/6 33/59/6
f 140/237/2 138/231/2 137/229/2
f 190/326/6 191/329/6 168/289/6
f 41/73/7 66/116/7 72/127/7
f 98/170/1 94/163/1 93/162/1
f 47/83/10 52/89/10 51/87/10
f 24/44/7 23/41/7 19/33/7
f 131/217/2 132/220/2 124/209/2
f 154/268/6 149/259/6 223/375/6
f 79/141/11 83/147/11 81/145/11
f 204/354/7 8/16/7 4/10/7
s 1
f 174/295/4 168/289/9 183/310/9
f 137/230/13 138/232/9 130/215/9
s 0
f 26/49/1 25/46/1 29/53/1
f 20/37/6 19/34/6 17/31/6
s 1
f 127/212/9 126/211/4 136/227/4
s 0
f 100/173/7 99/172/7 95/164/7
f 175/296/6 189/325/6 190/327/6
s 1
f 193/332/16 194/335/3 189/324/3
s 0
f 46/81/6 44/77/6 72/127/6
f 44/77/6 71/124/6 72/127/6
f 54/92/5 58/100/5 62/110/5
f 60/104/5 57/97/5 51/87/5
f 156/270/2 152/265/2 230/383/2
f 40/72/7 39/71/7 35/64/7
f 89/154/7 90/155/7 87/152/7
f 55/94/5 64/114/5 56/95/5
f 64/114/5 63/113/5 56/95/5
f 12/22/6 11/19/6 9/17/6
f 225/377/5 206/356/5 7/15/5
f 82/146/2 76/136/2 81/145/2
f 153/267/6 214/365/6 151/263/6
f 47/83/2 67/117/2 52/89/2
f 199/347/6 233/386/6 210/360/6
f 89/154/5 91/156/5 92/158/5
f 45/80/2 65/115/2 74/130/2
f 74/130/2 75/131/2 43/75/2
f 63/113/7 64/114/7 58/99/7
f 71/125/5 60/105/5 52/89/5
f 83/147/6 59/102/6 61/108/6
f 10/18/1 9/17/1 13/24/1
f 91/157/6 89/154/6 88/153/6
f 61/108/6 80/143/6 84/148/6
f 232/385/5 211/361/5 209/359/5
f 83/147/6 79/142/6 59/102/6
s 1
f 195/337/4 196/341/9 191/329/9
s 0
f 229/382/4 155/269/4 154/268/4
s 1
f 171/292/4 172/293/9 164/283/9
s 0
f 224/376/5 6/14/5 206/356/5
s 1
f 120/205/3 112/192/16 117/200/16
s 0
f 21/38/4 17/31/4 19/35/4
f 76/136/2 77/138/2 81/145/2
f 155/269/2 234/387/2 150/261/2
f 82/146/2 78/140/2 73/129/2
f 30/55/2 29/54/2 31/57/2
s 1
f 170/291/3 171/292/4 163/281/4
s 0
f 96/165/6 94/163/6 98/170/6
f 14/25/2 13/24/2 15/27/2
f 95/164/2 99/172/2 97/168/2
f 101/174/4 102/178/4 98/171/4
f 100/173/5 104/181/5 103/179/5
f 103/179/2 101/175/2 97/169/2
f 98/171/6 102/178/6 104/181/6
f 206/356/1 6/14/1 1/1/1
f 231/384/2 207/357/2 208/358/2
f 101/176/4 105/182/4 106/184/4
f 103/180/5 104/181/5 108/186/5
f 210/360/6 228/381/6 214/365/6
f 232/385/2 200/348/2 217/368/2
f 136/228/6 135/225/6 117/201/6
f 117/201/6 134/223/6 111/190/6
f 7/15/1 197/343/1 2/4/1
f 226/378/6 198/345/6 227/380/6
f 211/361/5 226/378/5 224/376/5
f 217/369/4 212/362/4 220/372/4
f 203/353/6 213/363/6 198/345/6
f 220/372/4 198/346/4 213/364/4
f 208/358/2 218/370/2 234/387/2
f 219/371/5 203/353/5 211/361/5
f 148/256/2 145/248/2 144/246/2
f 209/359/5 224/376/5 225/377/5
f 162/278/2 158/273/2 166/286/2
f 209/359/2 236/389/2 200/348/2
f 129/214/2 130/215/2 122/207/2
f 176/297/6 157/271/6 189/324/6
f 13/24/4 9/17/4 11/20/4
f 231/384/2 222/374/2 156/270/2
f 233/386/6 215/366/6 154/268/6
f 216/367/6 210/360/6 214/365/6
f 229/382/2 208/358/2 234/387/2
f 184/311/2 183/309/2 165/284/2
f 165/284/2 182/308/2 159/274/2
f 8/16/5 219/371/5 232/385/5
f 193/333/6 192/331/6 196/342/6
f 196/342/6 195/338/6 193/333/6
f 156/270/4 216/367/4 153/267/4
f 5/13/7 201/350/7 3/7/7
f 212/362/4 227/379/4 198/346/4
f 222/374/4 199/347/4 216/367/4
f 235/388/4 1/3/4 227/379/4
f 185/313/6 181/305/6 188/321/6
f 188/321/6 187/318/6 185/313/6
f 109/187/2 127/212/2 128/213/2
f 200/349/4 235/388/4 212/362/4
f 225/377/2 2/5/2 236/389/2
f 154/268/3 150/262/3 149/260/3
f 50/86/6 70/122/6 42/74/6
f 107/185/7 101/177/7 103/180/7
s 1
f 188/323/9 173/294/13 180/303/9
f 146/251/9 142/243/4 141/240/9
f 168/289/9 165/285/13 183/310/9
f 169/290/16 162/279/3 166/287/16
s 0
f 84/148/5 81/145/5 83/147/5
f 236/390/4 197/344/4 235/388/4
s 1
f 140/238/3 125/210/16 132/219/3
f 145/249/13 141/241/9 109/187/13
f 139/235/4 132/220/3 131/217/4
f 175/296/3 184/312/4 159/275/3
s 0
f 204/354/5 221/373/5 219/371/5
s 1
f 128/213/13 111/191/9 134/224/13
s 0
f 10/18/5 16/30/5 12/23/5
f 51/87/5 58/100/5 54/92/5
f 51/87/1 49/85/1 48/84/1
s 1
f 164/283/9 161/277/13 158/272/13
f 122/207/9 115/197/4 114/195/9
f 194/336/3 190/327/4 189/325/3
s 0
f 90/155/2 85/150/2 87/152/2
s 1
f 185/314/16 178/300/3 177/298/16
s 0
f 156/270/9 151/264/9 152/266/9
f 56/96/17 57/98/17 60/106/17
s 1
f 186/317/3 179/302/4 178/299/3
f 147/255/4 143/245/3 142/242/4
f 124/209/3 110/189/16 116/199/3
f 138/233/9 131/218/4 130/216/9
s 0
f 62/112/2 43/76/2 75/132/2
s 1
f 148/258/3 119/204/16 143/244/3
s 0
f 69/120/14 75/133/14 74/130/14
f 18/32/1 17/31/1 21/38/1
f 202/352/2 231/384/2 208/358/2
f 202/352/4 215/366/4 199/347/4
f 53/91/8 50/86/8 49/85/8
f 16/30/7 15/28/7 11/21/7
f 124/209/2 132/219/2 125/210/2
f 151/263/6 214/365/6 228/381/6
f 92/159/1 91/157/1 86/151/1
f 172/293/6 180/303/6 173/294/6
f 37/67/4 33/60/4 35/64/4
f 28/51/6 27/50/6 25/47/6
f 122/207/2 130/216/2 131/218/2
f 62/111/5 75/134/5 69/121/5
f 34/63/1 33/61/1 37/68/1
f 26/49/5 30/56/5 32/58/5
f 71/126/14 68/119/14 67/117/14
f 18/32/5 22/39/5 24/44/5
f 82/146/15 84/148/15 80/144/15
f 8/16/2 217/368/2 4/11/2
s 1
f 123/208/4 124/209/3 116/199/3
s 0
f 22/39/2 21/38/2 23/42/2
f 6/14/6 227/380/6 1/2/6
f 4/12/4 220/372/4 201/351/4
f 142/242/2 143/245/2 120/205/2
s 1
f 187/319/4 188/322/9 180/304/9
s 0
f 201/351/4 213/364/4 3/8/4
f 233/386/6 205/355/6 210/360/6
s 1
f 126/211/4 120/205/3 135/226/3
s 0
f 32/58/7 31/57/7 27/50/7
f 150/261/2 234/387/2 218/370/2
f 43/76/7 44/78/7 46/82/7
f 221/373/6 3/9/6 213/363/6
f 225/377/5 224/376/5 206/356/5
f 82/146/2 73/129/2 76/136/2
f 153/267/6 216/367/6 214/365/6
f 47/83/2 41/73/2 67/117/2
f 199/347/6 215/366/6 233/386/6
f 232/385/5 219/371/5 211/361/5
f 224/376/5 226/378/5 6/14/5
f 155/269/2 229/382/2 234/387/2
f 231/384/2 230/383/2 207/357/2
f 210/360/6 205/355/6 228/381/6
f 232/385/2 209/359/2 200/348/2
f 7/15/1 206/356/1 197/343/1
f 226/378/6 203/353/6 198/345/6
f 211/361/5 203/353/5 226/378/5
f 217/369/4 200/349/4 212/362/4
f 203/353/6 221/373/6 213/363/6
f 220/372/4 212/362/4 198/346/4
f 208/358/2 207/357/2 218/370/2
f 219/371/5 221/373/5 203/353/5
f 148/256/2 146/250/2 145/248/2
f 209/359/5 211/361/5 224/376/5
f 162/278/2 164/282/2 158/273/2
f 209/359/2 225/377/2 236/389/2
f 216/367/6 199/347/6 210/360/6
f 229/382/2 202/352/2 208/358/2
f 8/16/5 204/354/5 219/371/5
f 156/270/4 222/374/4 216/367/4
f 5/13/7 204/354/7 201/350/7
f 212/362/4 235/388/4 227/379/4
f 222/374/4 202/352/4 199/347/4
f 235/388/4 197/344/4 1/3/4
f 109/187/2 141/241/2 127/212/2
f 200/349/4 236/390/4 235/388/4
f 225/377/2 7/15/2 2/5/2
f 154/268/3 155/269/3 150/262/3
f 50/86/6 53/91/6 70/122/6
f 107/185/7 105/183/7 101/177/7
s 1
f 188/323/9 181/306/13 173/294/13
f 146/251/9 147/254/4 142/243/4
f 168/289/9 160/276/13 165/285/13
f 169/290/16 170/291/3 162/279/3
s 0
f 84/148/5 82/146/5 81/145/5
f 236/390/4 2/6/4 197/344/4
s 1
f 140/238/3 133/222/16 125/210/16
f 145/249/13 146/252/9 141/241/9
f 139/235/4 140/239/3 132/220/3
f 175/296/3 174/295/4 184/312/4
s 0
f 204/354/5 5/13/5 221/373/5
s 1
f 128/213/13 127/212/9 111/191/9
s 0
f 10/18/5 14/25/5 16/30/5
f 51/87/5 57/97/5 58/100/5
f 51/87/1 54/92/1 49/85/1
s 1
f 164/283/9 172/293/9 161/277/13
f 122/207/9 123/208/4 115/197/4
f 194/336/3 195/339/4 190/327/4
s 0
f 90/155/2 92/160/2 85/150/2
s 1
f 185/314/16 186/316/3 178/300/3
s 0
f 156/270/9 153/267/9 151/264/9
f 56/96/17 63/113/17 57/98/17
s 1
f 186/317/3 187/320/4 179/302/4
f 147/255/4 148/257/3 143/245/3
f 124/209/3 113/193/16 110/189/16
f 138/233/9 139/236/4 131/218/4
s 0
f 62/112/2 55/94/2 43/76/2
s 1
f 148/258/3 144/247/16 119/204/16
s 0
f 202/352/2 222/374/2 231/384/2
f 202/352/4 229/382/4 215/366/4
f 8/16/2 232/385/2 217/368/2
f 6/14/6 226/378/6 227/380/6
f 4/12/4 217/369/4 220/372/4
f 201/351/4 220/372/4 213/364/4
f 233/386/6 223/375/6 205/355/6
f 221/373/6 5/13/6 3/9/6
