# Blender 3.4.1
# www.blender.org
o Cylinder
v 0 1 -0.05
v 0 3.15 -0.05
v 0.03535 1 -0.03535
v 0.03535 3.15 -0.03535
v 0.05 1 0
v 0.05 3.15 0
v 0.03535 1 0.03535
v 0.03535 3.15 0.03536
v 0 1 0.05
v 0 3.15 0.05
v -0.03535 1 0.03535
v -0.03535 3.15 0.03536
v -0.05 1 0
v -0.05 3.15 0
v -0.03535 1 -0.03535
v -0.03535 3.15 -0.03535
v 0.3 1 -0.05
v 0.3 3.15 -0.05
v 0.33536 1 -0.03535
v 0.33536 3.15 -0.03535
v 0.35 1 0
v 0.35 3.15 0
v 0.33536 1 0.03535
v 0.33536 3.15 0.03536
v 0.3 1 0.05
v 0.3 3.15 0.05
v 0.26465 1 0.03535
v 0.26465 3.15 0.03536
v 0.25 1 0
v 0.25 3.15 0
v 0.26465 1 -0.03535
v 0.26465 3.15 -0.03535
v -0.3 1 -0.05
v -0.3 3.15 -0.05
v -0.26465 1 -0.03535
v -0.26465 3.15 -0.03535
v -0.25 1 0
v -0.25 3.15 0
v -0.26465 1 0.03535
v -0.26465 3.15 0.03536
v -0.3 1 0.05
v -0.3 3.15 0.05
v -0.33536 1 0.03535
v -0.33536 3.15 0.03536
v -0.35 1 0
v -0.35 3.15 0
v -0.33536 1 -0.03535
v -0.33536 3.15 -0.03535
v 0 1 0.25
v 0 3.15 0.25
v 0.03535 1 0.26465
v 0.03535 3.15 0.26465
v 0.05 1 0.3
v 0.05 3.15 0.3
v 0.03535 1 0.33536
v 0.03535 3.15 0.33536
v 0 1 0.35
v 0 3.15 0.35
v -0.03535 1 0.33536
v -0.03535 3.15 0.33536
v -0.05 1 0.3
v -0.05 3.15 0.3
v -0.03535 1 0.26465
v -0.03535 3.15 0.26465
v 0.3 1 0.25
v 0.3 3.15 0.25
v 0.33536 1 0.26465
v 0.33536 3.15 0.26465
v 0.35 1 0.3
v 0.35 3.15 0.3
v 0.33536 1 0.33536
v 0.33536 3.15 0.33536
v 0.3 1 0.35
v 0.3 3.15 0.35
v 0.26465 1 0.33536
v 0.26465 3.15 0.33536
v 0.25 1 0.3
v 0.25 3.15 0.3
v 0.26465 1 0.26465
v 0.26465 3.15 0.26465
v -0.3 1 0.25
v -0.3 3.15 0.25
v -0.26465 1 0.26465
v -0.26465 3.15 0.26465
v -0.25 1 0.3
v -0.25 3.15 0.3
v -0.26465 1 0.33536
v -0.26465 3.15 0.33536
v -0.3 1 0.35
v -0.3 3.15 0.35
v -0.33536 1 0.33536
v -0.33536 3.15 0.33536
v -0.35 1 0.3
v -0.35 3.15 0.3
v -0.33536 1 0.26465
v -0.33536 3.15 0.26465
v 0 1 -0.35
v 0 3.15 -0.35
v 0.03535 1 -0.33536
v 0.03535 3.15 -0.33536
v 0.05 1 -0.3
v 0.05 3.15 -0.3
v 0.03535 1 -0.26465
v 0.03535 3.15 -0.26465
v 0 1 -0.25
v 0 3.15 -0.25
v -0.03535 1 -0.26465
v -0.03535 3.15 -0.26465
v -0.05 1 -0.3
v -0.05 3.15 -0.3
v -0.03535 1 -0.33536
v -0.03535 3.15 -0.33536
v 0.3 1 -0.35
v 0.3 3.15 -0.35
v 0.33536 1 -0.33536
v 0.33536 3.15 -0.33536
v 0.35 1 -0.3
v 0.35 3.15 -0.3
v 0.33536 1 -0.26465
v 0.33536 3.15 -0.26465
v 0.3 1 -0.25
v 0.3 3.15 -0.25
v 0.26465 1 -0.26465
v 0.26465 3.15 -0.26465
v 0.25 1 -0.3
v 0.25 3.15 -0.3
v 0.26465 1 -0.33536
v 0.26465 3.15 -0.33536
v -0.3 1 -0.35
v -0.3 3.15 -0.35
v -0.26465 1 -0.33536
v -0.26465 3.15 -0.33536
v -0.25 1 -0.3
v -0.25 3.15 -0.3
v -0.26465 1 -0.26465
v -0.26465 3.15 -0.26465
v -0.3 1 -0.25
v -0.3 3.15 -0.25
v -0.33536 1 -0.26465
v -0.33536 3.15 -0.26465
v -0.35 1 -0.3
v -0.35 3.15 -0.3
v -0.33536 1 -0.33536
v -0.33536 3.15 -0.33536
v -0.5 3.15 0.325
v -0.5 3.3 0.325
v -0.5 3.15 -0.325
v -0.5 3.3 -0.325
v 0.5 3.15 0.325
v 0.5 3.3 0.325
v 0.5 3.15 -0.325
v 0.5 3.3 -0.325
v 0.325 3.15 0.5
v 0.325 3.3 0.5
v -0.325 3.15 0.5
v -0.325 3.3 0.5
v 0.325 3.15 -0.5
v 0.325 3.3 -0.5
v -0.325 3.15 -0.5
v -0.325 3.3 -0.5
v -0.325 3.3 -0.3295
v -0.49457 3.3 -0.33043
v 0.325 3.3 -0.32595
v -0.325 3.3 0.325
v 0.325 3.3 0.325
v -0.325 3.15 0.325
v -0.325 3.15 -0.325
v 0.325 3.15 -0.325
v 0.325 3.15 0.325
v 0 2.075 -0.05
v 0.05 2.075 0
v 0 2.075 0.05
v -0.05 2.075 0
v 0.3 2.075 -0.05
v 0.35 2.075 0
v 0.3 2.075 0.05
v 0.25 2.075 0
v -0.3 2.075 -0.05
v -0.25 2.075 0
v -0.3 2.075 0.05
v -0.35 2.075 0
v 0 2.075 0.25
v 0.05 2.075 0.3
v 0 2.075 0.35
v -0.05 2.075 0.3
v 0.3 2.075 0.25
v 0.35 2.075 0.3
v 0.3 2.075 0.35
v 0.25 2.075 0.3
v -0.3 2.075 0.25
v -0.25 2.075 0.3
v -0.3 2.075 0.35
v -0.35 2.075 0.3
v 0 2.075 -0.35
v 0.05 2.075 -0.3
v -0.05 2.075 -0.3
v 0.3 2.075 -0.35
v 0.35 2.075 -0.3
v 0.3 2.075 -0.25
v 0.25 2.075 -0.3
v -0.3 2.075 -0.35
v -0.25 2.075 -0.3
v -0.3 2.075 -0.25
v -0.35 2.075 -0.3
v 0 2.075 -0.25
v 0.03535 2.075 -0.03535
v 0.03535 2.075 0.03535
v -0.03535 2.075 0.03535
v -0.03535 2.075 -0.03535
v 0.33536 2.075 -0.03535
v 0.33536 2.075 0.03535
v 0.26465 2.075 0.03535
v 0.26465 2.075 -0.03535
v -0.26465 2.075 -0.03535
v -0.26465 2.075 0.03535
v -0.33536 2.075 0.03535
v -0.33536 2.075 -0.03535
v 0.03535 2.075 0.26465
v 0.03535 2.075 0.33536
v -0.03535 2.075 0.33536
v -0.03535 2.075 0.26465
v 0.33536 2.075 0.26465
v 0.33536 2.075 0.33536
v 0.26465 2.075 0.33536
v 0.26465 2.075 0.26465
v -0.26465 2.075 0.26465
v -0.26465 2.075 0.33536
v -0.33536 2.075 0.33536
v -0.33536 2.075 0.26465
v 0.03535 2.075 -0.33536
v 0.03535 2.075 -0.26465
v -0.03535 2.075 -0.26465
v -0.03535 2.075 -0.33536
v 0.33536 2.075 -0.33536
v 0.33536 2.075 -0.26465
v 0.26465 2.075 -0.26465
v 0.26465 2.075 -0.33536
v -0.26465 2.075 -0.33536
v -0.26465 2.075 -0.26465
v -0.33536 2.075 -0.26465
v -0.33536 2.075 -0.33536
vn 0.9239 -0.0000 0.3827
vn 0.3827 -0.0000 0.9239
vn -0.3827 -0.0000 0.9239
vn -0.9239 -0.0000 0.3827
vn -0.9239 -0.0000 -0.3827
vn 0.9239 -0.0000 -0.3827
vn 0.7071 -0.0000 -0.7071
vn 0.3827 -0.0000 -0.9239
vn -0.0000 -1.0000 -0.0000
vn -0.3827 -0.0000 -0.9239
vn -0.0000 1.0000 -0.0000
vn 1.0000 -0.0000 -0.0000
vn -1.0000 -0.0000 -0.0000
vn 0.7071 -0.0000 0.7071
vn -0.7071 -0.0000 0.7071
vn -0.0000 -0.0000 1.0000
vn -0.0000 -0.0000 -1.0000
vn -0.7071 -0.0000 -0.7071
vt 0.23529 0.94118
vt 0.17647 0
vt 0.17647 1
vt 0.26471 0.94118
vt 0.14706 0
vt 0.14706 1
vt 0.29412 0.94118
vt 0.11765 0
vt 0.11765 1
vt 0.08823 0
vt 0.29412 0.97059
vt 0.08823 1
vt 0.29412 1
vt 0.05882 0
vt 0.05882 1
vt 0.26471 1
vt 0.02941 0
vt 0.02941 1
vt 0.23529 1
vt 0.23529 0
vt -0 0
vt 0.23529 1
vt 0 1
vt 0.23529 0.97059
vt 0.20588 0
vt 0.20588 1
vt 0.26471 0.94118
vt 0.17647 0
vt 0.17647 1
vt 0.29412 0.94118
vt 0.14706 0
vt 0.14706 1
vt 0.29412 0.97059
vt 0.11765 0
vt 0.11765 1
vt 0.29412 1
vt 0.08823 0
vt 0.08823 1
vt 0.26471 1
vt 0.05882 0
vt 0.05882 1
vt 0.23529 1
vt 0.02941 0
vt 0.02941 1
vt 0.23529 0.97059
vt 0.23529 0
vt -0 0
vt 0 1
vt 0.23529 1
vt 0.23529 0.94118
vt 0.20588 0
vt 0.20588 1
vt 0.26471 0.94118
vt 0.17647 0
vt 0.17647 1
vt 0.29412 0.94118
vt 0.14706 0
vt 0.14706 1
vt 0.29412 0.97059
vt 0.11765 0
vt 0.11765 1
vt 0.29412 1
vt 0.08823 0
vt 0.08823 1
vt 0.26471 1
vt 0.05882 0
vt 0.05882 1
vt 0.23529 1
vt 0.02941 0
vt 0.02941 1
vt 0.23529 0.97059
vt 0.23529 0
vt -0 0
vt 0.23529 1
vt 0 1
vt 0.23529 0.94118
vt 0.20588 0
vt 0.20588 1
vt 0.26471 0.94118
vt 0.17647 0
vt 0.17647 1
vt 0.29412 0.94118
vt 0.14706 0
vt 0.14706 1
vt 0.29412 0.97059
vt 0.11765 0
vt 0.11765 1
vt 0.29412 1
vt 0.08823 0
vt 0.08823 1
vt 0.26471 1
vt 0.05882 0
vt 0.05882 1
vt 0.23529 1
vt 0.02941 0
vt 0.02941 1
vt 0.23529 0.97059
vt 0.23529 0
vt -0 0
vt 0 1
vt 0.23529 1
vt 0.23529 0.94118
vt 0.20588 0
vt 0.20588 1
vt 0.26471 0.94118
vt 0.17647 0
vt 0.17647 1
vt 0.29412 0.94118
vt 0.14706 0
vt 0.14706 1
vt 0.29412 0.97059
vt 0.11765 0
vt 0.11765 1
vt 0.29412 1
vt 0.08823 0
vt 0.08823 1
vt 0.26471 1
vt 0.05882 0
vt 0.05882 1
vt 0.23529 1
vt 0.02941 0
vt 0.02941 1
vt 0.23529 0.97059
vt 0.23529 0
vt -0 0
vt 0 1
vt 0.23529 1
vt 0.23529 0.94118
vt 0.20588 0
vt 0.20588 1
vt 0.26471 0.94118
vt 0.17647 0
vt 0.17647 1
vt 0.29412 0.94118
vt 0.14706 0
vt 0.14706 1
vt 0.29412 0.97059
vt 0.11765 0
vt 0.11765 1
vt 0.29412 1
vt 0.08823 0
vt 0.08823 1
vt 0.05882 0
vt 0.26471 1
vt 0.05882 1
vt 0.23529 1
vt 0.02941 0
vt 0.02941 1
vt 0.23529 0
vt 0.23529 0.97059
vt -0 0
vt 0.23529 1
vt 0 1
vt 0.20588 0
vt 0.23529 0.94118
vt 0.20588 1
vt 0.26471 0.94118
vt 0.17647 0
vt 0.17647 1
vt 0.29412 0.94118
vt 0.14706 0
vt 0.14706 1
vt 0.29412 0.97059
vt 0.11765 0
vt 0.11765 1
vt 0.08823 0
vt 0.29412 1
vt 0.08823 1
vt 0.05882 0
vt 0.26471 1
vt 0.05882 1
vt 0.23529 1
vt 0.02941 0
vt 0.02941 1
vt 0.23529 0
vt 0.23529 0.97059
vt -0 0
vt 0.23529 1
vt 0 1
vt 0.20588 0
vt 0.23529 0.94118
vt 0.20588 1
vt 0.26471 0.94118
vt 0.17647 0
vt 0.17647 1
vt 0.29412 0.94118
vt 0.14706 0
vt 0.14706 1
vt 0.29412 0.97059
vt 0.11765 0
vt 0.11765 1
vt 0.08823 0
vt 0.29412 1
vt 0.08823 1
vt 0.26471 1
vt 0.05882 0
vt 0.05882 1
vt 0.23529 1
vt 0.02941 0
vt 0.02941 1
vt 0.23529 0
vt 0.23529 0.97059
vt -0 0
vt 0.23529 1
vt 0 1
vt 0.23529 0.94118
vt 0.20588 0
vt 0.20588 1
vt 0.26471 0.94118
vt 0.17647 0
vt 0.17647 1
vt 0.29412 0.94118
vt 0.14706 0
vt 0.14706 1
vt 0.29412 0.97059
vt 0.11765 0
vt 0.11765 1
vt 0.08823 0
vt 0.29412 1
vt 0.08823 1
vt 0.26471 1
vt 0.05882 0
vt 0.05882 1
vt 0.23529 1
vt 0.02941 0
vt 0.02941 1
vt 0.23529 0
vt 0.23529 0.97059
vt -0 0
vt 0.23529 1
vt 0 1
vt 0.23529 0.94118
vt 0.20588 0
vt 0.20588 1
vt 0.64706 0.47059
vt 0.70588 0.05882
vt 0.70588 0
vt 0.23529 0.52941
vt 0.70588 0.11765
vt 0.29412 0.47059
vt 1 0.05882
vt 0.70588 0.11765
vt 0.70588 0.05882
vt 1 0
vt 0.23529 0.88235
vt 0.70588 0
vt 0.82353 0.05882
vt 0.64706 0
vt 0.70588 0.05882
vt 0.82353 0.11765
vt 0.70588 0.52941
vt 0.82353 0.11765
vt 1 0
vt 0.29412 0
vt 1 0.05882
vt 0.82353 0.05882
vt 0.70588 0.88235
vt 1 0
vt 0.70588 0.05882
vt 1 0.05882
vt 0.64706 0.47059
vt 0.70588 0.11765
vt 0.82353 0.05882
vt 0.70588 0
vt 0.70588 0.41176
vt 0.29412 0.47059
vt 0.82353 0.11765
vt 0.70588 0.05882
vt 0.70588 0.11765
vt 0.23529 0.05882
vt 1 0.05882
vt 0.70588 0.05882
vt 1 0
vt 0.64706 0.94118
vt 0.23529 0.41176
vt 0.70588 0.05882
vt 0.82353 0.11765
vt 0.70588 0
vt 0.82353 0.05882
vt 0.29412 0.94118
vt 0.29412 0.88235
vt 0.23529 0.88235
vt 0.70954 0.05882
vt 0.64706 0.88235
vt 0.29412 0.52941
vt 0.64706 0.52941
vt 0.64706 0.41176
vt 0.29412 0.41176
vt 0.29412 0.05882
vt 0.64706 0.05882
vt 0.17647 0.5
vt 0.11765 0.5
vt 0.05882 0.5
vt 0 0.5
vt 0.23529 0.5
vt 0.17647 0.5
vt 0.11765 0.5
vt 0.05882 0.5
vt 0 0.5
vt 0.23529 0.5
vt 0.17647 0.5
vt 0.11765 0.5
vt 0.05882 0.5
vt 0 0.5
vt 0.23529 0.5
vt 0.17647 0.5
vt 0.11765 0.5
vt 0.05882 0.5
vt 0 0.5
vt 0.23529 0.5
vt 0.17647 0.5
vt 0.11765 0.5
vt 0.05882 0.5
vt 0.23529 0.5
vt 0 0.5
vt 0.17647 0.5
vt 0.11765 0.5
vt 0.05882 0.5
vt 0.23529 0.5
vt 0 0.5
vt 0.17647 0.5
vt 0.11765 0.5
vt 0.23529 0.5
vt 0 0.5
vt 0.17647 0.5
vt 0.11765 0.5
vt 0.05882 0.5
vt 0 0.5
vt 0.23529 0.5
vt 0.17647 0.5
vt 0.11765 0.5
vt 0.05882 0.5
vt 0 0.5
vt 0.23529 0.5
vt 0.05882 0.5
vt 0.14706 0.5
vt 0.08823 0.5
vt 0.02941 0.5
vt 0.20588 0.5
vt 0.14706 0.5
vt 0.08823 0.5
vt 0.02941 0.5
vt 0.20588 0.5
vt 0.14706 0.5
vt 0.08823 0.5
vt 0.02941 0.5
vt 0.20588 0.5
vt 0.14706 0.5
vt 0.08823 0.5
vt 0.02941 0.5
vt 0.20588 0.5
vt 0.14706 0.5
vt 0.08823 0.5
vt 0.02941 0.5
vt 0.20588 0.5
vt 0.14706 0.5
vt 0.08823 0.5
vt 0.02941 0.5
vt 0.20588 0.5
vt 0.14706 0.5
vt 0.08823 0.5
vt 0.02941 0.5
vt 0.20588 0.5
vt 0.14706 0.5
vt 0.08823 0.5
vt 0.02941 0.5
vt 0.20588 0.5
vt 0.14706 0.5
vt 0.08823 0.5
vt 0.02941 0.5
vt 0.20588 0.5
s 0
f 6/9/1 207/337/1 171/292/1
f 8/12/2 172/293/2 207/337/2
f 10/15/3 208/338/3 172/293/3
f 12/18/4 173/294/4 208/338/4
f 14/22/5 209/339/5 173/295/5
f 20/32/6 175/297/6 210/340/6
f 22/35/1 211/341/1 175/297/1
f 157/269/7 152/256/7 151/252/7
f 18/29/8 210/340/8 174/296/8
f 9/13/9 11/16/9 15/24/9
f 24/38/2 176/298/2 211/341/2
f 26/41/3 212/342/3 176/298/3
f 28/44/4 177/299/4 212/342/4
f 30/49/5 213/343/5 177/300/5
f 36/58/6 179/302/6 214/344/6
f 48/78/10 178/301/10 217/347/10
f 34/55/8 214/344/8 178/301/8
f 25/39/9 27/42/9 31/50/9
f 38/61/1 215/345/1 179/302/1
f 40/64/2 180/303/2 215/345/2
f 42/67/3 216/346/3 180/303/3
f 44/70/4 181/304/4 216/346/4
f 46/74/5 217/347/5 181/305/5
f 52/84/6 183/307/6 218/348/6
f 64/104/10 182/306/10 221/351/10
f 50/81/8 218/348/8 182/306/8
f 41/65/9 43/68/9 47/76/9
f 54/87/1 219/349/1 183/307/1
f 56/90/2 184/308/2 219/349/2
f 58/93/3 220/350/3 184/308/3
f 60/96/4 185/309/4 220/350/4
f 62/101/5 221/351/5 185/310/5
f 68/110/6 187/312/6 222/352/6
f 70/113/1 223/353/1 187/312/1
f 96/156/10 190/316/10 229/359/10
f 66/107/8 222/352/8 186/311/8
f 57/91/9 59/94/9 63/102/9
f 72/116/2 188/313/2 223/353/2
f 74/119/3 224/354/3 188/313/3
f 76/122/4 189/315/4 224/354/4
f 78/127/5 225/355/5 189/314/5
f 84/136/6 191/317/6 226/356/6
f 82/133/8 226/356/8 190/316/8
f 73/117/9 75/120/9 79/128/9
f 86/139/1 227/357/1 191/317/1
f 71/114/9 79/128/9 65/105/9
f 90/145/3 228/358/3 192/318/3
f 237/367/10 114/185/10 197/325/10
f 94/152/5 229/359/5 193/319/5
f 159/275/9 168/289/9 167/288/9
f 112/182/10 194/321/10 233/363/10
f 98/159/8 230/360/8 194/321/8
f 89/144/9 91/146/9 95/155/9
f 102/165/1 231/361/1 195/322/1
f 92/148/4 193/320/4 228/358/4
f 106/171/3 232/362/3 205/335/3
f 100/162/6 195/322/6 230/360/6
f 110/178/5 233/363/5 196/323/5
f 147/240/9 166/287/9 145/235/9
f 118/191/1 235/365/1 198/326/1
f 144/234/10 201/330/10 241/371/10
f 114/185/8 234/364/8 197/325/8
f 105/170/9 107/172/9 111/181/9
f 108/174/4 196/324/4 232/362/4
f 122/197/3 236/366/3 199/327/3
f 154/261/11 164/285/11 156/266/11
f 126/204/5 237/367/5 200/329/5
f 2/3/8 206/336/8 170/291/8
f 130/211/8 238/368/8 201/330/8
f 121/195/9 123/198/9 127/206/9
f 134/217/1 239/369/1 202/331/1
f 124/200/4 200/328/4 236/366/4
f 138/223/3 240/370/3 203/332/3
f 132/214/6 202/331/6 238/368/6
f 142/230/5 241/371/5 204/334/5
f 136/220/2 203/332/2 239/369/2
f 225/355/10 66/107/10 186/311/10
f 150/249/12 151/253/12 152/255/12
f 137/221/9 139/224/9 143/232/9
f 148/244/13 145/236/13 146/237/13
f 4/6/6 171/292/6 206/336/6
f 149/247/14 154/262/14 153/259/14
f 164/285/11 163/284/11 161/281/11
f 155/263/15 146/239/15 145/236/15
f 147/240/9 159/275/9 167/288/9
f 156/268/16 153/258/16 154/260/16
f 167/288/9 169/290/9 166/287/9
f 158/273/17 159/276/17 160/278/17
f 120/194/2 199/327/2 235/365/2
f 47/76/9 39/62/9 41/65/9
f 32/52/10 174/296/10 213/343/10
f 158/274/11 163/284/11 152/257/11
f 162/282/11 161/281/11 160/280/11
f 165/286/11 152/257/11 163/284/11
f 164/285/11 148/245/11 146/238/11
f 159/277/18 162/283/18 160/279/18
f 116/188/6 198/326/6 234/364/6
f 165/286/11 154/261/11 150/251/11
f 146/238/11 156/266/11 164/285/11
f 145/235/9 166/287/9 155/265/9
f 88/142/2 192/318/2 227/357/2
f 169/290/9 155/265/9 166/287/9
f 140/226/4 204/333/4 240/370/4
f 151/254/9 169/290/9 168/289/9
f 169/290/9 149/248/9 153/259/9
f 157/270/9 151/254/9 168/289/9
f 104/168/2 205/335/2 231/361/2
f 26/41/3 28/44/3 212/342/3
f 193/319/5 95/154/5 93/149/5
f 24/38/2 26/41/2 176/298/2
f 233/363/10 97/158/10 111/180/10
f 18/29/8 20/32/8 210/340/8
f 194/321/8 99/161/8 97/158/8
f 22/35/1 24/38/1 211/341/1
f 60/96/4 62/100/4 185/309/4
f 157/269/7 158/272/7 152/256/7
f 15/24/9 1/1/9 3/4/9
f 3/4/9 5/7/9 7/11/9
f 31/50/9 23/36/9 25/39/9
f 11/16/9 13/19/9 15/24/9
f 240/370/4 141/229/4 139/225/4
f 195/322/1 103/166/1 101/164/1
f 20/32/6 22/35/6 175/297/6
f 228/358/4 93/151/4 91/147/4
f 14/22/5 16/26/5 209/339/5
f 205/335/3 107/173/3 105/169/3
f 56/90/2 58/93/2 184/308/2
f 12/18/4 14/23/4 173/294/4
f 31/50/9 17/27/9 19/30/9
f 19/30/9 21/33/9 23/36/9
f 209/339/10 1/2/10 15/25/10
f 27/42/9 29/45/9 31/50/9
f 231/361/2 105/169/2 103/166/2
f 10/15/3 12/18/3 208/338/3
f 230/360/6 101/164/6 99/161/6
f 8/12/2 10/15/2 172/293/2
f 196/323/5 111/180/5 109/175/5
f 6/9/1 8/12/1 207/337/1
f 198/326/1 119/192/1 117/190/1
f 54/87/1 56/90/1 219/349/1
f 171/292/1 7/10/1 5/8/1
f 47/76/9 33/53/9 35/56/9
f 35/56/9 37/59/9 39/62/9
f 15/24/9 7/11/9 9/13/9
f 43/68/9 45/71/9 47/76/9
f 227/357/2 89/143/2 87/141/2
f 207/337/2 9/14/2 7/10/2
f 241/371/10 129/210/10 143/233/10
f 172/293/3 11/17/3 9/14/3
f 197/325/8 115/187/8 113/184/8
f 208/338/4 13/21/4 11/17/4
f 232/362/4 109/177/4 107/173/4
f 210/340/6 21/34/6 19/31/6
f 50/81/8 52/84/8 218/348/8
f 173/295/5 15/25/5 13/20/5
f 87/140/9 95/155/9 81/131/9
f 51/82/9 53/85/9 55/88/9
f 236/366/4 125/203/4 123/199/4
f 59/94/9 61/97/9 63/102/9
f 49/79/9 51/82/9 55/88/9
f 199/327/3 123/199/3 121/196/3
f 175/297/1 23/37/1 21/34/1
f 200/329/5 127/207/5 125/201/5
f 174/296/8 19/31/8 17/28/8
f 170/291/8 3/5/8 1/2/8
f 211/341/2 25/40/2 23/37/2
f 55/88/9 63/102/9 49/79/9
f 67/108/9 69/111/9 71/114/9
f 202/331/1 135/218/1 133/216/1
f 75/120/9 77/123/9 79/128/9
f 65/105/9 67/108/9 71/114/9
f 176/298/3 27/43/3 25/40/3
f 201/330/8 131/213/8 129/210/8
f 212/342/4 29/47/4 27/43/4
f 192/318/3 91/147/3 89/143/3
f 177/300/5 31/51/5 29/46/5
f 226/356/6 85/138/6 83/135/6
f 64/104/10 50/81/10 182/306/10
f 214/344/6 37/60/6 35/57/6
f 135/219/9 143/232/9 129/209/9
f 83/134/9 85/137/9 87/140/9
f 203/332/3 139/225/3 137/222/3
f 91/146/9 93/150/9 95/155/9
f 81/131/9 83/134/9 87/140/9
f 217/347/10 33/54/10 47/77/10
f 189/314/5 79/129/5 77/124/5
f 178/301/8 35/57/8 33/54/8
f 224/354/4 77/125/4 75/121/4
f 179/302/1 39/63/1 37/60/1
f 186/311/8 67/109/8 65/106/8
f 180/303/3 43/69/3 41/66/3
f 52/84/6 54/87/6 183/307/6
f 215/345/2 41/66/2 39/63/2
f 161/281/11 158/274/11 160/280/11
f 99/160/9 101/163/9 103/167/9
f 239/369/2 137/222/2 135/218/2
f 107/172/9 109/176/9 111/181/9
f 97/157/9 99/160/9 103/167/9
f 229/359/10 81/132/10 95/154/10
f 216/346/4 45/73/4 43/69/4
f 222/352/6 69/112/6 67/109/6
f 181/305/5 47/77/5 45/72/5
f 28/44/4 30/48/4 177/299/4
f 218/348/6 53/86/6 51/83/6
f 103/167/9 111/181/9 97/157/9
f 115/186/9 117/189/9 119/193/9
f 204/334/5 143/233/5 141/227/5
f 123/198/9 125/202/9 127/206/9
f 113/183/9 115/186/9 119/193/9
f 221/351/10 49/80/10 63/103/10
f 30/49/5 32/52/5 213/343/5
f 182/306/8 51/83/8 49/80/8
f 36/58/6 38/61/6 179/302/6
f 183/307/1 55/89/1 53/86/1
f 48/78/10 34/55/10 178/301/10
f 46/74/5 48/78/5 217/347/5
f 219/349/2 57/92/2 55/89/2
f 119/193/9 127/206/9 113/183/9
f 131/212/9 133/215/9 135/219/9
f 238/368/6 133/216/6 131/213/6
f 139/224/9 141/228/9 143/232/9
f 129/209/9 131/212/9 135/219/9
f 44/70/4 46/75/4 181/304/4
f 127/207/10 197/325/10 113/184/10
f 42/67/3 44/70/3 216/346/3
f 79/129/10 186/311/10 65/106/10
f 184/308/3 59/95/3 57/92/3
f 40/64/2 42/67/2 180/303/2
f 38/61/1 40/64/1 215/345/1
f 220/350/4 61/99/4 59/95/4
f 185/310/5 63/103/5 61/98/5
f 234/364/6 117/190/6 115/187/6
f 148/243/18 162/283/18 147/242/18
f 58/93/3 60/96/3 220/350/3
f 206/336/6 5/8/6 3/5/6
f 235/365/2 121/196/2 119/192/2
f 162/282/11 148/245/11 161/281/11
f 213/343/10 17/28/10 31/51/10
f 187/312/1 71/115/1 69/112/1
f 191/317/1 87/141/1 85/138/1
f 190/316/8 83/135/8 81/132/8
f 34/55/8 36/58/8 214/344/8
f 223/353/2 73/118/2 71/115/2
f 188/313/3 75/121/3 73/118/3
f 16/26/10 170/291/10 209/339/10
f 62/101/5 64/104/5 221/351/5
f 68/110/6 70/113/6 187/312/6
f 70/113/1 72/116/1 223/353/1
f 96/156/10 82/133/10 190/316/10
f 66/107/8 68/110/8 222/352/8
f 72/116/2 74/119/2 188/313/2
f 74/119/3 76/122/3 224/354/3
f 76/122/4 78/126/4 189/315/4
f 78/127/5 80/130/5 225/355/5
f 84/136/6 86/139/6 191/317/6
f 82/133/8 84/136/8 226/356/8
f 86/139/1 88/142/1 227/357/1
f 71/114/9 73/117/9 79/128/9
f 90/145/3 92/148/3 228/358/3
f 237/367/10 128/208/10 114/185/10
f 94/152/5 96/156/5 229/359/5
f 159/275/9 157/270/9 168/289/9
f 112/182/10 98/159/10 194/321/10
f 98/159/8 100/162/8 230/360/8
f 102/165/1 104/168/1 231/361/1
f 92/148/4 94/153/4 193/320/4
f 106/171/3 108/174/3 232/362/3
f 100/162/6 102/165/6 195/322/6
f 110/178/5 112/182/5 233/363/5
f 147/240/9 167/288/9 166/287/9
f 118/191/1 120/194/1 235/365/1
f 144/234/10 130/211/10 201/330/10
f 114/185/8 116/188/8 234/364/8
f 108/174/4 110/179/4 196/324/4
f 122/197/3 124/200/3 236/366/3
f 154/261/11 165/286/11 164/285/11
f 126/204/5 128/208/5 237/367/5
f 2/3/8 4/6/8 206/336/8
f 130/211/8 132/214/8 238/368/8
f 134/217/1 136/220/1 239/369/1
f 124/200/4 126/205/4 200/328/4
f 138/223/3 140/226/3 240/370/3
f 132/214/6 134/217/6 202/331/6
f 142/230/5 144/234/5 241/371/5
f 136/220/2 138/223/2 203/332/2
f 225/355/10 80/130/10 66/107/10
f 150/249/12 149/246/12 151/253/12
f 148/244/13 147/241/13 145/236/13
f 4/6/6 6/9/6 171/292/6
f 149/247/14 150/250/14 154/262/14
f 164/285/11 165/286/11 163/284/11
f 155/263/15 156/267/15 146/239/15
f 156/268/16 155/264/16 153/258/16
f 167/288/9 168/289/9 169/290/9
f 158/273/17 157/271/17 159/276/17
f 120/194/2 122/197/2 199/327/2
f 47/76/9 35/56/9 39/62/9
f 32/52/10 18/29/10 174/296/10
f 165/286/11 150/251/11 152/257/11
f 164/285/11 161/281/11 148/245/11
f 159/277/18 147/242/18 162/283/18
f 116/188/6 118/191/6 198/326/6
f 88/142/2 90/145/2 192/318/2
f 169/290/9 153/259/9 155/265/9
f 140/226/4 142/231/4 204/333/4
f 151/254/9 149/248/9 169/290/9
f 104/168/2 106/171/2 205/335/2
f 193/319/5 229/359/5 95/154/5
f 233/363/10 194/321/10 97/158/10
f 194/321/8 230/360/8 99/161/8
f 31/50/9 19/30/9 23/36/9
f 240/370/4 204/333/4 141/229/4
f 195/322/1 231/361/1 103/166/1
f 228/358/4 193/320/4 93/151/4
f 205/335/3 232/362/3 107/173/3
f 209/339/10 170/291/10 1/2/10
f 231/361/2 205/335/2 105/169/2
f 230/360/6 195/322/6 101/164/6
f 196/323/5 233/363/5 111/180/5
f 198/326/1 235/365/1 119/192/1
f 171/292/1 207/337/1 7/10/1
f 15/24/9 3/4/9 7/11/9
f 227/357/2 192/318/2 89/143/2
f 207/337/2 172/293/2 9/14/2
f 241/371/10 201/330/10 129/210/10
f 172/293/3 208/338/3 11/17/3
f 197/325/8 234/364/8 115/187/8
f 208/338/4 173/294/4 13/21/4
f 232/362/4 196/324/4 109/177/4
f 210/340/6 175/297/6 21/34/6
f 173/295/5 209/339/5 15/25/5
f 87/140/9 89/144/9 95/155/9
f 236/366/4 200/328/4 125/203/4
f 199/327/3 236/366/3 123/199/3
f 175/297/1 211/341/1 23/37/1
f 200/329/5 237/367/5 127/207/5
f 174/296/8 210/340/8 19/31/8
f 170/291/8 206/336/8 3/5/8
f 211/341/2 176/298/2 25/40/2
f 55/88/9 57/91/9 63/102/9
f 202/331/1 239/369/1 135/218/1
f 176/298/3 212/342/3 27/43/3
f 201/330/8 238/368/8 131/213/8
f 212/342/4 177/299/4 29/47/4
f 192/318/3 228/358/3 91/147/3
f 177/300/5 213/343/5 31/51/5
f 226/356/6 191/317/6 85/138/6
f 214/344/6 179/302/6 37/60/6
f 135/219/9 137/221/9 143/232/9
f 203/332/3 240/370/3 139/225/3
f 217/347/10 178/301/10 33/54/10
f 189/314/5 225/355/5 79/129/5
f 178/301/8 214/344/8 35/57/8
f 224/354/4 189/315/4 77/125/4
f 179/302/1 215/345/1 39/63/1
f 186/311/8 222/352/8 67/109/8
f 180/303/3 216/346/3 43/69/3
f 215/345/2 180/303/2 41/66/2
f 161/281/11 163/284/11 158/274/11
f 239/369/2 203/332/2 137/222/2
f 229/359/10 190/316/10 81/132/10
f 216/346/4 181/304/4 45/73/4
f 222/352/6 187/312/6 69/112/6
f 181/305/5 217/347/5 47/77/5
f 218/348/6 183/307/6 53/86/6
f 103/167/9 105/170/9 111/181/9
f 204/334/5 241/371/5 143/233/5
f 221/351/10 182/306/10 49/80/10
f 182/306/8 218/348/8 51/83/8
f 183/307/1 219/349/1 55/89/1
f 219/349/2 184/308/2 57/92/2
f 119/193/9 121/195/9 127/206/9
f 238/368/6 202/331/6 133/216/6
f 127/207/10 237/367/10 197/325/10
f 79/129/10 225/355/10 186/311/10
f 184/308/3 220/350/3 59/95/3
f 220/350/4 185/309/4 61/99/4
f 185/310/5 221/351/5 63/103/5
f 234/364/6 198/326/6 117/190/6
f 206/336/6 171/292/6 5/8/6
f 235/365/2 199/327/2 121/196/2
f 213/343/10 174/296/10 17/28/10
f 187/312/1 223/353/1 71/115/1
f 191/317/1 227/357/1 87/141/1
f 190/316/8 226/356/8 83/135/8
f 223/353/2 188/313/2 73/118/2
f 188/313/3 224/354/3 75/121/3
f 16/26/10 2/3/10 170/291/10
