# Blender 3.4.1
# www.blender.org
o body
v 0.125 0.4375 -0.1875
v 0.125 0.4375 -0.3125
v 0.125 0.3125 -0.1875
v 0.125 0.3125 -0.3125
v -0.125 0.4375 -0.1875
v -0.125 0.4375 -0.3125
v -0.125 0.3125 -0.1875
v -0.125 0.3125 -0.3125
v 0.0625 0.5 -0.1875
v 0.0625 0.5 -0.3125
v -0.0625 0.5 -0.1875
v -0.0625 0.5 -0.3125
v 0.0625 0.25 -0.1875
v -0.0625 0.25 -0.1875
v 0.0625 0.25 -0.3125
v -0.0625 0.25 -0.3125
v 0.0625 0.4375 -0.3125
v 0.0625 0.3125 -0.3125
v -0.0625 0.4375 -0.3125
v -0.0625 0.3125 -0.3125
v 0.0625 0.4375 -0.25
v 0.0625 0.3125 -0.25
v -0.0625 0.4375 -0.25
v -0.0625 0.3125 -0.25
v 0.03125 0.40625 -0.3125
v 0.03125 0.34375 -0.3125
v -0.03125 0.40625 -0.3125
v -0.03125 0.34375 -0.3125
v 0.125 0.625 0.125
v 0.125 0.625 -0.125
v -0.125 0.625 0.125
v -0.125 0.625 -0.125
v 0.125 0.125 0.125
v 0.125 0.125 -0.125
v -0.125 0.125 0.125
v -0.125 0.125 -0.125
v -0.25 0.25 0.125
v -0.25 0.5 0.125
v -0.25 0.25 -0.125
v -0.25 0.5 -0.125
v 0.25 0.25 0.125
v 0.25 0.5 0.125
v 0.25 0.25 -0.125
v 0.25 0.5 -0.125
v 0.125 0.25 -0.25
v 0.125 0.5 -0.25
v -0.125 0.25 -0.25
v -0.125 0.5 -0.25
v 0.125 0.25 0.25
v 0.125 0.5 0.25
v -0.125 0.25 0.25
v -0.125 0.5 0.25
v 0.25 0.4375 0.0625
v 0.25 0.3125 0.0625
v 0.25 0.4375 -0.125
v 0.25 0.3125 -0.125
v 0.125 0.3125 -0.25
v 0.125 0.4375 -0.25
v -0.125 0.4375 -0.25
v -0.125 0.3125 -0.25
v -0.25 0.3125 -0.125
v -0.25 0.4375 -0.125
v -0.25 0.3125 0.0625
v -0.25 0.4375 0.0625
v 0.1875 0.4375 0.0625
v 0.1875 0.3125 0.0625
v 0.1875 0.4375 -0.125
v 0.1875 0.3125 -0.125
v 0.125 0.3125 -0.1875
v 0.125 0.4375 -0.1875
v -0.125 0.4375 -0.1875
v -0.125 0.3125 -0.1875
v -0.1875 0.3125 -0.125
v -0.1875 0.4375 -0.125
v -0.1875 0.3125 0.0625
v -0.1875 0.4375 0.0625
vn -0.7173 -0.2971 -0.6303
vn -0.9239 0.3827 -0.0000
vn -0.7173 0.2971 -0.6303
vn -0.8756 0.3416 -0.3416
vn -0.8756 0.3416 0.3416
vn -0.3416 0.8756 0.3416
vn -0.2971 0.7173 -0.6303
vn 0.3827 0.9239 -0.0000
vn 0.2971 0.7173 -0.6303
vn 0.8756 0.3416 -0.3416
vn 0.3416 0.8756 -0.3416
vn 0.3416 0.8756 0.3416
vn 0.9239 -0.3827 -0.0000
vn 0.2971 -0.7173 -0.6303
vn 0.7173 -0.2971 -0.6303
vn 0.5491 0.8042 -0.2275
vn 0.5491 -0.8042 -0.2275
vn 0.5774 -0.5774 -0.5774
vn -0.5774 -0.5774 -0.5774
vn 0.7173 0.2971 -0.6303
vn 0.8756 -0.3416 -0.3416
vn 0.8756 -0.3416 0.3416
vn 0.3416 -0.8756 0.3416
vn 0.3694 -0.2612 -0.8918
vn 0.3416 0.3416 -0.8756
vn -0.3827 0.9239 -0.0000
vn -0.5491 -0.8042 -0.2275
vn -0.3922 0.8321 -0.3922
vn -0.5491 0.8042 -0.2275
vn 0.4224 0.4224 -0.8019
vn -0.4248 -0.4248 -0.7994
vn 0.4248 -0.4248 -0.7994
vn -0.3416 0.3416 -0.8756
vn -0.7173 -0.6303 -0.2971
vn -0.3416 -0.3416 -0.8756
vn -0.3694 0.2612 -0.8918
vn 0.3694 0.2612 -0.8918
vn -0.2971 -0.7173 -0.6303
vn 0.3827 -0.9239 -0.0000
vn -0.3827 -0.9239 -0.0000
vn 0.3416 -0.3416 -0.8756
vn -0.9045 0.3015 -0.3015
vn -0.5774 0.5774 -0.5774
vn 0.5774 0.5774 -0.5774
vn 0.3416 -0.8756 -0.3416
vn 0.8756 0.3416 0.3416
vn 0.3416 0.3416 0.8756
vn 0.3416 -0.3416 0.8756
vn -0.4224 -0.4224 -0.8019
vn -0.3416 0.3416 0.8756
vn 0.4224 -0.4224 -0.8019
vn 0.4248 0.4248 -0.7994
vn -0.3416 -0.8756 0.3416
vn -0.3416 -0.8756 -0.3416
vn -0.4224 0.4224 -0.8019
vn -0.9239 -0.3827 -0.0000
vn -0.4248 0.4248 -0.7994
vn 0.7173 -0.6303 -0.2971
vn 0.3922 0.8321 -0.3922
vn 0.3922 -0.8321 -0.3922
vn 0.9239 0.3827 -0.0000
vn 0.7173 0.6303 -0.2971
vn -0.3416 0.8756 -0.3416
vn 0.9045 0.3015 -0.3015
vn -0.9045 -0.3015 -0.3015
vn -0.8756 -0.3416 -0.3416
vn -0.3416 -0.3416 0.8756
vn 0.9045 -0.3015 -0.3015
vn -0.7173 0.6303 -0.2971
vn -0.8756 -0.3416 0.3416
vn -0.3694 -0.2612 -0.8918
vn -0.3922 -0.8321 -0.3922
vt 0.19828 0.80769
vt 0.22414 0.98077
vt 0.22414 0.80769
vt 0.21552 1
vt 0.19828 0.76923
vt 0.22414 1
vt 0.22414 0.94231
vt 0.22414 0.76923
vt 0.19828 0.88462
vt 0.22414 0.88462
vt 0.25862 0.98077
vt 0.19828 0.92308
vt 0.25862 0.94231
vt 0.22414 0.92308
vt 0.19828 0.82692
vt 0.23276 1
vt 0.22414 0.82692
vt 0.19828 0.86538
vt 0.25 1
vt 0.22414 0.86538
vt 0.21552 0.98077
vt 0.21552 0.94231
vt 0.23276 0.92308
vt 0.22414 0.98077
vt 0.25 0.92308
vt 0.22414 0.94231
vt 0.22414 0.98077
vt 0.23276 0.98077
vt 0.23276 0.92308
vt 0.23276 0.94231
vt 0.22414 0.94231
vt 0.25862 0.98077
vt 0.25 0.98077
vt 0.25862 0.94231
vt 0.25 0.94231
vt 0.25 0.92308
vt 0.23276 1
vt 0.22414 0.90385
vt 0.23276 0.98077
vt 0.23276 0.92308
vt 0.23276 0.94231
vt 0.22414 0.86538
vt 0.23276 0.84615
vt 0.25 0.92308
vt 0.25862 0.90385
vt 0.25 0.98077
vt 0.25 1
vt 0.25862 0.86538
vt 0.25 0.94231
vt 0.25 0.84615
vt 0.23276 0.90385
vt 0.23276 0.86538
vt 0.25 0.90385
vt 0.25 0.86538
vt 0.05172 0.92308
vt 0.03448 0.92308
vt 0.08621 0.92308
vt 0.03448 1
vt 0.10345 0.92308
vt 0 0.92308
vt 0.18965 0.92308
vt 0.19828 0.92308
vt 0 1
vt 0.15517 0.92308
vt 0.13793 0.92308
vt 0.05172 0.76923
vt 0.03448 0.76923
vt 0.03448 0.69231
vt 0.08621 0.76923
vt 0.10345 0.76923
vt 0.19828 0.76923
vt 0 0.76923
vt 0.18965 0.76923
vt 0 0.69231
vt 0.15517 0.76923
vt 0.13793 0.76923
vt 0.18965 0.80769
vt 0.18965 0.88462
vt 0.15517 0.80769
vt 0.15517 0.88462
vt 0.05172 0.80769
vt 0.05172 0.88462
vt 0.08621 0.80769
vt 0.08621 0.88462
vt 0.10345 0.80769
vt 0.10345 0.88462
vt 0.13793 0.80769
vt 0.13793 0.88462
vt 0.03448 0.80769
vt 0.03448 0.88462
vt 0.19828 0.80769
vt 0 0.80769
vt 0 0.88462
vt 0.19828 0.88462
vt 0.06035 0.86538
vt 0.06035 0.88462
vt 0.05172 0.86538
vt 0.06035 0.82692
vt 0.06035 0.80769
vt 0.05172 0.82692
vt 0.08621 0.86538
vt 0.08621 0.88462
vt 0.13793 0.86538
vt 0.08621 0.82692
vt 0.11207 0.82692
vt 0.08621 0.80769
vt 0.10345 0.82692
vt 0.09483 0.86538
vt 0.12069 0.82692
vt 0.10345 0.86538
vt 0.11207 0.82692
vt 0.13793 0.86538
vt 0.13793 0.82692
vt 0.14655 0.86538
vt 0.15517 0.80769
vt 0.15517 0.82692
vt 0.12931 0.82692
vt 0.15517 0.88462
vt 0.4 0.5625
vt 0.10345 0.86538
vt 0.15517 0.86538
vt 0.17241 0.80769
vt 0.18965 0.82692
vt 0.17241 0.82692
vt 0.17241 0.88462
vt 0.18965 0.86538
vt 0.17241 0.86538
vt 0.06035 0.86538
vt 0.06035 0.82692
vt 0.08621 0.86538
vt 0.12931 0.86538
vt 0.08621 0.82692
vt 0.10345 0.82692
vt 0.09483 0.82692
vt 0.09483 0.86538
vt 0.12069 0.84615
vt 0.14655 0.86538
vt 0.46667 0.5
vt 0.12069 0.84615
vt 0.14655 0.82692
vt 0.14655 0.84615
vt 0.13793 0.82692
vt 0.15517 0.82692
vt 0.15517 0.86538
vt 0.43333 0.5625
vt 0.17241 0.82692
vt 0.17241 0.86538
s 1
f 8/14/1 5/9/2 6/10/3
f 40/80/4 38/78/5 31/61/6
f 12/20/7 9/15/8 10/17/9
f 44/84/10 30/57/11 29/55/12
f 3/4/13 15/24/14 4/6/15
f 68/132/16 67/130/17 65/128/18
f 4/7/15 17/28/19 2/2/20
f 43/83/21 41/81/22 33/66/23
f 44/84/10 58/110/24 46/86/25
f 5/9/2 11/18/26 12/20/7
f 74/144/27 72/140/28 73/143/29
f 24/50/30 28/54/31 26/52/32
f 12/19/7 10/16/9 2/2/20
f 12/19/7 2/2/20 6/11/3
f 48/88/33 62/121/34 40/80/4
f 47/87/35 60/113/36 57/107/37
f 16/26/38 13/21/39 14/22/40
f 31/60/6 29/56/12 30/58/11
f 47/87/35 57/107/37 45/85/41
f 63/122/42 75/146/43 73/143/29
f 15/23/14 16/25/38 8/13/1
f 15/23/14 8/13/1 4/7/15
f 6/11/3 20/35/44 8/13/1
f 47/87/35 45/85/41 34/70/45
f 19/32/18 24/49/30 20/34/44
f 42/82/46 50/90/47 49/89/48
f 18/31/43 21/39/49 17/27/19
f 52/93/50 29/56/12 31/60/6
f 17/28/19 21/37/49 23/47/51
f 28/54/31 25/51/52 26/52/32
f 35/72/53 36/74/54 34/68/45
f 20/36/44 22/41/55 18/29/43
f 2/3/20 10/17/9 9/15/8
f 23/45/51 28/54/31 24/48/30
f 4/7/15 18/30/43 17/28/19
f 8/14/1 7/12/56 5/9/2
f 12/20/7 11/18/26 9/15/8
f 21/40/49 27/53/57 23/44/51
f 44/84/10 55/101/58 58/110/24
f 22/42/55 25/51/52 21/38/49
f 3/4/13 13/21/39 15/24/14
f 67/130/17 69/134/59 70/135/60
f 18/31/43 22/41/55 21/39/49
f 5/9/2 12/20/7 6/10/3
f 6/11/3 19/33/18 20/35/44
f 35/72/53 34/68/45 33/67/23
f 8/14/1 16/26/38 14/22/40
f 2/3/20 9/15/8 1/1/61
f 56/106/62 68/132/16 66/129/44
f 42/82/46 49/89/48 41/81/22
f 4/8/15 2/3/20 1/1/61
f 47/87/35 34/70/45 36/76/54
f 20/36/44 24/49/30 22/41/55
f 43/83/21 33/66/23 34/69/45
f 21/40/49 25/51/52 27/53/57
f 31/60/6 30/58/11 32/63/63
f 54/100/64 66/129/44 65/128/18
f 68/132/16 65/128/18 66/129/44
f 52/93/50 50/90/47 29/56/12
f 44/84/10 29/55/12 42/82/46
f 23/45/51 27/53/57 28/54/31
f 40/80/4 31/61/6 32/64/63
f 22/42/55 26/52/32 25/51/52
f 62/118/34 76/147/19 64/125/65
f 39/79/66 36/75/54 35/73/53
f 48/88/33 30/59/11 46/86/25
f 28/54/31 27/53/57 25/51/52
f 73/143/29 76/147/19 74/144/27
f 19/32/18 23/46/51 24/49/30
f 45/85/41 56/104/62 43/83/21
f 64/126/65 76/147/19 75/146/43
f 51/92/67 50/90/47 52/93/50
f 53/96/68 65/128/18 67/130/17
f 63/122/42 73/143/29 61/115/69
f 45/85/41 57/107/37 56/104/62
f 33/67/23 41/81/22 49/89/48
f 35/71/53 51/91/67 37/77/70
f 34/70/45 45/85/41 43/83/21
f 36/76/54 39/79/66 47/87/35
f 29/56/12 50/90/47 42/82/46
f 31/62/6 38/78/5 52/94/50
f 30/59/11 44/84/10 46/86/25
f 32/65/63 48/88/33 40/80/4
f 53/95/68 55/101/58 44/84/10
f 53/95/68 44/84/10 42/82/46
f 54/98/64 53/95/68 42/82/46
f 54/98/64 42/82/46 41/81/22
f 56/104/62 54/98/64 41/81/22
f 56/104/62 41/81/22 43/83/21
f 46/86/25 59/112/71 48/88/33
f 51/92/67 35/72/53 33/67/23
f 39/79/66 35/73/53 37/77/70
f 67/130/17 68/132/16 69/134/59
f 39/79/66 60/113/36 47/87/35
f 38/78/5 37/77/70 51/91/67
f 38/78/5 51/91/67 52/94/50
f 51/92/67 49/89/48 50/90/47
f 51/92/67 33/67/23 49/89/48
f 39/79/66 61/116/69 60/113/36
f 64/126/65 75/146/43 63/123/42
f 16/26/38 15/24/14 13/21/39
f 64/127/65 63/124/42 37/77/70
f 64/127/65 37/77/70 38/78/5
f 62/121/34 64/127/65 38/78/5
f 62/121/34 38/78/5 40/80/4
f 63/124/42 61/116/69 39/79/66
f 63/124/42 39/79/66 37/77/70
f 4/8/15 1/1/61 3/5/13
f 62/118/34 74/144/27 76/147/19
f 53/96/68 67/130/17 55/102/58
f 48/88/33 32/65/63 30/59/11
f 24/50/30 26/52/32 22/43/55
f 74/144/27 71/137/72 72/140/28
f 69/134/59 68/133/16 56/105/62
f 69/134/59 56/105/62 57/108/37
f 67/131/17 70/136/60 58/109/24
f 67/131/17 58/109/24 55/103/58
f 73/142/29 72/141/28 60/114/36
f 73/142/29 60/114/36 61/117/69
f 71/138/72 74/145/27 62/119/34
f 71/139/72 62/120/34 59/111/71
f 56/106/62 66/129/44 54/99/64
f 48/88/33 59/112/71 62/121/34
f 8/14/1 14/22/40 7/12/56
f 46/86/25 58/110/24 59/112/71
f 54/100/64 65/128/18 53/97/68
f 73/143/29 75/146/43 76/147/19
f 17/28/19 23/47/51 19/33/18
o eye
v 1 -0.625 -0.1875
v 1 1.375 -0.1875
v -1 -0.625 -0.1875
v -1 1.375 -0.1875
v 1 0.375 -0.1875
v 0 -0.625 -0.1875
v 0 1.375 -0.1875
v -1 0.375 -0.1875
v 0 0.375 -0.1875
vn -0.0000 -0.0000 -1.0000
vt 0.71552 0.01923
vt 0.71552 0.63462
vt 0.99138 0.01923
vt 0.99138 0.63462
vt 0.71552 0.32692
vt 0.85345 0.01923
vt 0.85345 0.63462
vt 0.99138 0.32692
vt 0.85345 0.32692
s 1
f 85/156/73 78/149/73 81/152/73
f 82/153/73 81/152/73 77/148/73
f 84/155/73 83/154/73 85/156/73
f 79/150/73 85/156/73 82/153/73
f 85/156/73 83/154/73 78/149/73
f 82/153/73 85/156/73 81/152/73
f 84/155/73 80/151/73 83/154/73
f 79/150/73 84/155/73 85/156/73
o wingL1
v 0.8125 0.5 0
v 0.8125 2.125 0
v 0 0.5 0
v 0 2.125 0
vn -0.0000 -0.0000 -1.0000
vt 0.00862 0.17308
vt 0.00862 0.67308
vt 0.12069 0.17308
vt 0.12069 0.67308
s 1
f 88/159/74 89/160/74 87/158/74
f 88/159/74 87/158/74 86/157/74
o wingL2
v 1.6875 0 -0.0625
v 1.6875 1 -0.0625
v 0.1875 0 -0.0625
v 0.1875 1 -0.0625
vn -0.0000 -0.0000 -1.0000
vt 0.56897 0.44231
vt 0.56897 0.75
vt 0.36207 0.44231
vt 0.36207 0.75
s 1
f 92/163/75 93/164/75 91/162/75
f 92/163/75 91/162/75 90/161/75
o wingL3
v 1.34375 -0.9375 -0
v 1.34375 0.3125 0
v 0.03125 -0.9375 -0
v 0.03125 0.3125 0
vn -0.0000 -0.0000 -1.0000
vt 0.56897 0.01923
vt 0.56897 0.40385
vt 0.38793 0.01923
vt 0.38793 0.40385
s 1
f 96/167/76 97/168/76 95/166/76
f 96/167/76 95/166/76 94/165/76
o wingR1
v -0.0625 0.5 0
v -0.0625 2.125 0
v -0.875 0.5 0
v -0.875 2.125 0
vn -0.0000 -0.0000 -1.0000
vt 0.58621 0.17308
vt 0.58621 0.67308
vt 0.69828 0.17308
vt 0.69828 0.67308
s 1
f 100/171/77 101/172/77 99/170/77
f 100/171/77 99/170/77 98/169/77
o wingR2
v -0.1875 0 -0.0625
v -0.1875 1 -0.0625
v -1.6875 0 -0.0625
v -1.6875 1 -0.0625
vn -0.0000 -0.0000 -1.0000
vt 0.34483 0.44231
vt 0.34483 0.75
vt 0.13793 0.44231
vt 0.13793 0.75
s 1
f 104/175/78 105/176/78 103/174/78
f 104/175/78 103/174/78 102/173/78
o wingR3
v -0.03125 -0.9375 -0
v -0.03125 0.3125 0
v -1.34375 -0.9375 -0
v -1.34375 0.3125 0
vn -0.0000 -0.0000 -1.0000
vt 0.31897 0.01923
vt 0.31897 0.40385
vt 0.13793 0.01923
vt 0.13793 0.40385
s 1
f 108/179/79 109/180/79 107/178/79
f 108/179/79 107/178/79 106/177/79
