# Blender 3.4.1
# www.blender.org
o Cube
v 0 1.60542 0
v 1 0.08604 -1
v 1 0.08604 1
v -1 0.08604 -1
v -1 0.08604 1
v 0.5 0.84573 -0.5
v 0.5 0.84573 0.5
v -0.5 0.84573 -0.5
v 0 0.08604 1
v -1 0.08604 0
v 1 0.08604 0
v -0.5 0.84573 0.5
v 0 0.08604 -1
v 0 0.08604 0
vn -0.0000 0.5498 0.8353
vn -0.8353 0.5498 -0.0000
vn -0.0000 -1.0000 -0.0000
vn 0.8353 0.5498 -0.0000
vn -0.0000 0.5498 -0.8353
vt 0.48527 0.86055
vt 0.54856 0.82508
vt -0.03303 0.16948
vt 0.19084 0.99494
vt 0.54856 0.97812
vt 1.00356 0.16948
vt 0.43378 0.82508
vt 0.75213 0.99494
vt 0.43378 0.97812
vt 0.22612 0.51502
vt 0.33805 0.92774
vt 0.74441 0.51502
vt 0.47148 0.99494
vt 0.49117 0.97812
vt 0.87784 0.58221
vt 0.43378 0.9016
vt 0.07891 0.58221
vt 0.54856 0.9016
vt 0.6187 0.92774
vt 0.48527 0.16948
vt 0.49117 0.82508
vt 0.49117 0.9016
s 0
f 3/4/1 7/11/1 9/13/1
f 5/8/2 12/19/2 10/15/2
f 14/22/3 4/7/3 13/21/3
f 2/3/4 6/10/4 11/17/4
f 4/6/5 8/12/5 13/20/5
f 11/18/3 13/21/3 2/2/3
f 9/14/3 10/16/3 14/22/3
f 3/5/3 14/22/3 11/18/3
f 13/20/5 6/10/5 2/3/5
f 13/20/5 8/12/5 6/10/5
f 8/12/5 1/1/5 6/10/5
f 11/17/4 7/11/4 3/4/4
f 11/17/4 6/10/4 7/11/4
f 6/10/4 1/1/4 7/11/4
f 10/15/2 8/12/2 4/6/2
f 10/15/2 12/19/2 8/12/2
f 12/19/2 1/1/2 8/12/2
f 9/13/1 12/19/1 5/8/1
f 9/13/1 7/11/1 12/19/1
f 7/11/1 1/1/1 12/19/1
f 14/22/3 10/16/3 4/7/3
f 11/18/3 14/22/3 13/21/3
f 9/14/3 5/9/3 10/16/3
f 3/5/3 9/14/3 14/22/3
