# Blender 3.4.1
# www.blender.org
o Cube_Cube.001
v -1.5 -0 1.5
v -1.5 0.5 1.5
v -1.5 0 -1.5
v -1.5 0.5 -1.5
v 1.5 -0 1.5
v 1.5 0.5 1.5
v 1.5 0 -1.5
v 1.5 0.5 -1.5
v -0.5 0.5 0.5
v -0.5 0.75 0.5
v -0.5 0.5 -0.5
v -0.5 0.75 -0.5
v 0.5 0.5 0.5
v 0.5 0.75 0.5
v 0.5 0.5 -0.5
v 0.5 0.75 -0.5
v -1.5 0 0
v 0 0 -1.5
v 0 -0 1.5
v -1.5 0.5 0
v 0 0.5 1.5
v 0 0.5 -1.5
v 1.5 0 0
v -1 0.5 -0.5
v -0.5 0.5 1
v 1.5 0.5 0
v 0.5 0.5 -1
v 1 0.5 0.5
v 0 0 0
vn -0.0000 -0.0000 1.0000
vn -1.0000 -0.0000 -0.0000
vn -0.0000 -0.0000 -1.0000
vn 1.0000 -0.0000 -0.0000
vn -0.0000 1.0000 -0.0000
vn -0.0000 -1.0000 -0.0000
vt 0.53906 0.9375
vt 0.05469 0.50781
vt 0.11719 0.57031
vt 0.11719 0.50781
vt 0.55469 0.50781
vt 0.53906 0.5625
vt 0.49219 0.57031
vt 0.49219 0.50781
vt 0.11719 0.07031
vt 0.05469 0.13281
vt 0.91406 0.9375
vt 0.11719 0.13281
vt 0.55469 0.13281
vt 0.91406 0.5625
vt 0.49219 0.07031
vt 0.49219 0.13281
vt 0.71094 0.39844
vt 0.67969 0.36719
vt 0.24219 0.38281
vt 0.71094 0.36719
vt 0.83594 0.39844
vt 0.86719 0.36719
vt 0.36719 0.38281
vt 0.83594 0.36719
vt 0.71094 0.21094
vt 0.67969 0.24219
vt 0.24219 0.25781
vt 0.71094 0.24219
vt 0.83594 0.21094
vt 0.86719 0.24219
vt 0.36719 0.25781
vt 0.83594 0.24219
vt 0.53906 0.75
vt 0.30469 0.57031
vt 0.55469 0.32031
vt 0.72656 0.5625
vt 0.05469 0.32031
vt 0.72656 0.9375
vt 0.30469 0.50781
vt 0.11719 0.32031
vt 0.49219 0.32031
vt 0.30469 0.07031
vt 0.91406 0.75
vt 0.36719 0.44531
vt 0.17969 0.38281
vt 0.30469 0.13281
vt 0.42969 0.25781
vt 0.24219 0.19531
vt 0.72656 0.75
s 0
f 2/4/1 19/37/1 21/40/1
f 12/24/2 9/17/2 10/20/2
f 20/39/2 1/3/2 2/4/2
f 8/16/3 18/35/3 22/41/3
f 14/28/4 15/29/4 16/32/4
f 10/20/1 13/26/1 14/28/1
f 16/32/5 10/20/5 14/28/5
f 6/12/4 23/42/4 26/46/4
f 16/32/3 11/22/3 12/24/3
f 13/27/5 28/48/5 15/31/5
f 18/36/6 23/43/6 29/49/6
f 15/31/5 27/47/5 11/23/5
f 11/23/5 24/44/5 9/19/5
f 9/19/5 25/45/5 13/27/5
f 21/40/1 5/10/1 6/12/1
f 26/46/4 7/15/4 8/16/4
f 13/27/5 21/40/5 6/12/5
f 22/41/3 3/5/3 4/8/3
f 11/23/5 22/41/5 4/8/5
f 3/6/6 29/49/6 17/33/6
f 29/49/6 5/11/6 19/38/6
f 9/19/5 20/39/5 2/4/5
f 17/33/6 19/38/6 1/1/6
f 26/46/5 28/48/5 6/12/5
f 15/31/5 26/46/5 8/16/5
f 22/41/5 27/47/5 8/16/5
f 20/39/5 24/44/5 4/8/5
f 21/40/5 25/45/5 2/4/5
f 4/8/2 17/34/2 20/39/2
f 2/4/1 1/2/1 19/37/1
f 12/24/2 11/21/2 9/17/2
f 20/39/2 17/34/2 1/3/2
f 8/16/3 7/13/3 18/35/3
f 14/28/4 13/25/4 15/29/4
f 10/20/1 9/18/1 13/26/1
f 16/32/5 12/24/5 10/20/5
f 6/12/4 5/9/4 23/42/4
f 16/32/3 15/30/3 11/22/3
f 13/27/5 6/12/5 28/48/5
f 18/36/6 7/14/6 23/43/6
f 15/31/5 8/16/5 27/47/5
f 11/23/5 4/8/5 24/44/5
f 9/19/5 2/4/5 25/45/5
f 21/40/1 19/37/1 5/10/1
f 26/46/4 23/42/4 7/15/4
f 13/27/5 25/45/5 21/40/5
f 22/41/3 18/35/3 3/5/3
f 11/23/5 27/47/5 22/41/5
f 3/6/6 18/36/6 29/49/6
f 29/49/6 23/43/6 5/11/6
f 9/19/5 24/44/5 20/39/5
f 17/33/6 29/49/6 19/38/6
f 15/31/5 28/48/5 26/46/5
f 4/8/2 3/7/2 17/34/2
