# Blender 3.4.1
# www.blender.org
o Circle
v -0.36915 0.03758 -0.23938
v -0.63938 0.03758 0.03085
v -0.73829 0.03758 0.4
v -0.63938 0.03758 0.76914
v -0.36915 0.03758 1.03938
v 0 0.03758 1.13829
v 0.36915 0.03758 1.03938
v 0.63938 0.03758 0.76914
v 0.73829 0.03758 0.4
v 0.63938 0.03758 0.03085
v 0.36915 0.03758 -0.23938
v 0 0.03758 -0.33829
v -1.36145 2.91116 -0.38604
v -0.78604 2.91116 -0.96145
v -1.57207 2.91116 0.4
v -1.36145 2.91116 1.18604
v -0.78604 2.91116 1.76145
v 0 2.91116 1.97207
v 0.78604 2.91116 1.76145
v 1.36145 2.91116 1.18604
v 1.57207 2.91116 0.4
v 1.36145 2.91116 -0.38604
v 0.78604 2.91116 -0.96145
v 0 2.91116 -1.17207
v -2.60647 14.94107 -1.10484
v -1.22498 9.4202 -1.72172
v -2.44996 9.4202 0.4
v -2.60646 14.94107 1.90484
v -1.22498 9.4202 2.52173
v -0 14.94107 3.40969
v 1.22498 9.4202 2.52173
v 2.60646 14.94107 1.90484
v 2.44996 9.4202 0.4
v 2.60646 14.94107 -1.10484
v 1.22498 9.4202 -1.72172
v 0 14.94107 -2.60968
v -0.38883 -0.17492 0.17551
v -0.22449 -0.17492 0.01117
v -0.44898 -0.17492 0.4
v -0.38883 -0.17492 0.62449
v -0.22449 -0.17492 0.78882
v 0 -0.17492 0.84898
v 0.22449 -0.17492 0.78882
v 0.38882 -0.17492 0.62449
v 0.44898 -0.17492 0.4
v 0.38882 -0.17492 0.17551
v 0.22449 -0.17492 0.01117
v 0 -0.17492 -0.04898
v -0.57759 1.47437 -0.60042
v -1.15518 1.47437 0.4
v -0.57759 1.47437 1.40042
v 0.57759 1.47437 1.40042
v 1.15518 1.47437 0.4
v 0.57759 1.47437 -0.60042
v -1.98396 8.92612 -0.74544
v -1.29322 6.16568 -1.05388
v -1.90571 6.16568 0.00698
v -2.52821 12.18063 1.15242
v -1.00551 6.16568 2.14159
v -0.61249 12.18063 2.96571
v 1.00551 6.16568 2.14159
v 1.91572 12.18063 2.21329
v 2.01101 6.16568 0.4
v 2.52821 12.18063 -0.35242
v 1.00551 6.16568 -1.34159
v 0.61249 12.18063 -2.1657
v 1.90571 6.16568 0.00698
v 0.61249 6.16568 -1.4469
v -1.91572 12.18063 2.21329
v -0.61249 6.16568 2.2469
v -0.61249 12.18063 -2.1657
v 0.61249 12.18063 2.96571
v 2.52821 12.18063 1.15242
v 1.91572 12.18063 -1.41328
v -2.01102 6.16568 0.4
v -1.00042 1.47437 -0.17759
v -1.00042 1.47437 0.97759
v 0 1.47437 1.55518
v 1.00042 1.47437 0.97759
v 1.00042 1.47437 -0.17759
v -0.61249 6.16568 -1.4469
v -1.90571 6.16568 0.79302
v -1.98396 8.92612 1.54544
v -1.29322 6.16568 1.85388
v -0 8.92612 2.69088
v 1.29322 6.16568 1.85388
v 1.98396 8.92612 1.54544
v 1.9057 6.16568 0.79302
v 1.98396 8.92612 -0.74544
v 1.29322 6.16568 -1.05388
v 0 8.92612 -1.89088
v -1.91572 12.18063 -1.41328
v -2.52821 12.18063 -0.35242
v 0.61249 6.16568 2.2469
v 0 1.47437 -0.75518
v -1.00551 6.16568 -1.34159
v -2.26109 13.56085 2.05907
v -0.30625 4.53842 2.10948
v 1.63358 4.53842 -0.18952
v -2.29521 11.9336 -0.92514
v -1.2591 7.79294 -1.3878
v -2.17783 7.79294 0.20349
v -2.56734 13.56085 1.52863
v -1.11525 7.79294 2.33166
v -0.30625 13.56085 3.1877
v 1.11524 7.79294 2.33166
v 2.26109 13.56085 2.05907
v 2.23049 7.79294 0.4
v 2.56734 13.56085 -0.72863
v 1.11524 7.79294 -1.53166
v 0.30624 13.56085 -2.38769
v 0.89577 4.53842 1.95152
v -0.89577 4.53842 1.95152
v -0.91874 10.80041 2.74372
v -1.67271 5.91864 -0.56574
v 2.17783 7.79294 0.20349
v 0.91873 7.79294 -1.58431
v -1.57035 10.80041 2.36751
v -0.91874 7.79294 2.38431
v -0.30625 13.56085 -2.38769
v 0.91873 10.80041 2.74372
v 0.89577 4.53842 -1.15152
v 2.48908 10.80041 0.77621
v 2.48908 10.80041 0.02379
v 1.57035 10.80041 -1.5675
v -0.91874 10.80041 -1.94371
v -2.23049 7.79294 0.4
v -2.48909 10.80041 0.77621
v 0.30624 13.56085 3.1877
v 0.91873 10.80041 -1.94371
v 1.79154 4.53842 0.4
v -0.91874 7.79294 -1.58431
v -2.17783 7.79294 0.59651
v -2.29521 11.9336 1.72514
v -1.2591 7.79294 2.18781
v -0 11.9336 3.05028
v 1.2591 7.79294 2.18781
v 2.29521 11.9336 1.72514
v 2.17783 7.79294 0.59651
v 2.29521 11.9336 -0.92514
v 1.2591 7.79294 -1.3878
v 0 11.9336 -2.25028
v -1.32733 4.53842 -0.71996
v -1.57035 10.80041 -1.5675
v -2.48909 10.80041 0.02379
v 1.57035 10.80041 2.36751
v -1.63358 4.53842 -0.18952
v 2.56733 13.56085 1.52863
v 0.91873 7.79294 2.38431
v 0.30625 4.53842 -1.30948
v -1.11525 7.79294 -1.53166
v 2.26109 13.56085 -1.25906
v -1.79154 4.53842 0.4
v -0.30624 4.53842 -1.30948
v -1.63358 4.53842 0.98953
v -1.67271 5.91864 1.36574
v -1.32733 4.53842 1.51996
v -0 5.91864 2.33148
v 1.32733 4.53842 1.51996
v 1.6727 5.91864 1.36574
v 1.63358 4.53842 0.98953
v 1.67271 5.91864 -0.56574
v 1.32733 4.53842 -0.71996
v 0 5.91864 -1.53147
v -2.26109 13.56085 -1.25906
v -2.56734 13.56085 -0.72863
v 0.30624 4.53842 2.10948
v -0.89577 4.53842 -1.15152
v 0.61249 9.17316 2.6063
v 0.30624 10.55338 2.82829
v 0.30624 7.5459 2.46889
v -2.21696 9.17316 -0.17272
v -2.25609 10.55338 -0.54893
v -1.94483 7.5459 -0.36923
v -0.61249 9.17316 -1.8063
v -0.30624 10.55338 -2.02829
v -0.30624 7.5459 -1.66889
v 2.21696 9.17316 0.97272
v 2.25608 10.55338 1.34893
v 1.94483 7.5459 1.16923
v -1.60447 9.17316 2.03358
v -1.94984 10.55338 1.87936
v -1.63859 7.5459 1.69966
v 1.60447 9.17316 -1.23358
v 1.94984 10.55338 -1.07936
v 1.63859 7.5459 -0.89966
v 2.21696 9.17316 -0.17272
v 1.94483 7.5459 -0.36923
v 2.25608 10.55338 -0.54893
v -0.61249 9.17316 2.6063
v -0.30625 7.5459 2.46889
v -0.30625 10.55338 2.82829
v -1.60447 9.17316 -1.23358
v -1.63859 7.5459 -0.89966
v -1.94984 10.55338 -1.07936
v 0.61249 9.17316 -1.8063
v 0.30624 7.5459 -1.66889
v 0.30624 10.55338 -2.02829
v 1.60447 9.17316 2.03358
v 1.63859 7.5459 1.69966
v 1.94984 10.55338 1.87936
v -2.21696 9.17316 0.97272
v -1.94483 7.5459 1.16923
v -2.25609 10.55338 1.34893
v -2.45084 13.43733 -1.01499
v -1.82833 7.42238 -0.65559
v -2.45084 13.43733 1.81499
v -0 13.43733 3.22999
v 2.45084 13.43733 1.81499
v 2.45084 13.43733 -1.01499
v 0 13.43733 -2.42998
v -1.82833 7.42238 1.45559
v -0 7.42238 2.51118
v 1.82833 7.42238 1.45559
v 1.82833 7.42238 -0.65559
v 0 7.42238 -1.71117
v 0.61249 7.66942 2.4266
v -2.06133 7.66942 -0.08287
v -0.61249 7.66942 -1.6266
v 2.06133 7.66942 0.88287
v -1.44884 7.66942 1.94373
v 1.44884 7.66942 -1.14373
v 2.37258 10.6769 -0.26257
v -0.61249 10.6769 2.78601
v -1.7601 10.6769 -1.32343
v 0.61249 10.6769 -1.986
v 1.76009 10.6769 2.12344
v -2.37259 10.6769 1.06257
v -2.13958 10.42986 -0.83529
v -1.51708 4.4149 -0.47589
v -2.13958 10.42986 1.63529
v -0 10.42986 2.87058
v 2.13958 10.42986 1.63529
v 2.13958 10.42986 -0.83529
v 0 10.42986 -2.07058
v -1.51708 4.4149 1.27589
v -0 4.4149 2.15177
v 1.51708 4.4149 1.27589
v 1.51708 4.4149 -0.47589
v 0 4.4149 -1.35177
v 0.61249 10.6769 2.78601
v -2.37259 10.6769 -0.26257
v -0.61249 10.6769 -1.986
v 2.37258 10.6769 1.06257
v -1.7601 10.6769 2.12344
v 1.76009 10.6769 -1.32343
v 2.06133 7.66942 -0.08287
v -0.61249 7.66942 2.4266
v -1.44884 7.66942 -1.14373
v 0.61249 7.66942 -1.6266
v 1.44884 7.66942 1.94373
v -2.06133 7.66942 0.88287
v -2.41171 12.05711 1.43878
v -2.10046 9.04964 1.25908
v -2.33346 9.29668 0.68636
v 2.10546 12.05711 1.96921
v 1.79421 9.04964 1.78951
v 1.41472 9.29668 2.27766
v 0.30624 12.05711 -2.20799
v 0.30624 9.04964 -1.84859
v 0.91873 9.29668 -1.76401
v -2.10547 12.05711 -1.16921
v -1.79421 9.04964 -0.98951
v -1.41473 9.29668 -1.47765
v -0.30625 12.05711 3.008
v -0.30625 9.04964 2.64859
v -0.91874 9.29668 2.56402
v 2.41171 12.05711 -0.63878
v 2.10046 9.04964 -0.45908
v 2.33346 9.29668 0.11364
v -0.30624 9.04964 -1.84859
v 2.10046 9.04964 1.25908
v -1.78921 6.04216 -0.27938
v -2.33346 9.29668 0.11364
v 0.30624 6.04216 2.28919
v -0.30624 6.04216 -1.48918
v 2.33346 9.29668 0.68636
v -0.91874 9.29668 -1.76401
v -2.10046 9.04964 -0.45908
v 0.91873 9.29668 2.56402
v 0.30624 12.05711 3.008
v -2.41171 12.05711 -0.63878
v -0.30624 12.05711 -2.20799
v 2.41171 12.05711 1.43878
v -2.10547 12.05711 1.96921
v 2.10547 12.05711 -1.16921
v 1.7892 6.04216 1.07938
v 1.48296 6.04216 -0.80981
v -1.79421 9.04964 1.78951
v -1.41473 9.29668 2.27766
v 1.79421 9.04964 -0.98951
v 1.41472 9.29668 -1.47765
v -1.48296 6.04216 1.60981
v 0.30624 9.04964 2.64859
v 1.7892 6.04216 -0.27938
v -0.30625 6.04216 2.28919
v -1.48296 6.04216 -0.80981
v 0.30624 6.04216 -1.48918
v 1.48296 6.04216 1.60981
v -1.78921 6.04216 1.07938
vn -0.0000 -1.0000 -0.0000
vn -0.9365 -0.1167 0.3307
vn -0.6809 -0.2699 0.6809
vn -0.9301 -0.2699 0.2492
vn 0.2492 -0.2699 -0.9301
vn -0.9301 -0.2699 -0.2492
vn 0.9301 -0.2699 0.2492
vn 0.2492 -0.2699 0.9301
vn 0.9301 -0.2699 -0.2492
vn -0.6809 -0.2699 -0.6809
vn -0.4280 -0.7960 -0.4280
vn -0.2492 -0.2699 -0.9301
vn 0.6809 -0.2699 -0.6809
vn -0.2492 -0.2699 0.9301
vn 0.7012 -0.1292 -0.7012
vn 0.7546 -0.1167 0.6457
vn -0.7012 -0.1292 0.7012
vn 0.1819 -0.1167 -0.9764
vn -0.7546 -0.1167 -0.6457
vn 0.9578 -0.1292 0.2566
vn -0.1819 -0.1167 0.9764
vn -0.2567 -0.1292 -0.9578
vn -0.9578 -0.1292 -0.2566
vn 0.9365 -0.1167 -0.3307
vn 0.2567 -0.1292 0.9578
vn 0.6809 -0.2699 0.6809
vn 0.4280 -0.7960 0.4280
vn 0.1567 -0.7960 -0.5847
vn -0.5847 -0.7960 0.1567
vn 0.5847 -0.7960 0.1567
vn 0.1567 -0.7960 0.5847
vn -0.1567 -0.7960 0.5847
vn -0.4280 -0.7960 0.4280
vn 0.4280 -0.7960 -0.4280
vn -0.1567 -0.7960 -0.5847
vn 0.5847 -0.7960 -0.1567
vn -0.5847 -0.7960 -0.1567
vn 0.1819 -0.1167 0.9764
vn -0.9578 -0.1292 0.2566
vn -0.7012 -0.1292 -0.7012
vn -0.7546 -0.1167 0.6457
vn 0.7546 -0.1167 -0.6457
vn 0.9365 -0.1167 0.3307
vn 0.7012 -0.1292 0.7012
vn 0.2567 -0.1292 -0.9578
vn -0.2567 -0.1292 0.9578
vn -0.1819 -0.1167 -0.9764
vn -0.9365 -0.1167 -0.3307
vn 0.9578 -0.1292 -0.2566
vn -0.2566 -0.1292 -0.9578
vn 0.9578 -0.1292 0.2567
vn -0.2566 -0.1292 0.9578
vn 0.2566 -0.1292 -0.9578
vn 0.2566 -0.1292 0.9578
s 0
f 41//1 47//1 43//1
f 236//2 155//2 16//2
f 77//3 5//3 51//3
f 77//4 15//4 50//4
f 95//5 23//5 54//5
f 76//6 15//6 13//6
f 53//7 20//7 79//7
f 52//8 18//8 78//8
f 53//9 10//9 80//9
f 76//10 14//10 49//10
f 1//11 37//11 2//11
f 49//12 24//12 95//12
f 54//13 22//13 80//13
f 78//14 17//14 51//14
f 141//15 110//15 35//15
f 238//16 159//16 20//16
f 135//17 104//17 29//17
f 240//18 150//18 24//18
f 230//19 143//19 13//19
f 139//20 108//20 33//20
f 237//21 98//21 18//21
f 132//22 151//22 26//22
f 102//23 127//23 27//23
f 239//24 99//24 22//24
f 149//25 106//25 31//25
f 8//26 52//26 7//26
f 8//27 43//27 44//27
f 12//28 47//28 48//28
f 3//29 40//29 4//29
f 45//30 8//30 44//30
f 7//31 42//31 43//31
f 5//32 42//32 6//32
f 5//33 40//33 41//33
f 10//34 47//34 11//34
f 12//35 38//35 1//35
f 10//36 45//36 46//36
f 3//37 37//37 39//37
f 170//38 241//38 72//38
f 127//39 133//39 27//39
f 168//40 56//40 96//40
f 212//41 183//41 83//41
f 246//42 125//42 74//42
f 185//42 246//42 74//42
f 245//41 118//41 69//41
f 182//41 245//41 69//41
f 215//42 186//42 89//42
f 112//25 94//25 167//25
f 214//43 180//43 87//43
f 112//44 86//44 61//44
f 153//39 82//39 75//39
f 122//45 68//45 65//45
f 210//42 152//42 34//42
f 106//44 137//44 31//44
f 207//41 97//41 28//41
f 110//45 117//45 35//45
f 151//40 101//40 26//40
f 209//43 148//43 32//43
f 104//46 119//46 29//46
f 211//47 120//47 36//47
f 205//48 166//48 25//48
f 108//49 116//49 33//49
f 208//38 129//38 30//38
f 39//1 37//1 47//1
f 38//1 48//1 47//1
f 47//1 46//1 43//1
f 45//1 44//1 43//1
f 43//1 42//1 41//1
f 41//1 40//1 39//1
f 37//1 38//1 47//1
f 46//1 45//1 43//1
f 241//38 121//38 72//38
f 173//48 242//48 93//48
f 243//47 126//47 71//47
f 244//43 123//43 73//43
f 216//47 177//47 91//47
f 113//46 70//46 59//46
f 213//38 171//38 85//38
f 242//48 145//48 93//48
f 131//49 67//49 63//49
f 206//48 174//48 55//48
f 179//43 244//43 73//43
f 176//47 243//47 71//47
f 79//26 19//26 52//26
f 247//24 116//24 67//24
f 188//24 247//24 67//24
f 234//24 189//24 89//24
f 153//23 57//23 147//23
f 168//50 81//50 154//50
f 248//21 119//21 70//21
f 191//21 248//21 70//21
f 232//21 192//21 85//21
f 131//51 88//51 161//51
f 249//19 101//19 56//19
f 194//19 249//19 56//19
f 229//19 195//19 55//19
f 250//18 117//18 68//18
f 197//18 250//18 68//18
f 235//18 198//18 91//18
f 113//17 84//17 157//17
f 251//16 137//16 86//16
f 200//16 251//16 86//16
f 233//16 201//16 87//16
f 122//15 90//15 163//15
f 6//14 51//14 5//14
f 11//13 80//13 10//13
f 1//12 95//12 12//12
f 2//10 49//10 1//10
f 21//9 80//9 22//9
f 7//8 78//8 6//8
f 9//7 79//7 8//7
f 3//6 76//6 2//6
f 11//5 95//5 54//5
f 4//4 50//4 3//4
f 77//3 17//3 16//3
f 252//2 133//2 82//2
f 203//2 252//2 82//2
f 231//2 204//2 83//2
f 253//2 58//2 204//2
f 134//2 253//2 204//2
f 207//2 103//2 134//2
f 204//2 228//2 202//2
f 202//2 254//2 204//2
f 83//2 254//2 203//2
f 255//2 27//2 133//2
f 202//2 255//2 133//2
f 228//2 128//2 202//2
f 23//15 163//15 22//15
f 256//16 62//16 201//16
f 138//16 256//16 201//16
f 209//16 107//16 138//16
f 201//16 227//16 199//16
f 199//16 257//16 201//16
f 87//16 257//16 200//16
f 258//16 31//16 137//16
f 199//16 258//16 137//16
f 227//16 146//16 199//16
f 17//17 157//17 16//17
f 259//18 66//18 198//18
f 142//18 259//18 198//18
f 211//18 111//18 142//18
f 198//18 226//18 196//18
f 196//18 260//18 198//18
f 91//18 260//18 197//18
f 261//18 35//18 117//18
f 196//18 261//18 117//18
f 226//18 130//18 196//18
f 262//19 92//19 195//19
f 100//19 262//19 195//19
f 205//19 165//19 100//19
f 195//19 225//19 193//19
f 193//19 263//19 195//19
f 55//19 263//19 194//19
f 264//19 26//19 101//19
f 193//19 264//19 101//19
f 225//19 144//19 193//19
f 21//51 161//51 20//51
f 265//21 60//21 192//21
f 136//21 265//21 192//21
f 208//21 105//21 136//21
f 192//21 224//21 190//21
f 190//21 266//21 192//21
f 85//21 266//21 191//21
f 267//21 29//21 119//21
f 190//21 267//21 119//21
f 224//21 114//21 190//21
f 14//50 154//50 24//50
f 15//23 147//23 13//23
f 268//24 64//24 189//24
f 140//24 268//24 189//24
f 210//24 109//24 140//24
f 189//24 223//24 187//24
f 187//24 269//24 189//24
f 89//24 269//24 188//24
f 270//24 33//24 116//24
f 187//24 270//24 116//24
f 223//24 124//24 187//24
f 177//47 219//47 175//47
f 175//47 271//47 177//47
f 91//47 271//47 176//47
f 180//43 220//43 178//43
f 178//43 272//43 180//43
f 87//43 272//43 179//43
f 273//48 57//48 174//48
f 115//48 273//48 174//48
f 230//48 147//48 115//48
f 21//49 99//49 131//49
f 274//48 27//48 145//48
f 172//48 274//48 145//48
f 218//48 102//48 172//48
f 275//38 94//38 171//38
f 158//38 275//38 171//38
f 237//38 167//38 158//38
f 17//46 98//46 113//46
f 276//47 81//47 177//47
f 164//47 276//47 177//47
f 240//47 154//47 164//47
f 277//43 33//43 123//43
f 178//43 277//43 123//43
f 220//43 139//43 178//43
f 278//47 26//47 126//47
f 175//47 278//47 126//47
f 219//47 132//47 175//47
f 174//48 218//48 172//48
f 172//48 279//48 174//48
f 55//48 279//48 173//48
f 280//38 31//38 121//38
f 169//38 280//38 121//38
f 217//38 149//38 169//38
f 281//38 72//38 129//38
f 136//38 281//38 129//38
f 232//38 170//38 136//38
f 63//49 116//49 108//49
f 282//48 93//48 166//48
f 100//48 282//48 166//48
f 229//48 173//48 100//48
f 283//47 71//47 120//47
f 142//47 283//47 120//47
f 235//47 176//47 142//47
f 59//52 119//52 104//52
f 284//43 73//43 148//43
f 138//43 284//43 148//43
f 233//43 179//43 138//43
f 96//40 101//40 151//40
f 65//53 117//53 110//53
f 285//41 69//41 97//41
f 134//41 285//41 97//41
f 231//41 182//41 134//41
f 61//44 137//44 106//44
f 286//42 74//42 152//42
f 140//42 286//42 152//42
f 234//42 185//42 140//42
f 23//53 150//53 122//53
f 15//39 155//39 153//39
f 19//44 159//44 112//44
f 287//43 88//43 180//43
f 160//43 287//43 180//43
f 238//43 161//43 160//43
f 19//25 167//25 18//25
f 288//42 90//42 186//42
f 162//42 288//42 186//42
f 239//42 163//42 162//42
f 183//41 221//41 181//41
f 181//41 289//41 183//41
f 83//41 289//41 182//41
f 290//41 29//41 118//41
f 181//41 290//41 118//41
f 221//41 135//41 181//41
f 186//42 222//42 184//42
f 184//42 291//42 186//42
f 89//42 291//42 185//42
f 292//42 35//42 125//42
f 184//42 292//42 125//42
f 222//42 141//42 184//42
f 293//41 84//41 183//41
f 156//41 293//41 183//41
f 236//41 157//41 156//41
f 14//40 143//40 168//40
f 75//39 133//39 127//39
f 171//38 217//38 169//38
f 169//38 294//38 171//38
f 85//38 294//38 170//38
f 61//25 149//25 94//25
f 295//24 67//24 99//24
f 162//24 295//24 99//24
f 215//24 188//24 162//24
f 75//23 102//23 57//23
f 96//50 132//50 81//50
f 296//21 70//21 98//21
f 158//21 296//21 98//21
f 213//21 191//21 158//21
f 63//51 139//51 88//51
f 297//19 56//19 143//19
f 115//19 297//19 143//19
f 206//19 194//19 115//19
f 298//18 68//18 150//18
f 164//18 298//18 150//18
f 216//18 197//18 164//18
f 59//17 135//17 84//17
f 299//16 86//16 159//16
f 160//16 299//16 159//16
f 214//16 200//16 160//16
f 65//15 141//15 90//15
f 300//2 82//2 155//2
f 156//2 300//2 155//2
f 212//2 203//2 156//2
f 41//1 39//1 47//1
f 236//2 156//2 155//2
f 77//3 4//3 5//3
f 77//4 16//4 15//4
f 95//5 24//5 23//5
f 76//6 50//6 15//6
f 53//7 21//7 20//7
f 52//8 19//8 18//8
f 53//9 9//9 10//9
f 76//10 13//10 14//10
f 1//11 38//11 37//11
f 49//12 14//12 24//12
f 54//13 23//13 22//13
f 78//14 18//14 17//14
f 238//16 160//16 159//16
f 240//18 164//18 150//18
f 230//19 115//19 143//19
f 237//21 158//21 98//21
f 239//24 162//24 99//24
f 8//26 79//26 52//26
f 8//27 7//27 43//27
f 12//28 11//28 47//28
f 3//29 39//29 40//29
f 45//30 9//30 8//30
f 7//31 6//31 42//31
f 5//32 41//32 42//32
f 5//33 4//33 40//33
f 10//34 46//34 47//34
f 12//35 48//35 38//35
f 10//36 9//36 45//36
f 3//37 2//37 37//37
f 170//38 169//38 241//38
f 168//40 143//40 56//40
f 212//41 156//41 183//41
f 246//42 184//42 125//42
f 185//42 184//42 246//42
f 245//41 181//41 118//41
f 182//41 181//41 245//41
f 215//42 162//42 186//42
f 112//25 61//25 94//25
f 214//43 160//43 180//43
f 112//44 159//44 86//44
f 153//39 155//39 82//39
f 122//53 150//53 68//53
f 210//42 140//42 152//42
f 207//41 134//41 97//41
f 209//43 138//43 148//43
f 211//47 142//47 120//47
f 205//48 100//48 166//48
f 208//38 136//38 129//38
f 241//38 169//38 121//38
f 173//48 172//48 242//48
f 243//47 175//47 126//47
f 244//43 178//43 123//43
f 216//47 164//47 177//47
f 113//46 98//46 70//46
f 213//38 158//38 171//38
f 242//48 172//48 145//48
f 131//49 99//49 67//49
f 206//48 115//48 174//48
f 179//43 178//43 244//43
f 176//47 175//47 243//47
f 79//26 20//26 19//26
f 247//24 187//24 116//24
f 188//24 187//24 247//24
f 234//24 140//24 189//24
f 153//23 75//23 57//23
f 168//50 96//50 81//50
f 248//21 190//21 119//21
f 191//21 190//21 248//21
f 232//21 136//21 192//21
f 131//51 63//51 88//51
f 249//19 193//19 101//19
f 194//19 193//19 249//19
f 229//19 100//19 195//19
f 250//18 196//18 117//18
f 197//18 196//18 250//18
f 235//18 142//18 198//18
f 113//17 59//17 84//17
f 251//16 199//16 137//16
f 200//16 199//16 251//16
f 233//16 138//16 201//16
f 122//15 65//15 90//15
f 6//14 78//14 51//14
f 11//13 54//13 80//13
f 1//12 49//12 95//12
f 2//10 76//10 49//10
f 21//9 53//9 80//9
f 7//8 52//8 78//8
f 9//7 53//7 79//7
f 3//6 50//6 76//6
f 11//5 12//5 95//5
f 4//4 77//4 50//4
f 77//3 51//3 17//3
f 252//2 202//2 133//2
f 203//2 202//2 252//2
f 231//2 134//2 204//2
f 253//2 103//2 58//2
f 134//2 103//2 253//2
f 207//2 28//2 103//2
f 204//2 58//2 228//2
f 202//2 203//2 254//2
f 83//2 204//2 254//2
f 255//2 128//2 27//2
f 202//2 128//2 255//2
f 228//2 58//2 128//2
f 23//15 122//15 163//15
f 256//16 107//16 62//16
f 138//16 107//16 256//16
f 209//16 32//16 107//16
f 201//16 62//16 227//16
f 199//16 200//16 257//16
f 87//16 201//16 257//16
f 258//16 146//16 31//16
f 199//16 146//16 258//16
f 227//16 62//16 146//16
f 17//17 113//17 157//17
f 259//18 111//18 66//18
f 142//18 111//18 259//18
f 211//18 36//18 111//18
f 198//18 66//18 226//18
f 196//18 197//18 260//18
f 91//18 198//18 260//18
f 261//18 130//18 35//18
f 196//18 130//18 261//18
f 226//18 66//18 130//18
f 262//19 165//19 92//19
f 100//19 165//19 262//19
f 205//19 25//19 165//19
f 195//19 92//19 225//19
f 193//19 194//19 263//19
f 55//19 195//19 263//19
f 264//19 144//19 26//19
f 193//19 144//19 264//19
f 225//19 92//19 144//19
f 21//51 131//51 161//51
f 265//21 105//21 60//21
f 136//21 105//21 265//21
f 208//21 30//21 105//21
f 192//21 60//21 224//21
f 190//21 191//21 266//21
f 85//21 192//21 266//21
f 267//21 114//21 29//21
f 190//21 114//21 267//21
f 224//21 60//21 114//21
f 14//50 168//50 154//50
f 15//23 153//23 147//23
f 268//24 109//24 64//24
f 140//24 109//24 268//24
f 210//24 34//24 109//24
f 189//24 64//24 223//24
f 187//24 188//24 269//24
f 89//24 189//24 269//24
f 270//24 124//24 33//24
f 187//24 124//24 270//24
f 223//24 64//24 124//24
f 177//47 81//47 219//47
f 175//47 176//47 271//47
f 91//47 177//47 271//47
f 180//43 88//43 220//43
f 178//43 179//43 272//43
f 87//43 180//43 272//43
f 273//48 147//48 57//48
f 115//48 147//48 273//48
f 230//48 13//48 147//48
f 21//49 22//49 99//49
f 274//48 102//48 27//48
f 172//48 102//48 274//48
f 218//48 57//48 102//48
f 275//38 167//38 94//38
f 158//38 167//38 275//38
f 237//38 18//38 167//38
f 17//46 18//46 98//46
f 276//47 154//47 81//47
f 164//47 154//47 276//47
f 240//47 24//47 154//47
f 277//43 139//43 33//43
f 178//43 139//43 277//43
f 220//43 88//43 139//43
f 278//47 132//47 26//47
f 175//47 132//47 278//47
f 219//47 81//47 132//47
f 174//48 57//48 218//48
f 172//48 173//48 279//48
f 55//48 174//48 279//48
f 280//38 149//38 31//38
f 169//38 149//38 280//38
f 217//38 94//38 149//38
f 281//38 170//38 72//38
f 136//38 170//38 281//38
f 232//38 85//38 170//38
f 63//49 67//49 116//49
f 282//48 173//48 93//48
f 100//48 173//48 282//48
f 229//48 55//48 173//48
f 283//47 176//47 71//47
f 142//47 176//47 283//47
f 235//47 91//47 176//47
f 59//46 70//46 119//46
f 284//43 179//43 73//43
f 138//43 179//43 284//43
f 233//43 87//43 179//43
f 96//40 56//40 101//40
f 65//53 68//53 117//53
f 285//41 182//41 69//41
f 134//41 182//41 285//41
f 231//41 83//41 182//41
f 61//44 86//44 137//44
f 286//42 185//42 74//42
f 140//42 185//42 286//42
f 234//42 89//42 185//42
f 23//45 24//45 150//45
f 15//39 16//39 155//39
f 19//44 20//44 159//44
f 287//43 161//43 88//43
f 160//43 161//43 287//43
f 238//43 20//43 161//43
f 19//25 112//25 167//25
f 288//42 163//42 90//42
f 162//42 163//42 288//42
f 239//42 22//42 163//42
f 183//41 84//41 221//41
f 181//41 182//41 289//41
f 83//41 183//41 289//41
f 290//41 135//41 29//41
f 181//41 135//41 290//41
f 221//41 84//41 135//41
f 186//42 90//42 222//42
f 184//42 185//42 291//42
f 89//42 186//42 291//42
f 292//42 141//42 35//42
f 184//42 141//42 292//42
f 222//42 90//42 141//42
f 293//41 157//41 84//41
f 156//41 157//41 293//41
f 236//41 16//41 157//41
f 14//40 13//40 143//40
f 75//39 82//39 133//39
f 171//38 94//38 217//38
f 169//38 170//38 294//38
f 85//38 171//38 294//38
f 61//54 106//54 149//54
f 295//24 188//24 67//24
f 162//24 188//24 295//24
f 215//24 89//24 188//24
f 75//23 127//23 102//23
f 96//50 151//50 132//50
f 296//21 191//21 70//21
f 158//21 191//21 296//21
f 213//21 85//21 191//21
f 63//20 108//20 139//20
f 297//19 194//19 56//19
f 115//19 194//19 297//19
f 206//19 55//19 194//19
f 298//18 197//18 68//18
f 164//18 197//18 298//18
f 216//18 91//18 197//18
f 59//17 104//17 135//17
f 299//16 200//16 86//16
f 160//16 200//16 299//16
f 214//16 87//16 200//16
f 65//15 110//15 141//15
f 300//2 203//2 82//2
f 156//2 203//2 300//2
f 212//2 83//2 203//2
