# Blender 3.4.1
# www.blender.org
o Cylinder.001
v -0.3 0.375 -0.1125
v -0.3 0.375 -0.5125
v 0.3 0.375 -0.5125
v 0.3 0.375 -0.1125
v -0.3 0.675 -0.1125
v -0.3 0.675 -0.5125
v 0.3 0.675 -0.5125
v 0.3 0.675 -0.1125
v -0.3 1.325 -0.1125
v -0.3 1.325 -0.5125
v 0.3 1.325 -0.5125
v 0.3 1.325 -0.1125
v -0.3 1.625 -0.1125
v -0.3 1.625 -0.5125
v 0.3 1.625 -0.5125
v 0.3 1.625 -0.1125
v 0 0.95 -0.5
v 0 1.05 -0.5
v 0.35355 0.95 -0.35355
v 0.35355 1.05 -0.35355
v 0.5 0.95 0
v 0.5 1.05 0
v 0.35355 0.95 0.35355
v 0.35355 1.05 0.35355
v 0 0.95 0.5
v 0 1.05 0.5
v -0.35355 0.95 0.35355
v -0.35355 1.05 0.35355
v -0.5 0.95 0
v -0.5 1.05 0
v -0.35355 0.95 -0.35355
v -0.35355 1.05 -0.35355
v 0 1.9 -0.5
v 0 2 -0.5
v 0.35355 1.9 -0.35355
v 0.35355 2 -0.35355
v 0.5 1.9 0
v 0.5 2 0
v 0.35355 1.9 0.35355
v 0.35355 2 0.35355
v 0 1.9 0.5
v 0 2 0.5
v -0.35355 1.9 0.35355
v -0.35355 2 0.35355
v -0.5 1.9 0
v -0.5 2 0
v -0.35355 1.9 -0.35355
v -0.35355 2 -0.35355
v 0 0 -0.5
v 0 0.1 -0.5
v 0.35355 0 -0.35355
v 0.35355 0.1 -0.35355
v 0.5 0 0
v 0.5 0.1 0
v 0.35355 -0 0.35355
v 0.35355 0.1 0.35355
v 0 -0 0.5
v 0 0.1 0.5
v -0.35355 -0 0.35355
v -0.35355 0.1 0.35355
v -0.5 0 0
v -0.5 0.1 0
v -0.35355 0 -0.35355
v -0.35355 0.1 -0.35355
v 0 0 -0.45
v 0 2 -0.45
v 0.3182 0 -0.3182
v 0.3182 2 -0.3182
v 0.45 0 0
v 0.45 2 0
v 0.3182 -0 0.3182
v 0.3182 2 0.3182
v 0 -0 0.45
v 0 2 0.45
v -0.3182 -0 0.3182
v -0.3182 2 0.3182
v -0.45 0 0
v -0.45 2 0
v -0.3182 0 -0.3182
v -0.3182 2 -0.3182
v 0 1 -0.45
v 0.3182 1 -0.3182
v 0.45 1 0
v 0.3182 1 0.3182
v 0 1 0.45
v -0.3182 1 0.3182
v -0.45 1 0
v -0.3182 1 -0.3182
vn 1.0000 -0.0000 -0.0000
vn -0.0000 -1.0000 -0.0000
vn -1.0000 -0.0000 -0.0000
vn -0.0000 -0.0000 -1.0000
vn -0.3827 -0.0000 0.9239
vn 0.3827 -0.0000 -0.9239
vn 0.3827 -0.0000 0.9239
vn -0.3827 -0.0000 -0.9239
vn 0.9239 -0.0000 -0.3827
vn 0.9239 -0.0000 0.3827
vn -0.9239 -0.0000 0.3827
vn -0.9239 -0.0000 -0.3827
vn -0.0000 1.0000 -0.0000
vt 0.57339 0.45046
vt 0.64924 0.52631
vt 0.57339 0.52631
vt 0.45962 0.52631
vt 0.45962 0.45046
vt 0.38377 0.52631
vt 0.57339 0.65904
vt 0.64924 0.58319
vt 0.57339 0.58319
vt 0.45962 0.58319
vt 0.45962 0.65904
vt 0.38377 0.58319
vt 0.21989 0.45277
vt 0.29574 0.52862
vt 0.21989 0.52862
vt 0.10612 0.52862
vt 0.10612 0.45277
vt 0.03027 0.52862
vt 0.29574 0.58551
vt 0.21989 0.66136
vt 0.21989 0.58551
vt 0.10612 0.58551
vt 0.10612 0.66136
vt 0.03027 0.58551
vt 0.77942 0.2028
vt 0.76916 0.21306
vt 0.10954 0.74723
vt 0.76191 0.19554
vt 0.80719 0.12125
vt 0.17658 0.775
vt 0.80719 0.13576
vt 0.78967 0.1285
vt 0.76916 0.04394
vt 0.20435 0.84204
vt 0.77942 0.0542
vt 0.76191 0.06146
vt 0.68761 0.01617
vt 0.17658 0.90908
vt 0.70212 0.01617
vt 0.69486 0.03369
vt 0.6103 0.0542
vt 0.10954 0.93685
vt 0.62057 0.04394
vt 0.62782 0.06146
vt 0.58253 0.13576
vt 0.0425 0.90908
vt 0.58253 0.12125
vt 0.60005 0.1285
vt 0.62057 0.21306
vt 0.01473 0.84204
vt 0.6103 0.2028
vt 0.62782 0.19554
vt 0.70212 0.24083
vt 0.68761 0.24083
vt 0.0425 0.775
vt 0.69486 0.22331
vt 0.38823 0.91644
vt 0.37372 0.91644
vt 0.89046 0.69487
vt 0.38098 0.89893
vt 0.46554 0.87841
vt 0.45528 0.88867
vt 0.9575 0.72264
vt 0.44802 0.87116
vt 0.49331 0.79686
vt 0.49331 0.81137
vt 0.98527 0.78968
vt 0.47579 0.80412
vt 0.45528 0.71955
vt 0.46554 0.72982
vt 0.9575 0.85672
vt 0.44802 0.73707
vt 0.37372 0.69178
vt 0.89046 0.88449
vt 0.38823 0.69178
vt 0.38098 0.7093
vt 0.29642 0.72982
vt 0.30668 0.71955
vt 0.82342 0.85672
vt 0.31394 0.73707
vt 0.26865 0.81137
vt 0.26865 0.79686
vt 0.79565 0.78968
vt 0.28617 0.80412
vt 0.30668 0.88867
vt 0.29642 0.87841
vt 0.82342 0.72264
vt 0.31394 0.87116
vt 0.80718 0.52747
vt 0.79267 0.52747
vt 0.67138 0.69487
vt 0.79992 0.50995
vt 0.88448 0.48944
vt 0.87422 0.4997
vt 0.73842 0.72264
vt 0.86696 0.48218
vt 0.91225 0.40789
vt 0.91225 0.4224
vt 0.76619 0.78968
vt 0.89473 0.41514
vt 0.87422 0.33058
vt 0.88448 0.34084
vt 0.73842 0.85672
vt 0.86696 0.3481
vt 0.79267 0.30281
vt 0.80718 0.30281
vt 0.67138 0.88449
vt 0.79992 0.32033
vt 0.71536 0.34084
vt 0.60434 0.85672
vt 0.72563 0.33058
vt 0.73288 0.3481
vt 0.68759 0.4224
vt 0.68759 0.40788
vt 0.57657 0.78968
vt 0.70511 0.41514
vt 0.72563 0.4997
vt 0.71536 0.48944
vt 0.60434 0.72264
vt 0.73288 0.48218
vt 0.28318 0.02195
vt 0.28318 0.40119
vt 0.21787 0.02195
vt 0.21787 0.40119
vt 0.15256 0.02195
vt 0.15256 0.40119
vt 0.08725 0.02195
vt 0.08725 0.40119
vt 0.54441 0.02195
vt 0.02195 0.02195
vt 0.02195 0.40119
vt 0.54441 0.40119
vt 0.47911 0.02195
vt 0.47911 0.40119
vt 0.4138 0.02195
vt 0.4138 0.40119
vt 0.34849 0.02195
vt 0.34849 0.40119
vt 0.28318 0.21157
vt 0.21787 0.21157
vt 0.15256 0.21157
vt 0.08725 0.21157
vt 0.02195 0.21157
vt 0.54441 0.21157
vt 0.47911 0.21157
vt 0.4138 0.21157
vt 0.34849 0.21157
s 0
f 8/12/1 3/4/1 7/10/1
f 10/15/2 12/17/2 9/13/2
f 14/21/3 9/14/3 13/19/3
f 7/10/4 2/3/4 6/9/4
f 58/108/5 59/111/5 57/105/5
f 16/24/1 11/16/1 15/22/1
f 18/28/6 19/31/6 17/25/6
f 40/72/7 41/75/7 39/69/7
f 15/22/4 10/15/4 14/21/4
f 64/120/8 49/90/8 63/117/8
f 20/32/9 21/35/9 19/29/9
f 22/36/10 23/39/10 21/33/10
f 24/40/7 25/43/7 23/37/7
f 26/44/5 27/47/5 25/41/5
f 28/48/11 29/51/11 27/45/11
f 30/52/12 31/54/12 29/49/12
f 64/120/13 56/104/13 54/100/13
f 62/116/12 63/118/12 61/113/12
f 34/60/6 35/62/6 33/57/6
f 63/119/2 55/103/2 59/110/2
f 36/64/9 37/66/9 35/61/9
f 38/68/10 39/70/10 37/65/10
f 56/104/7 57/106/7 55/101/7
f 32/56/8 17/26/8 31/53/8
f 44/80/11 45/82/11 43/77/11
f 46/84/12 47/86/12 45/81/12
f 2/3/2 4/5/2 1/1/2
f 60/112/11 61/114/11 59/109/11
f 50/92/6 51/94/6 49/89/6
f 86/145/11 77/135/11 75/133/11
f 52/96/9 53/98/9 51/93/9
f 54/100/10 55/102/10 53/97/10
f 70/126/10 84/142/10 83/141/10
f 42/76/5 43/78/5 41/73/5
f 15/22/13 13/20/13 16/23/13
f 7/10/13 5/7/13 8/11/13
f 31/55/2 23/38/2 27/46/2
f 34/60/13 42/76/13 38/68/13
f 48/88/8 33/58/8 47/85/8
f 47/87/2 39/71/2 43/79/2
f 68/124/9 83/141/9 82/140/9
f 72/128/7 85/143/7 84/142/7
f 80/138/8 81/139/8 88/147/8
f 74/132/5 86/145/5 85/144/5
f 32/56/13 24/40/13 22/36/13
f 66/122/6 82/140/6 81/139/6
f 78/136/12 88/147/12 87/146/12
f 76/134/11 87/146/11 86/145/11
f 68/124/9 70/126/9 83/141/9
f 46/84/12 48/88/12 47/86/12
f 47/87/2 37/67/2 39/71/2
f 2/3/2 3/4/2 4/5/2
f 54/100/10 56/104/10 55/102/10
f 48/88/8 34/60/8 33/58/8
f 32/56/8 18/28/8 17/26/8
f 34/60/13 46/84/13 42/76/13
f 44/80/11 46/84/11 45/82/11
f 86/145/11 87/146/11 77/135/11
f 56/104/7 58/108/7 57/106/7
f 38/68/10 40/72/10 39/70/10
f 36/64/9 38/68/9 37/66/9
f 63/119/2 53/99/2 55/103/2
f 34/60/6 36/64/6 35/62/6
f 62/116/12 64/120/12 63/118/12
f 22/36/13 20/32/13 18/28/13
f 18/28/13 32/56/13 22/36/13
f 30/52/13 28/48/13 26/44/13
f 26/44/13 24/40/13 30/52/13
f 84/142/7 73/130/7 71/127/7
f 7/10/13 6/9/13 5/7/13
f 64/120/13 62/116/13 56/104/13
f 31/55/2 17/27/2 19/30/2
f 19/30/2 21/34/2 31/55/2
f 23/38/2 25/42/2 27/46/2
f 27/46/2 29/50/2 31/55/2
f 85/144/5 75/133/5 73/129/5
f 30/52/12 32/56/12 31/54/12
f 28/48/11 30/52/11 29/51/11
f 26/44/5 28/48/5 27/47/5
f 31/55/2 21/34/2 23/38/2
f 22/36/10 24/40/10 23/39/10
f 20/32/9 22/36/9 21/35/9
f 38/68/13 36/64/13 34/60/13
f 34/60/13 48/88/13 46/84/13
f 46/84/13 44/80/13 42/76/13
f 42/76/13 40/72/13 38/68/13
f 60/112/11 62/116/11 61/114/11
f 42/76/5 44/80/5 43/78/5
f 64/120/8 50/92/8 49/90/8
f 47/87/2 33/59/2 35/63/2
f 35/63/2 37/67/2 47/87/2
f 39/71/2 41/74/2 43/79/2
f 43/79/2 45/83/2 47/87/2
f 87/146/12 79/137/12 77/135/12
f 15/22/4 11/16/4 10/15/4
f 40/72/7 42/76/7 41/75/7
f 18/28/6 20/32/6 19/31/6
f 24/40/7 26/44/7 25/43/7
f 52/96/9 54/100/9 53/98/9
f 70/126/10 72/128/10 84/142/10
f 54/100/13 52/96/13 50/92/13
f 50/92/13 64/120/13 54/100/13
f 62/116/13 60/112/13 58/108/13
f 58/108/13 56/104/13 62/116/13
f 88/147/8 65/121/8 79/137/8
f 50/92/6 52/96/6 51/94/6
f 15/22/13 14/21/13 13/20/13
f 63/119/2 49/91/2 51/95/2
f 51/95/2 53/99/2 63/119/2
f 55/103/2 57/107/2 59/110/2
f 59/110/2 61/115/2 63/119/2
f 81/139/6 67/123/6 65/121/6
f 10/15/2 11/16/2 12/17/2
f 8/12/1 4/6/1 3/4/1
f 16/24/1 12/18/1 11/16/1
f 83/141/10 71/127/10 69/125/10
f 82/140/9 69/125/9 67/123/9
f 14/21/3 10/15/3 9/14/3
f 58/108/5 60/112/5 59/111/5
f 7/10/4 3/4/4 2/3/4
f 6/9/3 1/2/3 5/8/3
f 72/128/7 74/131/7 85/143/7
f 80/138/8 66/122/8 81/139/8
f 74/132/5 76/134/5 86/145/5
f 32/56/13 30/52/13 24/40/13
f 66/122/6 68/124/6 82/140/6
f 78/136/12 80/138/12 88/147/12
f 76/134/11 78/136/11 87/146/11
f 84/142/7 85/143/7 73/130/7
f 85/144/5 86/145/5 75/133/5
f 87/146/12 88/147/12 79/137/12
f 88/147/8 81/139/8 65/121/8
f 81/139/6 82/140/6 67/123/6
f 83/141/10 84/142/10 71/127/10
f 82/140/9 83/141/9 69/125/9
f 6/9/3 2/3/3 1/2/3
