# Blender v3.4.1 OBJ File: ''
# www.blender.org
o Cube_Cube.001
v -6.500000 5.000001 -6.499999
v -6.500000 3.000001 -6.500000
v -6.500000 2.999999 6.500000
v 6.500000 5.000001 -6.499999
v 6.500000 3.000001 -6.500000
v 6.500000 4.999999 6.500001
v 6.500000 2.999999 6.500000
v -6.500000 4.999999 6.500001
v 1.500000 5.000000 1.500001
v 1.500000 3.000000 1.500000
v 1.500000 3.000000 3.500000
v 1.500000 5.000000 3.500001
v 0.500000 2.999999 4.500000
v -0.500000 5.000001 -4.499999
v -1.500000 5.000000 -3.499999
v -4.500000 5.000000 -0.499999
v -3.500000 5.000000 -1.499999
v -4.500000 5.000000 0.500001
v 0.500000 5.000001 -4.499999
v 4.500000 5.000000 -0.499999
v 4.500000 5.000000 0.500001
v 3.500000 5.000000 1.500001
v 0.500000 4.999999 4.500001
v -0.500000 4.999999 4.500001
v 3.500000 3.000000 1.500000
v 4.500000 3.000000 0.500000
v 4.500000 3.000000 -0.500000
v 3.500000 5.000000 -1.499999
v 3.500000 3.000000 -1.500000
v 1.500000 5.000000 -1.499999
v 1.500000 3.000000 -1.500000
v 1.500000 3.000000 -3.500000
v 0.500000 3.000001 -4.500000
v 1.500000 5.000000 -3.499999
v -0.500000 3.000001 -4.500000
v -1.500000 3.000000 -3.500000
v -1.500000 5.000000 -1.499999
v -1.500000 3.000000 -1.500000
v -3.500000 3.000000 -1.500000
v -4.500000 3.000000 -0.500000
v -4.500000 3.000000 0.500000
v -3.500000 5.000000 1.500001
v -3.500000 3.000000 1.500000
v -1.500000 5.000000 1.500001
v -1.500000 3.000000 1.500000
v -1.500000 3.000000 3.500000
v -0.500000 2.999999 4.500000
v -1.500000 5.000000 3.500001
v -1.500000 3.500000 1.750001
v -1.500000 3.500000 2.000000
v 1.500000 3.500000 2.000000
v -1.500000 3.250000 2.000000
v 1.500000 3.250000 2.000000
v -1.500000 3.250000 1.750000
v 1.500000 3.500000 1.750001
v -1.500000 3.500000 -1.999999
v -1.500000 3.500000 -1.749999
v 1.500000 3.500000 -1.749999
v -1.500000 3.250000 -1.750000
v 1.500000 3.250000 -1.750000
v -1.500000 3.250000 -2.000000
v 1.500000 3.500000 -1.999999
v 1.750000 3.500000 1.500001
v 2.000000 3.500000 1.500001
v 2.000000 3.500000 -1.499999
v 2.000000 3.250000 1.500000
v 2.000000 3.250000 -1.500000
v 1.750000 3.250000 1.500000
v 1.750000 3.500000 -1.499999
v -2.000000 3.500000 1.500001
v -1.750000 3.500000 1.500001
v -1.750000 3.500000 -1.499999
v -1.750000 3.250000 1.500000
v -1.750000 3.250000 -1.500000
v -2.000000 3.250000 1.500000
v -2.000000 3.500000 -1.499999
v 1.500000 3.250000 1.750000
v 1.500000 3.250000 -2.000000
v 1.750000 3.250000 -1.500000
v -2.000000 3.250000 -1.500000
v 6.500000 3.000000 0.000000
v 6.500000 5.000000 0.000001
v 0.000000 5.000001 -6.499999
v 0.000000 3.000001 -6.500000
v -6.500000 5.000000 0.000001
v -6.500000 3.000000 0.000000
v 0.000000 4.999999 6.500001
v 0.000000 2.999999 6.500000
v -6.500000 4.000001 -6.500000
v 6.500000 3.999999 6.500000
v -6.500000 3.999999 6.500000
v 0.000000 3.999999 6.500000
v 6.500000 4.000001 -6.500000
v -6.500000 4.000000 0.000001
v 0.000000 4.000001 -6.500000
v 6.500000 4.000000 0.000001
v 1.500000 5.000000 0.000001
v 3.500000 5.000000 0.000001
v -3.500000 5.000000 0.000001
v -1.500000 5.000000 0.000001
v 0.000000 5.000000 0.000001
v 0.000000 5.000000 3.500001
v 0.000000 5.000000 1.500001
v 0.000000 5.000000 -1.499999
v 0.000000 5.000000 -3.499999
v 3.250000 5.000001 -6.499999
v -6.500000 5.000000 3.250001
v -3.500000 5.000001 -5.499999
v -4.000000 5.000001 -4.999999
v -5.000000 5.000000 -3.999999
v -5.500000 5.000000 -2.999999
v 2.500000 5.000000 -2.499999
v -4.000000 4.999999 5.000001
v -3.250000 4.999999 6.500001
v 4.000000 4.999999 5.000001
v 5.500000 5.000000 3.000001
v 5.000000 5.000000 4.000001
v 3.500000 4.999999 5.500001
v -2.500000 5.000000 -2.499999
v 3.250000 4.999999 6.500001
v 6.500000 5.000000 3.250001
v 3.000000 5.000001 -5.499999
v 5.500000 5.000000 -3.499999
v 2.500000 5.000000 2.500001
v -6.500000 5.000000 -3.249999
v -5.000000 5.000000 4.000001
v -2.500000 5.000000 2.500001
v -3.250000 5.000001 -6.499999
v 6.500000 5.000000 -3.249999
v -5.500000 5.000000 3.500001
v 5.000000 5.000000 -3.999999
v -3.000000 4.999999 5.500001
v 4.000000 5.000001 -4.999999
v 0.125000 4.999999 6.000001
v 6.000000 5.000000 -0.124999
v -0.125000 5.000001 -5.999999
v -6.000000 5.000000 0.125001
vt 0.500000 0.115384
vt 0.750000 0.076923
vt 0.749990 0.115391
vt 0.653846 0.384615
vt 0.692308 0.461538
vt 0.653846 0.461538
vt 0.500000 0.384615
vt 0.576923 0.307692
vt 0.576923 0.384615
vt 0.576923 0.461538
vt 0.615385 0.384615
vt 0.615385 0.461538
vt 0.615385 0.307692
vt 0.653846 0.384615
vt 0.615385 0.384615
vt 0.500000 0.538462
vt 0.576923 0.461538
vt 0.576923 0.538462
vt 0.461538 0.384615
vt 0.500000 0.500000
vt 0.442308 0.403846
vt 0.269231 0.423077
vt 0.403846 0.442308
vt 0.230769 0.423077
vt 0.365384 0.461538
vt 0.423077 0.269231
vt 0.423077 0.230769
vt 0.461538 0.134615
vt 0.269231 0.076923
vt 0.230769 0.076923
vt 0.134615 0.038461
vt 0.000000 -0.000000
vt 0.096154 0.057693
vt 0.115385 0.192308
vt 0.057693 0.096154
vt 0.153847 0.153847
vt 0.038461 0.115384
vt 0.076923 0.230769
vt 0.076923 0.269231
vt 0.038461 0.365384
vt 0.615385 0.730769
vt 0.673077 0.653846
vt 0.673077 0.730769
vt 0.500000 0.461538
vt 0.576923 0.384615
vt 0.615385 0.461538
vt 0.653846 0.538462
vt 0.615385 0.538462
vt 0.653846 0.461538
vt 0.692308 0.538462
vt 0.730769 0.730769
vt 0.807692 0.788462
vt 0.730769 0.788461
vt 0.692308 0.538462
vt 0.769231 0.615385
vt 0.692308 0.615385
vt 0.500000 0.615385
vt 0.576923 0.538462
vt 0.576923 0.615385
vt 1.000000 0.076923
vt 0.999981 0.115398
vt 0.615385 0.538462
vt 0.653846 0.615385
vt 0.615385 0.615385
vt 0.653846 0.538462
vt 0.692308 0.307692
vt 0.769231 0.384615
vt 0.692308 0.384615
vt 0.730769 0.846154
vt 0.673077 0.923077
vt 0.673077 0.846154
vt 0.653846 0.307692
vt 0.769231 0.336538
vt 0.884615 0.326923
vt 0.884615 0.336538
vt 0.769231 0.336538
vt 0.884615 0.346154
vt 0.769231 0.346154
vt 0.692308 0.384615
vt 0.769231 0.461538
vt -0.000000 0.500000
vt 0.076923 0.730769
vt 0.076923 0.769231
vt 0.000000 1.000000
vt 0.230769 0.923077
vt 0.269231 0.923077
vt 0.192308 0.884615
vt 0.115385 0.807692
vt 0.192308 0.807692
vt 0.500000 1.000000
vt 0.423077 0.769231
vt 0.423077 0.730769
vt 0.500000 0.500000
vt 0.269231 0.576923
vt 0.230769 0.576923
vt 0.384615 0.807692
vt 0.307692 0.884615
vt 0.307692 0.807692
vt 0.384615 0.692308
vt 0.307692 0.615385
vt 0.307692 0.692308
vt 0.192308 0.615385
vt 0.192308 0.692308
vt 0.115385 0.692308
vt 0.500000 0.000000
vt 0.442308 0.096154
vt 0.384615 0.038461
vt 0.403846 0.057693
vt 0.115384 0.461538
vt -0.000000 0.500000
vt 0.096154 0.442308
vt 0.057693 0.403846
vt 0.192308 0.384615
vt 0.153847 0.346153
vt 0.307692 0.115385
vt 0.346153 0.153847
vt 0.384615 0.307692
vt 0.346153 0.346153
vt 0.769231 0.307692
vt 0.884615 0.317308
vt 0.769231 0.317308
vt 0.884615 0.326923
vt 0.769231 0.336538
vt 0.769231 0.326923
vt 0.769231 0.346154
vt 0.884615 0.346154
vt 0.769231 0.317308
vt 0.884615 0.317308
vt 0.769231 0.307692
vt 0.884615 0.307692
vt 0.769231 0.336538
vt 0.884615 0.326923
vt 0.884615 0.336538
vt 0.884615 0.317308
vt 0.769231 0.317308
vt 0.884615 0.346154
vt 0.769231 0.346154
vt 0.769231 0.307692
vt 0.500000 0.192308
vt 0.750000 0.153846
vt 0.750000 0.192308
vt 0.769231 0.346154
vt 0.884615 0.346154
vt 0.769231 0.317308
vt 0.884615 0.317308
vt 0.769231 0.307692
vt 0.884615 0.307692
vt 0.500000 0.038461
vt 0.749981 0.000019
vt 0.749990 0.038471
vt 0.673077 0.788461
vt 0.884615 0.326923
vt 0.769231 0.326923
vt 0.615385 0.846154
vt 0.538462 0.788462
vt 0.615385 0.788461
vt 0.692308 0.461538
vt 0.769231 0.538462
vt 0.625000 0.230769
vt 0.500000 0.230769
vt 0.375000 0.500000
vt 0.245192 0.480769
vt 0.500000 0.125000
vt 0.480769 0.254808
vt 0.125000 0.000000
vt 0.254808 0.019231
vt 0.192308 0.115385
vt 0.192308 0.192308
vt 0.000000 0.375000
vt 0.019231 0.245192
vt 0.807692 0.846154
vt 1.000000 0.153846
vt 1.000000 0.192308
vt 0.625000 0.076923
vt 0.500000 0.076923
vt 0.875000 0.230769
vt 0.750000 0.230769
vt 0.538462 0.730769
vt 0.875000 0.076923
vt 0.750000 0.076923
vt 0.000000 0.750000
vt 0.250000 1.000000
vt 0.500000 0.750000
vt 0.250000 0.500000
vt 0.115385 0.307692
vt 0.192308 0.307692
vt 0.384615 0.192308
vt 0.307692 0.192308
vt 0.307692 0.384615
vt 0.307692 0.307692
vt 0.730769 0.653846
vt 0.875000 0.307692
vt 0.750000 0.307692
vt 0.750000 0.269230
vt 0.625000 0.307692
vt 0.500000 0.307692
vt 0.500000 0.269230
vt 0.615385 0.923077
vt 0.999961 0.000039
vt 0.999981 0.038481
vt 1.000000 0.230769
vt 1.000000 0.269230
vt 0.624990 0.153853
vt 0.500000 0.153846
vt 0.538462 0.846154
vt 0.500000 0.807692
vt 0.500000 0.769231
vt 0.730769 0.923077
vt 0.692308 0.961538
vt 0.653846 0.961538
vt 0.807692 0.730769
vt 0.846154 0.769231
vt 0.846154 0.807692
vt 0.615385 0.653846
vt 0.653846 0.615385
vt 0.692308 0.615385
vt 0.874971 0.153866
vt 0.749981 0.153859
vt 0.750000 0.230769
vt 0.999961 0.153873
vt 1.000000 0.307692
vt 1.000000 0.076923
vt 1.000000 0.230769
vt 0.000000 0.250000
vt 0.000000 0.125000
vt 0.250000 0.000000
vt 0.375000 0.000000
vt 0.500000 0.250000
vt 0.500000 0.375000
vt 0.250000 0.500000
vt 0.125000 0.500000
vt 0.500000 0.076923
vt 0.500000 0.307692
vt 0.500000 0.461538
vt 0.500000 0.384615
vt 0.769231 0.538462
vt 0.500000 0.538462
vt 0.769231 0.307692
vt 0.769231 0.326923
vt 0.884615 0.336538
vt 0.769231 0.384615
vt 0.884615 0.307692
vt 0.884615 0.336538
vt 0.769231 0.326923
vt 0.884615 0.307692
vt 0.500000 0.153846
vt 0.500000 0.000000
vt 0.769231 0.461538
vt 0.500000 0.230769
vn 1.0000 -0.0000 0.0000
vn -0.7071 0.0000 -0.7071
vn -1.0000 -0.0000 0.0000
vn -0.7071 -0.0000 0.7071
vn 0.0000 0.0000 -1.0000
vn 0.0000 1.0000 -0.0000
vn 0.0000 -0.0000 1.0000
vn 0.7071 -0.0000 0.7071
vn 0.7071 0.0000 -0.7071
vn -0.0000 -1.0000 -0.0000
s 1
f 90/1/1 81/2/1 96/3/1
f 26/4/2 22/5/2 21/6/2
f 9/7/3 11/8/3 12/9/3
f 28/10/4 27/11/4 20/12/4
f 13/13/5 24/14/5 23/15/5
f 37/16/1 36/17/1 15/18/1
f 108/19/6 1/20/6 109/21/6
f 1/20/6 16/22/6 110/23/6
f 18/24/6 16/22/6 111/25/6
f 14/26/6 19/27/6 122/28/6
f 20/29/6 21/30/6 116/31/6
f 6/32/6 21/30/6 117/33/6
f 12/34/6 115/35/6 124/36/6
f 118/37/6 6/32/6 115/35/6
f 23/38/6 24/39/6 132/40/6
f 27/11/3 21/6/3 20/12/3
f 9/41/6 98/42/6 97/43/6
f 30/44/7 29/45/7 28/10/7
f 35/46/7 19/47/7 14/48/7
f 33/49/4 34/50/4 19/47/4
f 30/51/6 105/52/6 104/53/6
f 39/54/7 37/55/7 17/56/7
f 44/57/5 43/58/5 42/59/5
f 96/3/1 5/60/1 93/61/1
f 41/62/1 16/63/1 18/64/1
f 40/65/8 17/56/8 16/63/8
f 42/59/9 41/62/9 18/64/9
f 46/66/1 44/67/1 48/68/1
f 37/69/6 99/70/6 100/71/6
f 47/72/9 48/68/9 24/14/9
f 56/73/6 58/74/6 62/75/6
f 51/76/7 52/77/7 53/78/7
f 25/79/5 9/80/5 22/5/5
f 3/81/10 47/82/10 13/83/10
f 7/84/10 26/85/10 27/86/10
f 26/85/10 7/84/10 25/87/10
f 13/83/10 11/88/10 7/84/10
f 11/88/10 10/89/10 25/87/10
f 5/90/10 33/91/10 35/92/10
f 2/93/10 40/94/10 41/95/10
f 33/91/10 5/90/10 32/96/10
f 27/86/10 29/97/10 5/90/10
f 29/97/10 31/98/10 32/96/10
f 35/92/10 36/99/10 2/93/10
f 40/94/10 2/93/10 39/100/10
f 36/99/10 38/101/10 39/100/10
f 41/95/10 43/102/10 3/81/10
f 43/102/10 45/103/10 46/104/10
f 47/82/10 3/81/10 46/104/10
f 4/105/6 19/27/6 133/106/6
f 123/107/6 4/105/6 131/108/6
f 130/109/6 8/110/6 126/111/6
f 8/110/6 24/39/6 113/112/6
f 42/113/6 126/111/6 127/114/6
f 28/115/6 131/108/6 112/116/6
f 15/117/6 109/21/6 119/118/6
f 53/119/10 54/120/10 77/121/10
f 63/122/6 65/123/6 69/124/6
f 61/125/5 62/75/5 78/126/5
f 58/74/7 59/127/7 60/128/7
f 60/128/10 61/129/10 78/130/10
f 70/131/6 72/132/6 76/133/6
f 68/134/3 69/124/3 79/135/3
f 65/123/1 66/136/1 67/137/1
f 67/138/10 68/134/10 79/135/10
f 93/139/5 84/140/5 95/141/5
f 75/142/3 76/133/3 80/143/3
f 72/132/1 73/144/1 74/145/1
f 74/145/10 75/146/10 80/147/10
f 15/18/8 35/46/8 14/48/8
f 91/148/7 88/149/7 92/150/7
f 104/53/6 100/71/6 101/151/6
f 49/152/6 51/76/6 55/153/6
f 44/154/6 102/155/6 103/156/6
f 54/120/5 55/153/5 77/121/5
f 32/157/3 30/158/3 34/50/3
f 12/9/2 13/13/2 23/15/2
f 106/159/5 4/160/5 93/139/5
f 111/25/6 125/161/6 137/162/6
f 122/28/6 106/163/6 136/164/6
f 116/31/6 121/165/6 135/166/6
f 22/167/6 9/168/6 124/36/6
f 132/40/6 114/169/6 134/170/6
f 104/53/6 15/171/6 37/69/6
f 30/51/6 101/151/6 97/43/6
f 95/141/5 2/172/5 89/173/5
f 114/174/7 8/175/7 91/148/7
f 128/176/5 83/177/5 95/141/5
f 103/156/6 12/178/6 9/41/6
f 120/179/7 87/180/7 92/150/7
f 97/43/6 103/156/6 9/41/6
f 88/181/10 13/83/10 7/84/10
f 81/182/10 27/86/10 5/90/10
f 7/84/10 11/88/10 25/87/10
f 84/183/10 35/92/10 2/93/10
f 86/184/10 41/95/10 3/81/10
f 5/90/10 29/97/10 32/96/10
f 2/93/10 36/99/10 39/100/10
f 3/81/10 43/102/10 46/104/10
f 48/185/6 44/186/6 127/114/6
f 34/187/6 30/188/6 112/116/6
f 17/189/6 37/190/6 119/118/6
f 97/43/6 28/191/6 30/51/6
f 107/192/3 85/193/3 94/194/3
f 125/195/3 1/196/3 89/197/3
f 100/71/6 42/198/6 44/154/6
f 101/151/6 44/154/6 103/156/6
f 92/150/7 7/199/7 90/200/7
f 94/194/3 3/201/3 91/202/3
f 121/203/1 6/204/1 90/1/1
f 48/205/6 24/206/6 23/207/6
f 23/207/6 102/155/6 48/205/6
f 17/208/6 16/209/6 18/210/6
f 18/210/6 99/70/6 17/208/6
f 34/211/6 19/212/6 14/213/6
f 14/213/6 105/52/6 34/211/6
f 22/214/6 21/215/6 20/216/6
f 20/216/6 98/42/6 22/214/6
f 129/217/1 82/218/1 96/3/1
f 89/197/3 86/219/3 94/194/3
f 4/220/1 129/217/1 93/61/1
f 93/61/1 129/217/1 96/3/1
f 82/218/1 121/203/1 96/3/1
f 96/3/1 121/203/1 90/1/1
f 85/193/3 125/195/3 94/194/3
f 94/194/3 125/195/3 89/197/3
f 8/221/3 107/192/3 91/202/3
f 91/202/3 107/192/3 94/194/3
f 37/190/6 15/117/6 119/118/6
f 30/188/6 28/115/6 112/116/6
f 44/186/6 42/113/6 127/114/6
f 6/222/7 120/179/7 90/200/7
f 90/200/7 120/179/7 92/150/7
f 1/223/5 128/176/5 89/173/5
f 89/173/5 128/176/5 95/141/5
f 87/180/7 114/174/7 92/150/7
f 92/150/7 114/174/7 91/148/7
f 134/170/6 87/224/6 120/225/6
f 118/37/6 120/225/6 6/32/6
f 23/38/6 134/170/6 118/37/6
f 9/168/6 12/34/6 124/36/6
f 135/166/6 82/226/6 129/227/6
f 123/107/6 129/227/6 4/105/6
f 20/29/6 135/166/6 123/107/6
f 136/164/6 83/228/6 128/229/6
f 108/19/6 128/229/6 1/20/6
f 14/26/6 136/164/6 108/19/6
f 137/162/6 85/230/6 107/231/6
f 130/109/6 107/231/6 8/110/6
f 18/24/6 137/162/6 130/109/6
f 83/177/5 106/159/5 95/141/5
f 95/141/5 106/159/5 93/139/5
f 119/118/6 110/23/6 17/189/6
f 119/118/6 109/21/6 110/23/6
f 109/21/6 1/20/6 110/23/6
f 112/116/6 133/106/6 34/187/6
f 112/116/6 131/108/6 133/106/6
f 131/108/6 4/105/6 133/106/6
f 127/114/6 113/112/6 48/185/6
f 127/114/6 126/111/6 113/112/6
f 126/111/6 8/110/6 113/112/6
f 24/39/6 48/185/6 113/112/6
f 130/109/6 42/113/6 18/24/6
f 123/107/6 28/115/6 20/29/6
f 19/27/6 34/187/6 133/106/6
f 24/39/6 8/110/6 132/40/6
f 118/37/6 12/34/6 23/38/6
f 124/36/6 117/33/6 22/167/6
f 124/36/6 115/35/6 117/33/6
f 115/35/6 6/32/6 117/33/6
f 21/30/6 22/167/6 117/33/6
f 21/30/6 6/32/6 116/31/6
f 19/27/6 4/105/6 122/28/6
f 16/22/6 1/20/6 111/25/6
f 16/22/6 17/189/6 110/23/6
f 108/19/6 15/117/6 14/26/6
f 90/1/1 7/232/1 81/2/1
f 26/4/2 25/79/2 22/5/2
f 9/7/3 10/233/3 11/8/3
f 28/10/4 29/45/4 27/11/4
f 13/13/5 47/72/5 24/14/5
f 37/16/1 38/234/1 36/17/1
f 27/11/3 26/4/3 21/6/3
f 9/41/6 22/214/6 98/42/6
f 30/44/7 31/235/7 29/45/7
f 35/46/7 33/49/7 19/47/7
f 33/49/4 32/157/4 34/50/4
f 30/51/6 34/211/6 105/52/6
f 39/54/7 38/236/7 37/55/7
f 44/57/5 45/237/5 43/58/5
f 96/3/1 81/2/1 5/60/1
f 41/62/1 40/65/1 16/63/1
f 40/65/8 39/54/8 17/56/8
f 42/59/9 43/58/9 41/62/9
f 46/66/1 45/238/1 44/67/1
f 37/69/6 17/208/6 99/70/6
f 47/72/9 46/66/9 48/68/9
f 56/73/6 57/239/6 58/74/6
f 51/76/7 50/240/7 52/77/7
f 25/79/5 10/241/5 9/80/5
f 53/119/10 52/242/10 54/120/10
f 63/122/6 64/243/6 65/123/6
f 61/125/5 56/73/5 62/75/5
f 58/74/7 57/239/7 59/127/7
f 60/128/10 59/127/10 61/129/10
f 70/131/6 71/244/6 72/132/6
f 68/134/3 63/122/3 69/124/3
f 65/123/1 64/243/1 66/136/1
f 67/138/10 66/245/10 68/134/10
f 93/139/5 5/246/5 84/140/5
f 75/142/3 70/131/3 76/133/3
f 72/132/1 71/244/1 73/144/1
f 74/145/10 73/144/10 75/146/10
f 15/18/8 36/17/8 35/46/8
f 91/148/7 3/247/7 88/149/7
f 104/53/6 37/69/6 100/71/6
f 49/152/6 50/240/6 51/76/6
f 44/154/6 48/205/6 102/155/6
f 54/120/5 49/152/5 55/153/5
f 32/157/3 31/248/3 30/158/3
f 12/9/2 11/8/2 13/13/2
f 111/25/6 1/20/6 125/161/6
f 122/28/6 4/105/6 106/163/6
f 116/31/6 6/32/6 121/165/6
f 132/40/6 8/110/6 114/169/6
f 104/53/6 105/52/6 15/171/6
f 30/51/6 104/53/6 101/151/6
f 95/141/5 84/140/5 2/172/5
f 103/156/6 102/155/6 12/178/6
f 97/43/6 101/151/6 103/156/6
f 88/181/10 3/81/10 13/83/10
f 81/182/10 7/84/10 27/86/10
f 84/183/10 5/90/10 35/92/10
f 86/184/10 2/93/10 41/95/10
f 97/43/6 98/42/6 28/191/6
f 100/71/6 99/70/6 42/198/6
f 101/151/6 100/71/6 44/154/6
f 92/150/7 88/149/7 7/199/7
f 94/194/3 86/219/3 3/201/3
f 23/207/6 12/178/6 102/155/6
f 18/210/6 42/198/6 99/70/6
f 14/213/6 15/171/6 105/52/6
f 20/216/6 28/191/6 98/42/6
f 89/197/3 2/249/3 86/219/3
f 134/170/6 114/169/6 87/224/6
f 118/37/6 134/170/6 120/225/6
f 23/38/6 132/40/6 134/170/6
f 135/166/6 121/165/6 82/226/6
f 123/107/6 135/166/6 129/227/6
f 20/29/6 116/31/6 135/166/6
f 136/164/6 106/163/6 83/228/6
f 108/19/6 136/164/6 128/229/6
f 14/26/6 122/28/6 136/164/6
f 137/162/6 125/161/6 85/230/6
f 130/109/6 137/162/6 107/231/6
f 18/24/6 111/25/6 137/162/6
f 130/109/6 126/111/6 42/113/6
f 123/107/6 131/108/6 28/115/6
f 118/37/6 115/35/6 12/34/6
f 108/19/6 109/21/6 15/117/6
