# Blender v3.4.1 OBJ File: ''
# www.blender.org
o Cube_Cube.001
v 6.500000 3.999998 6.500000
v 6.500000 3.000000 0.000000
v 6.500000 4.000000 0.000002
v 4.500000 3.000000 0.500000
v 3.500000 5.000000 1.500002
v 4.500000 5.000000 0.500002
v 1.500000 5.000000 1.500002
v 1.500000 3.000000 3.500000
v 1.500000 5.000000 3.500002
v 3.500000 5.000000 -1.499998
v 4.500000 3.000000 -0.500000
v 4.500000 5.000000 -0.499998
v 0.500000 2.999998 4.500000
v -0.500000 4.999998 4.500002
v 0.500000 4.999998 4.500002
v -1.500000 5.000000 -1.499998
v -1.500000 3.000000 -3.500000
v -1.500000 5.000000 -3.499998
v -3.500000 5.000002 -5.499998
v -6.500000 5.000002 -6.499998
v -4.000000 5.000002 -4.999998
v -4.500000 5.000000 -0.499998
v -5.000000 5.000000 -3.999998
v -4.500000 5.000000 0.500002
v -5.500000 5.000000 -2.999998
v -0.500000 5.000002 -4.499998
v 0.500000 5.000002 -4.499998
v 3.000000 5.000002 -5.499998
v 5.500000 5.000000 3.000002
v 6.500000 4.999998 6.500002
v 5.000000 5.000000 4.000002
v 4.000000 4.999998 5.000002
v 2.500000 5.000000 2.500002
v 3.500000 4.999998 5.500002
v -3.000000 4.999998 5.500002
v 3.500000 5.000000 0.000002
v 1.500000 5.000000 0.000002
v 1.500000 5.000000 -1.499998
v 3.500000 3.000000 -1.500000
v -0.500000 3.000002 -4.500000
v 0.500000 3.000002 -4.500000
v 1.500000 5.000000 -3.499998
v 0.000000 5.000000 -3.499998
v 0.000000 5.000000 -1.499998
v -3.500000 3.000000 -1.500000
v -3.500000 5.000000 -1.499998
v -1.500000 5.000000 1.500002
v -3.500000 3.000000 1.500000
v -3.500000 5.000000 1.500002
v 6.500000 3.000002 -6.500000
v 6.500000 4.000002 -6.500000
v -4.500000 3.000000 0.500000
v -4.500000 3.000000 -0.500000
v -1.500000 3.000000 3.500000
v -1.500000 5.000000 3.500002
v -3.500000 5.000000 0.000002
v -1.500000 5.000000 0.000002
v -0.500000 2.999998 4.500000
v -1.500000 3.500000 -1.999998
v 1.500000 3.500000 -1.749998
v 1.500000 3.500000 -1.999998
v 1.500000 3.500000 2.000000
v -1.500000 3.250000 2.000000
v 1.500000 3.250000 2.000000
v 3.500000 3.000000 1.500000
v -6.500000 2.999998 6.500000
v 6.500000 2.999998 6.500000
v 1.500000 3.000000 1.500000
v -6.500000 3.000002 -6.500000
v 1.500000 3.000000 -3.500000
v 1.500000 3.000000 -1.500000
v -1.500000 3.000000 -1.500000
v -1.500000 3.000000 1.500000
v 6.500000 5.000002 -6.499998
v 4.000000 5.000002 -4.999998
v 5.500000 5.000000 -3.499998
v 5.000000 5.000000 -3.999998
v -5.500000 5.000000 3.500002
v -6.500000 4.999998 6.500002
v -5.000000 5.000000 4.000002
v -4.000000 4.999998 5.000002
v -2.500000 5.000000 2.500002
v 2.500000 5.000000 -2.499998
v -2.500000 5.000000 -2.499998
v -1.500000 3.250000 1.750000
v 1.500000 3.250000 1.750000
v 1.750000 3.500000 1.500002
v 2.000000 3.500000 -1.499998
v 1.750000 3.500000 -1.499998
v -1.500000 3.250000 -2.000000
v 1.500000 3.250000 -2.000000
v -1.500000 3.250000 -1.750000
v 1.500000 3.250000 -1.750000
v -2.000000 3.500000 1.500002
v -1.750000 3.500000 -1.499998
v -2.000000 3.500000 -1.499998
v 1.750000 3.250000 1.500000
v 1.750000 3.250000 -1.500000
v 2.000000 3.250000 1.500000
v 2.000000 3.250000 -1.500000
v 0.000000 3.000002 -6.500000
v 0.000000 4.000002 -6.500000
v -2.000000 3.250000 1.500000
v -2.000000 3.250000 -1.500000
v -1.750000 3.250000 1.500000
v -1.750000 3.250000 -1.500000
v -6.500000 3.999998 6.500000
v 0.000000 2.999998 6.500000
v 0.000000 3.999998 6.500000
v 0.000000 5.000000 0.000002
v -1.500000 3.500000 1.750002
v 1.500000 3.500000 1.750002
v 0.000000 5.000000 3.500002
v 0.000000 5.000000 1.500002
v 3.250000 5.000002 -6.499998
v -6.500000 5.000000 -3.249998
v -6.000000 5.000000 0.125002
v -0.125000 5.000002 -5.999998
v 6.500000 5.000000 3.250002
v 6.000000 5.000000 -0.124998
v -3.250000 4.999998 6.500002
v 0.125000 4.999998 6.000002
v -6.500000 4.000002 -6.500000
v -3.250000 5.000002 -6.499998
v 0.000000 5.000002 -6.499998
v 3.250000 4.999998 6.500002
v 0.000000 4.999998 6.500002
v -6.500000 3.000000 0.000000
v -6.500000 5.000000 3.250002
v -6.500000 5.000000 0.000002
v -6.500000 4.000000 0.000002
v 6.500000 5.000000 -3.249998
v 6.500000 5.000000 0.000002
v -1.500000 3.500000 -1.749998
v -1.500000 3.500000 2.000000
v 2.000000 3.500000 1.500002
v -1.750000 3.500000 1.500002
v -1.000000 3.000001 -4.000000
v -2.500000 3.000000 -2.500000
v 3.500000 3.000002 -5.500000
v 5.000000 2.999999 4.000000
v 2.500000 3.000000 1.500000
v -4.000000 3.000001 -5.000000
v 1.000000 3.000001 -4.000000
v -1.500000 3.000000 -2.500000
v 6.500000 3.000001 -3.250000
v -3.500000 2.999998 5.500000
v 6.500000 2.999999 3.250000
v 4.000000 3.000001 -5.000000
v 3.250000 3.000002 -6.500000
v -3.250000 2.999998 6.500000
v -6.500000 2.999999 3.250000
v 4.000000 3.000000 -1.000000
v 5.500000 2.999999 3.000000
v 4.500000 3.000000 0.000000
v -4.500000 3.000000 0.000000
v 4.000000 3.000000 1.000000
v -5.500000 2.999999 3.500000
v 5.500000 2.999999 3.500000
v -5.500000 3.000001 -3.000000
v 5.500000 3.000001 -3.500000
v -5.500000 3.000000 0.250000
v -1.000000 2.999999 4.000000
v -4.000000 3.000000 -1.000000
v 0.000000 2.999998 4.500000
v -3.000000 2.999998 5.500000
v 3.500000 2.999998 5.500000
v -5.500000 3.000001 -3.500000
v -2.500000 3.000000 -1.500000
v -3.250000 3.000002 -6.500000
v 0.250000 2.999998 5.500000
v -6.500000 3.000001 -3.250000
v 5.500000 3.000000 -0.250000
v -4.000000 2.999999 5.000000
v 1.500000 3.000000 -2.500000
v -1.500000 3.000000 2.500000
v -4.000000 3.000000 1.000000
v 3.250000 2.999998 6.500000
v 5.000000 3.000001 -4.000000
v 2.500000 3.000000 -2.500000
v 2.500000 3.000000 -1.500000
v -5.000000 3.000001 -4.000000
v 1.000000 2.999999 4.000000
v 0.000000 3.000002 -4.500000
v 3.000000 3.000002 -5.500000
v -2.500000 3.000000 2.500000
v 2.500000 3.000000 2.500000
v -5.000000 2.999999 4.000000
v 4.000000 2.999999 5.000000
v 1.500000 3.000000 2.500000
v -3.500000 3.000002 -5.500000
v -2.500000 3.000000 1.500000
v -0.250000 3.000002 -5.500000
vt 1.000000 0.076923
vt 0.999981 0.115398
vt 0.875000 0.076923
vt 0.673077 0.461538
vt 0.692308 0.461538
vt 0.692308 0.538462
vt 0.730770 0.461538
vt 0.769231 0.461538
vt 0.769231 0.538462
vt 0.615385 0.307692
vt 0.615385 0.384615
vt 0.596154 0.307692
vt 0.730769 0.923077
vt 0.673077 0.846154
vt 0.730769 0.846154
vt 0.884615 0.317308
vt 0.769231 0.326923
vt 0.769231 0.317308
vt 0.461538 0.384615
vt 0.500000 0.500000
vt 0.442308 0.403846
vt 0.269231 0.423077
vt 0.403846 0.442308
vt 0.230769 0.423077
vt 0.365384 0.461538
vt 0.423077 0.269231
vt 0.423077 0.230769
vt 0.461538 0.134615
vt 0.269231 0.076923
vt 0.230769 0.076923
vt 0.134615 0.038461
vt 0.000000 -0.000000
vt 0.096154 0.057693
vt 0.096154 0.442308
vt 0.192308 0.384615
vt 0.115384 0.461538
vt 0.038461 0.115384
vt 0.057693 0.096154
vt 0.076923 0.230769
vt 0.076923 0.269231
vt 0.038461 0.365384
vt 0.750000 0.076923
vt 0.749990 0.115391
vt 0.625000 0.076923
vt 0.634616 0.307692
vt 0.653846 0.307692
vt 0.653846 0.384615
vt 0.769231 0.317308
vt 0.884615 0.307692
vt 0.884615 0.317308
vt 0.884615 0.336538
vt 0.769231 0.326923
vt 0.884615 0.326923
vt 0.615385 0.538462
vt 0.615385 0.615385
vt 0.596154 0.538462
vt 0.884615 0.307692
vt 0.769231 0.307692
vt 0.769231 0.326923
vt 0.884615 0.317308
vt 0.884615 0.326923
vt 0.615385 0.653846
vt 0.673077 0.730769
vt 0.615385 0.730769
vt 0.750000 0.230769
vt 0.750000 0.269230
vt 0.625000 0.230769
vt 0.576923 0.461538
vt 0.576923 0.538462
vt 0.538462 0.461538
vt 0.615385 0.384615
vt 0.615385 0.461538
vt 0.596154 0.384615
vt 0.673077 0.307692
vt 0.692308 0.307692
vt 0.692308 0.384615
vt 1.000000 0.230769
vt 1.000000 0.269230
vt 0.875000 0.230769
vt 0.769231 0.346154
vt 0.769231 0.336538
vt 0.673077 0.538462
vt 0.692308 0.538462
vt 0.692308 0.615385
vt 0.730769 0.788461
vt 0.730769 0.730769
vt 0.673077 0.653846
vt 0.576923 0.384615
vt 0.576923 0.461538
vt 0.538462 0.384615
vt -0.000000 0.500000
vt 0.038461 0.615384
vt 0.038461 0.634616
vt 0.000000 1.000000
vt 0.115384 0.961538
vt 0.134615 0.961538
vt 0.230769 0.923077
vt 0.211538 0.903846
vt 0.076923 0.769231
vt 0.096154 0.788462
vt 0.038461 0.884616
vt 0.115385 0.807692
vt 0.153847 0.807692
vt 0.153847 0.846153
vt 0.500000 1.000000
vt 0.461538 0.884616
vt 0.461538 0.865384
vt 0.500000 0.500000
vt 0.384615 0.538462
vt 0.365384 0.538462
vt 0.423077 0.769231
vt 0.403846 0.788462
vt 0.269231 0.923077
vt 0.288462 0.903846
vt 0.384615 0.961538
vt 0.307692 0.884615
vt 0.307692 0.846153
vt 0.346153 0.846153
vt 0.423077 0.730769
vt 0.403846 0.711538
vt 0.461538 0.615384
vt 0.269231 0.576923
vt 0.288462 0.596154
vt 0.384615 0.692308
vt 0.346153 0.692308
vt 0.346153 0.653847
vt 0.230769 0.576923
vt 0.211538 0.596154
vt 0.115384 0.538462
vt 0.192308 0.615385
vt 0.192308 0.653847
vt 0.153847 0.653847
vt 0.076923 0.730769
vt 0.096154 0.711538
vt 0.500000 0.000000
vt 0.442308 0.096154
vt 0.384615 0.038461
vt 0.403846 0.057693
vt -0.000000 0.500000
vt 0.057693 0.403846
vt 0.307692 0.115385
vt 0.384615 0.307692
vt 0.250000 0.500000
vt 0.375000 0.500000
vt 0.576923 0.538462
vt 0.576923 0.615385
vt 0.538462 0.538462
vt 0.769231 0.317308
vt 0.884615 0.317308
vt 0.673077 0.923077
vt 0.615385 0.846154
vt 0.634616 0.461538
vt 0.653846 0.461538
vt 0.653846 0.538462
vt 0.615385 0.788461
vt 0.673077 0.788461
vt 0.538462 0.846154
vt 0.769231 0.346154
vt 0.884615 0.336538
vt 0.884615 0.346154
vt 0.884615 0.326923
vt 0.884615 0.307692
vt 0.769231 0.307692
vt 0.749981 0.000019
vt 0.749990 0.038471
vt 0.624990 0.000009
vt 0.769231 0.336538
vt 0.884615 0.346154
vt 0.769231 0.346154
vt 0.500000 0.375000
vt 0.480769 0.254808
vt 0.807692 0.730769
vt 0.673077 0.384615
vt 0.692308 0.384615
vt 0.692308 0.461538
vt 0.769231 0.326923
vt 0.769231 0.336538
vt 0.999961 0.000039
vt 0.999981 0.038481
vt 0.874971 0.000029
vt 0.615385 0.461538
vt 0.615385 0.538462
vt 0.596154 0.461538
vt 0.538462 0.788462
vt 0.730770 0.307692
vt 0.769231 0.307692
vt 0.769231 0.384615
vt 0.576923 0.307692
vt 0.576923 0.384615
vt 0.538462 0.307692
vt 0.625000 0.230769
vt 0.500000 0.230769
vt 0.500000 0.192308
vt 0.500000 0.250000
vt 0.500000 0.125000
vt 0.000000 0.250000
vt 0.000000 0.375000
vt 0.346153 0.346153
vt 0.307692 0.384615
vt 0.192308 0.115385
vt 0.192308 0.192308
vt 0.153847 0.153847
vt 0.250000 0.000000
vt 0.125000 0.000000
vt 0.769231 0.317308
vt 0.884615 0.307692
vt 0.750000 0.153846
vt 0.750000 0.192308
vt 0.625000 0.153846
vt 0.884615 0.336538
vt 0.884615 0.326923
vt 0.625000 0.076923
vt 0.500000 0.076923
vt 0.500000 0.038461
vt 0.875000 0.230769
vt 0.750000 0.230769
vt 0.769231 0.336538
vt 0.884615 0.346154
vt 0.769231 0.346154
vt 0.875000 0.076923
vt 0.750000 0.076923
vt 1.000000 0.153846
vt 1.000000 0.192308
vt 0.875000 0.153846
vt 0.000000 0.750000
vt 0.038461 0.759616
vt 0.000000 0.875000
vt 0.250000 1.000000
vt 0.259615 0.961538
vt 0.375000 1.000000
vt 0.057693 0.903846
vt 0.096154 0.942307
vt 0.500000 0.750000
vt 0.461538 0.740384
vt 0.500000 0.625000
vt 0.250000 0.500000
vt 0.240384 0.538462
vt 0.125000 0.500000
vt 0.403846 0.942307
vt 0.442308 0.903846
vt 0.442308 0.596154
vt 0.403846 0.557693
vt 0.096154 0.557693
vt 0.057693 0.596154
vt 0.115385 0.307692
vt 0.192308 0.307692
vt 0.153847 0.346153
vt 0.384615 0.192308
vt 0.307692 0.192308
vt 0.346153 0.153847
vt 0.307692 0.307692
vt 0.807692 0.788462
vt 0.875000 0.307692
vt 0.750000 0.307692
vt 0.625000 0.307692
vt 0.500000 0.307692
vt 0.500000 0.269230
vt 0.730770 0.384615
vt 0.769231 0.384615
vt 0.769231 0.461538
vt 0.730770 0.538462
vt 0.769231 0.538462
vt 0.769231 0.615385
vt 0.884615 0.336538
vt 0.634616 0.384615
vt 0.653846 0.384615
vt 0.653846 0.461538
vt 0.624990 0.153853
vt 0.500000 0.153846
vt 0.500000 0.115384
vt 0.500000 0.807692
vt 0.500000 0.769231
vt 0.692308 0.961538
vt 0.653846 0.961538
vt 0.846154 0.769231
vt 0.846154 0.807692
vt 0.653846 0.615385
vt 0.692308 0.615385
vt 0.874971 0.153866
vt 0.749981 0.153859
vt 0.634616 0.538462
vt 0.653846 0.538462
vt 0.653846 0.615385
vt 0.999961 0.153873
vt 1.000000 0.307692
vt 1.000000 0.076923
vt 1.000000 0.230769
vt 0.019231 0.245192
vt 0.000000 0.125000
vt 0.125000 0.500000
vt 0.245192 0.480769
vt 0.115385 0.192308
vt 0.254808 0.019231
vt 0.375000 0.000000
vt 0.000000 0.625000
vt 0.125000 1.000000
vt 0.500000 0.875000
vt 0.375000 0.500000
vt 0.538462 0.730769
vt 0.615385 0.923077
vt 0.807692 0.846154
vt 0.730769 0.653846
vt 0.115385 0.692308
vt 0.307692 0.615385
vt 0.384615 0.807692
vt 0.192308 0.884615
vt 0.500000 0.153846
vt 0.500000 0.384615
vt 0.500000 0.307692
vt 0.500000 0.000000
vt 0.500000 0.615385
vt 0.500000 0.538462
vt 0.153847 0.692308
vt 0.192308 0.692308
vt 0.307692 0.653847
vt 0.307692 0.692308
vt 0.346153 0.807692
vt 0.307692 0.807692
vt 0.250000 0.576923
vt 0.423077 0.750000
vt 0.192308 0.846153
vt 0.192308 0.807692
vt 0.250000 0.923077
vt 0.076923 0.750000
vt 0.500000 0.461538
vt 0.500000 0.384615
vt 0.500000 0.538462
vt 0.500000 0.461538
vt 0.500000 0.230769
vt 0.500000 0.076923
vt 0.769231 0.307692
vt 0.884615 0.346154
vt 0.769231 0.307692
vn 1.0000 0.0000 0.0000
vn -0.7071 -0.0000 0.7071
vn -1.0000 -0.0000 0.0000
vn -0.7071 0.0000 -0.7071
vn -0.0000 1.0000 0.0000
vn 0.0000 0.0000 -1.0000
vn 0.0000 -1.0000 -0.0000
vn 0.7071 0.0000 -0.7071
vn 0.0000 -0.0000 1.0000
vn 0.7071 -0.0000 0.7071
s 1
f 50/1/1 51/2/1 146/3/1
f 144/4/2 70/5/2 42/6/2
f 175/7/3 71/8/3 38/9/3
f 13/10/4 15/11/4 183/12/4
f 46/13/5 57/14/5 16/15/5
f 97/16/3 89/17/3 98/18/3
f 19/19/5 20/20/5 21/21/5
f 20/20/5 22/22/5 23/23/5
f 24/24/5 22/22/5 25/25/5
f 26/26/5 27/27/5 28/28/5
f 12/29/5 6/30/5 29/31/5
f 30/32/5 6/30/5 31/33/5
f 80/34/5 49/35/5 78/36/5
f 34/37/5 30/32/5 32/38/5
f 15/39/5 14/40/5 35/41/5
f 2/42/1 3/43/1 148/44/1
f 165/45/6 58/46/6 14/47/6
f 105/48/7 104/49/7 106/50/7
f 135/51/5 112/52/5 111/53/5
f 52/54/8 24/55/8 177/56/8
f 99/57/7 98/18/7 100/58/7
f 134/59/9 93/60/9 60/61/9
f 5/62/5 37/63/5 7/64/5
f 128/65/3 131/66/3 172/67/3
f 17/68/1 18/69/1 145/70/1
f 11/71/2 12/72/2 153/73/2
f 163/74/8 54/75/8 55/76/8
f 66/77/3 107/78/3 152/79/3
f 135/51/9 64/80/9 62/81/9
f 164/82/10 45/83/10 46/84/10
f 44/85/5 37/63/5 38/86/5
f 36/87/5 38/86/5 37/63/5
f 39/88/9 10/89/9 181/90/9
f 66/91/7 147/92/7 166/93/7
f 67/94/7 159/95/7 154/96/7
f 4/97/7 159/95/7 157/98/7
f 13/99/7 183/100/7 167/101/7
f 8/102/7 190/103/7 187/104/7
f 50/105/7 140/106/7 185/107/7
f 69/108/7 168/109/7 160/110/7
f 41/111/7 140/106/7 144/112/7
f 11/113/7 153/114/7 161/115/7
f 39/116/7 181/117/7 180/118/7
f 40/119/7 138/120/7 191/121/7
f 53/122/7 168/109/7 164/123/7
f 17/124/7 145/125/7 139/126/7
f 52/127/7 177/128/7 158/129/7
f 48/130/7 192/131/7 186/132/7
f 58/133/7 147/92/7 163/134/7
f 74/135/5 27/27/5 75/136/5
f 76/137/5 74/135/5 77/138/5
f 78/36/5 79/139/5 80/34/5
f 79/139/5 14/40/5 81/140/5
f 77/138/5 10/141/5 76/137/5
f 21/21/5 18/142/5 19/19/5
f 130/143/5 25/25/5 116/144/5
f 48/145/6 49/146/6 192/147/6
f 111/53/6 86/148/6 85/149/6
f 56/150/5 47/151/5 57/14/5
f 184/152/9 41/153/9 27/154/9
f 57/14/5 114/155/5 110/156/5
f 55/157/5 114/155/5 47/151/5
f 103/158/3 96/159/3 104/160/3
f 95/161/1 105/48/1 106/50/1
f 63/162/7 86/148/7 64/163/7
f 108/164/9 109/165/9 151/166/9
f 88/167/1 99/168/1 100/169/1
f 124/170/5 26/26/5 118/171/5
f 42/172/5 44/85/5 38/86/5
f 157/173/4 65/174/4 5/175/4
f 137/176/5 96/159/5 94/177/5
f 110/156/5 7/64/5 37/63/5
f 67/178/9 1/179/9 178/180/9
f 40/181/10 26/182/10 138/183/10
f 113/184/5 7/64/5 114/155/5
f 176/185/1 73/186/1 47/187/1
f 8/188/3 9/189/3 190/190/3
f 115/191/6 74/192/6 51/193/6
f 125/194/5 28/28/5 115/195/5
f 127/196/5 35/41/5 121/197/5
f 84/198/5 23/23/5 46/199/5
f 5/200/5 7/201/5 33/202/5
f 133/203/5 29/31/5 119/204/5
f 92/205/7 91/206/7 93/60/7
f 101/207/6 102/208/6 150/209/6
f 136/210/5 89/17/5 87/211/5
f 121/212/9 79/213/9 107/214/9
f 124/215/6 125/216/6 102/208/6
f 59/217/6 91/218/6 90/219/6
f 126/220/9 127/221/9 109/165/9
f 69/222/6 123/223/6 170/224/6
f 108/225/7 171/226/7 178/227/7
f 2/228/7 173/229/7 146/230/7
f 67/94/7 189/231/7 141/232/7
f 101/233/7 193/234/7 170/235/7
f 128/236/7 162/237/7 152/238/7
f 50/105/7 179/239/7 149/240/7
f 69/108/7 143/241/7 182/242/7
f 66/91/7 188/243/7 174/244/7
f 55/245/5 47/246/5 82/247/5
f 42/248/5 38/249/5 83/250/5
f 46/199/5 16/251/5 84/198/5
f 43/252/5 16/15/5 44/85/5
f 129/253/3 130/254/3 131/66/3
f 116/255/3 20/256/3 123/257/3
f 142/258/6 68/259/6 7/260/6
f 169/261/9 72/262/9 16/263/9
f 134/59/5 61/264/5 59/217/5
f 155/265/3 4/266/3 6/267/3
f 119/268/1 30/269/1 1/270/1
f 55/157/5 14/271/5 15/272/5
f 15/272/5 113/184/5 55/157/5
f 46/13/5 22/273/5 24/274/5
f 24/274/5 56/150/5 46/13/5
f 42/172/5 27/275/5 26/276/5
f 26/276/5 43/252/5 42/172/5
f 5/62/5 6/277/5 12/278/5
f 12/278/5 36/87/5 5/62/5
f 132/279/1 133/280/1 3/43/1
f 156/281/1 53/282/1 22/283/1
f 74/284/1 132/279/1 51/2/1
f 51/2/1 132/279/1 3/43/1
f 133/280/1 119/268/1 3/43/1
f 3/43/1 119/268/1 1/270/1
f 130/254/3 116/255/3 131/66/3
f 131/66/3 116/255/3 123/257/3
f 79/285/3 129/253/3 107/78/3
f 107/78/3 129/253/3 131/66/3
f 16/251/5 18/142/5 84/198/5
f 38/249/5 10/141/5 83/250/5
f 47/246/5 49/35/5 82/247/5
f 30/286/9 126/220/9 1/179/9
f 1/179/9 126/220/9 109/165/9
f 20/287/6 124/215/6 123/223/6
f 123/223/6 124/215/6 102/208/6
f 127/221/9 121/212/9 109/165/9
f 109/165/9 121/212/9 107/214/9
f 122/288/5 127/196/5 126/289/5
f 34/37/5 126/289/5 30/32/5
f 129/290/5 24/24/5 117/291/5
f 7/201/5 9/292/5 33/202/5
f 120/293/5 133/203/5 132/294/5
f 76/137/5 132/294/5 74/135/5
f 126/289/5 15/39/5 122/288/5
f 118/171/5 125/194/5 124/170/5
f 19/19/5 124/170/5 20/20/5
f 132/294/5 12/29/5 120/293/5
f 117/291/5 130/143/5 129/290/5
f 78/36/5 129/290/5 79/139/5
f 32/38/5 9/292/5 34/37/5
f 125/216/6 115/191/6 102/208/6
f 102/208/6 115/191/6 51/193/6
f 83/250/5 75/136/5 42/248/5
f 21/21/5 20/20/5 23/23/5
f 82/247/5 81/140/5 55/245/5
f 77/138/5 74/135/5 75/136/5
f 33/202/5 31/33/5 5/200/5
f 80/34/5 79/139/5 81/140/5
f 14/40/5 55/245/5 81/140/5
f 78/36/5 49/35/5 24/24/5
f 76/137/5 10/141/5 12/29/5
f 27/27/5 42/248/5 75/136/5
f 14/40/5 79/139/5 35/41/5
f 34/37/5 9/292/5 15/39/5
f 32/38/5 30/32/5 31/33/5
f 6/30/5 5/200/5 31/33/5
f 6/30/5 30/32/5 29/31/5
f 27/27/5 74/135/5 28/28/5
f 22/22/5 20/20/5 25/25/5
f 22/22/5 46/199/5 23/23/5
f 19/19/5 18/142/5 26/26/5
f 25/25/5 20/20/5 116/144/5
f 28/28/5 74/135/5 115/195/5
f 29/31/5 30/32/5 119/204/5
f 35/41/5 79/139/5 121/197/5
f 108/225/7 151/295/7 171/226/7
f 2/228/7 148/296/7 173/229/7
f 101/233/7 150/297/7 193/234/7
f 128/236/7 172/298/7 162/237/7
f 15/272/5 9/299/5 113/184/5
f 24/274/5 49/300/5 56/150/5
f 26/276/5 18/301/5 43/252/5
f 12/278/5 10/302/5 36/87/5
f 15/39/5 35/41/5 122/288/5
f 12/29/5 29/31/5 120/293/5
f 26/26/5 28/28/5 118/171/5
f 24/24/5 25/25/5 117/291/5
f 16/15/5 110/156/5 44/85/5
f 162/237/7 160/110/7 52/127/7
f 162/237/7 172/298/7 160/110/7
f 172/298/7 69/108/7 160/110/7
f 193/234/7 185/107/7 40/119/7
f 193/234/7 150/297/7 185/107/7
f 150/297/7 50/105/7 185/107/7
f 173/229/7 154/96/7 11/113/7
f 173/229/7 148/296/7 154/96/7
f 148/296/7 67/94/7 154/96/7
f 171/226/7 166/93/7 13/99/7
f 171/226/7 151/295/7 166/93/7
f 151/295/7 66/91/7 166/93/7
f 52/54/1 156/281/1 24/55/1
f 24/55/1 156/281/1 22/283/1
f 11/71/3 155/265/3 12/72/3
f 12/72/3 155/265/3 6/267/3
f 45/83/9 169/261/9 46/84/9
f 46/84/9 169/261/9 16/263/9
f 65/174/6 142/258/6 5/175/6
f 5/175/6 142/258/6 7/260/6
f 174/244/7 186/132/7 54/303/7
f 174/244/7 188/243/7 186/132/7
f 188/243/7 48/130/7 186/132/7
f 182/242/7 139/126/7 45/304/7
f 182/242/7 143/241/7 139/126/7
f 143/241/7 17/124/7 139/126/7
f 149/240/7 180/118/7 70/305/7
f 149/240/7 179/239/7 180/118/7
f 179/239/7 39/116/7 180/118/7
f 152/238/7 158/129/7 66/91/7
f 152/238/7 162/237/7 158/129/7
f 162/237/7 52/127/7 158/129/7
f 170/235/7 191/121/7 69/108/7
f 170/235/7 193/234/7 191/121/7
f 193/234/7 40/119/7 191/121/7
f 141/232/7 187/104/7 65/306/7
f 141/232/7 189/231/7 187/104/7
f 189/231/7 8/102/7 187/104/7
f 146/230/7 161/115/7 50/105/7
f 146/230/7 173/229/7 161/115/7
f 173/229/7 11/113/7 161/115/7
f 178/227/7 167/101/7 67/94/7
f 178/227/7 171/226/7 167/101/7
f 171/226/7 13/99/7 167/101/7
f 102/208/6 101/207/6 170/224/6
f 123/223/6 102/208/6 170/224/6
f 51/193/6 50/307/6 150/209/6
f 102/208/6 51/193/6 150/209/6
f 7/308/3 68/309/3 190/190/3
f 9/189/3 7/308/3 190/190/3
f 54/75/1 176/185/1 55/76/1
f 55/76/1 176/185/1 47/187/1
f 18/69/10 17/68/10 138/183/10
f 26/182/10 18/69/10 138/183/10
f 109/165/9 108/164/9 178/180/9
f 1/179/9 109/165/9 178/180/9
f 4/266/4 157/173/4 6/267/4
f 6/267/4 157/173/4 5/175/4
f 107/214/9 66/310/9 151/166/9
f 109/165/9 107/214/9 151/166/9
f 40/181/9 184/152/9 26/182/9
f 26/182/9 184/152/9 27/154/9
f 47/311/6 73/312/6 192/147/6
f 49/146/6 47/311/6 192/147/6
f 163/134/7 174/244/7 54/303/7
f 163/134/7 147/92/7 174/244/7
f 147/92/7 66/91/7 174/244/7
f 186/132/7 176/313/7 54/303/7
f 186/132/7 192/131/7 176/313/7
f 192/131/7 73/314/7 176/313/7
f 158/129/7 188/243/7 66/91/7
f 158/129/7 177/128/7 188/243/7
f 177/128/7 48/130/7 188/243/7
f 139/126/7 169/315/7 45/304/7
f 139/126/7 145/125/7 169/315/7
f 145/125/7 72/316/7 169/315/7
f 164/123/7 182/242/7 45/304/7
f 164/123/7 168/109/7 182/242/7
f 168/109/7 69/108/7 182/242/7
f 191/121/7 143/241/7 69/108/7
f 191/121/7 138/120/7 143/241/7
f 138/120/7 17/124/7 143/241/7
f 180/118/7 175/317/7 70/305/7
f 180/118/7 181/117/7 175/317/7
f 181/117/7 71/318/7 175/317/7
f 161/115/7 179/239/7 50/105/7
f 161/115/7 153/114/7 179/239/7
f 153/114/7 39/116/7 179/239/7
f 144/112/7 149/240/7 70/305/7
f 144/112/7 140/106/7 149/240/7
f 140/106/7 50/105/7 149/240/7
f 160/110/7 156/319/7 52/127/7
f 160/110/7 168/109/7 156/319/7
f 168/109/7 53/122/7 156/319/7
f 185/107/7 184/320/7 40/119/7
f 185/107/7 140/106/7 184/320/7
f 140/106/7 41/111/7 184/320/7
f 187/104/7 142/321/7 65/306/7
f 187/104/7 190/103/7 142/321/7
f 190/103/7 68/322/7 142/321/7
f 167/101/7 189/231/7 67/94/7
f 167/101/7 183/100/7 189/231/7
f 183/100/7 8/102/7 189/231/7
f 157/98/7 141/232/7 65/306/7
f 157/98/7 159/95/7 141/232/7
f 159/95/7 67/94/7 141/232/7
f 154/96/7 155/323/7 11/113/7
f 154/96/7 159/95/7 155/323/7
f 159/95/7 4/97/7 155/323/7
f 166/93/7 165/324/7 13/99/7
f 166/93/7 147/92/7 165/324/7
f 147/92/7 58/133/7 165/324/7
f 38/325/9 71/326/9 181/90/9
f 10/89/9 38/325/9 181/90/9
f 53/282/10 164/82/10 22/283/10
f 22/283/10 164/82/10 46/84/10
f 131/66/3 128/65/3 152/79/3
f 107/78/3 131/66/3 152/79/3
f 58/46/8 163/74/8 14/47/8
f 14/47/8 163/74/8 55/76/8
f 10/89/2 39/88/2 153/73/2
f 12/72/2 10/89/2 153/73/2
f 16/327/1 72/328/1 145/70/1
f 18/69/1 16/327/1 145/70/1
f 123/257/3 69/329/3 172/67/3
f 131/66/3 123/257/3 172/67/3
f 49/146/8 48/145/8 177/56/8
f 24/55/8 49/146/8 177/56/8
f 13/10/6 165/45/6 15/11/6
f 15/11/6 165/45/6 14/47/6
f 1/270/1 67/330/1 148/44/1
f 3/43/1 1/270/1 148/44/1
f 9/189/4 8/188/4 183/12/4
f 15/11/4 9/189/4 183/12/4
f 70/5/3 175/7/3 42/6/3
f 42/6/3 175/7/3 38/9/3
f 41/153/2 144/4/2 27/154/2
f 27/154/2 144/4/2 42/6/2
f 3/43/1 2/42/1 146/3/1
f 51/2/1 3/43/1 146/3/1
f 46/13/5 56/150/5 57/14/5
f 97/16/3 87/211/3 89/17/3
f 80/34/5 82/247/5 49/35/5
f 105/48/7 103/331/7 104/49/7
f 135/51/5 62/81/5 112/52/5
f 99/57/7 97/16/7 98/18/7
f 134/59/9 92/205/9 93/60/9
f 5/62/5 36/87/5 37/63/5
f 135/51/9 63/332/9 64/80/9
f 44/85/5 110/156/5 37/63/5
f 36/87/5 10/302/5 38/86/5
f 77/138/5 83/250/5 10/141/5
f 21/21/5 84/198/5 18/142/5
f 130/143/5 117/291/5 25/25/5
f 111/53/6 112/52/6 86/148/6
f 56/150/5 49/300/5 47/151/5
f 57/14/5 47/151/5 114/155/5
f 55/157/5 113/184/5 114/155/5
f 103/158/3 94/177/3 96/159/3
f 95/161/1 137/176/1 105/48/1
f 63/162/7 85/149/7 86/148/7
f 88/167/1 136/210/1 99/168/1
f 124/170/5 19/19/5 26/26/5
f 42/172/5 43/252/5 44/85/5
f 137/176/5 95/161/5 96/159/5
f 110/156/5 114/155/5 7/64/5
f 113/184/5 9/299/5 7/64/5
f 125/194/5 118/171/5 28/28/5
f 127/196/5 122/288/5 35/41/5
f 84/198/5 21/21/5 23/23/5
f 133/203/5 120/293/5 29/31/5
f 92/205/7 90/333/7 91/206/7
f 136/210/5 88/167/5 89/17/5
f 59/217/6 61/264/6 91/218/6
f 43/252/5 18/301/5 16/15/5
f 134/59/5 60/61/5 61/264/5
f 129/290/5 78/36/5 24/24/5
f 126/289/5 34/37/5 15/39/5
f 132/294/5 76/137/5 12/29/5
f 32/38/5 33/202/5 9/292/5
f 83/250/5 77/138/5 75/136/5
f 82/247/5 80/34/5 81/140/5
f 33/202/5 32/38/5 31/33/5
f 16/15/5 57/14/5 110/156/5
