# Blender 3.4.1
# www.blender.org
o Cube_Cube.001
v -4.5 -0 4.5
v -4.5 1 4.5
v -4.5 -0 0.5
v -4.5 1 0.5
v 4.5 -0 4.5
v 4.5 1 4.5
v 4.5 -0 0.5
v 4.5 1 0.5
v -4.5 0 -0.5
v -4.5 1 -0.5
v -4.5 0 -4.5
v -4.5 1 -4.5
v 4.5 0 -0.5
v 4.5 1 -0.5
v 4.5 0 -4.5
v 4.5 1 -4.5
v -0.5 -0 0.5
v 0.5 -0 0.5
v -0.5 0 -0.5
v 0.5 0 -0.5
v 0 0.5 0.5
v 0 0.5 -0.5
v -0.5 1 0.5
v 0.5 1 0.5
v -0.5 1 -0.5
v 0.5 1 -0.5
v 4.5 1 0.5
v 4.5 1 -0.5
v -4.5 1 0.5
v -4.5 1 -0.5
v -0.5 1 0.5
v 0.5 1 0.5
v -0.5 1 -0.5
v 0.5 1 -0.5
v 4.5 1 0.5
v 4.5 1 -0.5
v -4.5 1 0.5
v -4.5 1 -0.5
v -4.5 -0 2.5
v 0 -0 0.5
v -4.5 0 -2.5
v 0 0 -4.5
v 0 -0 4.5
v -4.5 1 2.5
v 2.5 1 0.5
v -2.5 1 -0.5
v 2.5 1 0.5
v 0 1 0.5
v -2.5 1 0.5
v 4.5 -0 2.5
v 4.5 1 2.5
v 2.5 1 -0.5
v 0 0 -0.5
v -4.5 1 -2.5
v 0 1 -0.5
v 0 1 -4.5
v -2.5 1 0.5
v 4.5 0 -2.5
v 0 1 4.5
v 4.5 1 -2.5
v 2.5 1 -0.5
v -2.5 1 -0.5
v 0 -0 2.5
v 0 1 -2.5
v 0 1 2.5
v 0 0 -2.5
v -4.5 -0 1.5
v -1.5 1 0.5
v -2.25 1 -4.5
v 2.25 -0 0.5
v -2.25 1 -0.5
v -4.5 0 -3.5
v -4.5 1 -1.5
v -2.25 0 -0.5
v 2.25 0 -4.5
v 1.5 1 -0.5
v 4.5 1 3.5
v 4.5 -0 3.5
v 2.25 -0 4.5
v -4.5 1 1.5
v 3.5 1 0.5
v -1.5 1 0.5
v -2.25 1 0.5
v -3.5 1 -0.5
v 3.5 1 0.5
v 1.5 1 0.5
v -1.5 1 -0.5
v 1.5 1 0.5
v -4.5 1 3.5
v 2.25 1 0.5
v -3.5 1 0.5
v 4.5 -0 1.5
v -2.25 -0 4.5
v 4.5 1 1.5
v 3.5 1 -0.5
v 2.25 0 -0.5
v -4.5 1 -3.5
v 2.25 1 -0.5
v -2.25 0 -4.5
v -4.5 0 -1.5
v 2.25 1 -4.5
v -3.5 1 0.5
v 4.5 0 -3.5
v 2.25 1 4.5
v -2.25 -0 0.5
v 4.5 1 -3.5
v 3.5 1 -0.5
v -3.5 1 -0.5
v -4.5 -0 3.5
v 4.5 0 -1.5
v -2.25 1 4.5
v 4.5 1 -1.5
v 1.5 1 -0.5
v -1.5 1 -0.5
v 2.25 -0 2.5
v -2.25 -0 2.5
v 0 -0 3.5
v 0 -0 1.5
v -2.25 1 -2.5
v 2.25 1 -2.5
v 0 1 -1.5
v 0 1 -3.5
v -2.25 1 2.5
v 2.25 1 2.5
v 0 1 3.5
v 0 1 1.5
v 2.25 0 -2.5
v -2.25 0 -2.5
v 0 0 -1.5
v 0 0 -3.5
v -2.25 0 -3.5
v -2.25 0 -1.5
v -2.25 1 -1.5
v 2.25 1 -3.5
v 2.25 1 -1.5
v -2.25 -0 3.5
v -2.25 -0 1.5
v -2.25 1 3.5
v 2.25 -0 3.5
v 2.25 1 3.5
v 2.25 1 1.5
v 2.25 0 -1.5
v 2.25 -0 1.5
v -2.25 1 -3.5
v -2.25 1 1.5
v 2.25 0 -3.5
v -1.125 1 -4.5
v 3.375 -0 0.5
v -1.125 1 -0.5
v -1.125 0 -0.5
v 3.375 0 -4.5
v 3.375 -0 4.5
v -1.125 1 0.5
v 3.375 1 0.5
v -1.125 -0 4.5
v 3.375 0 -0.5
v 3.375 1 -0.5
v -1.125 0 -4.5
v 3.375 1 -4.5
v 3.375 1 4.5
v -1.125 -0 0.5
v -1.125 1 4.5
v 3.375 -0 2.5
v -1.125 -0 2.5
v -3.375 1 -2.5
v 1.125 1 -2.5
v -3.375 1 2.5
v 1.125 1 2.5
v 3.375 0 -2.5
v -1.125 0 -2.5
v -3.375 1 -4.5
v 1.125 -0 0.5
v -3.375 1 -0.5
v -3.375 0 -0.5
v 1.125 0 -4.5
v 1.125 -0 4.5
v -3.375 1 0.5
v 1.125 1 0.5
v -3.375 -0 4.5
v 1.125 0 -0.5
v 1.125 1 -0.5
v -3.375 0 -4.5
v 1.125 1 -4.5
v 1.125 1 4.5
v -3.375 -0 0.5
v -3.375 1 4.5
v 1.125 -0 2.5
v -3.375 -0 2.5
v -1.125 1 -2.5
v 3.375 1 -2.5
v -1.125 1 2.5
v 3.375 1 2.5
v 1.125 0 -2.5
v -3.375 0 -2.5
v -1.125 0 -3.5
v -3.375 0 -3.5
v -1.125 0 -1.5
v -3.375 0 -1.5
v -3.375 1 -1.5
v -1.125 1 -1.5
v 1.125 1 -3.5
v 3.375 1 -3.5
v 1.125 1 -1.5
v 3.375 1 -1.5
v -1.125 -0 3.5
v -3.375 -0 3.5
v -1.125 -0 1.5
v -3.375 -0 1.5
v -3.375 1 3.5
v -1.125 1 3.5
v 3.375 -0 3.5
v 1.125 -0 3.5
v 1.125 1 3.5
v 3.375 1 3.5
v 1.125 1 1.5
v 3.375 1 1.5
v 3.375 0 -1.5
v 1.125 0 -1.5
v 3.375 -0 1.5
v 1.125 -0 1.5
v -3.375 1 -3.5
v -1.125 1 -3.5
v -3.375 1 1.5
v -1.125 1 1.5
v 3.375 0 -3.5
v 1.125 0 -3.5
vn -0.0000 -0.0000 1.0000
vn -1.0000 -0.0000 -0.0000
vn -0.0000 -1.0000 -0.0000
vn -0.0000 -0.0000 -1.0000
vn -0.0000 1.0000 -0.0000
vn 1.0000 -0.0000 -0.0000
vn 0.7071 0.7071 -0.0000
vn -0.7071 0.7071 -0.0000
vt 0.44444 1
vt 0.5 0.05556
vt 0.94444 0.27778
vt 0.94444 0.33333
vt 0.5 0.11111
vt 0 0.5
vt 0.72222 0.27778
vt 1 0.16667
vt 0.22222 1
vt 1 0.22222
vt 0.22222 0.5
vt 0.72222 0.33333
vt 0.5 0.22222
vt 0.44444 0.5
vt 1 0.05556
vt 0 0
vt 1 0.11111
vt 0.5 0.27778
vt 0.5 0.16667
vt 0.22222 0.5
vt 0.72222 0.22222
vt 0.72222 0.27778
vt 0.5 0.22222
vt 0.22222 0
vt 0.22222 1
vt 0.5 0.11111
vt 0.72222 0.27778
vt 0.72222 0.33333
vt 0.5 0.16667
vt 0.27778 0.5
vt 0.5 0.27778
vt 1 -0
vt -0 1
vt 1 0.05556
vt 0.5 0.33333
vt 0.5 0.5
vt 0.72222 0.22222
vt 0.22222 0.5
vt 1 0.11111
vt 0.27778 0
vt 1 0.16667
vt 0.72222 0.27778
vt 0 0.5
vt 0.5 -0
vt 0.94444 0.22222
vt 0.94444 0.27778
vt 0.5 0.05556
vt 0.5 -0
vt 0.55556 0.38889
vt 0.55556 0.33333
vt 0.5 0.38889
vt 0.61111 0.38889
vt 0.61111 0.33333
vt 0.5 0.33333
vt 0.55556 0.36111
vt 0.61111 0.36111
vt 0.22222 0.27778
vt 0.22222 0.22222
vt 0.27778 0.27778
vt 0.27778 0.22222
vt 0.22222 0
vt 0.27778 0
vt 0.22222 0.5
vt 0.27778 0.5
vt 0.22222 0.27778
vt 0.22222 0.22222
vt 0.27778 0.27778
vt 0.27778 0.22222
vt 0.22222 0
vt 0.27778 0
vt 0.22222 0.5
vt 0.27778 0.5
vt 0.83333 0.27778
vt 0.33333 1
vt 0.75 0.16667
vt 0.22222 0.75
vt 0.61111 0.27778
vt 0.11111 1
vt 0 0.75
vt 0.75 0
vt 0.44444 0.75
vt 0.75 0.05556
vt 0.83333 0.33333
vt 0.11111 0.5
vt 0.22222 0.11111
vt 0.27778 0.38889
vt 0.22222 0.11111
vt 0.75 0.22222
vt 0.22222 0.25
vt 0.22222 0.38889
vt 0.33333 0.5
vt 0.61111 0.22222
vt 0.61111 0.27778
vt 0.11111 0
vt 0.27778 0.11111
vt 0.22222 0.75
vt 0.75 0.11111
vt 0.61111 0.33333
vt 0.38889 0.5
vt 0.75 0.16667
vt 0.27778 0.25
vt 0.75 0.05556
vt 0.5 0.25
vt 0.22222 0.38889
vt 0.83333 0.22222
vt 0.11111 0.5
vt 0.75 0.11111
vt 0 0.25
vt 0.83333 0.27778
vt 0.38889 0
vt 0.27778 0.11111
vt 0.27778 0.38889
vt 0.33333 0.75
vt 0.38889 0.25
vt 0.11111 0.25
vt 0.11111 0.75
vt 0.77778 0.27778
vt 0.27778 1
vt 0.22222 0.33333
vt 0.875 0.05556
vt 0.5 0.375
vt 0.22222 0.625
vt 0.625 0.16667
vt 0.27778 0.375
vt 0.625 0.16667
vt 0.55556 0.27778
vt 0.05556 1
vt 0.66667 0.33333
vt 0.33333 0.5
vt 0.22222 0.875
vt 0.625 0.11111
vt 0.625 0
vt 0 0.625
vt 0.27778 0.16667
vt 0.55556 0.27778
vt 0.05556 0
vt 0.38889 0.5
vt 0.55556 0.22222
vt 0.44444 0.625
vt 0.875 0.05556
vt 0.77778 0.33333
vt 0.16667 0.5
vt 0.22222 0.05556
vt 0.22222 0.33333
vt 0.875 0.22222
vt 0.22222 0.375
vt 0.27778 0.44444
vt 0.22222 0.05556
vt 0.22222 0.16667
vt 0.27778 0.33333
vt 0.22222 0.16667
vt 0.05556 0.5
vt 0.88889 0.33333
vt 0.625 0.22222
vt 0.22222 0.125
vt 0.22222 0.44444
vt 0.66667 0.22222
vt 0.27778 0.5
vt 0.44444 0.875
vt 0.625 0.05556
vt 0.66667 0.27778
vt 0.16667 0
vt 0.27778 0.05556
vt 0.22222 0.625
vt 0.875 0.11111
vt 0.44444 0.5
vt 0.55556 0.33333
vt 0.875 0.16667
vt 0.27778 0.125
vt 0 0.875
vt 0.875 0
vt 0.66667 0.27778
vt 0.16667 1
vt 0.625 0.05556
vt 0.5 0.125
vt 0.22222 0.44444
vt 0.88889 0.22222
vt 0.05556 0.5
vt 0.875 0.11111
vt 0 0.125
vt 0.22222 0.875
vt 0.875 0.16667
vt 0.88889 0.27778
vt 0.44444 0
vt 0.27778 0.05556
vt 0.27778 0.44444
vt 0.88889 0.27778
vt 0.38889 1
vt 0.16667 0.5
vt 0.77778 0.22222
vt 0 0.375
vt 0.625 0.11111
vt 0.77778 0.27778
vt 0.33333 0
vt 0.27778 0.16667
vt 0.27778 0.33333
vt 0.33333 0.625
vt 0.33333 0.875
vt 0.38889 0.75
vt 0.27778 0.75
vt 0.38889 0.375
vt 0.38889 0.125
vt 0.33333 0.25
vt 0.44444 0.25
vt 0.11111 0.375
vt 0.11111 0.125
vt 0.05556 0.25
vt 0.16667 0.25
vt 0.11111 0.625
vt 0.11111 0.875
vt 0.16667 0.75
vt 0.05556 0.75
vt 0.05556 0.875
vt 0.16667 0.875
vt 0.33333 0.375
vt 0.44444 0.125
vt 0.33333 0.125
vt 0.38889 0.875
vt 0.27778 0.875
vt 0.05556 0.375
vt 0.38889 0.625
vt 0.05556 0.125
vt 0.16667 0.125
vt 0.16667 0.625
vt 0.27778 0.625
vt 0.44444 0.375
vt 0.16667 0.375
vt 0.05556 0.625
vt 0.5 0.3125
vt 0.8125 0.05556
vt 0.22222 0.5625
vt 0.5625 0.16667
vt 0.6875 0.16667
vt 0.27778 0.3125
vt 0.6875 0.11111
vt 0.22222 0.8125
vt 0.5625 0
vt 0 0.5625
vt 0.44444 0.5625
vt 0.9375 0.05556
vt 0.22222 0.3125
vt 0.8125 0.22222
vt 0.22222 0.0625
vt 0.5625 0.22222
vt 0.6875 0.05556
vt 0.44444 0.8125
vt 0.22222 0.5625
vt 0.9375 0.11111
vt 0.27778 0.0625
vt 0.9375 0.16667
vt 0 0.8125
vt 0.8125 0
vt 0.5 0.0625
vt 0.5625 0.05556
vt 0 0.0625
vt 0.9375 0.11111
vt 0.22222 0.8125
vt 0.8125 0.16667
vt 0.6875 0.11111
vt 0 0.3125
vt 0.33333 0.5625
vt 0.33333 0.8125
vt 0.38889 0.4375
vt 0.38889 0.1875
vt 0.11111 0.4375
vt 0.11111 0.1875
vt 0.11111 0.5625
vt 0.11111 0.8125
vt 0.9375 0.05556
vt 0.5 0.4375
vt 0.6875 0.16667
vt 0.22222 0.6875
vt 0.27778 0.4375
vt 0.5625 0.16667
vt 0.22222 0.9375
vt 0.5625 0.11111
vt 0 0.6875
vt 0.6875 0
vt 0.44444 0.6875
vt 0.8125 0.05556
vt 0.9375 0.22222
vt 0.22222 0.4375
vt 0.6875 0.22222
vt 0.22222 0.1875
vt 0.44444 0.9375
vt 0.5625 0.05556
vt 0.22222 0.6875
vt 0.8125 0.11111
vt 0.27778 0.1875
vt 0.8125 0.16667
vt 0.9375 0
vt 0 0.9375
vt 0.6875 0.05556
vt 0.5 0.1875
vt 0 0.1875
vt 0.8125 0.11111
vt 0.9375 0.16667
vt 0.22222 0.9375
vt 0 0.4375
vt 0.5625 0.11111
vt 0.33333 0.6875
vt 0.33333 0.9375
vt 0.38889 0.3125
vt 0.38889 0.0625
vt 0.11111 0.3125
vt 0.11111 0.0625
vt 0.11111 0.6875
vt 0.11111 0.9375
vt 0.05556 0.8125
vt 0.05556 0.9375
vt 0.16667 0.8125
vt 0.16667 0.9375
vt 0.33333 0.4375
vt 0.33333 0.3125
vt 0.44444 0.1875
vt 0.44444 0.0625
vt 0.33333 0.1875
vt 0.33333 0.0625
vt 0.38889 0.8125
vt 0.38889 0.9375
vt 0.27778 0.8125
vt 0.27778 0.9375
vt 0.05556 0.4375
vt 0.05556 0.3125
vt 0.38889 0.5625
vt 0.38889 0.6875
vt 0.05556 0.1875
vt 0.05556 0.0625
vt 0.16667 0.1875
vt 0.16667 0.0625
vt 0.16667 0.5625
vt 0.16667 0.6875
vt 0.27778 0.5625
vt 0.27778 0.6875
vt 0.44444 0.4375
vt 0.44444 0.3125
vt 0.16667 0.4375
vt 0.16667 0.3125
vt 0.05556 0.5625
vt 0.05556 0.6875
s 0
f 2/5/1 179/286/1 186/300/1
f 12/35/2 72/126/2 97/167/2
f 151/238/3 103/178/3 225/339/3
f 8/23/4 148/232/4 154/244/4
f 177/282/5 80/142/5 223/337/5
f 6/18/6 78/138/6 77/135/6
f 10/29/1 174/276/1 173/274/1
f 20/54/3 17/49/3 19/51/3
f 22/56/7 18/50/7 20/53/7
f 16/47/4 151/237/4 159/254/4
f 171/270/5 97/166/5 221/335/5
f 14/42/6 110/190/6 112/193/6
f 81/143/5 28/62/5 95/163/5
f 44/83/2 109/187/2 89/153/2
f 36/70/3 85/148/3 107/185/3
f 84/147/5 29/63/5 91/156/5
f 21/55/8 19/52/8 17/49/8
f 148/231/3 92/158/3 219/333/3
f 37/71/3 108/186/3 102/176/3
f 169/267/3 110/189/3 217/331/3
f 178/284/5 126/208/5 215/329/5
f 87/150/5 49/90/5 82/144/5
f 48/88/4 161/258/4 153/242/4
f 88/151/5 52/95/5 76/134/5
f 61/111/3 86/149/3 113/195/3
f 168/266/5 125/207/5 213/327/5
f 51/93/6 92/157/6 94/161/6
f 163/261/3 78/137/3 211/325/3
f 167/265/5 89/152/5 209/323/5
f 161/257/3 118/200/3 207/321/3
f 164/262/3 117/199/3 205/319/3
f 56/102/4 158/252/4 147/230/4
f 57/104/3 114/196/3 68/119/3
f 166/264/5 121/203/5 203/317/5
f 183/294/5 122/204/5 201/315/5
f 55/100/1 180/288/1 181/290/1
f 60/109/6 103/177/6 106/183/6
f 165/263/5 73/129/5 199/313/5
f 4/12/2 67/117/2 80/141/2
f 170/268/3 129/211/3 197/311/3
f 158/251/3 130/212/3 195/309/3
f 54/98/2 100/172/2 73/128/2
f 59/107/1 176/280/1 184/296/1
f 104/179/1 152/240/1 160/256/1
f 73/128/2 9/27/2 10/28/2
f 195/309/3 66/116/3 170/268/3
f 196/310/3 128/210/3 194/308/3
f 182/292/3 131/213/3 196/310/3
f 197/311/3 53/96/3 150/236/3
f 198/312/3 74/130/3 174/275/3
f 194/308/3 132/214/3 198/312/3
f 80/141/2 39/73/2 44/83/2
f 199/313/5 10/30/5 173/273/5
f 200/314/5 71/124/5 149/234/5
f 189/303/5 133/215/5 200/314/5
f 106/183/6 15/45/6 16/46/6
f 98/168/1 156/248/1 157/250/1
f 201/315/5 64/114/5 166/264/5
f 202/316/5 120/202/5 190/304/5
f 159/253/5 134/216/5 202/316/5
f 203/317/5 55/101/5 181/289/5
f 204/318/5 98/169/5 157/249/5
f 190/304/5 135/217/5 204/318/5
f 68/119/3 33/67/3 31/65/3
f 69/120/4 182/291/4 171/269/4
f 205/319/3 43/81/3 155/246/3
f 206/320/3 93/159/3 179/285/3
f 188/302/3 136/218/3 206/320/3
f 207/321/3 63/113/3 164/262/3
f 208/322/3 116/198/3 188/302/3
f 185/298/3 137/219/3 208/322/3
f 209/323/5 2/6/5 186/299/5
f 210/324/5 111/191/5 162/260/5
f 191/305/5 138/220/5 210/324/5
f 211/325/3 5/14/3 152/239/3
f 212/326/3 79/139/3 176/279/3
f 187/301/3 139/221/3 212/326/3
f 94/161/6 7/21/6 8/22/6
f 213/327/5 59/108/5 184/295/5
f 214/328/5 104/180/5 160/255/5
f 192/306/5 140/222/5 214/328/5
f 113/195/3 32/66/3 34/68/3
f 24/58/5 76/134/5 26/60/5
f 83/145/4 185/297/4 177/281/4
f 25/59/5 82/144/5 23/57/5
f 215/329/5 65/115/5 168/266/5
f 216/330/5 124/206/5 192/306/5
f 154/243/5 141/223/5 216/330/5
f 217/331/3 13/38/3 156/247/3
f 218/332/3 96/164/3 180/287/3
f 193/307/3 142/224/3 218/332/3
f 102/176/3 62/112/3 57/104/3
f 219/333/3 50/91/3 163/261/3
f 220/334/3 115/197/3 187/301/3
f 172/272/3 143/225/3 220/334/3
f 46/86/5 91/156/5 49/90/5
f 107/185/3 47/87/3 61/111/3
f 89/153/2 1/3/2 2/4/2
f 45/85/5 95/163/5 52/95/5
f 112/193/6 58/105/6 60/109/6
f 221/335/5 54/99/5 165/263/5
f 222/336/5 119/201/5 189/303/5
f 147/229/5 144/226/5 222/336/5
f 101/174/4 175/278/4 183/293/4
f 71/125/1 150/235/1 149/233/1
f 77/135/6 50/92/6 51/93/6
f 223/337/5 44/84/5 167/265/5
f 224/338/5 123/205/5 191/305/5
f 153/241/5 145/227/5 224/338/5
f 90/154/4 172/271/4 178/283/4
f 225/339/3 58/106/3 169/267/3
f 226/340/3 127/209/3 193/307/3
f 175/277/3 146/228/3 226/340/3
f 97/167/2 41/77/2 54/98/2
f 111/192/1 155/245/1 162/259/1
f 162/259/1 43/82/1 59/107/1
f 42/79/3 226/340/3 130/212/3
f 130/212/3 193/307/3 66/116/3
f 146/228/3 169/267/3 127/209/3
f 178/283/4 40/75/4 48/88/4
f 48/89/5 224/338/5 126/208/5
f 126/208/5 191/305/5 65/115/5
f 145/227/5 167/265/5 123/205/5
f 149/233/1 53/97/1 55/100/1
f 183/293/4 42/80/4 56/102/4
f 56/103/5 222/336/5 122/204/5
f 122/204/5 189/303/5 64/114/5
f 144/226/5 165/263/5 119/201/5
f 40/76/3 220/334/3 118/200/3
f 118/200/3 187/301/3 63/113/3
f 143/225/3 163/261/3 115/197/3
f 66/116/3 218/332/3 129/211/3
f 129/211/3 180/287/3 53/96/3
f 142/224/3 156/247/3 96/164/3
f 8/24/5 216/330/5 94/162/5
f 94/162/5 192/306/5 51/94/5
f 141/223/5 168/266/5 124/206/5
f 177/281/4 3/8/4 4/10/4
f 51/94/5 214/328/5 77/136/5
f 77/136/5 160/255/5 6/16/5
f 140/222/5 184/295/5 104/180/5
f 63/113/3 212/326/3 117/199/3
f 117/199/3 176/279/3 43/81/3
f 139/221/3 152/239/3 79/139/3
f 65/115/5 210/324/5 125/207/5
f 125/207/5 162/260/5 59/108/5
f 138/220/5 186/299/5 111/191/5
f 3/9/3 208/322/3 67/118/3
f 67/118/3 188/302/3 39/74/3
f 137/219/3 164/262/3 116/198/3
f 39/74/3 206/320/3 109/188/3
f 109/188/3 179/285/3 1/1/3
f 136/218/3 155/246/3 93/159/3
f 171/269/4 11/32/4 12/34/4
f 60/110/5 204/318/5 112/194/5
f 112/194/5 157/249/5 14/40/5
f 135/217/5 181/289/5 98/169/5
f 16/48/5 202/316/5 106/184/5
f 106/184/5 190/304/5 60/110/5
f 134/216/5 166/264/5 120/202/5
f 157/250/1 13/39/1 14/41/1
f 64/114/5 200/314/5 121/203/5
f 121/203/5 149/234/5 55/101/5
f 133/215/5 173/273/5 71/124/5
f 41/78/3 198/312/3 100/173/3
f 100/173/3 174/275/3 9/25/3
f 132/214/3 150/236/3 74/130/3
f 11/33/3 196/310/3 72/127/3
f 72/127/3 194/308/3 41/78/3
f 131/213/3 170/268/3 128/210/3
f 160/256/1 5/15/1 6/17/1
f 184/296/1 79/140/1 104/179/1
f 99/170/3 195/309/3 131/213/3
f 128/210/3 197/311/3 132/214/3
f 119/201/5 199/313/5 133/215/5
f 181/290/1 96/165/1 98/168/1
f 101/175/5 201/315/5 134/216/5
f 120/202/5 203/317/5 135/217/5
f 147/230/4 99/171/4 69/120/4
f 116/198/3 205/319/3 136/218/3
f 105/181/3 207/321/3 137/219/3
f 123/205/5 209/323/5 138/220/5
f 115/197/3 211/325/3 139/221/3
f 124/206/5 213/327/5 140/222/5
f 153/242/4 105/182/4 83/145/4
f 90/155/5 215/329/5 141/223/5
f 127/209/3 217/331/3 142/224/3
f 70/122/3 219/333/3 143/225/3
f 69/121/5 221/335/5 144/226/5
f 159/254/4 75/132/4 101/174/4
f 173/274/1 74/131/1 71/125/1
f 83/146/5 223/337/5 145/227/5
f 154/244/4 70/123/4 90/154/4
f 75/133/3 225/339/3 146/228/3
f 186/300/1 93/160/1 111/192/1
f 2/5/1 1/2/1 179/286/1
f 12/35/2 11/31/2 72/126/2
f 151/238/3 15/43/3 103/178/3
f 8/23/4 7/19/4 148/232/4
f 177/282/5 4/11/5 80/142/5
f 6/18/6 5/13/6 78/138/6
f 10/29/1 9/26/1 174/276/1
f 20/54/3 18/50/3 17/49/3
f 22/56/7 21/55/7 18/50/7
f 16/47/4 15/44/4 151/237/4
f 171/270/5 12/36/5 97/166/5
f 14/42/6 13/37/6 110/190/6
f 81/143/5 27/61/5 28/62/5
f 44/83/2 39/73/2 109/187/2
f 36/70/3 35/69/3 85/148/3
f 84/147/5 30/64/5 29/63/5
f 21/55/8 22/56/8 19/52/8
f 148/231/3 7/20/3 92/158/3
f 37/71/3 38/72/3 108/186/3
f 169/267/3 58/106/3 110/189/3
f 178/284/5 48/89/5 126/208/5
f 87/150/5 46/86/5 49/90/5
f 48/88/4 40/75/4 161/258/4
f 88/151/5 45/85/5 52/95/5
f 61/111/3 47/87/3 86/149/3
f 168/266/5 65/115/5 125/207/5
f 51/93/6 50/92/6 92/157/6
f 163/261/3 50/91/3 78/137/3
f 167/265/5 44/84/5 89/152/5
f 161/257/3 40/76/3 118/200/3
f 164/262/3 63/113/3 117/199/3
f 56/102/4 42/80/4 158/252/4
f 57/104/3 62/112/3 114/196/3
f 166/264/5 64/114/5 121/203/5
f 183/294/5 56/103/5 122/204/5
f 55/100/1 53/97/1 180/288/1
f 60/109/6 58/105/6 103/177/6
f 165/263/5 54/99/5 73/129/5
f 4/12/2 3/7/2 67/117/2
f 170/268/3 66/116/3 129/211/3
f 158/251/3 42/79/3 130/212/3
f 54/98/2 41/77/2 100/172/2
f 59/107/1 43/82/1 176/280/1
f 104/179/1 79/140/1 152/240/1
f 73/128/2 100/172/2 9/27/2
f 195/309/3 130/212/3 66/116/3
f 196/310/3 131/213/3 128/210/3
f 182/292/3 99/170/3 131/213/3
f 197/311/3 129/211/3 53/96/3
f 198/312/3 132/214/3 74/130/3
f 194/308/3 128/210/3 132/214/3
f 80/141/2 67/117/2 39/73/2
f 199/313/5 73/129/5 10/30/5
f 200/314/5 133/215/5 71/124/5
f 189/303/5 119/201/5 133/215/5
f 106/183/6 103/177/6 15/45/6
f 98/168/1 96/165/1 156/248/1
f 201/315/5 122/204/5 64/114/5
f 202/316/5 134/216/5 120/202/5
f 159/253/5 101/175/5 134/216/5
f 203/317/5 121/203/5 55/101/5
f 204/318/5 135/217/5 98/169/5
f 190/304/5 120/202/5 135/217/5
f 68/119/3 114/196/3 33/67/3
f 69/120/4 99/171/4 182/291/4
f 205/319/3 117/199/3 43/81/3
f 206/320/3 136/218/3 93/159/3
f 188/302/3 116/198/3 136/218/3
f 207/321/3 118/200/3 63/113/3
f 208/322/3 137/219/3 116/198/3
f 185/298/3 105/181/3 137/219/3
f 209/323/5 89/152/5 2/6/5
f 210/324/5 138/220/5 111/191/5
f 191/305/5 123/205/5 138/220/5
f 211/325/3 78/137/3 5/14/3
f 212/326/3 139/221/3 79/139/3
f 187/301/3 115/197/3 139/221/3
f 94/161/6 92/157/6 7/21/6
f 213/327/5 125/207/5 59/108/5
f 214/328/5 140/222/5 104/180/5
f 192/306/5 124/206/5 140/222/5
f 113/195/3 86/149/3 32/66/3
f 24/58/5 88/151/5 76/134/5
f 83/145/4 105/182/4 185/297/4
f 25/59/5 87/150/5 82/144/5
f 215/329/5 126/208/5 65/115/5
f 216/330/5 141/223/5 124/206/5
f 154/243/5 90/155/5 141/223/5
f 217/331/3 110/189/3 13/38/3
f 218/332/3 142/224/3 96/164/3
f 193/307/3 127/209/3 142/224/3
f 102/176/3 108/186/3 62/112/3
f 219/333/3 92/158/3 50/91/3
f 220/334/3 143/225/3 115/197/3
f 172/272/3 70/122/3 143/225/3
f 46/86/5 84/147/5 91/156/5
f 107/185/3 85/148/3 47/87/3
f 89/153/2 109/187/2 1/3/2
f 45/85/5 81/143/5 95/163/5
f 112/193/6 110/190/6 58/105/6
f 221/335/5 97/166/5 54/99/5
f 222/336/5 144/226/5 119/201/5
f 147/229/5 69/121/5 144/226/5
f 101/174/4 75/132/4 175/278/4
f 71/125/1 74/131/1 150/235/1
f 77/135/6 78/138/6 50/92/6
f 223/337/5 80/142/5 44/84/5
f 224/338/5 145/227/5 123/205/5
f 153/241/5 83/146/5 145/227/5
f 90/154/4 70/123/4 172/271/4
f 225/339/3 103/178/3 58/106/3
f 226/340/3 146/228/3 127/209/3
f 175/277/3 75/133/3 146/228/3
f 97/167/2 72/126/2 41/77/2
f 111/192/1 93/160/1 155/245/1
f 162/259/1 155/245/1 43/82/1
f 42/79/3 175/277/3 226/340/3
f 130/212/3 226/340/3 193/307/3
f 146/228/3 225/339/3 169/267/3
f 178/283/4 172/271/4 40/75/4
f 48/89/5 153/241/5 224/338/5
f 126/208/5 224/338/5 191/305/5
f 145/227/5 223/337/5 167/265/5
f 149/233/1 150/235/1 53/97/1
f 183/293/4 175/278/4 42/80/4
f 56/103/5 147/229/5 222/336/5
f 122/204/5 222/336/5 189/303/5
f 144/226/5 221/335/5 165/263/5
f 40/76/3 172/272/3 220/334/3
f 118/200/3 220/334/3 187/301/3
f 143/225/3 219/333/3 163/261/3
f 66/116/3 193/307/3 218/332/3
f 129/211/3 218/332/3 180/287/3
f 142/224/3 217/331/3 156/247/3
f 8/24/5 154/243/5 216/330/5
f 94/162/5 216/330/5 192/306/5
f 141/223/5 215/329/5 168/266/5
f 177/281/4 185/297/4 3/8/4
f 51/94/5 192/306/5 214/328/5
f 77/136/5 214/328/5 160/255/5
f 140/222/5 213/327/5 184/295/5
f 63/113/3 187/301/3 212/326/3
f 117/199/3 212/326/3 176/279/3
f 139/221/3 211/325/3 152/239/3
f 65/115/5 191/305/5 210/324/5
f 125/207/5 210/324/5 162/260/5
f 138/220/5 209/323/5 186/299/5
f 3/9/3 185/298/3 208/322/3
f 67/118/3 208/322/3 188/302/3
f 137/219/3 207/321/3 164/262/3
f 39/74/3 188/302/3 206/320/3
f 109/188/3 206/320/3 179/285/3
f 136/218/3 205/319/3 155/246/3
f 171/269/4 182/291/4 11/32/4
f 60/110/5 190/304/5 204/318/5
f 112/194/5 204/318/5 157/249/5
f 135/217/5 203/317/5 181/289/5
f 16/48/5 159/253/5 202/316/5
f 106/184/5 202/316/5 190/304/5
f 134/216/5 201/315/5 166/264/5
f 157/250/1 156/248/1 13/39/1
f 64/114/5 189/303/5 200/314/5
f 121/203/5 200/314/5 149/234/5
f 133/215/5 199/313/5 173/273/5
f 41/78/3 194/308/3 198/312/3
f 100/173/3 198/312/3 174/275/3
f 132/214/3 197/311/3 150/236/3
f 11/33/3 182/292/3 196/310/3
f 72/127/3 196/310/3 194/308/3
f 131/213/3 195/309/3 170/268/3
f 160/256/1 152/240/1 5/15/1
f 184/296/1 176/280/1 79/140/1
f 99/170/3 158/251/3 195/309/3
f 128/210/3 170/268/3 197/311/3
f 119/201/5 165/263/5 199/313/5
f 181/290/1 180/288/1 96/165/1
f 101/175/5 183/294/5 201/315/5
f 120/202/5 166/264/5 203/317/5
f 147/230/4 158/252/4 99/171/4
f 116/198/3 164/262/3 205/319/3
f 105/181/3 161/257/3 207/321/3
f 123/205/5 167/265/5 209/323/5
f 115/197/3 163/261/3 211/325/3
f 124/206/5 168/266/5 213/327/5
f 153/242/4 161/258/4 105/182/4
f 90/155/5 178/284/5 215/329/5
f 127/209/3 169/267/3 217/331/3
f 70/122/3 148/231/3 219/333/3
f 69/121/5 171/270/5 221/335/5
f 159/254/4 151/237/4 75/132/4
f 173/274/1 174/276/1 74/131/1
f 83/146/5 177/282/5 223/337/5
f 154/244/4 148/232/4 70/123/4
f 75/133/3 151/238/3 225/339/3
f 186/300/1 179/286/1 93/160/1
