# Blender 3.4.1
# www.blender.org
o Cube.001_Cube.002
v -2 1 -0.5
v -1.5 2 -0.5
v -2 1 -2
v -1.5 2 -1.5
v 2 1 -0.5
v 1.5 2 -0.5
v 2 1 -2
v 1.5 2 -1.5
v -2 1 2
v -1.5 2 1.5
v -2 1 0.5
v -1.5 2 0.5
v 2 1 2
v 1.5 2 1.5
v 2 1 0.5
v 1.5 2 0.5
v 0.5 2 -0.5
v -0.5 2 -0.5
v -0.5 2 0.5
v 0.5 2 0.5
v -0.5 1 -0.5
v 0.5 1 -0.5
v 0.5 1 0.5
v -0.5 1 0.5
v 0.5 2 -0.5
v -0.5 2 -0.5
v -0.5 2 0.5
v 0.5 2 0.5
v 0 1 -2
v -0.5 2 -1
v 0.5 2 1
v 0 2 -1.5
v 0 1 2
v 0 2 1.5
v 1 1 -2
v -1 1 -2
v 1 1 2
v -1 1 2
vn -0.0000 -0.0000 -1.0000
vn -0.0000 0.4472 0.8944
vn -0.8944 0.4472 -0.0000
vn -0.0000 0.4472 -0.8944
vn -0.0000 1.0000 -0.0000
vn 0.8944 0.4472 -0.0000
vn -0.0000 -1.0000 -0.0000
vn 1.0000 -0.0000 -0.0000
vn -0.0000 -0.0000 1.0000
vn -1.0000 -0.0000 -0.0000
vt 0.21429 0.42857
vt 0 0.57143
vt 0.21429 0.57143
vt 0.85714 0.42857
vt 0.07143 0.71429
vt 0 0.42857
vt 0.57143 -0
vt 1 0.42857
vt 0.07143 0.57143
vt 0.5 0.14286
vt 0.57143 0.57143
vt 0.35714 0.28571
vt 0.85714 0
vt 0.5 0.71429
vt 0.35714 0.42857
vt 0 0
vt 0.57143 0.28571
vt 0.07143 0.14286
vt 1 0
vt 0.5 0.42857
vt 0 0.14286
vt 0.57143 0.42857
vt 0.5 0.57143
vt 0.07143 0.28571
vt 0.57143 0.42857
vt 0.57143 0.71429
vt 0.35714 0.42857
vt 0.71429 0.42857
vt 0.5 0.85714
vt 0.35714 0.57143
vt 0 0.28571
vt 0.57143 0.14286
vt 0.07143 0.42857
vt 0.57143 -0
vt 0.5 0.28571
vt 0 0.71429
vt 0.21429 0.28571
vt 0.07143 0.85714
vt 0.71429 0
vt 0.21429 0.42857
vt 0.57143 0.57143
vt 0.35714 0.71429
vt 0.85714 0.14286
vt 0.85714 0.57143
vt 0.21429 0.71429
vt 0.85714 0.28571
vt 0.71429 0.57143
vt 0.35714 0.85714
vt 0.71429 0.28571
vt 0.71429 0.57143
vt 0.71429 0.14286
vt 0.21429 0.85714
vt 0.85714 0.42857
vt 0.21429 0.57143
vt 0.57143 0.42857
vt 0.35714 0.57143
vt 0.21429 0.71429
vt 0.71429 0.42857
vt 0.71429 0.42857
vt 0.35714 0.71429
vt 0.85714 0.14286
vt 0.85714 0.28571
vt 0.71429 0.28571
vt 0.71429 0.14286
vt 0.28571 0
vt 0.92857 0.28571
vt 0.64286 0.14286
vt 0.28571 0.14286
vt 1 0.21429
vt 0.28571 0.14286
vt 0.57143 0.21429
vt 0.28571 0.28571
vt 0.14286 0
vt 0.42857 0
vt 0.42857 0.14286
vt 0.14286 0.14286
s 0
f 16/38/1 23/57/1 20/52/1
f 10/24/2 9/21/2 38/76/2
f 10/23/3 11/27/3 9/22/3
f 8/18/4 7/16/4 35/73/4
f 18/46/5 30/66/5 4/8/5
f 14/33/6 15/37/6 16/40/6
f 12/29/1 24/60/1 11/26/1
f 4/9/3 1/1/3 2/3/3
f 34/71/5 19/49/5 10/25/5
f 20/51/5 31/67/5 14/34/5
f 27/63/7 25/61/7 28/64/7
f 18/46/5 12/28/5 19/49/5
f 24/59/8 18/44/8 19/47/8
f 22/56/9 18/45/9 21/54/9
f 17/41/10 23/58/10 20/50/10
f 24/60/1 20/52/1 23/57/1
f 16/39/5 17/43/5 20/51/5
f 1/1/3 12/30/3 2/3/3
f 10/23/3 12/30/3 11/27/3
f 32/68/4 29/65/4 36/74/4
f 18/46/5 17/43/5 30/66/5
f 2/5/9 21/54/9 18/45/9
f 17/43/5 19/49/5 20/51/5
f 34/72/2 33/70/2 37/75/2
f 18/46/5 2/4/5 12/28/5
f 16/38/1 15/36/1 23/57/1
f 17/43/5 6/13/5 8/19/5
f 32/69/5 4/8/5 30/66/5
f 2/4/5 18/46/5 4/8/5
f 32/68/4 8/18/4 35/73/4
f 6/14/9 22/56/9 5/11/9
f 8/20/6 5/12/6 7/17/6
f 34/72/2 10/24/2 38/76/2
f 14/33/6 13/31/6 15/37/6
f 33/70/2 34/72/2 38/76/2
f 29/65/4 32/68/4 35/73/4
f 32/69/5 17/43/5 8/19/5
f 34/71/5 14/34/5 31/67/5
f 16/39/5 20/51/5 14/34/5
f 19/49/5 12/28/5 10/25/5
f 34/71/5 31/67/5 19/49/5
f 20/51/5 19/49/5 31/67/5
f 17/41/10 22/55/10 23/58/10
f 24/59/8 21/53/8 18/44/8
f 22/56/9 17/42/9 18/45/9
f 12/29/1 19/48/1 24/60/1
f 27/63/7 26/62/7 25/61/7
f 4/9/3 3/6/3 1/1/3
f 16/40/6 5/12/6 6/15/6
f 24/60/1 19/48/1 20/52/1
f 16/39/5 6/13/5 17/43/5
f 1/1/3 11/27/3 12/30/3
f 3/7/4 4/10/4 36/74/4
f 4/10/4 32/68/4 36/74/4
f 2/5/9 1/2/9 21/54/9
f 17/43/5 18/46/5 19/49/5
f 13/32/2 14/35/2 37/75/2
f 14/35/2 34/72/2 37/75/2
f 6/14/9 17/42/9 22/56/9
f 8/20/6 6/15/6 5/12/6
f 32/69/5 30/66/5 17/43/5
f 16/40/6 15/37/6 5/12/6
