# Blender 3.4.1
# www.blender.org
o Cube.002_Cube.003
v 3 1 0.5
v 2.5 2 0.5
v 3 1 2.5
v 2.5 2 2.5
v -3 1 0.5
v -2.5 2 0.5
v -3 1 2.5
v -2.5 2 2.5
v 3 1 -3
v 2.5 2 -2.5
v 3 1 -0.5
v 2.5 2 -0.5
v -3 1 -3
v -2.5 2 -2.5
v -3 1 -0.5
v -2.5 2 -0.5
v 0.5 1 0.5
v 0.5 1 -0.5
v -0.5 1 0.5
v -0.5 1 -0.5
v 0.5 2 0.5
v 0.5 2 -0.5
v -0.5 2 0.5
v -0.5 2 -0.5
v 0.5 2 0.5
v 0.5 2 -0.5
v -0.5 2 0.5
v -0.5 2 -0.5
v 3 1 1.5
v 0 1 2.5
v 2.5 2 -1.5
v 1.5 2 -0.5
v 1 2 -1.5
v 2.5 2 1.5
v 0 2 2.5
v -3 1 1.5
v -1.5 2 1.5
v -2.5 2 1.5
v 1.75 1 0.5
v 1.5 2 0.5
v 3 1 -1.75
v 0 1 -3
v -1.75 1 0.5
v 1.5 2 1.5
v 0 2 -2.5
v -1.5 2 0.5
v -1 2 1.5
v 1.75 1 -0.5
v -3 1 -1.75
v 1.5 2 -1.5
v -2.5 2 -1.5
v -1.75 1 -0.5
v -1.5 2 -1.5
v -1.5 2 -0.5
v -1.5 1 2.5
v 1.25 2 2.5
v 1.5 1 2.5
v 0.25 2 -1
v 1.5 1 -3
v -1.25 2 2.5
v 1.25 2 -2.5
v -1.5 1 -3
v -1.25 2 -2.5
v -1.75 2 2
v -0.25 2 1
v 1.75 2 -2
v -0.25 2 -1.5
v -0.75 2 -2
v 0.75 2 2
v 0.25 2 1.5
vn -0.0000 1.0000 -0.0000
vn 0.8944 0.4472 -0.0000
vn 1.0000 -0.0000 -0.0000
vn -1.0000 -0.0000 -0.0000
vn -0.0000 -0.0000 -1.0000
vn -0.0000 -0.0000 1.0000
vn -0.0000 0.4472 -0.8944
vn -0.0000 -1.0000 -0.0000
vn -0.8944 0.4472 -0.0000
vt -0 0.18182
vt 0.18182 0.45454
vt 0.72727 -0
vt 0.18182 0.54546
vt 0.04546 0.27273
vt 0.54546 0
vt 0 0.45454
vt 0.54546 0
vt 0 0.54546
vt 0.5 0.09091
vt 0.54546 0.18182
vt 0.31818 0.36364
vt 0.72727 0.45454
vt 0.31818 0.45454
vt 0.5 0.27273
vt 0.00004 0.00004
vt 0.5 0.36364
vt 0.5 0.45454
vt 0.04546 0.09091
vt 0.54546 0.45454
vt 0.5 0.45454
vt -0 0.09091
vt 0.04546 0.18182
vt 1 -0
vt 0.45454 0.54546
vt 0.54546 0.27273
vt 0.27273 0.45454
vt 0.27273 0.54546
vt 0.81818 -0
vt 0.5 0.36364
vt 0.54546 0.09091
vt 0 0.36364
vt 0.04546 0.45454
vt 1 0.45454
vt 0.5 0.18182
vt 0 0.27273
vt 0.22727 0.36364
vt 0.81818 0.45454
vt 0.04546 0.36364
vt 0.22727 0.45454
vt 0.63636 0.45454
vt 0.22727 0.18182
vt 0.54546 0.45454
vt 0.31818 0.27273
vt 0.63636 0.45454
vt 0.31818 0.18182
vt 0.72727 0.45454
vt 0.22727 0.27273
vt 0.63636 0.54546
vt 0.22727 0.27273
vt 0.72727 0.18182
vt 0.54546 0.54546
vt 0.31818 0.36364
vt 0.81818 0.18182
vt 0.63636 0.54546
vt 0.31818 0.27273
vt 0.72727 0.27273
vt 0.72727 0.54546
vt 0.22727 0.36364
vt 0.81818 0.27273
vt 0.72727 0.18182
vt 0.81818 0.18182
vt 0.72727 0.27273
vt 0.81818 0.27273
vt 0.09091 0.45454
vt 0.27275 0.00002
vt 0.90909 0
vt 0.36364 0.54546
vt 0.81818 0.09091
vt 0.40909 0.36364
vt 0.90909 0.13636
vt 0.63636 0
vt 0.09091 0.54546
vt 0.27273 0.09091
vt 0.54546 0.22727
vt 0.40909 0.36364
vt 0.63636 0.36364
vt 0.63636 0.45454
vt 0.40909 0.45454
vt 0.11364 0.18182
vt 0.72727 0.09091
vt 0.13636 0.27273
vt 0.38636 0.45454
vt 0.27273 0.09091
vt 0.43182 0.18182
vt 0.63636 0.09091
vt 0.27273 0.18182
vt 1 0.22727
vt 0.40909 0.27273
vt 0.72727 0.36364
vt 0.63636 0.31818
vt 0.43182 0.27273
vt 0.11364 0.36364
vt 0.90909 0.09091
vt 0.90909 0.45454
vt 0.13636 0.45454
vt 0.11364 0.27273
vt 0.90909 0.36364
vt 0.13636 0.36364
vt 0.81818 0.36364
vt 0.13639 0.00003
vt 0.54546 0.11364
vt 0.38636 0.09091
vt 0.4091 0.00001
vt 0.86364 0.20455
vt 0.13636 0.09091
vt 0.54546 0.34091
vt 0.15909 0.09091
vt 1 0.11364
vt 0.15909 0.18182
vt 0.40909 0.09091
vt 1 0.34091
vt 0.38636 0.18182
vt 0.59091 0.38636
vt 0.68182 0.25
vt 0.95454 0.06818
vt 0.90909 0.25
vt 0.95454 0.29545
vt 0.59091 0.15909
vt 0.63636 0.20455
s 0
f 54/100/1 6/13/1 46/90/1
f 34/73/2 1/2/2 2/4/2
f 23/55/3 20/47/3 24/58/3
f 18/43/4 21/49/4 22/52/4
f 46/89/5 19/46/5 43/85/5
f 65/115/1 47/91/1 70/120/1
f 31/68/2 11/27/2 41/83/2
f 8/19/6 55/101/6 60/108/6
f 10/23/7 59/106/7 61/110/7
f 61/109/1 33/71/1 66/116/1
f 40/81/1 12/29/1 32/69/1
f 27/63/8 26/62/8 25/61/8
f 14/33/9 49/93/9 51/96/9
f 2/4/2 11/27/2 12/28/2
f 22/54/1 23/57/1 21/51/1
f 6/14/9 36/76/9 38/79/9
f 24/59/6 18/44/6 22/53/6
f 17/42/5 23/56/5 21/50/5
f 21/51/1 32/69/1 22/54/1
f 53/98/1 54/100/1 24/60/1
f 34/72/1 2/3/1 40/81/1
f 32/70/6 18/44/6 48/92/6
f 32/69/1 50/94/1 22/54/1
f 52/97/6 16/39/6 15/36/6
f 31/67/1 10/24/1 50/94/1
f 23/57/1 47/91/1 65/115/1
f 22/54/1 33/71/1 58/105/1
f 4/8/1 34/72/1 44/86/1
f 37/77/1 64/114/1 47/91/1
f 6/13/1 38/78/1 46/90/1
f 39/80/5 2/5/5 1/1/5
f 53/98/1 51/95/1 54/100/1
f 17/42/5 40/82/5 39/80/5
f 16/40/9 5/12/9 6/14/9
f 51/95/1 16/38/1 54/100/1
f 12/30/6 48/92/6 11/26/6
f 32/69/1 31/67/1 50/94/1
f 50/94/1 66/116/1 33/71/1
f 12/29/1 31/67/1 32/69/1
f 14/34/1 51/95/1 53/98/1
f 38/78/1 8/20/1 37/77/1
f 44/86/1 34/72/1 40/81/1
f 46/90/1 37/77/1 23/57/1
f 46/90/1 38/78/1 37/77/1
f 51/96/9 15/37/9 16/40/9
f 20/48/6 54/99/6 52/97/6
f 38/79/9 7/17/9 8/18/9
f 44/86/1 40/81/1 21/51/1
f 4/9/2 29/65/2 34/73/2
f 67/117/1 24/60/1 58/105/1
f 67/117/1 68/118/1 53/98/1
f 63/112/1 53/98/1 68/118/1
f 63/113/7 42/84/7 62/111/7
f 56/103/6 30/66/6 57/104/6
f 10/25/2 41/83/2 9/21/2
f 69/119/1 35/75/1 56/102/1
f 70/120/1 35/75/1 69/119/1
f 64/114/1 8/20/1 60/107/1
f 6/15/5 43/85/5 5/11/5
f 24/60/1 46/90/1 23/57/1
f 47/91/1 60/107/1 35/75/1
f 44/86/1 70/120/1 69/119/1
f 44/86/1 56/102/1 4/8/1
f 4/10/6 57/104/6 3/6/6
f 14/35/7 62/111/7 13/31/7
f 45/88/1 63/112/1 68/118/1
f 45/88/1 67/117/1 33/71/1
f 33/71/1 67/117/1 58/105/1
f 10/24/1 61/109/1 66/116/1
f 61/110/7 42/84/7 45/87/7
f 60/108/6 30/66/6 35/74/6
f 21/51/1 70/120/1 44/86/1
f 54/100/1 16/38/1 6/13/1
f 34/73/2 29/65/2 1/2/2
f 23/55/3 19/45/3 20/47/3
f 18/43/4 17/41/4 21/49/4
f 46/89/5 23/56/5 19/46/5
f 31/68/2 12/28/2 11/27/2
f 8/19/6 7/16/6 55/101/6
f 10/23/7 9/22/7 59/106/7
f 61/109/1 45/88/1 33/71/1
f 40/81/1 2/3/1 12/29/1
f 27/63/8 28/64/8 26/62/8
f 14/33/9 13/32/9 49/93/9
f 2/4/2 1/2/2 11/27/2
f 22/54/1 24/60/1 23/57/1
f 6/14/9 5/12/9 36/76/9
f 24/59/6 20/48/6 18/44/6
f 17/42/5 19/46/5 23/56/5
f 21/51/1 40/81/1 32/69/1
f 32/70/6 22/53/6 18/44/6
f 52/97/6 54/99/6 16/39/6
f 65/115/1 21/51/1 23/57/1
f 23/57/1 37/77/1 47/91/1
f 58/105/1 24/60/1 22/54/1
f 22/54/1 50/94/1 33/71/1
f 37/77/1 8/20/1 64/114/1
f 39/80/5 40/82/5 2/5/5
f 17/42/5 21/50/5 40/82/5
f 16/40/9 15/37/9 5/12/9
f 12/30/6 32/70/6 48/92/6
f 50/94/1 10/24/1 66/116/1
f 51/96/9 49/93/9 15/37/9
f 20/48/6 24/59/6 54/99/6
f 38/79/9 36/76/9 7/17/9
f 4/9/2 3/7/2 29/65/2
f 67/117/1 53/98/1 24/60/1
f 63/112/1 14/34/1 53/98/1
f 63/113/7 45/87/7 42/84/7
f 56/103/6 35/74/6 30/66/6
f 10/25/2 31/68/2 41/83/2
f 70/120/1 47/91/1 35/75/1
f 6/15/5 46/89/5 43/85/5
f 24/60/1 54/100/1 46/90/1
f 47/91/1 64/114/1 60/107/1
f 44/86/1 69/119/1 56/102/1
f 4/10/6 56/103/6 57/104/6
f 14/35/7 63/113/7 62/111/7
f 45/88/1 68/118/1 67/117/1
f 61/110/7 59/106/7 42/84/7
f 60/108/6 55/101/6 30/66/6
f 21/51/1 65/115/1 70/120/1
