# Blender 3.4.1
# www.blender.org
o Cube.007_Cube.008
v 0.5 -0 0.375
v 0.5 1 0.375
v 0.5 -0 0.5
v 0.5 1 0.5
v 0.375 -0 0.375
v 0.375 1 0.375
v 0.375 -0 0.5
v 0.375 1 0.5
v 0.5 0 -0.5
v 0.5 1 -0.5
v 0.5 0 -0.375
v 0.5 1 -0.375
v 0.375 0 -0.5
v 0.375 1 -0.5
v 0.375 0 -0.375
v 0.375 1 -0.375
v -0.375 0 -0.5
v -0.375 1 -0.5
v -0.375 0 -0.375
v -0.375 1 -0.375
v -0.5 0 -0.5
v -0.5 1 -0.5
v -0.5 0 -0.375
v -0.5 1 -0.375
v -0.375 -0 0.375
v -0.375 1 0.375
v -0.375 -0 0.5
v -0.375 1 0.5
v -0.5 -0 0.375
v -0.5 1 0.375
v -0.5 -0 0.5
v -0.5 1 0.5
v 0.375 -0 0.4375
v 0.375 1 0.4375
v -0.375 -0 0.4375
v -0.375 1 0.4375
v 0.375 0 -0.4375
v 0.375 1 -0.4375
v -0.375 0 -0.4375
v -0.375 1 -0.4375
v 0.4375 0 -0.375
v 0.4375 1 -0.375
v 0.4375 -0 0.375
v 0.4375 1 0.375
v -0.4375 0 -0.375
v -0.4375 1 -0.375
v -0.4375 -0 0.375
v -0.4375 1 0.375
v 0.40625 0 -0.15625
v 0.40625 0.65625 0.15625
v 0.40625 -0 0.15625
v 0.40625 0.34375 0.15625
v 0.09375 0 -0.15625
v 0.40625 0.65625 -0.15625
v 0.09375 -0 0.15625
v 0.40625 0.34375 -0.15625
v -0.25 -0 0.375
v -0.16161 0.33839 -0.375
v -0.16161 0.125 -0.16161
v -0.25 0 -0.125
v -0.125 0.125 -0.25
v -0.33839 0 -0.16161
v -0.16161 0.125 -0.33839
v -0.375 0 -0.25
v -0.25 0.125 -0.375
v -0.33839 0 -0.33839
v -0.33839 0.125 -0.33839
v -0.25 0 -0.375
v -0.375 0.125 -0.25
v -0.16161 0 -0.33839
v -0.25 0.125 -0.125
v -0.125 0 -0.25
v -0.33839 0.125 -0.16161
v -0.16161 0 -0.16161
v -0.125 0.25 -0.375
v -0.33839 -0 0.33839
v -0.16161 0.16161 -0.375
v -0.375 -0 0.25
v -0.33839 -0 0.16161
v -0.33839 0.16161 -0.375
v -0.25 -0 0.125
v -0.375 0.25 -0.375
v -0.16161 -0 0.16161
v -0.25 0.375 -0.375
v -0.125 -0 0.25
v -0.33839 0.33839 -0.375
v -0.16161 -0 0.33839
v -0.25 0.875 -2.5
v -0.25 0.375 -2.5
v -0.33839 0.33839 -2.5
v -0.375 0.25 -2.5
v -0.33839 0.16161 -2.5
v -0.25 0.125 -2.5
v -0.16161 0.16161 -2.5
v -0.125 0.25 -2.5
v -0.16161 0.33839 -2.5
v -0.33839 0.83839 -2.5
v -0.375 0.75 -2.5
v -0.33839 0.66161 -2.5
v -0.25 0.625 -2.5
v -0.16161 0.66161 -2.5
v -0.125 0.75 -2.5
v -0.16161 0.83839 -2.5
v -0.16161 0.66161 0.125
v -0.25 0.625 0.125
v -0.375 0.75 0.125
v -0.33839 0.83839 0.125
v -0.33839 0.66161 0.125
v -0.25 0.875 0.125
v -0.125 0.75 0.125
v -0.16161 0.83839 0.125
v -0.16161 0.625 0.16161
v -0.375 0.625 0.25
v -0.33839 0.625 0.33839
v -0.33839 0.625 0.16161
v -0.25 0.625 0.375
v -0.125 0.625 0.25
v -0.16161 0.625 0.33839
v 0.09375 0.34375 -0.15625
v 0.09375 0.65625 -0.15625
v 0.09375 0.34375 0.15625
v 0.09375 0.65625 0.15625
v 0.40625 0.34375 -2.5
v 0.40625 0.65625 -2.5
v 0.09375 0.65625 -2.5
v 0.09375 0.34375 -2.5
v 0.375 -0 0.4375
v 0.375 1 0.4375
v -0.375 -0 0.4375
v -0.375 1 0.4375
v 0.375 0 -0.4375
v 0.375 1 -0.4375
v -0.375 0 -0.4375
v -0.375 1 -0.4375
v 0.4375 0 -0.375
v 0.4375 1 -0.375
v 0.4375 -0 0.375
v 0.4375 1 0.375
v -0.4375 0 -0.375
v -0.4375 1 -0.375
v -0.4375 -0 0.375
v -0.4375 1 0.375
v -0.25 0.625 -1.1875
v -0.16161 0.16161 -1.4375
v -0.25 0.125 -1.4375
v -0.16161 0.66161 -1.1875
v -0.33839 0.83839 -1.1875
v 0.09375 0.65625 -1.32812
v -0.375 0.25 -1.4375
v -0.33839 0.33839 -1.4375
v -0.16161 0.33839 -1.4375
v -0.375 0.75 -1.1875
v -0.125 0.75 -1.1875
v 0.40625 0.65625 -1.32812
v -0.125 0.25 -1.4375
v -0.33839 0.66161 -1.1875
v -0.16161 0.83839 -1.1875
v 0.09375 0.34375 -1.32812
v -0.25 0.375 -1.4375
v -0.33839 0.16161 -1.4375
v -0.25 0.875 -1.1875
v 0.40625 0.34375 -1.32812
vn 1.0000 -0.0000 -0.0000
vn -0.0000 -0.0000 1.0000
vn -0.0000 -0.0000 -1.0000
vn -1.0000 -0.0000 -0.0000
vn -0.0000 1.0000 -0.0000
vn 0.9239 -0.0000 -0.3827
vn -0.3827 -0.0000 -0.9239
vn -0.9239 -0.3827 -0.0000
vn -0.9239 0.3827 -0.0000
vn -0.9239 -0.0000 0.3827
vn -0.3827 -0.9239 -0.0000
vn 0.9239 -0.0000 0.3827
vn 0.9239 -0.3827 -0.0000
vn -0.3827 0.9239 -0.0000
vn 0.3827 -0.0000 0.9239
vn -0.3827 -0.0000 0.9239
vn 0.3827 -0.9239 -0.0000
vn 0.3827 -0.0000 -0.9239
vn -0.9239 -0.0000 -0.3827
vn -0.2811 -0.6786 -0.6786
vn -0.8629 -0.3574 -0.3574
vn 0.9239 0.3827 -0.0000
vn 0.3827 0.9239 -0.0000
vn 0.2811 0.6786 0.6786
vn -0.0000 -1.0000 -0.0000
vn -0.8629 0.3574 0.3574
vn -0.2811 0.6786 0.6786
vn 0.2811 -0.6786 -0.6786
vn 0.8629 -0.3574 -0.3574
vn 0.8629 0.3574 0.3574
vt -0 -0
vt 0.09302 0
vt 0 0.18605
vt 0.09302 0.18605
vt 0.06977 -0
vt -0 0.2093
vt 0.06977 0.18605
vt 0.02326 0
vt 0.02326 0.18605
vt 0.04651 -0
vt 0.02326 0.2093
vt 0.04651 0.18605
vt -0 -0
vt 0.09302 0
vt 0.09302 0.18605
vt 0 0.18605
vt 0.06977 -0
vt -0 0.2093
vt 0.06977 0.18605
vt 0.02326 0
vt 0.02326 0.18605
vt 0.04651 -0
vt 0.02326 0.2093
vt 0.04651 0.18605
vt -0 -0
vt 0.09302 0
vt 0.09302 0.18605
vt 0 0.18605
vt 0.06977 -0
vt 0.06977 0.18605
vt -0 0.2093
vt 0.02326 0
vt 0.02326 0.18605
vt 0.04651 -0
vt 0.04651 0.18605
vt 0.02326 0.2093
vt -0 -0
vt 0.09302 0
vt 0.09302 0.18605
vt 0 0.18605
vt 0.06977 -0
vt -0 0.2093
vt 0.06977 0.18605
vt 0.02326 0
vt 0.02326 0.18605
vt 0.04651 -0
vt 0.02326 0.2093
vt 0.04651 0.18605
vt 0.37209 0
vt 0.37209 0.18605
vt 0.23256 -0
vt 0.23256 0.18605
vt 0.09302 0
vt 0.09302 0.18605
vt 0.23256 -0
vt 0.23256 0.18605
vt 0.37209 0.18605
vt 0.37209 0.37209
vt 0.23256 0.18605
vt 0.23256 0.37209
vt 0.09302 0.18605
vt 0.09302 0.37209
vt 0.23256 0.18605
vt 0.23256 0.37209
vt 0.60465 0.13953
vt 0.37209 0.13953
vt 0.48837 0.19767
vt 0.60465 0.19767
vt 0.43023 0.19767
vt 0.54651 0.13953
vt 0.60465 0.25581
vt 0.54651 0.19767
vt 0.48837 0.25581
vt 0.43023 0.13953
vt 0.54651 0.19767
vt 0.55814 0.76744
vt 0.43023 0.25581
vt 0.55814 0.53488
vt 0.48837 0.13953
vt 0.54651 0.25581
vt 0.60465 0.19767
vt 0.37209 0.19767
vt 0.55814 0.7093
vt 0.37209 0
vt 0.65116 -0
vt 0.38372 0.66279
vt 0.51163 0.36046
vt 0.40698 0.13953
vt 0.38372 0.77907
vt 0.37209 0.11628
vt 0.65116 0.11628
vt 0.34884 0.74419
vt 0.44186 0.13953
vt 0.61628 0.11628
vt 0.31395 0.73256
vt 0.47674 0.13953
vt 0.58139 0.11628
vt 0.55814 0.72093
vt 0.27907 0.72093
vt 0.51163 0.25581
vt 0.51163 0.13953
vt 0.51163 0.53488
vt 0.54651 0.11628
vt 0.54651 0.13953
vt 0.52326 0.73256
vt 0.51163 0.11628
vt 0.48837 0.74419
vt 0.58139 0.13953
vt 0.47674 0.11628
vt 0.65116 0.13953
vt 0.37209 0.13953
vt 0.41861 0.77907
vt 0.44186 0.11628
vt 0.45349 0.77907
vt 0.61628 0.13953
vt 0.40698 0.11628
vt 0.34884 0.68605
vt 0.51163 0.32558
vt 0.61628 -0
vt 0.51163 0.2907
vt 0.31395 0.7093
vt 0.58139 -0
vt 0.54651 -0
vt 0.52326 0.7093
vt 0.51163 0.5
vt 0.51163 -0
vt 0.51163 0.46512
vt 0.48837 0.68605
vt 0.47674 -0
vt 0.51163 0.39535
vt 0.41861 0.65116
vt 0.44186 -0
vt 0.51163 0.43023
vt 0.45349 0.66279
vt 0.40698 -0
vt 0.51163 0.51163
vt 0.90698 0.39535
vt 0.90698 0.43023
vt 0.90698 0.46512
vt 0.90698 0.5
vt 0.90698 0.25581
vt 0.90698 0.53488
vt 0.90698 0.2907
vt 0.90698 0.32558
vt 0.90698 0.36046
vt 0.51163 0.54651
vt 0.51163 0.58139
vt 0.51163 0.61628
vt 0.51163 0.37209
vt 0.51163 0.65116
vt 0.51163 0.40698
vt 0.51163 0.44186
vt 0.51163 0.47674
vt 0.03488 0.7093
vt 0 0.40698
vt 0.27907 0.72093
vt 0 0.72093
vt 0 0.65116
vt 0 0.37209
vt 0.51163 0.11628
vt 0.2093 0.68605
vt 0 0.58139
vt 0.17442 0.66279
vt 0 0.54651
vt 0.24419 0.7093
vt 0 0.61628
vt 0.13953 0.65116
vt 0 0.51163
vt 0.06977 0.68605
vt 0 0.44186
vt 0.10465 0.66279
vt 0 0.47674
vt 0.47674 0.11628
vt 0.03488 0.73256
vt 0.58139 0.11628
vt 0.2093 0.74419
vt 0.61628 0.11628
vt 0.17442 0.77907
vt 0.24419 0.73256
vt 0.54651 0.11628
vt 0.37209 0.11628
vt 0.65116 0.11628
vt 0.13953 0.77907
vt 0.44186 0.11628
vt 0.06977 0.74419
vt 0.40698 0.11628
vt 0.10465 0.77907
vt 0.43023 0.19767
vt 0.55814 0.65116
vt 0.37209 0.25581
vt 0.43023 0.25581
vt 0.55814 0.59302
vt 0.48837 0.19767
vt 0.54651 0.25581
vt 0.48837 0.25581
vt 0.37209 0.19767
vt 0.54651 0.19767
vt 0.60465 0.19767
vt 1 0.7093
vt 1 0.53488
vt 1 0.76744
vt 0.60465 0.25581
vt 0.66279 0.25581
vt 1 0.59302
vt 0.66279 0.19767
vt 1 0.65116
vt 0.37209 0
vt 0.37209 0.18605
vt 0.23256 -0
vt 0.23256 0.18605
vt 0.09302 0
vt 0.09302 0.18605
vt 0.23256 -0
vt 0.23256 0.18605
vt 0.37209 0.18605
vt 0.37209 0.37209
vt 0.23256 0.18605
vt 0.23256 0.37209
vt 0.09302 0.18605
vt 0.09302 0.37209
vt 0.23256 0.18605
vt 0.23256 0.37209
vt 0.25581 0.65116
vt 0.25581 0.37209
vt 0.7093 0.2907
vt 0.7093 0.25581
vt 0.7093 0.53488
vt 0.25581 0.40698
vt 0.25581 0.54651
vt 0.77907 0.59302
vt 0.7093 0.46512
vt 0.7093 0.43023
vt 0.7093 0.36046
vt 0.25581 0.58139
vt 0.25581 0.44186
vt 0.77907 0.76744
vt 0.77907 0.53488
vt 0.7093 0.32558
vt 0.25581 0.61628
vt 0.25581 0.47674
vt 0.77907 0.65116
vt 0.7093 0.39535
vt 0.7093 0.5
vt 0.25581 0.51163
vt 0.77907 0.7093
s 0
f 12/19/1 9/14/1 10/15/1
f 16/24/2 11/17/2 12/19/2
f 10/16/3 13/20/3 14/21/3
f 6/9/4 7/10/4 8/12/4
f 22/33/5 20/31/5 18/28/5
f 20/30/1 17/26/1 18/27/1
f 24/35/2 19/29/2 20/30/2
f 16/23/5 10/16/5 14/21/5
f 14/21/4 15/22/4 16/24/4
f 18/28/3 21/32/3 22/33/3
f 28/43/1 25/38/1 26/39/1
f 140/220/1 141/221/1 139/219/1
f 26/40/3 29/44/3 30/45/3
f 22/33/4 23/34/4 24/35/4
f 70/109/6 61/93/6 72/113/6
f 66/103/7 65/101/7 68/106/7
f 56/81/1 51/70/1 49/65/1
f 32/47/5 26/40/5 30/45/5
f 30/45/4 31/46/4 32/48/4
f 34/50/2 35/51/2 33/49/2
f 39/55/3 38/54/3 37/53/3
f 42/58/1 43/59/1 41/57/1
f 124/202/3 126/205/3 125/203/3
f 50/68/1 56/80/1 54/75/1
f 98/147/8 156/239/8 152/234/8
f 149/231/9 86/133/9 150/232/9
f 62/94/10 69/108/10 64/97/10
f 121/193/4 53/74/4 55/79/4
f 143/223/11 108/166/11 156/239/11
f 72/113/12 59/88/12 74/116/12
f 153/235/13 104/155/13 146/228/13
f 150/232/14 84/130/14 159/242/14
f 155/238/13 77/120/13 144/225/13
f 137/217/4 136/216/4 135/215/4
f 76/119/10 113/175/10 78/122/10
f 74/116/15 71/111/15 60/90/15
f 60/91/16 73/115/16 62/94/16
f 87/135/15 116/181/15 57/84/15
f 144/225/17 65/100/17 145/226/17
f 83/129/18 105/160/18 112/173/18
f 64/97/19 67/104/19 66/103/19
f 105/156/20 115/179/20 108/165/20
f 160/243/8 82/127/8 149/231/8
f 2/3/3 5/8/3 6/9/3
f 68/106/18 63/96/18 70/109/18
f 154/237/5 125/204/5 148/230/5
f 162/245/1 124/201/1 154/236/1
f 57/85/16 114/177/16 76/119/16
f 106/161/21 108/165/21 115/179/21
f 6/9/5 4/6/5 2/3/5
f 85/132/12 118/186/12 87/135/12
f 146/228/17 105/159/17 143/224/17
f 157/240/22 110/170/22 153/235/22
f 122/196/5 54/77/5 120/190/5
f 159/242/23 58/87/23 151/233/23
f 78/122/19 115/180/19 79/123/19
f 59/89/24 84/131/24 71/112/24
f 151/233/22 75/118/22 155/238/22
f 83/129/6 117/184/6 85/132/6
f 152/234/9 107/164/9 147/229/9
f 158/241/25 123/199/25 162/245/25
f 161/244/23 111/172/23 157/240/23
f 119/188/3 49/66/3 53/74/3
f 145/227/11 80/125/11 160/243/11
f 121/193/2 51/70/2 52/72/2
f 107/163/26 106/161/26 113/176/26
f 97/146/14 161/244/14 88/136/14
f 107/163/27 116/183/27 109/167/27
f 105/157/28 104/154/28 112/174/28
f 110/169/29 117/185/29 112/174/29
f 111/171/30 118/187/30 117/185/30
f 65/98/20 67/105/20 80/124/20
f 65/99/28 77/121/28 63/95/28
f 77/121/29 75/117/29 61/92/29
f 61/92/30 75/117/30 58/86/30
f 82/128/21 80/124/21 67/105/21
f 73/114/26 86/134/26 82/128/26
f 109/167/24 118/187/24 111/171/24
f 71/112/27 86/134/27 73/114/27
f 8/12/2 3/5/2 4/7/2
f 115/180/7 81/126/7 79/123/7
f 148/230/4 126/206/4 158/241/4
f 120/191/4 121/193/4 122/195/4
f 47/63/4 46/62/4 45/61/4
f 122/197/2 52/73/2 50/67/2
f 147/229/14 109/168/14 161/244/14
f 129/209/3 128/208/3 127/207/3
f 132/212/2 133/213/2 131/211/2
f 32/48/2 27/41/2 28/43/2
f 152/234/9 106/162/9 107/164/9
f 22/33/4 21/32/4 23/34/4
f 68/106/18 65/101/18 63/96/18
f 154/237/5 124/200/5 125/204/5
f 102/152/13 146/228/13 101/151/13
f 83/129/6 112/173/6 117/184/6
f 26/40/3 25/37/3 29/44/3
f 160/243/8 80/125/8 82/127/8
f 2/3/3 1/1/3 5/8/3
f 64/97/19 69/108/19 67/104/19
f 151/233/22 58/87/22 75/118/22
f 140/220/1 142/222/1 141/221/1
f 144/225/17 77/120/17 65/100/17
f 83/129/18 81/126/18 105/160/18
f 90/138/14 159/242/14 89/137/14
f 59/89/24 58/86/24 84/131/24
f 18/28/3 17/25/3 21/32/3
f 60/91/16 71/110/16 73/115/16
f 87/135/15 118/186/15 116/181/15
f 74/116/15 59/88/15 71/111/15
f 76/119/10 114/177/10 113/175/10
f 137/217/4 138/218/4 136/216/4
f 155/238/13 75/118/13 77/120/13
f 72/113/12 61/93/12 59/88/12
f 91/139/9 150/232/9 90/138/9
f 149/231/9 82/127/9 86/133/9
f 143/223/11 105/158/11 108/166/11
f 6/9/5 8/11/5 4/6/5
f 30/45/4 29/44/4 31/46/4
f 16/23/5 12/18/5 10/16/5
f 89/137/23 151/233/23 96/145/23
f 20/30/1 19/29/1 17/26/1
f 103/153/22 153/235/22 102/152/22
f 78/122/19 113/175/19 115/180/19
f 50/68/1 52/71/1 56/80/1
f 24/35/2 23/34/2 19/29/2
f 22/33/5 24/36/5 20/31/5
f 16/24/2 15/22/2 11/17/2
f 56/83/1 154/236/1 54/76/1
f 6/9/4 5/8/4 7/10/4
f 10/16/3 9/13/3 13/20/3
f 98/147/8 99/148/8 156/239/8
f 162/245/1 123/199/1 124/201/1
f 14/21/4 13/20/4 15/22/4
f 39/55/3 40/56/3 38/54/3
f 121/193/4 119/188/4 53/74/4
f 94/143/13 155/238/13 144/225/13
f 113/176/21 106/161/21 115/179/21
f 100/150/11 156/239/11 99/148/11
f 146/228/17 104/155/17 105/159/17
f 92/140/8 149/231/8 91/139/8
f 96/145/22 155/238/22 95/144/22
f 42/58/1 44/60/1 43/59/1
f 54/78/5 148/230/5 120/192/5
f 32/47/5 28/42/5 26/40/5
f 98/147/9 147/229/9 97/146/9
f 101/151/17 143/224/17 100/149/17
f 12/19/1 11/17/1 9/14/1
f 124/202/3 123/198/3 126/205/3
f 152/234/8 108/166/8 106/162/8
f 94/143/17 145/226/17 93/141/17
f 85/132/12 117/184/12 118/186/12
f 56/81/1 52/72/1 51/70/1
f 66/103/7 67/104/7 65/101/7
f 114/178/26 107/163/26 113/176/26
f 120/192/4 158/241/4 119/189/4
f 93/142/11 160/243/11 92/140/11
f 104/154/29 110/169/29 112/174/29
f 110/169/30 111/171/30 117/185/30
f 63/95/29 77/121/29 61/92/29
f 59/89/30 61/92/30 58/86/30
f 69/107/21 82/128/21 67/105/21
f 69/107/26 73/114/26 82/128/26
f 88/136/23 157/240/23 103/153/23
f 119/189/25 162/245/25 56/83/25
f 70/109/6 63/96/6 61/93/6
f 57/85/16 116/182/16 114/177/16
f 150/232/14 86/133/14 84/130/14
f 34/50/2 36/52/2 35/51/2
f 153/235/13 110/170/13 104/155/13
f 62/94/10 73/115/10 69/108/10
f 157/240/22 111/172/22 110/170/22
f 122/196/5 50/69/5 54/77/5
f 159/242/23 84/130/23 58/87/23
f 28/43/1 27/41/1 25/38/1
f 4/7/1 1/2/1 2/4/1
f 158/241/25 126/206/25 123/199/25
f 161/244/23 109/168/23 111/172/23
f 119/188/3 56/82/3 49/66/3
f 145/227/11 65/102/11 80/125/11
f 121/193/2 55/79/2 51/70/2
f 97/146/14 147/229/14 161/244/14
f 107/163/27 114/178/27 116/183/27
f 109/167/24 116/183/24 118/187/24
f 71/112/27 84/131/27 86/134/27
f 8/12/2 7/10/2 3/5/2
f 115/180/7 105/160/7 81/126/7
f 148/230/4 125/204/4 126/206/4
f 120/191/4 119/188/4 121/193/4
f 47/63/4 48/64/4 46/62/4
f 122/197/2 121/194/2 52/73/2
f 147/229/14 107/164/14 109/168/14
f 129/209/3 130/210/3 128/208/3
f 132/212/2 134/214/2 133/213/2
f 32/48/2 31/46/2 27/41/2
f 102/152/13 153/235/13 146/228/13
f 90/138/14 150/232/14 159/242/14
f 91/139/9 149/231/9 150/232/9
f 89/137/23 159/242/23 151/233/23
f 103/153/22 157/240/22 153/235/22
f 56/83/1 162/245/1 154/236/1
f 94/143/13 95/144/13 155/238/13
f 100/150/11 143/223/11 156/239/11
f 92/140/8 160/243/8 149/231/8
f 96/145/22 151/233/22 155/238/22
f 54/78/5 154/237/5 148/230/5
f 98/147/9 152/234/9 147/229/9
f 101/151/17 146/228/17 143/224/17
f 152/234/8 156/239/8 108/166/8
f 94/143/17 144/225/17 145/226/17
f 120/192/4 148/230/4 158/241/4
f 93/142/11 145/227/11 160/243/11
f 88/136/23 161/244/23 157/240/23
f 119/189/25 158/241/25 162/245/25
f 4/7/1 3/5/1 1/2/1
