# Blender 3.4.1
# www.blender.org
o Cube_Cube.001
v -0.5 1 1.5
v -0.5 2 1.5
v -0.5 1 -1.5
v -0.5 2 -1.5
v 0.5 1 1.5
v 0.5 2 1.5
v 0.5 1 -1.5
v 0.5 2 -1.5
v -0.625 -0 1
v 0.625 -0 1
v -0.625 0 -1
v 0.625 0 -1
v -0.625 3 1
v 0.625 3 1
v -0.625 3 -1
v 0.625 3 -1
v -1.5 2.125 1
v -1.5 0.875 1
v -1.5 2.125 -1
v -1.5 0.875 -1
v 1.5 2.125 1
v 1.5 0.875 1
v 1.5 2.125 -1
v 1.5 0.875 -1
v -0.5 0.25 1
v 0.5 0.25 1
v -0.5 0.25 -1
v 0.5 0.25 -1
v -0.5 2.75 1
v 0.5 2.75 1
v -0.5 2.75 -1
v 0.5 2.75 -1
v -1.25 2 1
v -1.25 1 1
v -1.25 2 -1
v -1.25 1 -1
v 1.25 2 1
v 1.25 1 1
v 1.25 2 -1
v 1.25 1 -1
v -0.35355 0.79289 1
v -0.70711 1.14645 1
v -0.70711 1.14645 -1
v -0.35355 0.79289 -1
v -1.06066 0.79289 1.25
v -1.23744 0.96967 1
v -0.53033 0.26256 1
v -0.70711 0.43934 1.25
v -1.23744 0.96967 -1
v -1.06066 0.79289 -1.25
v -0.70711 0.43934 -1.25
v -0.53033 0.26256 -1
v -0.79549 1.05806 -1.25
v -0.97227 1.23483 -1
v -0.97227 1.23483 1
v -0.79549 1.05806 1.25
v -0.44194 0.70451 1.25
v -0.26516 0.52773 1
v -0.26516 0.52773 -1
v -0.44194 0.70451 -1.25
v -0.44194 0.70451 -1
v -0.79549 1.05806 -1
v -0.79549 1.05806 1
v -0.44194 0.70451 1
v 0.35355 2.20711 1
v 0.70711 1.85355 1
v 0.70711 1.85355 -1
v 0.35355 2.20711 -1
v 1.06066 2.20711 1.25
v 1.23744 2.03033 1
v 0.53033 2.73744 1
v 0.70711 2.56066 1.25
v 1.23744 2.03033 -1
v 1.06066 2.20711 -1.25
v 0.70711 2.56066 -1.25
v 0.53033 2.73744 -1
v 0.79549 1.94194 -1.25
v 0.97227 1.76517 -1
v 0.97227 1.76517 1
v 0.79549 1.94194 1.25
v 0.44194 2.29549 1.25
v 0.26516 2.47227 1
v 0.26516 2.47227 -1
v 0.44194 2.29549 -1.25
v 0.44194 2.29549 -1
v 0.79549 1.94194 -1
v 0.79549 1.94194 1
v 0.44194 2.29549 1
v -0.70711 1.85355 1
v -0.35355 2.20711 1
v -0.35355 2.20711 -1
v -0.70711 1.85355 -1
v -0.70711 2.56066 1.25
v -0.53033 2.73744 1
v -1.23744 2.03033 1
v -1.06066 2.20711 1.25
v -0.53033 2.73744 -1
v -0.70711 2.56066 -1.25
v -1.06066 2.20711 -1.25
v -1.23744 2.03033 -1
v -0.44194 2.29549 -1.25
v -0.26516 2.47227 -1
v -0.26516 2.47227 1
v -0.44194 2.29549 1.25
v -0.79549 1.94194 1.25
v -0.97227 1.76517 1
v -0.97227 1.76517 -1
v -0.79549 1.94194 -1.25
v -0.79549 1.94194 -1
v -0.44194 2.29549 -1
v -0.44194 2.29549 1
v -0.79549 1.94194 1
v 0.70711 1.14645 1
v 0.35355 0.79289 1
v 0.35355 0.79289 -1
v 0.70711 1.14645 -1
v 0.70711 0.43934 1.25
v 0.53033 0.26256 1
v 1.23744 0.96967 1
v 1.06066 0.79289 1.25
v 0.53033 0.26256 -1
v 0.70711 0.43934 -1.25
v 1.06066 0.79289 -1.25
v 1.23744 0.96967 -1
v 0.44194 0.70451 -1.25
v 0.26516 0.52773 -1
v 0.26516 0.52773 1
v 0.44194 0.70451 1.25
v 0.79549 1.05806 1.25
v 0.97227 1.23483 1
v 0.97227 1.23483 -1
v 0.79549 1.05806 -1.25
v 0.79549 1.05806 -1
v 0.44194 0.70451 -1
v 0.44194 0.70451 1
v 0.79549 1.05806 1
v -0.25 0.25 0.75
v 0.25 0.25 0.75
v -0.25 0.25 0.25
v 0.25 0.25 0.25
v -0.25 1 0.25
v -0.25 1 0.75
v 0.25 1 0.75
v 0.25 1 0.25
v -0.25 0.25 -0.25
v 0.25 0.25 -0.25
v -0.25 0.25 -0.75
v 0.25 0.25 -0.75
v -0.25 1 -0.75
v -0.25 1 -0.25
v 0.25 1 -0.25
v 0.25 1 -0.75
v 0.25 2.75 0.75
v -0.25 2.75 0.75
v 0.25 2.75 0.25
v -0.25 2.75 0.25
v 0.25 2 0.25
v 0.25 2 0.75
v -0.25 2 0.75
v -0.25 2 0.25
v 0.25 2.75 -0.25
v -0.25 2.75 -0.25
v 0.25 2.75 -0.75
v -0.25 2.75 -0.75
v 0.25 2 -0.75
v 0.25 2 -0.25
v -0.25 2 -0.25
v -0.25 2 -0.75
v -1.25 1.75 0.75
v -1.25 1.25 0.75
v -1.25 1.75 0.25
v -1.25 1.25 0.25
v -0.5 1.75 0.25
v -0.5 1.75 0.75
v -0.5 1.25 0.75
v -0.5 1.25 0.25
v -1.25 1.75 -0.25
v -1.25 1.25 -0.25
v -1.25 1.75 -0.75
v -1.25 1.25 -0.75
v -0.5 1.75 -0.75
v -0.5 1.75 -0.25
v -0.5 1.25 -0.25
v -0.5 1.25 -0.75
v 1.25 1.25 0.75
v 1.25 1.75 0.75
v 1.25 1.25 0.25
v 1.25 1.75 0.25
v 0.5 1.25 0.25
v 0.5 1.25 0.75
v 0.5 1.75 0.75
v 0.5 1.75 0.25
v 1.25 1.25 -0.25
v 1.25 1.75 -0.25
v 1.25 1.25 -0.75
v 1.25 1.75 -0.75
v 0.5 1.25 -0.75
v 0.5 1.25 -0.25
v 0.5 1.75 -0.25
v 0.5 1.75 -0.75
v -0.5 1 0
v -0.625 0 0
v -1.5 2.125 0
v -0.5 0.25 0
v -1.25 2 0
v -0.35355 0.79289 0
v 0.35355 2.20711 0
v -0.70711 1.85355 0
v 0.70711 1.14645 0
v -0.5 2 0
v 0.625 0 0
v -1.5 0.875 0
v 0.5 0.25 0
v -1.25 1 0
v -0.70711 1.14645 0
v -0.26516 0.52773 0
v 0.70711 1.85355 0
v 0.26516 2.47227 0
v -0.35355 2.20711 0
v -0.97227 1.76517 0
v 0.35355 0.79289 0
v 0.97227 1.23483 0
v 0.5 1 0
v -0.625 3 0
v 1.5 2.125 0
v -0.5 2.75 0
v 1.25 2 0
v -0.44194 0.70451 0
v 0.44194 2.29549 0
v -0.79549 1.94194 0
v 0.79549 1.05806 0
v 0.97227 1.76517 0
v 0.5 2 0
v 0.625 3 0
v 1.5 0.875 0
v 0.5 2.75 0
v 1.25 1 0
v -1.23744 0.96967 0
v -0.97227 1.23483 0
v -0.79549 1.05806 0
v 1.23744 2.03033 0
v 0.79549 1.94194 0
v -0.53033 2.73744 0
v -0.26516 2.47227 0
v -0.44194 2.29549 0
v 0.53033 0.26256 0
v 0.44194 0.70451 0
v -0.53033 0.26256 0
v 0.53033 2.73744 0
v -1.23744 2.03033 0
v 1.23744 0.96967 0
v 0.26516 0.52773 0
vn -0.0000 -1.0000 -0.0000
vn 0.7071 0.7071 -0.0000
vn -0.5000 0.5000 0.7071
vn -0.7071 -0.7071 -0.0000
vn -0.0000 -0.0000 -1.0000
vn -1.0000 -0.0000 -0.0000
vn 0.5000 0.5000 0.7071
vn 0.7071 -0.7071 -0.0000
vn 1.0000 -0.0000 -0.0000
vn -0.7071 0.7071 -0.0000
vn -0.0000 1.0000 -0.0000
vn -0.0000 -0.0000 1.0000
vn -0.5000 0.5000 -0.7071
vn 0.5000 -0.5000 -0.7071
vn -0.5000 -0.5000 -0.7071
vn 0.5000 -0.5000 0.7071
vn -0.5000 -0.5000 0.7071
vn 0.5000 0.5000 -0.7071
vt 0.10526 0.3
vt 0 0.2
vt 0.10526 0.2
vt 0.52632 0.2
vt 0.42105 0.3
vt 0.42105 0.2
vt 0.10526 0.4
vt 0.10526 0
vt 0 0.1
vt 0.10526 0.1
vt 0.52632 0.1
vt 0.42105 0.4
vt 0.42105 0
vt 0.42105 0.1
vt 0.76316 0
vt 0.76316 1
vt 0.76316 0.125
vt 0.97368 1
vt 0.97368 0
vt 0.97368 0.125
vt 0.76316 0.625
vt 0.76316 0.5
vt 0.97368 0.625
vt 0.97368 0.5
vt 0.76316 0.75
vt 0.76316 0.875
vt 0.97368 0.75
vt 0.97368 0.875
vt 0.76316 0.375
vt 0.76316 0.25
vt 0.97368 0.375
vt 0.97368 0.25
vt 0.73684 0.9875
vt 0.73684 0.0125
vt 0.73684 0.1375
vt 0.73684 0.1125
vt 1 0.0125
vt 0.52632 0.0125
vt 1 0.9875
vt 0.52632 0.9875
vt 0.52632 0.1375
vt 0.52632 0.1125
vt 1 0.1375
vt 1 0.1125
vt 0.73684 0.6125
vt 0.73684 0.6375
vt 0.73684 0.5125
vt 0.73684 0.4875
vt 1 0.6125
vt 0.52632 0.6125
vt 1 0.6375
vt 0.52632 0.6375
vt 0.52632 0.4875
vt 1 0.4875
vt 1 0.5125
vt 0.52632 0.5125
vt 0.73684 0.7375
vt 0.73684 0.7625
vt 0.73684 0.8625
vt 0.73684 0.8875
vt 1 0.76875
vt 0.52632 0.7625
vt 1 0.7375
vt 0.52632 0.7375
vt 1 0.8875
vt 0.52632 0.8625
vt 0.52632 0.8875
vt 1 0.8625
vt 0.73684 0.3625
vt 0.73684 0.3875
vt 0.73684 0.2625
vt 0.73684 0.2375
vt 0.52632 0.3625
vt 1 0.3875
vt 1 0.3625
vt 0.52632 0.3875
vt 0.52632 0.2375
vt 1 0.2375
vt 1 0.2625
vt 0.52632 0.2625
vt 0.22368 0.4125
vt 0.22368 0.4625
vt 0.43421 0.4625
vt 0.43421 0.4125
vt 0.03947 0.5
vt 0 0.6875
vt 0.06579 0.75
vt 0.06579 0.475
vt 0 0.7125
vt 0.06579 0.575
vt -0 0.6125
vt 0.03947 0.55
vt 0 0.6375
vt 0.3421 0.7125
vt 0.27632 0.75
vt 0.27632 0.475
vt 0.30263 0.5
vt 0.3421 0.6875
vt 0.30263 0.55
vt 0.3421 0.6375
vt 0.3421 0.6125
vt 0.27632 0.575
vt 0.30263 0.6875
vt 0.30263 0.7125
vt 0.27632 0.7125
vt 0.03947 0.7125
vt 0.06579 0.7125
vt 0.03947 0.6875
vt 0.03947 0.6375
vt 0.03947 0.6125
vt 0.06579 0.6125
vt 0.30263 0.6125
vt 0.27632 0.6125
vt 0.30263 0.6375
vt 0.43421 0.4
vt 0.44737 0.4125
vt 0.44737 0.4625
vt 0.43421 0.475
vt 0.21053 0.4625
vt 0.22368 0.475
vt 0.21053 0.4125
vt 0.22368 0.4
vt 0.22368 0.4125
vt 0.22368 0.4625
vt 0.43421 0.4625
vt 0.43421 0.4125
vt 0.03947 0.5
vt -0 0.6875
vt 0 0.7125
vt 0.06579 0.75
vt 0.06579 0.475
vt -0 0.6125
vt 0.06579 0.575
vt 0.03947 0.55
vt -0 0.6375
vt 0.3421 0.7125
vt 0.27632 0.75
vt 0.27632 0.475
vt 0.30263 0.5
vt 0.3421 0.6875
vt 0.30263 0.55
vt 0.3421 0.6375
vt 0.27632 0.575
vt 0.3421 0.6125
vt 0.30263 0.6875
vt 0.30263 0.7125
vt 0.27632 0.7125
vt 0.03947 0.7125
vt 0.06579 0.7125
vt 0.03947 0.6875
vt 0.03947 0.6375
vt 0.03947 0.6125
vt 0.06579 0.6125
vt 0.30263 0.6125
vt 0.27632 0.6125
vt 0.30263 0.6375
vt 0.43421 0.4
vt 0.44737 0.4125
vt 0.44737 0.4625
vt 0.43421 0.475
vt 0.21053 0.4625
vt 0.22368 0.475
vt 0.21053 0.4125
vt 0.22368 0.4
vt 0.22368 0.4125
vt 0.22368 0.4625
vt 0.43421 0.4625
vt 0.43421 0.4125
vt -0 0.6875
vt 0.03947 0.5
vt 0 0.7125
vt 0.06579 0.75
vt 0.06579 0.475
vt 0.06579 0.575
vt -0 0.6125
vt 0.03947 0.55
vt -0 0.6375
vt 0.3421 0.7125
vt 0.27632 0.75
vt 0.27632 0.475
vt 0.3421 0.6875
vt 0.30263 0.5
vt 0.30263 0.55
vt 0.3421 0.6375
vt 0.3421 0.6125
vt 0.27632 0.575
vt 0.30263 0.6875
vt 0.30263 0.7125
vt 0.27632 0.7125
vt 0.03947 0.7125
vt 0.06579 0.7125
vt 0.03947 0.6875
vt 0.03947 0.6375
vt 0.03947 0.6125
vt 0.06579 0.6125
vt 0.30263 0.6125
vt 0.27632 0.6125
vt 0.30263 0.6375
vt 0.43421 0.4
vt 0.44737 0.4125
vt 0.44737 0.4625
vt 0.43421 0.475
vt 0.21053 0.4625
vt 0.22368 0.475
vt 0.21053 0.4125
vt 0.22368 0.4
vt 0.22368 0.4125
vt 0.22368 0.4625
vt 0.43421 0.4625
vt 0.43421 0.4125
vt 0.03947 0.5
vt -0 0.6875
vt 0.06579 0.75
vt 0 0.7125
vt 0.06579 0.475
vt 0 0.6125
vt 0.06579 0.575
vt 0 0.6375
vt 0.03947 0.55
vt 0.3421 0.7125
vt 0.27632 0.75
vt 0.27632 0.475
vt 0.30263 0.5
vt 0.3421 0.6875
vt 0.3421 0.6375
vt 0.30263 0.55
vt 0.3421 0.6125
vt 0.27632 0.575
vt 0.30263 0.6875
vt 0.27632 0.7125
vt 0.30263 0.7125
vt 0.06579 0.7125
vt 0.03947 0.7125
vt 0.03947 0.6875
vt 0.03947 0.6375
vt 0.03947 0.6125
vt 0.06579 0.6125
vt 0.30263 0.6125
vt 0.27632 0.6125
vt 0.30263 0.6375
vt 0.43421 0.4
vt 0.44737 0.4125
vt 0.44737 0.4625
vt 0.43421 0.475
vt 0.22368 0.475
vt 0.21053 0.4625
vt 0.21053 0.4125
vt 0.22368 0.4
vt 0.1579 0.475
vt 0.10526 0.475
vt -0 0.475
vt 0.21053 0.475
vt 0.05263 0.475
vt -0 0.4
vt 0.21053 0.4
vt 0.1579 0.4
vt 0.10526 0.4
vt 0.05263 0.4
vt 0.1579 0.475
vt 0.10526 0.475
vt -0 0.475
vt 0.21053 0.475
vt 0.05263 0.475
vt 0.21053 0.4
vt -0 0.4
vt 0.1579 0.4
vt 0.10526 0.4
vt 0.05263 0.4
vt 0.1579 0.475
vt 0.10526 0.475
vt -0 0.475
vt 0.21053 0.475
vt 0.05263 0.475
vt 0.21053 0.4
vt -0 0.4
vt 0.1579 0.4
vt 0.10526 0.4
vt 0.05263 0.4
vt 0.1579 0.475
vt 0.10526 0.475
vt -0 0.475
vt 0.21053 0.475
vt 0.05263 0.475
vt 0.21053 0.4
vt -0 0.4
vt 0.1579 0.4
vt 0.10526 0.4
vt 0.05263 0.4
vt 0.1579 0.475
vt 0.10526 0.475
vt -0 0.475
vt 0.21053 0.475
vt 0.05263 0.475
vt 0.21053 0.4
vt -0 0.4
vt 0.1579 0.4
vt 0.10526 0.4
vt 0.05263 0.4
vt 0.1579 0.475
vt 0.10526 0.475
vt -0 0.475
vt 0.21053 0.475
vt 0.05263 0.475
vt 0.21053 0.4
vt -0 0.4
vt 0.1579 0.4
vt 0.10526 0.4
vt 0.05263 0.4
vt 0.1579 0.475
vt 0.10526 0.475
vt -0 0.475
vt 0.21053 0.475
vt 0.05263 0.475
vt -0 0.4
vt 0.21053 0.4
vt 0.1579 0.4
vt 0.10526 0.4
vt 0.05263 0.4
vt 0.1579 0.475
vt 0.10526 0.475
vt 0.21053 0.475
vt -0 0.475
vt 0.05263 0.475
vt 0.21053 0.4
vt -0 0.4
vt 0.1579 0.4
vt 0.10526 0.4
vt 0.05263 0.4
vt 0.26316 0.3
vt 0.86842 0
vt 0.86842 1
vt 0.86842 0.75
vt 0.63158 0.0125
vt 0.63158 0.9875
vt 0.63158 0.7625
vt 0.63158 0.7375
vt 0.32895 0.4125
vt 0.32895 0.4125
vt 0.32895 0.4125
vt 0.32895 0.4125
vt 0.26316 0.2
vt 0.86842 0.125
vt 0.86842 0.875
vt 0.63158 0.1375
vt 0.63158 0.1125
vt 0.63158 0.8625
vt 0.63158 0.8875
vt 0.32895 0.4625
vt 0.17105 0.6125
vt 0.32895 0.4625
vt 0.17105 0.6125
vt 0.32895 0.4625
vt 0.17105 0.6125
vt 0.32895 0.4625
vt 0.17105 0.6125
vt 0.26316 0
vt 0.26316 0.4
vt 0.86842 0.625
vt 0.86842 0.375
vt 0.63158 0.6375
vt 0.63158 0.6125
vt 0.63158 0.3625
vt 0.63158 0.3875
vt 0.32895 0.4
vt 0.32895 0.4
vt 0.32895 0.4
vt 0.32895 0.4
vt 0.17105 0.7125
vt 0.26316 0.1
vt 0.86842 0.5
vt 0.86842 0.25
vt 0.63158 0.4875
vt 0.63158 0.5125
vt 0.63158 0.2375
vt 0.63158 0.2625
vt 0.17105 0.75
vt 0.17105 0.475
vt 0.17105 0.7125
vt 0.32895 0.475
vt 0.17105 0.475
vt 0.17105 0.75
vt 0.32895 0.475
vt 0.17105 0.75
vt 0.17105 0.475
vt 0.17105 0.7125
vt 0.32895 0.475
vt 0.17105 0.475
vt 0.17105 0.75
vt 0.32895 0.475
vt 0.17105 0.575
vt 0.17105 0.575
vt 0.17105 0.575
vt 0.17105 0.575
vt 0.17105 0.7125
s 0
f 211/342/1 9/15/1 202/330/1
f 59/113/2 239/378/2 216/349/2
f 46/89/3 56/108/3 55/106/3
f 5/7/1 201/329/1 223/357/1
f 212/343/4 11/18/4 202/331/4
f 8/14/5 3/4/5 4/6/5
f 212/343/6 17/25/6 203/332/6
f 129/235/7 119/216/7 130/236/7
f 22/30/8 211/342/8 235/371/8
f 144/258/9 138/250/9 140/253/9
f 207/338/10 88/164/10 229/365/10
f 28/42/11 204/333/11 213/345/11
f 129/235/12 117/212/12 120/218/12
f 4/6/6 201/329/6 210/341/6
f 36/66/9 205/335/9 214/346/9
f 222/355/2 119/217/2 251/393/2
f 237/374/10 28/41/10 213/344/10
f 220/353/4 95/174/4 250/392/4
f 44/84/2 215/348/2 206/337/2
f 53/103/13 49/94/13 54/104/13
f 68/126/4 217/350/4 207/338/4
f 198/326/1 195/321/1 193/319/1
f 30/48/12 21/29/12 14/22/12
f 36/68/5 19/27/5 35/61/5
f 28/44/5 11/19/5 27/37/5
f 32/55/5 15/23/5 16/24/5
f 25/33/12 18/26/12 9/16/12
f 29/45/12 14/22/12 13/21/12
f 39/74/5 16/24/5 23/31/5
f 37/69/12 22/30/12 21/29/12
f 25/34/12 10/17/12 26/36/12
f 28/43/5 24/32/5 12/20/5
f 220/353/8 103/191/8 106/195/8
f 27/39/5 20/28/5 36/65/5
f 33/58/12 18/26/12 34/59/12
f 33/57/12 13/21/12 17/25/12
f 40/79/5 23/31/5 24/32/5
f 31/51/5 19/27/5 15/23/5
f 16/24/11 224/358/11 234/370/11
f 101/187/5 99/184/5 98/181/5
f 60/114/2 53/103/2 54/105/2
f 51/100/14 59/112/14 52/101/14
f 131/239/10 252/394/10 222/355/10
f 47/90/4 48/92/4 46/88/4
f 53/103/5 51/100/5 50/98/5
f 47/90/4 238/377/4 248/390/4
f 34/60/2 204/334/2 214/347/2
f 48/93/12 56/108/12 45/86/12
f 216/349/8 47/90/8 248/390/8
f 95/174/10 243/384/10 250/392/10
f 38/72/12 10/17/12 22/30/12
f 227/363/4 30/48/4 236/372/4
f 166/286/9 163/282/9 161/279/9
f 63/119/12 41/81/12 42/82/12
f 84/156/4 77/145/4 78/147/4
f 237/375/6 37/69/6 227/362/6
f 100/185/15 108/198/15 107/196/15
f 71/133/2 72/134/2 70/131/2
f 65/123/12 87/161/12 88/163/12
f 103/190/7 93/169/7 104/192/7
f 73/136/14 77/145/14 74/140/14
f 83/154/13 75/142/13 84/156/13
f 219/352/2 110/202/2 245/386/2
f 232/368/8 73/137/8 241/381/8
f 67/125/5 85/158/5 86/159/5
f 92/168/8 219/352/8 208/339/8
f 23/31/2 234/370/2 225/359/2
f 91/167/5 109/200/5 110/201/5
f 74/140/5 84/156/5 75/142/5
f 57/109/16 47/91/16 58/110/16
f 108/198/8 101/187/8 102/189/8
f 236/373/1 29/45/1 226/361/1
f 96/177/12 104/192/12 93/169/12
f 95/174/10 96/176/10 94/173/10
f 82/152/3 72/135/3 71/132/3
f 105/193/17 95/175/17 106/194/17
f 70/129/16 80/150/16 79/148/16
f 102/188/18 98/181/18 97/178/18
f 215/348/10 62/118/10 240/379/10
f 122/224/5 132/240/5 123/225/5
f 115/209/5 133/242/5 134/243/5
f 116/210/10 221/354/10 209/340/10
f 208/339/4 112/206/4 230/366/4
f 89/165/12 111/203/12 112/205/12
f 132/240/10 125/229/10 126/230/10
f 123/225/18 131/238/18 124/227/18
f 221/354/4 134/244/4 247/389/4
f 119/217/8 120/219/8 118/215/8
f 209/340/2 136/248/2 231/367/2
f 24/32/9 225/359/9 235/371/9
f 81/151/12 69/128/12 72/135/12
f 252/394/4 121/221/4 246/388/4
f 119/217/8 246/387/8 251/393/8
f 141/254/5 140/253/5 139/251/5
f 43/83/5 61/116/5 62/117/5
f 142/256/6 139/252/6 137/249/6
f 126/231/15 122/224/15 121/220/15
f 113/207/12 135/246/12 136/247/12
f 160/278/6 154/270/6 156/273/6
f 158/276/9 155/272/9 153/269/9
f 152/268/9 146/260/9 148/263/9
f 150/266/6 147/262/6 145/259/6
f 149/265/5 148/263/5 147/261/5
f 151/267/12 145/259/12 146/260/12
f 157/275/5 156/273/5 155/271/5
f 159/277/12 153/269/12 154/270/12
f 176/298/1 170/290/1 172/293/1
f 206/337/8 64/122/8 228/364/8
f 168/288/6 162/280/6 164/283/6
f 174/296/11 171/292/11 169/289/11
f 165/285/5 164/283/5 163/281/5
f 167/287/12 161/279/12 162/280/12
f 173/295/5 172/293/5 171/291/5
f 175/297/12 169/289/12 170/290/12
f 187/311/5 192/318/5 188/313/5
f 190/316/1 187/312/1 185/309/1
f 184/308/1 178/300/1 180/303/1
f 182/306/11 179/302/11 177/299/11
f 181/305/5 180/303/5 179/301/5
f 183/307/12 177/299/12 178/300/12
f 71/133/2 241/380/2 249/391/2
f 191/317/12 185/309/12 186/310/12
f 6/10/9 223/356/9 233/369/9
f 203/332/10 13/21/10 224/358/10
f 195/322/5 200/328/5 196/323/5
f 35/64/8 226/360/8 205/336/8
f 192/318/11 186/310/11 188/313/11
f 199/327/12 193/319/12 194/320/12
f 200/328/11 194/320/11 196/323/11
f 244/385/2 97/179/2 243/383/2
f 103/190/7 94/171/7 93/169/7
f 237/374/10 40/77/10 28/41/10
f 68/126/10 229/365/10 85/157/10
f 81/151/12 80/150/12 69/128/12
f 24/32/9 23/31/9 225/359/9
f 220/353/4 106/195/4 95/174/4
f 65/123/12 66/124/12 87/161/12
f 214/346/9 33/58/9 34/59/9
f 100/185/15 99/184/15 108/198/15
f 212/343/4 20/28/4 11/18/4
f 102/188/18 101/187/18 98/181/18
f 237/375/6 38/71/6 37/69/6
f 209/340/2 113/207/2 136/248/2
f 73/136/14 78/146/14 77/145/14
f 63/119/12 64/121/12 41/81/12
f 129/235/7 120/218/7 119/216/7
f 166/286/9 165/284/9 163/282/9
f 144/258/9 143/257/9 138/250/9
f 89/165/12 90/166/12 111/203/12
f 227/363/4 37/70/4 30/48/4
f 122/224/5 125/229/5 132/240/5
f 219/352/2 91/167/2 110/202/2
f 249/391/2 73/138/2 76/143/2
f 55/107/10 238/376/10 46/87/10
f 233/369/9 7/13/9 8/14/9
f 210/341/11 8/14/11 4/6/11
f 114/208/4 247/389/4 135/245/4
f 103/191/2 243/383/2 94/172/2
f 116/210/2 231/367/2 133/241/2
f 66/124/8 242/382/8 87/162/8
f 205/336/8 29/46/8 33/57/8
f 235/371/9 21/29/9 22/30/9
f 218/351/4 79/149/4 82/153/4
f 251/393/8 121/222/8 124/228/8
f 83/155/10 249/391/10 76/143/10
f 44/84/8 228/364/8 61/115/8
f 19/27/10 224/358/10 15/23/10
f 127/232/4 246/388/4 118/213/4
f 210/341/6 1/1/6 2/3/6
f 38/72/10 213/344/10 26/35/10
f 239/378/10 49/95/10 238/376/10
f 55/107/2 56/108/2 58/111/2
f 56/108/2 57/109/2 58/111/2
f 222/355/2 130/237/2 119/217/2
f 59/113/2 60/114/2 54/105/2
f 4/6/6 3/5/6 201/329/6
f 95/174/10 94/173/10 243/384/10
f 48/92/4 45/85/4 46/88/4
f 218/351/10 71/133/10 249/391/10
f 49/96/4 50/97/4 52/102/4
f 50/97/4 51/99/4 52/102/4
f 28/42/11 27/38/11 204/333/11
f 38/72/12 26/35/12 10/17/12
f 129/235/12 128/234/12 117/212/12
f 123/225/18 132/240/18 131/238/18
f 213/345/11 25/34/11 26/36/11
f 36/66/9 35/62/9 205/335/9
f 220/353/8 244/385/8 103/191/8
f 92/168/4 230/366/4 109/199/4
f 115/209/5 116/210/5 133/242/5
f 208/339/4 89/165/4 112/206/4
f 209/340/10 114/208/10 113/207/10
f 217/350/8 86/160/8 242/382/8
f 79/149/4 80/150/4 82/153/4
f 80/150/4 81/151/4 82/153/4
f 25/34/12 9/15/12 10/17/12
f 83/155/4 84/156/4 78/147/4
f 207/338/10 65/123/10 88/164/10
f 207/338/4 66/124/4 65/123/4
f 72/134/2 69/127/2 70/131/2
f 2/3/11 233/369/11 210/341/11
f 73/138/2 74/139/2 76/143/2
f 74/139/2 75/141/2 76/143/2
f 44/84/2 43/83/2 215/348/2
f 40/80/6 227/362/6 39/73/6
f 214/347/2 27/40/2 36/67/2
f 39/76/4 236/372/4 32/53/4
f 248/390/4 49/96/4 52/102/4
f 39/74/5 32/54/5 16/24/5
f 37/69/12 38/71/12 22/30/12
f 90/166/2 245/386/2 111/204/2
f 70/129/16 69/128/16 80/150/16
f 215/348/10 43/83/10 62/118/10
f 79/149/8 241/381/8 70/130/8
f 206/337/2 42/82/2 41/81/2
f 221/354/4 115/209/4 134/244/4
f 143/257/12 137/249/12 138/250/12
f 103/191/8 104/192/8 106/195/8
f 104/192/8 105/193/8 106/195/8
f 53/103/5 60/114/5 51/100/5
f 107/197/8 108/198/8 102/189/8
f 22/30/8 10/17/8 211/342/8
f 107/197/4 250/392/4 100/186/4
f 96/176/10 93/170/10 94/173/10
f 83/155/4 232/368/4 218/351/4
f 97/180/10 98/182/10 100/186/10
f 98/182/10 99/183/10 100/186/10
f 28/43/5 40/78/5 24/32/5
f 250/392/10 97/180/10 100/186/10
f 234/370/11 13/21/11 14/22/11
f 222/355/10 127/232/10 130/237/10
f 59/113/8 248/390/8 52/102/8
f 27/39/5 11/18/5 20/28/5
f 29/45/12 30/47/12 14/22/12
f 225/359/2 14/22/2 21/29/2
f 82/152/3 81/151/3 72/135/3
f 105/193/17 96/177/17 95/175/17
f 208/339/8 90/166/8 89/165/8
f 117/212/17 127/233/17 118/214/17
f 127/232/10 128/234/10 130/237/10
f 128/234/10 129/235/10 130/237/10
f 216/349/8 58/111/8 47/90/8
f 131/239/10 132/240/10 126/230/10
f 212/343/6 18/26/6 17/25/6
f 25/33/12 34/60/12 18/26/12
f 120/219/8 117/211/8 118/215/8
f 107/197/8 244/385/8 220/353/8
f 121/222/8 122/223/8 124/228/8
f 122/223/8 123/226/8 124/228/8
f 47/90/4 46/88/4 238/377/4
f 236/373/1 30/47/1 29/45/1
f 8/14/5 7/11/5 3/4/5
f 131/239/2 251/393/2 124/228/2
f 48/93/12 57/109/12 56/108/12
f 34/60/2 25/33/2 204/334/2
f 32/55/5 31/49/5 15/23/5
f 42/82/10 240/379/10 63/120/10
f 57/109/16 48/93/16 47/91/16
f 96/177/12 105/193/12 104/192/12
f 32/56/1 226/361/1 31/50/1
f 46/89/3 45/86/3 56/108/3
f 91/167/5 92/168/5 109/200/5
f 5/7/1 1/1/1 201/329/1
f 74/140/5 77/145/5 84/156/5
f 28/44/5 12/20/5 11/19/5
f 131/239/10 126/230/10 252/394/10
f 36/68/5 20/28/5 19/27/5
f 51/100/14 60/114/14 59/112/14
f 211/342/1 10/17/1 9/15/1
f 116/210/10 115/209/10 221/354/10
f 59/113/2 54/105/2 239/378/2
f 23/31/2 16/24/2 234/370/2
f 30/48/12 37/70/12 21/29/12
f 101/187/5 108/198/5 99/184/5
f 198/326/1 197/324/1 195/321/1
f 16/24/11 15/23/11 224/358/11
f 216/349/2 55/107/2 58/111/2
f 67/125/5 68/126/5 85/158/5
f 12/20/1 202/330/1 11/19/1
f 92/168/8 91/167/8 219/352/8
f 68/126/4 67/125/4 217/350/4
f 31/51/5 35/63/5 19/27/5
f 53/103/13 50/98/13 49/94/13
f 40/79/5 39/75/5 23/31/5
f 235/371/8 12/20/8 24/32/8
f 83/154/13 76/144/13 75/142/13
f 18/26/4 202/331/4 9/16/4
f 232/368/8 78/147/8 73/137/8
f 223/357/1 3/5/1 7/12/1
f 33/57/12 29/46/12 13/21/12
f 20/28/6 203/332/6 19/27/6
f 33/58/12 17/25/12 18/26/12
f 2/3/12 5/9/12 6/10/12
f 252/394/4 126/230/4 121/221/4
f 119/217/8 118/215/8 246/387/8
f 141/254/5 144/258/5 140/253/5
f 43/83/5 44/84/5 61/116/5
f 142/256/6 141/255/6 139/252/6
f 126/231/15 125/229/15 122/224/15
f 113/207/12 114/208/12 135/246/12
f 160/278/6 159/277/6 154/270/6
f 158/276/9 157/274/9 155/272/9
f 152/268/9 151/267/9 146/260/9
f 150/266/6 149/264/6 147/262/6
f 149/265/5 152/268/5 148/263/5
f 151/267/12 150/266/12 145/259/12
f 157/275/5 160/278/5 156/273/5
f 159/277/12 158/276/12 153/269/12
f 176/298/1 175/297/1 170/290/1
f 206/337/8 41/81/8 64/122/8
f 168/288/6 167/287/6 162/280/6
f 174/296/11 173/294/11 171/292/11
f 165/285/5 168/288/5 164/283/5
f 167/287/12 166/286/12 161/279/12
f 173/295/5 176/298/5 172/293/5
f 175/297/12 174/296/12 169/289/12
f 187/311/5 189/314/5 192/318/5
f 190/316/1 189/315/1 187/312/1
f 184/308/1 183/307/1 178/300/1
f 182/306/11 181/304/11 179/302/11
f 181/305/5 184/308/5 180/303/5
f 183/307/12 182/306/12 177/299/12
f 71/133/2 70/131/2 241/380/2
f 191/317/12 190/316/12 185/309/12
f 6/10/9 5/8/9 223/356/9
f 203/332/10 17/25/10 13/21/10
f 195/322/5 197/325/5 200/328/5
f 35/64/8 31/52/8 226/360/8
f 192/318/11 191/317/11 186/310/11
f 199/327/12 198/326/12 193/319/12
f 200/328/11 199/327/11 194/320/11
f 244/385/2 102/189/2 97/179/2
f 68/126/10 207/338/10 229/365/10
f 214/346/9 205/335/9 33/58/9
f 249/391/2 241/380/2 73/138/2
f 55/107/10 239/378/10 238/376/10
f 233/369/9 223/356/9 7/13/9
f 210/341/11 233/369/11 8/14/11
f 114/208/4 221/354/4 247/389/4
f 103/191/2 244/385/2 243/383/2
f 116/210/2 209/340/2 231/367/2
f 66/124/8 217/350/8 242/382/8
f 205/336/8 226/360/8 29/46/8
f 235/371/9 225/359/9 21/29/9
f 218/351/4 232/368/4 79/149/4
f 251/393/8 246/387/8 121/222/8
f 83/155/10 218/351/10 249/391/10
f 44/84/8 206/337/8 228/364/8
f 19/27/10 203/332/10 224/358/10
f 127/232/4 252/394/4 246/388/4
f 210/341/6 201/329/6 1/1/6
f 38/72/10 237/374/10 213/344/10
f 239/378/10 54/105/10 49/95/10
f 218/351/10 82/153/10 71/133/10
f 213/345/11 204/333/11 25/34/11
f 92/168/4 208/339/4 230/366/4
f 209/340/10 221/354/10 114/208/10
f 217/350/8 67/125/8 86/160/8
f 207/338/4 217/350/4 66/124/4
f 2/3/11 6/10/11 233/369/11
f 40/80/6 237/375/6 227/362/6
f 214/347/2 204/334/2 27/40/2
f 39/76/4 227/363/4 236/372/4
f 248/390/4 238/377/4 49/96/4
f 90/166/2 219/352/2 245/386/2
f 79/149/8 232/368/8 241/381/8
f 206/337/2 215/348/2 42/82/2
f 143/257/12 142/256/12 137/249/12
f 107/197/4 220/353/4 250/392/4
f 83/155/4 78/147/4 232/368/4
f 250/392/10 243/384/10 97/180/10
f 234/370/11 224/358/11 13/21/11
f 222/355/10 252/394/10 127/232/10
f 59/113/8 216/349/8 248/390/8
f 225/359/2 234/370/2 14/22/2
f 208/339/8 219/352/8 90/166/8
f 117/212/17 128/234/17 127/233/17
f 107/197/8 102/189/8 244/385/8
f 131/239/2 222/355/2 251/393/2
f 42/82/10 215/348/10 240/379/10
f 32/56/1 236/373/1 226/361/1
f 216/349/2 239/378/2 55/107/2
f 12/20/1 211/342/1 202/330/1
f 235/371/8 211/342/8 12/20/8
f 18/26/4 212/343/4 202/331/4
f 223/357/1 201/329/1 3/5/1
f 20/28/6 212/343/6 203/332/6
f 2/3/12 1/2/12 5/9/12
